<svg width="59" height="40" viewBox="0 0 59 40" fill="none" xmlns="http://www.w3.org/2000/svg">
<rect width="59" height="40" rx="5" fill="#DB1F35"/>
<path d="M38.8438 8.75H33.6875V7.8125C33.6875 6.2617 32.4258 5 30.875 5H27.125C25.5742 5 24.3125 6.2617 24.3125 7.8125V8.75H19.1562C17.8639 8.75 16.8125 9.80141 16.8125 11.0938V14.375C16.8125 14.8927 17.2323 15.3125 17.75 15.3125H18.2623L19.0723 32.3213C19.1438 33.8234 20.3778 35 21.8816 35H36.1184C37.6222 35 38.8562 33.8234 38.9277 32.3213L39.7377 15.3125H40.25C40.7677 15.3125 41.1875 14.8927 41.1875 14.375V11.0938C41.1875 9.80141 40.1361 8.75 38.8438 8.75ZM26.1875 7.8125C26.1875 7.29559 26.6081 6.875 27.125 6.875H30.875C31.3919 6.875 31.8125 7.29559 31.8125 7.8125V8.75H26.1875V7.8125ZM18.6875 11.0938C18.6875 10.8353 18.8978 10.625 19.1562 10.625H38.8438C39.1022 10.625 39.3125 10.8353 39.3125 11.0938V13.4375C39.0236 13.4375 19.8847 13.4375 18.6875 13.4375V11.0938ZM37.0548 32.2321C37.031 32.7328 36.6196 33.125 36.1184 33.125H21.8816C21.3803 33.125 20.969 32.7328 20.9452 32.2321L20.1395 15.3125H37.8605L37.0548 32.2321Z" fill="white"/>
<path d="M29 31.25C29.5177 31.25 29.9375 30.8302 29.9375 30.3125V18.125C29.9375 17.6073 29.5177 17.1875 29 17.1875C28.4823 17.1875 28.0625 17.6073 28.0625 18.125V30.3125C28.0625 30.8302 28.4822 31.25 29 31.25Z" fill="white"/>
<path d="M33.6875 31.25C34.2052 31.25 34.625 30.8302 34.625 30.3125V18.125C34.625 17.6073 34.2052 17.1875 33.6875 17.1875C33.1698 17.1875 32.75 17.6073 32.75 18.125V30.3125C32.75 30.8302 33.1697 31.25 33.6875 31.25Z" fill="white"/>
<path d="M24.3125 31.25C24.8302 31.25 25.25 30.8302 25.25 30.3125V18.125C25.25 17.6073 24.8302 17.1875 24.3125 17.1875C23.7948 17.1875 23.375 17.6073 23.375 18.125V30.3125C23.375 30.8302 23.7947 31.25 24.3125 31.25Z" fill="white"/>
</svg>
