<svg width="59" height="40" viewBox="0 0 59 40" fill="none" xmlns="http://www.w3.org/2000/svg">
<rect width="59" height="40" rx="5" fill="#DB1F35"/>
<path d="M44.1266 10.3323C44.1248 10.3323 44.1229 10.332 44.1211 10.332H36.1523V9.45312C36.1523 7.99927 34.9695 6.81641 33.5156 6.81641H26.4844C25.0305 6.81641 23.8477 7.99927 23.8477 9.45312V10.332H15.8789C15.3896 10.332 15 10.733 15 11.2109V30.5469C15 32.0007 16.1829 33.1836 17.6367 33.1836H42.3633C43.8171 33.1836 45 32.0007 45 30.5469V11.2295C45 11.2283 45 11.2272 45 11.226C44.9664 10.6488 44.6114 10.3355 44.1266 10.3323V10.3323ZM25.6055 9.45312C25.6055 8.96858 25.9998 8.57422 26.4844 8.57422H33.5156C34.0002 8.57422 34.3945 8.96858 34.3945 9.45312V10.332H25.6055V9.45312ZM42.9016 12.0898L40.1722 20.2779C40.0525 20.6374 39.7174 20.8789 39.3386 20.8789H34.3945V20C34.3945 19.5145 34.0011 19.1211 33.5156 19.1211H26.4844C25.9989 19.1211 25.6055 19.5145 25.6055 20V20.8789H20.6614C20.2826 20.8789 19.9475 20.6374 19.8278 20.2779L17.0984 12.0898H42.9016ZM32.6367 20.8789V22.6367H27.3633V20.8789H32.6367ZM43.2422 30.5469C43.2422 31.0314 42.8478 31.4258 42.3633 31.4258H17.6367C17.1522 31.4258 16.7578 31.0314 16.7578 30.5469V16.627L18.1602 20.8338C18.5195 21.9123 19.5248 22.6367 20.6614 22.6367H25.6055V23.5156C25.6055 24.0011 25.9989 24.3945 26.4844 24.3945H33.5156C34.0011 24.3945 34.3945 24.0011 34.3945 23.5156V22.6367H39.3386C40.4752 22.6367 41.4805 21.9123 41.8398 20.8338L43.2422 16.627V30.5469Z" fill="white"/>
</svg>
