<svg width="28" height="30" viewBox="0 0 28 30" fill="none" xmlns="http://www.w3.org/2000/svg">
<path d="M21.9435 3.52954H20.1788V5.29425H18.4141V7.05895H20.1788V8.82366H21.9435V7.05895H23.7082V5.29425H21.9435V3.52954Z" fill="white"/>
<path d="M27.2362 6.17647C27.2362 2.77076 24.4654 0 21.0597 0C17.3002 0 14.4124 3.341 14.9466 7.05882H13.1186V5.29412H11.3539V7.05882H9.58915V5.29412H7.82445V7.05882H6.05974V5.29412H4.29504V7.05882H0.765625V30H21.9421V12.2896C24.9313 11.8602 27.2362 9.28264 27.2362 6.17647ZM2.53033 28.2353V8.82353H4.29504V10.5882H6.05974V8.82353H7.82445V10.5882H9.58915V8.82353H11.3539V10.5882H13.1186V8.82353H15.48C16.3521 10.6544 18.0993 11.9911 20.1774 12.2896V28.2353H2.53033ZM21.0597 10.5882C18.6271 10.5882 16.648 8.60911 16.648 6.17647C16.648 3.74382 18.6271 1.7647 21.0597 1.7647C23.4924 1.7647 25.4715 3.74382 25.4715 6.17647C25.4715 8.60911 23.4924 10.5882 21.0597 10.5882Z" fill="white"/>
<path d="M4.29688 13.2354H16.6498V15.0001H4.29688V13.2354Z" fill="white"/>
<path d="M4.29688 16.7646H12.238V18.5294H4.29688V16.7646Z" fill="white"/>
<path d="M14 16.7646H18.4118V18.5294H14V16.7646Z" fill="white"/>
<path d="M4.29688 20.2942H7.82629V22.0589H4.29688V20.2942Z" fill="white"/>
<path d="M9.58984 20.2942H13.1192V22.0589H9.58984V20.2942Z" fill="white"/>
<path d="M14.8828 20.2942H18.4122V22.0589H14.8828V20.2942Z" fill="white"/>
<path d="M4.29688 23.8235H7.82629V25.5882H4.29688V23.8235Z" fill="white"/>
<path d="M9.58984 23.8235H13.1192V25.5882H9.58984V23.8235Z" fill="white"/>
<path d="M14.8828 23.8235H18.4122V25.5882H14.8828V23.8235Z" fill="white"/>
</svg>
