<svg width="28" height="30" viewBox="0 0 28 30" fill="none" xmlns="http://www.w3.org/2000/svg">
<path d="M21.941 3.52942H20.1763V5.29412H18.4116V7.05883H20.1763V8.82354H21.941V7.05883H23.7057V5.29412H21.941V3.52942Z" fill="white"/>
<path d="M27.2352 6.17647C27.2352 2.77076 24.4645 0 21.0588 0C17.2992 0 14.4114 3.341 14.9456 7.05882H13.1176V5.29412H11.3529V7.05882H9.58817V5.29412H7.82347V7.05882H6.05876V5.29412H4.29406V7.05882H0.764648V30H21.9411V12.2896C24.9303 11.8602 27.2352 9.28264 27.2352 6.17647ZM2.52935 28.2353V8.82353H4.29406V10.5882H6.05876V8.82353H7.82347V10.5882H9.58817V8.82353H11.3529V10.5882H13.1176V8.82353H15.4791C16.3512 10.6544 18.0983 11.9911 20.1764 12.2896V28.2353H2.52935ZM21.0588 10.5882C18.6261 10.5882 16.647 8.60911 16.647 6.17647C16.647 3.74382 18.6261 1.7647 21.0588 1.7647C23.4914 1.7647 25.4705 3.74382 25.4705 6.17647C25.4705 8.60911 23.4914 10.5882 21.0588 10.5882Z" fill="white"/>
<path d="M4.29395 13.2353H16.6469V15H4.29395V13.2353Z" fill="white"/>
<path d="M4.29395 16.7647H12.2351V18.5294H4.29395V16.7647Z" fill="white"/>
<path d="M14 16.7647H18.4118V18.5294H14V16.7647Z" fill="white"/>
<path d="M4.29395 20.2941H7.82336V22.0588H4.29395V20.2941Z" fill="white"/>
<path d="M9.58813 20.2941H13.1175V22.0588H9.58813V20.2941Z" fill="white"/>
<path d="M14.8823 20.2941H18.4117V22.0588H14.8823V20.2941Z" fill="white"/>
<path d="M4.29395 23.8235H7.82336V25.5883H4.29395V23.8235Z" fill="white"/>
<path d="M9.58813 23.8235H13.1175V25.5883H9.58813V23.8235Z" fill="white"/>
<path d="M14.8823 23.8235H18.4117V25.5883H14.8823V23.8235Z" fill="white"/>
</svg>
