<svg width="59" height="40" viewBox="0 0 59 40" fill="none" xmlns="http://www.w3.org/2000/svg">
<rect width="59" height="40" rx="5" fill="#DB1F35"/>
<path d="M44.1211 22.6367H34.2462C32.0279 20.4651 29.467 20.9427 29.0625 20.8789V19.7746C30.2582 18.942 31.0895 17.7362 31.4668 16.4042C32.6091 16.1152 33.457 15.0785 33.457 13.8477C33.457 12.7019 32.7222 11.7249 31.6992 11.3621V11.1523C31.6992 7.75994 28.9393 5 25.5469 5C22.1545 5 19.3945 7.75994 19.3945 11.1523V11.3621C18.3715 11.7249 17.6367 12.7019 17.6367 13.8477C17.6367 15.0782 18.484 16.1145 19.6259 16.4039C20.0209 17.8099 20.8978 18.9848 22.0312 19.7775V20.8789H21.1523C17.7599 20.8789 15 23.6388 15 27.0312V34.1211C15 34.6065 15.3935 35 15.8789 35C16.3643 35 16.7578 34.6065 16.7578 34.1211V27.0312C16.7578 24.6081 18.7292 22.6367 21.1523 22.6367H22.1425C22.5338 24.1513 23.9118 25.2734 25.5469 25.2734C27.182 25.2734 28.56 24.1513 28.9512 22.6367C29.6919 22.6644 30.3174 22.545 31.2552 22.8393C31.0611 23.0005 30.9374 23.2436 30.9374 23.5156V34.1211C30.9374 34.6065 31.331 35 31.8163 35H44.121C44.6064 35 44.9999 34.6065 44.9999 34.1211V23.5156C45 23.0302 44.6065 22.6367 44.1211 22.6367ZM25.5469 6.75781C27.4945 6.75781 29.1492 8.03176 29.7241 9.78975C27.0468 9.32012 23.7198 11.4835 21.1523 11.3378V11.1523C21.1523 8.7292 23.1237 6.75781 25.5469 6.75781ZM20.3038 14.7259C19.8187 14.7482 19.3945 14.3502 19.3945 13.8477C19.3945 13.3919 19.7433 13.0162 20.1881 12.9731C23.6217 13.757 27.7857 10.6643 29.9414 11.6923V12.0898C29.9414 12.5752 30.3349 12.9688 30.8203 12.9688C31.3049 12.9688 31.6992 13.363 31.6992 13.8477C31.6992 14.3513 31.2737 14.7481 30.7899 14.7259C30.345 14.7037 29.9536 15.0192 29.8802 15.4589C29.5258 17.581 27.7034 19.1211 25.5469 19.1211C23.34 19.1211 21.5549 17.5098 21.2137 15.4594C21.1404 15.0195 20.7483 14.704 20.3038 14.7259ZM25.5469 23.5156C24.5776 23.5156 23.7891 22.7271 23.7891 21.7578V20.6253C24.9165 20.9594 26.1373 20.9689 27.3047 20.6209V21.7578C27.3047 22.7271 26.5161 23.5156 25.5469 23.5156ZM37.0898 24.3945H38.8477V26.1523H37.0898V24.3945ZM43.2422 33.2422H32.6953V24.3945H35.332V27.0312C35.332 27.5166 35.7255 27.9102 36.2109 27.9102H39.7266C40.212 27.9102 40.6055 27.5166 40.6055 27.0312V24.3945H43.2422V33.2422Z" fill="white"/>
<path d="M19.3945 27.9102C18.9091 27.9102 18.5156 28.3037 18.5156 28.7891V34.1211C18.5156 34.6065 18.9091 35 19.3945 35C19.8799 35 20.2734 34.6065 20.2734 34.1211V28.7891C20.2734 28.3037 19.8799 27.9102 19.3945 27.9102Z" fill="white"/>
<path d="M28.1836 27.9102H22.9102C22.4248 27.9102 22.0312 28.3037 22.0312 28.7891C22.0312 29.2745 22.4248 29.668 22.9102 29.668H28.1836C28.669 29.668 29.0625 29.2745 29.0625 28.7891C29.0625 28.3037 28.669 27.9102 28.1836 27.9102Z" fill="white"/>
<path d="M28.1836 31.4258H22.9102C22.4248 31.4258 22.0312 31.8193 22.0312 32.3047C22.0312 32.7901 22.4248 33.1836 22.9102 33.1836H28.1836C28.669 33.1836 29.0625 32.7901 29.0625 32.3047C29.0625 31.8193 28.669 31.4258 28.1836 31.4258Z" fill="white"/>
</svg>
