<svg width="30" height="30" viewBox="0 0 30 30" fill="none" xmlns="http://www.w3.org/2000/svg">
<path d="M22.9629 17.9326H21.2051V21.1612H17.9766V22.919H21.2051V26.1476H22.9629V22.919H26.1915V21.1612H22.9629V17.9326Z" fill="white"/>
<path d="M24.7046 14.5744V0H0V24.7046H14.5744C15.666 27.7864 18.6094 30 22.0605 30C26.4384 30 30 26.4384 30 22.0605C30 18.6094 27.7864 15.666 24.7046 14.5744ZM15.8789 1.75781H22.9468V3.53033H15.8789V1.75781ZM10.5835 1.75781H14.1211V7.76121L12.3523 6.97834L10.5834 7.76121V1.75781H10.5835ZM1.75781 1.75781H8.82568V3.53033H1.75781V1.75781ZM14.1708 22.9468H1.75781V5.28814H8.82568V10.4616L12.3523 8.90068L15.8789 10.4616V5.28814H22.9468V14.1708C22.6557 14.1383 22.3601 14.1211 22.0605 14.1211C17.6827 14.1211 14.1211 17.6827 14.1211 22.0605C14.1211 22.3601 14.1383 22.6557 14.1708 22.9468ZM22.0605 28.2422C18.652 28.2422 15.8789 25.4691 15.8789 22.0605C15.8789 18.652 18.652 15.8789 22.0605 15.8789C25.4691 15.8789 28.2422 18.652 28.2422 22.0605C28.2422 25.4691 25.4691 28.2422 22.0605 28.2422Z" fill="white"/>
</svg>
