<svg width="30" height="30" viewBox="0 0 30 30" fill="none" xmlns="http://www.w3.org/2000/svg">
<g clip-path="url(#clip0_495_166890)">
<path d="M13.125 0H4.37502C1.96248 0 0 1.96248 0 4.37502V25.625C0 28.0375 1.96248 30 4.37502 30H5.625C5.97 30 6.25002 29.72 6.25002 29.375C6.25002 29.03 5.97 28.75 5.625 28.75H4.37502C2.65254 28.75 1.25004 27.3475 1.25004 25.625V4.37502C1.25004 2.65254 2.65254 1.25004 4.37502 1.25004H13.125C14.8475 1.25004 16.25 2.65254 16.25 4.37502V10.625C16.25 10.97 16.53 11.2501 16.875 11.2501C17.22 11.2501 17.5 10.97 17.5 10.625V4.37502C17.5 1.96248 15.5375 0 13.125 0Z" fill="white"/>
<path d="M16.875 5H0.62502C0.28002 5 0 5.28002 0 5.62502C0 5.97002 0.28002 6.25004 0.62502 6.25004H16.875C17.22 6.25004 17.5 5.97002 17.5 5.62502C17.5 5.28002 17.22 5 16.875 5Z" fill="white"/>
<path d="M11.25 22.5H0.62502C0.28002 22.5 0 22.78 0 23.125C0 23.47 0.28002 23.75 0.62502 23.75H11.25C11.595 23.75 11.875 23.47 11.875 23.125C11.875 22.78 11.595 22.5 11.25 22.5Z" fill="white"/>
<path d="M10.625 2.5H6.87502C6.53002 2.5 6.25 2.78002 6.25 3.12502C6.25 3.47002 6.53002 3.74998 6.87502 3.74998H10.625C10.97 3.74998 11.25 3.46996 11.25 3.12496C11.25 2.77996 10.97 2.5 10.625 2.5Z" fill="white"/>
<path d="M13.1469 2.5H13.1344C12.7894 2.5 12.5156 2.78002 12.5156 3.12502C12.5156 3.47002 12.8019 3.74998 13.1469 3.74998C13.4919 3.74998 13.7719 3.46996 13.7719 3.12496C13.7719 2.77996 13.4919 2.5 13.1469 2.5Z" fill="white"/>
<path d="M28.2153 16.5436L23.5153 11.3787C22.5853 10.4487 21.0703 10.4474 20.1316 11.3862C19.8341 11.6836 19.6316 12.0399 19.5266 12.4199C18.5916 11.7049 17.2428 11.7749 16.3816 12.6362C16.0853 12.9337 15.8828 13.2899 15.7753 13.6687C14.8403 12.9537 13.4915 13.0237 12.6315 13.8862C12.3403 14.1775 12.1403 14.5262 12.0315 14.8949L9.81653 12.6799C8.88653 11.7499 7.37153 11.7487 6.4328 12.6874C5.50157 13.6174 5.50157 15.1324 6.4328 16.0636L14.9428 24.5736L9.89528 25.3661C8.53151 25.5611 7.50278 26.7461 7.50278 28.1249C7.50278 29.1586 8.34401 29.9999 9.37778 29.9999H21.164C23.0003 29.9999 24.7265 29.2849 26.0253 27.9861L27.9915 26.0199C29.2891 24.7236 30.0028 22.9986 30.0028 21.1649C30.0028 19.4524 29.3678 17.8111 28.2153 16.5436ZM27.1078 25.1361L25.1416 27.1024C24.0791 28.1648 22.6666 28.7498 21.164 28.7498H9.37778C9.03278 28.7498 8.75276 28.4698 8.75276 28.1248C8.75276 27.3648 9.32024 26.7111 10.0803 26.6011L16.349 25.6161C16.5815 25.5798 16.7728 25.4161 16.8466 25.1923C16.919 24.9698 16.8603 24.7236 16.694 24.5573L7.31528 15.1786C6.87155 14.7349 6.87155 14.0136 7.32278 13.5624C7.54526 13.3411 7.83653 13.2299 8.1278 13.2299C8.41907 13.2299 8.71028 13.3411 8.93282 13.5636L15.1866 19.8174C15.4303 20.0611 15.8266 20.0611 16.0704 19.8174C16.1916 19.6949 16.2529 19.5349 16.2529 19.3749C16.2529 19.2149 16.1916 19.0549 16.0704 18.9336L13.5166 16.3799C13.0729 15.9361 13.0729 15.2149 13.5241 14.7636C13.9666 14.3211 14.6904 14.3211 15.1329 14.7636L17.6866 17.3174C17.9304 17.5611 18.3266 17.5611 18.5704 17.3174C18.6916 17.1949 18.7529 17.0349 18.7529 16.8749C18.7529 16.7149 18.6917 16.5549 18.5754 16.4386L17.2716 15.1349C16.8279 14.6911 16.8279 13.9699 17.2791 13.5186C17.7216 13.0761 18.4454 13.0761 18.8879 13.5186L20.1917 14.8224C20.1929 14.8236 20.1929 14.8236 20.1929 14.8236L20.1941 14.8249C20.1954 14.8261 20.1954 14.8261 20.1954 14.8261C20.1966 14.8273 20.1966 14.8273 20.1966 14.8273H20.1978C20.1991 14.8273 20.1991 14.8285 20.1991 14.8285C20.444 15.0598 20.8303 15.0561 21.0703 14.8161C21.314 14.5723 21.314 14.176 21.0703 13.9323L21.0166 13.8786C20.8016 13.6636 20.6828 13.3773 20.6828 13.0735C20.6828 12.7698 20.8003 12.4848 21.0228 12.2623C21.4666 11.8198 22.1878 11.821 22.6116 12.241L27.2916 17.3848C28.2328 18.421 28.7529 19.7635 28.7529 21.1648C28.7528 22.6649 28.169 24.0749 27.1078 25.1361Z" fill="white"/>
</g>
<defs>
<clipPath id="clip0_495_166890">
<rect width="30" height="30" fill="white"/>
</clipPath>
</defs>
</svg>
