<svg width="35" height="31" viewBox="0 0 35 31" fill="none" xmlns="http://www.w3.org/2000/svg">
    <path d="M24.627 3.2168H8.70117C7.39267 3.2168 6.32812 4.28135 6.32812 5.58984C6.32812 6.89834 7.39267 7.96289 8.70117 7.96289H24.627C25.9355 7.96289 27 6.89834 27 5.58984C27 4.28135 25.9355 3.2168 24.627 3.2168ZM24.627 6.38086H8.70117C8.26501 6.38086 7.91016 6.02601 7.91016 5.58984C7.91016 5.15368 8.26501 4.79883 8.70117 4.79883H24.627C25.0631 4.79883 25.418 5.15368 25.418 5.58984C25.418 6.02601 25.0631 6.38086 24.627 6.38086Z" fill="white"/>
    <path d="M24.627 11.127H8.70117C7.39267 11.127 6.32812 12.1915 6.32812 13.5C6.32812 14.8085 7.39267 15.873 8.70117 15.873H24.627C25.9355 15.873 27 14.8085 27 13.5C27 12.1915 25.9355 11.127 24.627 11.127ZM24.627 14.291H8.70117C8.26501 14.291 7.91016 13.9362 7.91016 13.5C7.91016 13.0638 8.26501 12.709 8.70117 12.709H24.627C25.0631 12.709 25.418 13.0638 25.418 13.5C25.418 13.9362 25.0631 14.291 24.627 14.291Z" fill="white"/>
    <path d="M24.627 19.0371H8.70117C7.39267 19.0371 6.32812 20.1017 6.32812 21.4102C6.32812 22.7187 7.39267 23.7832 8.70117 23.7832H24.627C25.9355 23.7832 27 22.7187 27 21.4102C27 20.1017 25.9355 19.0371 24.627 19.0371ZM24.627 22.2012H8.70117C8.26501 22.2012 7.91016 21.8463 7.91016 21.4102C7.91016 20.974 8.26501 20.6191 8.70117 20.6191H24.627C25.0631 20.6191 25.418 20.974 25.418 21.4102C25.418 21.8463 25.0631 22.2012 24.627 22.2012Z" fill="white"/>
    <path d="M2.37305 3.2168C1.06455 3.2168 0 4.28135 0 5.58984C0 6.89834 1.06455 7.96289 2.37305 7.96289C3.68154 7.96289 4.74609 6.89834 4.74609 5.58984C4.74609 4.28135 3.68154 3.2168 2.37305 3.2168ZM2.37305 6.38086C1.93688 6.38086 1.58203 6.02601 1.58203 5.58984C1.58203 5.15368 1.93688 4.79883 2.37305 4.79883C2.80921 4.79883 3.16406 5.15368 3.16406 5.58984C3.16406 6.02601 2.80921 6.38086 2.37305 6.38086Z" fill="white"/>
    <path d="M2.37305 11.127C1.06455 11.127 0 12.1915 0 13.5C0 14.8085 1.06455 15.873 2.37305 15.873C3.68154 15.873 4.74609 14.8085 4.74609 13.5C4.74609 12.1915 3.68154 11.127 2.37305 11.127ZM2.37305 14.291C1.93688 14.291 1.58203 13.9362 1.58203 13.5C1.58203 13.0638 1.93688 12.709 2.37305 12.709C2.80921 12.709 3.16406 13.0638 3.16406 13.5C3.16406 13.9362 2.80921 14.291 2.37305 14.291Z" fill="white"/>
    <path d="M2.37305 19.0371C1.06455 19.0371 0 20.1017 0 21.4102C0 22.7187 1.06455 23.7832 2.37305 23.7832C3.68154 23.7832 4.74609 22.7187 4.74609 21.4102C4.74609 20.1017 3.68154 19.0371 2.37305 19.0371ZM2.37305 22.2012C1.93688 22.2012 1.58203 21.8463 1.58203 21.4102C1.58203 20.974 1.93688 20.6191 2.37305 20.6191C2.80921 20.6191 3.16406 20.974 3.16406 21.4102C3.16406 21.8463 2.80921 22.2012 2.37305 22.2012Z" fill="white"/>
    <path d="M34.7963 27.798H31.6643V30.858H29.3423V27.798H26.2283V25.602H29.3423V22.542H31.6643V25.602H34.7963V27.798Z" fill="white"/>
</svg>
