<svg width="24" height="24" viewBox="0 0 24 24" fill="none" xmlns="http://www.w3.org/2000/svg">
<path d="M3.614 6.25599L11.614 9.58899C11.7358 9.64048 11.8667 9.66701 11.999 9.66701C12.1313 9.66701 12.2622 9.64048 12.384 9.58899L20.384 6.25599C20.5659 6.17989 20.7212 6.05171 20.8305 5.88757C20.9397 5.72343 20.998 5.53066 20.998 5.33349C20.998 5.13632 20.9397 4.94355 20.8305 4.77942C20.7212 4.61528 20.5659 4.4871 20.384 4.41099L12.384 1.07699C12.1375 0.974987 11.8605 0.974987 11.614 1.07699L3.614 4.41099C3.43211 4.4871 3.27678 4.61528 3.16753 4.77942C3.05829 4.94355 3 5.13632 3 5.33349C3 5.53066 3.05829 5.72343 3.16753 5.88757C3.27678 6.05171 3.43211 6.17989 3.614 6.25599ZM11.999 3.08299L17.399 5.33299L11.999 7.58299L6.599 5.33299L11.999 3.08299Z" fill="black"/>
<path d="M20.9231 9.39293C20.8725 9.27172 20.7986 9.16164 20.7055 9.069C20.6124 8.97636 20.502 8.90297 20.3805 8.85301C20.259 8.80305 20.1289 8.7775 19.9976 8.77784C19.8663 8.77817 19.7363 8.80436 19.6151 8.85493L12.0001 12.0279L4.38508 8.85493C4.14028 8.75282 3.86495 8.75214 3.61965 8.85304C3.37436 8.95393 3.17919 9.14814 3.07708 9.39293C2.97497 9.63773 2.97429 9.91306 3.07518 10.1584C3.17608 10.4037 3.37028 10.5988 3.61508 10.7009L11.6151 14.0339C11.7371 14.0848 11.8679 14.111 12.0001 14.111C12.1322 14.111 12.2631 14.0848 12.3851 14.0339L20.3851 10.7009C20.5063 10.6504 20.6164 10.5764 20.709 10.4834C20.8016 10.3903 20.875 10.2798 20.925 10.1584C20.975 10.0369 21.0005 9.90679 21.0002 9.77546C20.9998 9.64412 20.9736 9.51414 20.9231 9.39293Z" fill="black"/>
<path d="M19.6151 13.3L12.0001 16.472L4.38508 13.3C4.14028 13.1979 3.86495 13.1972 3.61965 13.2981C3.37436 13.399 3.17919 13.5932 3.07708 13.838C2.97497 14.0828 2.97429 14.3581 3.07518 14.6034C3.17608 14.8487 3.37028 15.0439 3.61508 15.146L11.6151 18.48C11.7371 18.5309 11.8679 18.5571 12.0001 18.5571C12.1322 18.5571 12.2631 18.5309 12.3851 18.48L20.3851 15.146C20.6299 15.0439 20.8241 14.8487 20.925 14.6034C21.0259 14.3581 21.0252 14.0828 20.9231 13.838C20.821 13.5932 20.6258 13.399 20.3805 13.2981C20.1352 13.1972 19.8599 13.1979 19.6151 13.3Z" fill="black"/>
<path d="M3.61715 19.5889L11.6171 22.9229C11.7391 22.9738 11.87 23 12.0021 23C12.1343 23 12.2652 22.9738 12.3871 22.9229L20.3871 19.5889C20.5119 19.5409 20.6257 19.4683 20.7219 19.3756C20.8181 19.2828 20.8947 19.1717 20.9473 19.0488C20.9998 18.9259 21.0272 18.7937 21.0277 18.66C21.0283 18.5264 21.0021 18.394 20.9506 18.2706C20.8991 18.1473 20.8234 18.0355 20.728 17.9419C20.6326 17.8483 20.5194 17.7748 20.3951 17.7257C20.2708 17.6766 20.1379 17.6529 20.0043 17.656C19.8707 17.6592 19.739 17.6891 19.6171 17.7439L12.0021 20.9169L4.38715 17.7439C4.26528 17.6891 4.13365 17.6592 4.00003 17.656C3.86641 17.6529 3.73352 17.6766 3.60921 17.7257C3.4849 17.7748 3.37169 17.8483 3.27628 17.9419C3.18087 18.0355 3.10518 18.1473 3.05371 18.2706C3.00223 18.394 2.976 18.5264 2.97657 18.66C2.97714 18.7937 3.0045 18.9259 3.05703 19.0488C3.10955 19.1717 3.18618 19.2828 3.28239 19.3756C3.3786 19.4683 3.49243 19.5409 3.61715 19.5889Z" fill="black"/>
</svg>
