<svg width="30" height="30" viewBox="0 0 30 30" fill="none" xmlns="http://www.w3.org/2000/svg">
<path d="M29.1211 17.6367H19.2462C17.0279 15.4651 14.467 15.9427 14.0625 15.8789V14.7746C15.2582 13.942 16.0895 12.7362 16.4668 11.4042C17.6091 11.1152 18.457 10.0785 18.457 8.84766C18.457 7.70186 17.7222 6.72492 16.6992 6.36211V6.15234C16.6992 2.75994 13.9393 0 10.5469 0C7.15447 0 4.39453 2.75994 4.39453 6.15234V6.36211C3.37154 6.72492 2.63672 7.70186 2.63672 8.84766C2.63672 10.0782 3.48404 11.1145 4.62586 11.4039C5.0209 12.8099 5.89775 13.9848 7.03125 14.7775V15.8789H6.15234C2.75994 15.8789 0 18.6388 0 22.0312V29.1211C0 29.6065 0.393516 30 0.878906 30C1.3643 30 1.75781 29.6065 1.75781 29.1211V22.0312C1.75781 19.6081 3.7292 17.6367 6.15234 17.6367H7.14252C7.53375 19.1513 8.91176 20.2734 10.5469 20.2734C12.182 20.2734 13.56 19.1513 13.9512 17.6367C14.6919 17.6644 15.3174 17.545 16.2552 17.8393C16.0611 18.0005 15.9374 18.2436 15.9374 18.5156V29.1211C15.9374 29.6065 16.331 30 16.8163 30H29.121C29.6064 30 29.9999 29.6065 29.9999 29.1211V18.5156C30 18.0302 29.6065 17.6367 29.1211 17.6367ZM10.5469 1.75781C12.4945 1.75781 14.1492 3.03176 14.7241 4.78975C12.0468 4.32012 8.7198 6.48346 6.15234 6.33779V6.15234C6.15234 3.7292 8.12373 1.75781 10.5469 1.75781ZM5.30385 9.72586C4.81875 9.74818 4.39453 9.35016 4.39453 8.84766C4.39453 8.39186 4.74334 8.01615 5.18807 7.97309C8.62166 8.75701 12.7857 5.66426 14.9414 6.69228V7.08984C14.9414 7.57523 15.3349 7.96875 15.8203 7.96875C16.3049 7.96875 16.6992 8.36303 16.6992 8.84766C16.6992 9.35133 16.2737 9.74813 15.7899 9.72586C15.345 9.70365 14.9536 10.0192 14.8802 10.4589C14.5258 12.581 12.7034 14.1211 10.5469 14.1211C8.34 14.1211 6.55488 12.5098 6.21369 10.4594C6.14039 10.0195 5.74828 9.704 5.30385 9.72586V9.72586ZM10.5469 18.5156C9.57762 18.5156 8.78906 17.7271 8.78906 16.7578V15.6253C9.91646 15.9594 11.1373 15.9689 12.3047 15.6209V16.7578C12.3047 17.7271 11.5161 18.5156 10.5469 18.5156ZM22.0898 19.3945H23.8477V21.1523H22.0898V19.3945ZM28.2422 28.2422H17.6953V19.3945H20.332V22.0312C20.332 22.5166 20.7255 22.9102 21.2109 22.9102H24.7266C25.212 22.9102 25.6055 22.5166 25.6055 22.0312V19.3945H28.2422V28.2422Z" fill="white"/>
<path d="M4.39453 22.9102C3.90914 22.9102 3.51562 23.3037 3.51562 23.7891V29.1211C3.51562 29.6065 3.90914 30 4.39453 30C4.87992 30 5.27344 29.6065 5.27344 29.1211V23.7891C5.27344 23.3037 4.87992 22.9102 4.39453 22.9102Z" fill="white"/>
<path d="M13.1836 22.9102H7.91016C7.42477 22.9102 7.03125 23.3037 7.03125 23.7891C7.03125 24.2745 7.42477 24.668 7.91016 24.668H13.1836C13.669 24.668 14.0625 24.2745 14.0625 23.7891C14.0625 23.3037 13.669 22.9102 13.1836 22.9102Z" fill="white"/>
<path d="M13.1836 26.4258H7.91016C7.42477 26.4258 7.03125 26.8193 7.03125 27.3047C7.03125 27.7901 7.42477 28.1836 7.91016 28.1836H13.1836C13.669 28.1836 14.0625 27.7901 14.0625 27.3047C14.0625 26.8193 13.669 26.4258 13.1836 26.4258Z" fill="white"/>
</svg>
