<svg width="30" height="28" viewBox="0 0 30 28" fill="none" xmlns="http://www.w3.org/2000/svg">
<path d="M29.1266 4.33226C29.1248 4.33226 29.1229 4.33203 29.1211 4.33203H21.1523V3.45312C21.1523 1.99927 19.9695 0.816406 18.5156 0.816406H11.4844C10.0305 0.816406 8.84766 1.99927 8.84766 3.45312V4.33203H0.878906C0.389557 4.33203 0 4.73303 0 5.21094V24.5469C0 26.0007 1.18286 27.1836 2.63672 27.1836H27.3633C28.8171 27.1836 30 26.0007 30 24.5469V5.22948C30 5.22833 30 5.22719 30 5.22604C29.9664 4.6488 29.6114 4.33546 29.1266 4.33226ZM10.6055 3.45312C10.6055 2.96858 10.9998 2.57422 11.4844 2.57422H18.5156C19.0002 2.57422 19.3945 2.96858 19.3945 3.45312V4.33203H10.6055V3.45312ZM27.9016 6.08984L25.1722 14.2779C25.0525 14.6374 24.7174 14.8789 24.3386 14.8789H19.3945V14C19.3945 13.5145 19.0011 13.1211 18.5156 13.1211H11.4844C10.9989 13.1211 10.6055 13.5145 10.6055 14V14.8789H5.66139C5.28259 14.8789 4.94751 14.6374 4.8278 14.2779L2.09839 6.08984H27.9016ZM17.6367 14.8789V16.6367H12.3633V14.8789H17.6367ZM28.2422 24.5469C28.2422 25.0314 27.8478 25.4258 27.3633 25.4258H2.63672C2.15218 25.4258 1.75781 25.0314 1.75781 24.5469V10.627L3.16017 14.8338C3.51952 15.9123 4.52477 16.6367 5.66139 16.6367H10.6055V17.5156C10.6055 18.0011 10.9989 18.3945 11.4844 18.3945H18.5156C19.0011 18.3945 19.3945 18.0011 19.3945 17.5156V16.6367H24.3386C25.4752 16.6367 26.4805 15.9123 26.8398 14.8338L28.2422 10.627V24.5469Z" fill="white"/>
</svg>
