<svg width="27" height="28" viewBox="0 0 27 28" fill="none" xmlns="http://www.w3.org/2000/svg">
<path d="M26.1875 19.625C26.1875 19.8736 26.0887 20.1121 25.9129 20.2879C25.7371 20.4637 25.4986 20.5625 25.25 20.5625H16.8125C16.5639 20.5625 16.3254 20.4637 16.1496 20.2879C15.9738 20.1121 15.875 19.8736 15.875 19.625C15.875 19.3764 15.9738 19.1379 16.1496 18.9621C16.3254 18.7863 16.5639 18.6875 16.8125 18.6875H25.25C25.4986 18.6875 25.7371 18.7863 25.9129 18.9621C26.0887 19.1379 26.1875 19.3764 26.1875 19.625ZM26.1219 4.68124C25.8577 4.36961 25.5288 4.11928 25.158 3.94766C24.7872 3.77604 24.3836 3.68726 23.975 3.68749H22.4375C22.1889 3.68749 21.9504 3.78626 21.7746 3.96208C21.5988 4.13789 21.5 4.37635 21.5 4.62499C21.5 4.87363 21.5988 5.11209 21.7746 5.2879C21.9504 5.46372 22.1889 5.56249 22.4375 5.56249H23.975C24.1104 5.56248 24.2442 5.59181 24.3672 5.64845C24.4902 5.70509 24.5995 5.78771 24.6875 5.89061C24.7778 5.99498 24.844 6.118 24.8812 6.25089C24.9185 6.38378 24.926 6.52325 24.9031 6.65936L23.6469 14.1594C23.6089 14.3795 23.4936 14.5788 23.3218 14.7215C23.1499 14.8641 22.9327 14.9407 22.7094 14.9375H10.25L8.24375 5.56249H19.8125C20.0611 5.56249 20.2996 5.46372 20.4754 5.2879C20.6512 5.11209 20.75 4.87363 20.75 4.62499C20.75 4.37635 20.6512 4.13789 20.4754 3.96208C20.2996 3.78626 20.0611 3.68749 19.8125 3.68749H7.85L7.4375 1.61561C7.39176 1.4024 7.27312 1.2118 7.10201 1.07662C6.9309 0.941438 6.71801 0.870137 6.5 0.874988H1.8125C1.56386 0.874988 1.3254 0.97376 1.14959 1.14958C0.973772 1.32539 0.875 1.56385 0.875 1.81249C0.875 2.06113 0.973772 2.29959 1.14959 2.4754C1.3254 2.65122 1.56386 2.74999 1.8125 2.74999H5.74063L9.02188 18.3312C9.155 18.9615 9.50042 19.5269 10.0004 19.933C10.5004 20.3392 11.1246 20.5614 11.7688 20.5625H14C14.2486 20.5625 14.4871 20.4637 14.6629 20.2879C14.8387 20.1121 14.9375 19.8736 14.9375 19.625C14.9375 19.3764 14.8387 19.1379 14.6629 18.9621C14.4871 18.7863 14.2486 18.6875 14 18.6875H11.7688C11.5507 18.6923 11.3379 18.621 11.1667 18.4859C10.9956 18.3507 10.877 18.1601 10.8313 17.9469L10.6156 16.8125H22.7281C23.4009 16.8215 24.0546 16.5891 24.5706 16.1573C25.0866 15.7256 25.4308 15.1232 25.5406 14.4594L26.7969 6.95936C26.8574 6.55339 26.8284 6.13908 26.7118 5.74552C26.5952 5.35197 26.3938 4.9887 26.1219 4.68124V4.68124ZM25.25 24.3125C25.25 24.8688 25.0851 25.4125 24.776 25.875C24.467 26.3375 24.0277 26.698 23.5138 26.9109C22.9999 27.1238 22.4344 27.1795 21.8888 27.071C21.3432 26.9624 20.8421 26.6946 20.4488 26.3012C20.0554 25.9079 19.7876 25.4068 19.679 24.8612C19.5705 24.3156 19.6262 23.7501 19.8391 23.2362C20.052 22.7223 20.4124 22.283 20.875 21.974C21.3375 21.6649 21.8812 21.5 22.4375 21.5C23.1834 21.5 23.8988 21.7963 24.4262 22.3238C24.9537 22.8512 25.25 23.5666 25.25 24.3125V24.3125ZM23.375 24.3125C23.375 24.1271 23.32 23.9458 23.217 23.7916C23.114 23.6375 22.9676 23.5173 22.7963 23.4464C22.625 23.3754 22.4365 23.3568 22.2546 23.393C22.0727 23.4292 21.9057 23.5185 21.7746 23.6496C21.6435 23.7807 21.5542 23.9477 21.518 24.1296C21.4818 24.3115 21.5004 24.5 21.5714 24.6713C21.6423 24.8426 21.7625 24.989 21.9167 25.092C22.0708 25.195 22.2521 25.25 22.4375 25.25C22.6861 25.25 22.9246 25.1512 23.1004 24.9754C23.2762 24.7996 23.375 24.5611 23.375 24.3125ZM15.875 24.3125C15.875 24.8688 15.7101 25.4125 15.401 25.875C15.092 26.3375 14.6527 26.698 14.1388 26.9109C13.6249 27.1238 13.0594 27.1795 12.5138 27.071C11.9682 26.9624 11.4671 26.6946 11.0738 26.3012C10.6804 25.9079 10.4126 25.4068 10.304 24.8612C10.1955 24.3156 10.2512 23.7501 10.4641 23.2362C10.677 22.7223 11.0374 22.283 11.5 21.974C11.9625 21.6649 12.5062 21.5 13.0625 21.5C13.8084 21.5 14.5238 21.7963 15.0512 22.3238C15.5787 22.8512 15.875 23.5666 15.875 24.3125ZM14 24.3125C14 24.1271 13.945 23.9458 13.842 23.7916C13.739 23.6375 13.5926 23.5173 13.4213 23.4464C13.25 23.3754 13.0615 23.3568 12.8796 23.393C12.6977 23.4292 12.5307 23.5185 12.3996 23.6496C12.2685 23.7807 12.1792 23.9477 12.143 24.1296C12.1068 24.3115 12.1254 24.5 12.1964 24.6713C12.2673 24.8426 12.3875 24.989 12.5417 25.092C12.6958 25.195 12.8771 25.25 13.0625 25.25C13.3111 25.25 13.5496 25.1512 13.7254 24.9754C13.9012 24.7996 14 24.5611 14 24.3125ZM16.8125 6.49999C16.5639 6.49999 16.3254 6.59876 16.1496 6.77458C15.9738 6.95039 15.875 7.18885 15.875 7.43749V10.8031L15.6031 10.5219C15.4266 10.3453 15.1872 10.2462 14.9375 10.2462C14.6878 10.2462 14.4484 10.3453 14.2719 10.5219C14.0953 10.6984 13.9962 10.9378 13.9962 11.1875C13.9962 11.4371 14.0953 11.6766 14.2719 11.8531L16.1469 13.7281C16.236 13.8135 16.3412 13.8804 16.4563 13.925C16.5685 13.9746 16.6898 14.0002 16.8125 14.0002C16.9352 14.0002 17.0565 13.9746 17.1688 13.925C17.2838 13.8804 17.389 13.8135 17.4781 13.7281L19.3531 11.8531C19.4405 11.7657 19.5099 11.6619 19.5572 11.5477C19.6045 11.4335 19.6288 11.3111 19.6288 11.1875C19.6288 11.0639 19.6045 10.9415 19.5572 10.8273C19.5099 10.713 19.4405 10.6093 19.3531 10.5219C19.2657 10.4345 19.1619 10.3651 19.0477 10.3178C18.9335 10.2705 18.8111 10.2462 18.6875 10.2462C18.5639 10.2462 18.4415 10.2705 18.3273 10.3178C18.2131 10.3651 18.1093 10.4345 18.0219 10.5219L17.75 10.8031V7.43749C17.75 7.18885 17.6512 6.95039 17.4754 6.77458C17.2996 6.59876 17.0611 6.49999 16.8125 6.49999Z" fill="white"/>
</svg>
