<svg width="30" height="30" viewBox="0 0 30 30" fill="none" xmlns="http://www.w3.org/2000/svg">
<g clip-path="url(#clip0_7600_68650)">
<path d="M28.9883 4.01753H25.9907V3.49799C25.873 -1.1156 19.1187 -1.11689 18.9946 3.4981C18.9946 3.49799 18.9946 4.01752 18.9946 4.01752H11.0015C11.2437 1.96101 9.6249 -0.0515149 7.50335 -8.62707e-06C5.34924 -0.0137711 3.78648 1.92019 4.00544 4.01756C4.00538 4.01753 1.00782 4.01753 1.00782 4.01753C0.455572 4.01753 0.0078125 4.46479 0.0078125 5.01753V29C0.00782187 29.5527 0.455572 30 1.00782 30H28.9883C29.5405 30 29.9883 29.5527 29.9883 29V5.01752C29.9883 4.46479 29.5405 4.01753 28.9883 4.01753ZM20.9946 3.49799C21.0284 1.53024 23.9619 1.5275 23.9907 3.49806C23.9902 4.26191 23.9911 5.80199 23.9907 6.56636C23.9561 8.53398 21.0294 8.53566 20.9946 6.56629C20.9955 5.80137 20.994 4.26213 20.9946 3.49799ZM6.00537 3.49799C6.03915 1.53024 8.97262 1.5275 9.00146 3.49806C9.00096 4.26191 9.00183 5.80199 9.00146 6.56636C8.96689 8.53398 6.04015 8.53566 6.00537 6.56629C6.00622 5.80137 6.00477 4.26213 6.00537 3.49799ZM4.00538 6.01753C3.65795 11.375 11.3518 11.3688 11.0015 6.01745C11.0015 6.01753 18.9946 6.01753 18.9946 6.01753V6.56636C19.2496 11.5424 26.4083 10.9927 25.9907 6.01745C25.9907 6.01753 27.9883 6.01753 27.9883 6.01753V11.1591H2.00782V6.01753H4.00538ZM2.00782 28V13.1591H27.9883V28H2.00782Z" fill="#fff"/>
<path d="M19.1211 19.5801H15.9961V16.4551C15.9961 15.9023 15.5483 15.4551 14.9961 15.4551C14.4439 15.4551 13.9961 15.9023 13.9961 16.4551V19.5801H10.8711C10.3189 19.5801 9.87109 20.0273 9.87109 20.5801C9.87109 21.1328 10.3188 21.5801 10.8711 21.5801H13.9961V24.7051C13.9961 25.2578 14.4438 25.7051 14.9961 25.7051C15.5483 25.7051 15.9961 25.2578 15.9961 24.7051V21.5801H19.1211C20.4331 21.5589 20.4374 19.6021 19.1211 19.5801Z" fill="#fff"/>
</g>
<defs>
<clipPath id="clip0_7600_68650">
<rect width="30" height="30" fill="white"/>
</clipPath>
</defs>
</svg>
