<svg width="59" height="40" viewBox="0 0 59 40" fill="none" xmlns="http://www.w3.org/2000/svg">
<rect width="59" height="40" rx="5" fill="#DB1F35"/>
<g clip-path="url(#clip0_7300_373261)">
<path d="M25.6055 16.4844V19.1211H34.3945V16.4844C34.3945 14.0612 32.4232 12.0898 30 12.0898C27.5768 12.0898 25.6055 14.0612 25.6055 16.4844ZM27.3633 16.4844C27.3633 15.0305 28.5461 13.8477 30 13.8477C31.4539 13.8477 32.6367 15.0305 32.6367 16.4844V17.3633H27.3633V16.4844Z" fill="white"/>
<path d="M33.5156 24.3945C33.5156 22.4559 31.9386 20.8789 30 20.8789C28.0614 20.8789 26.4844 22.4559 26.4844 24.3945C26.4844 26.3332 28.0614 27.9102 30 27.9102C31.9386 27.9102 33.5156 26.3332 33.5156 24.3945ZM30 26.1523C29.0307 26.1523 28.2422 25.3638 28.2422 24.3945C28.2422 23.4252 29.0307 22.6367 30 22.6367C30.9693 22.6367 31.7578 23.4252 31.7578 24.3945C31.7578 25.3638 30.9693 26.1523 30 26.1523Z" fill="white"/>
<path d="M22.9102 17.3633C22.9102 15.7281 21.7879 14.3501 20.2734 13.9589V8.51562H26.4844C26.4844 9.45221 26.8472 10.3419 27.5056 11.0205C28.1747 11.7101 29.0604 12.0898 30 12.0898C30.9396 12.0898 31.8253 11.7101 32.4944 11.0205C33.1528 10.3419 33.5156 9.45221 33.5156 8.51562H39.7266V13.9589C38.2121 14.3501 37.0898 15.7281 37.0898 17.3633C37.0898 19.3019 38.6668 20.8789 40.6055 20.8789C42.5441 20.8789 44.1211 19.3019 44.1211 17.3633C44.1211 15.7281 42.9989 14.3501 41.4844 13.9589V6.75781H33.0428C32.4337 5.70816 31.2984 5 30 5C28.7016 5 27.5663 5.70816 26.9572 6.75781H18.5156V13.9589C17.0011 14.3501 15.8789 15.7281 15.8789 17.3633C15.8789 19.3019 17.4559 20.8789 19.3945 20.8789C21.3332 20.8789 22.9102 19.3019 22.9102 17.3633ZM42.3633 17.3633C42.3633 18.3326 41.5748 19.1211 40.6055 19.1211C39.6362 19.1211 38.8477 18.3326 38.8477 17.3633C38.8477 16.394 39.6362 15.6055 40.6055 15.6055C41.5748 15.6055 42.3633 16.394 42.3633 17.3633ZM30 6.75781C30.9693 6.75781 31.7578 7.54631 31.7578 8.51562C31.7578 9.50027 30.9528 10.332 30 10.332C29.0472 10.332 28.2422 9.50027 28.2422 8.51562C28.2422 7.54631 29.0307 6.75781 30 6.75781ZM19.3945 19.1211C18.4252 19.1211 17.6367 18.3326 17.6367 17.3633C17.6367 16.394 18.4252 15.6055 19.3945 15.6055C20.3638 15.6055 21.1523 16.394 21.1523 17.3633C21.1523 18.3326 20.3638 19.1211 19.3945 19.1211Z" fill="white"/>
<path d="M45 25.2734C45 22.8503 43.0286 20.8789 40.6055 20.8789C38.1823 20.8789 36.2109 22.8503 36.2109 25.2734V27.9102H39.7266V33.2422H34.3945V32.3633C34.3945 31.1896 33.94 30.0781 33.1144 29.2338C32.2801 28.3803 31.1742 27.9102 30 27.9102C28.8258 27.9102 27.7199 28.3803 26.8856 29.2338C26.06 30.0781 25.6055 31.1896 25.6055 32.3633V33.2422H20.2734V27.9102H23.7891V25.2734C23.7891 22.8503 21.8177 20.8789 19.3945 20.8789C16.9714 20.8789 15 22.8503 15 25.2734V27.9102H18.5156V35H41.4844V27.9102H45V25.2734ZM16.7578 26.1523V25.2734C16.7578 23.8196 17.9407 22.6367 19.3945 22.6367C20.8484 22.6367 22.0312 23.8196 22.0312 25.2734V26.1523H16.7578ZM32.6367 33.2422H27.3633V32.3633C27.3633 30.9023 28.5706 29.668 30 29.668C31.4294 29.668 32.6367 30.9023 32.6367 32.3633V33.2422ZM43.2422 26.1523H37.9688V25.2734C37.9688 23.8196 39.1516 22.6367 40.6055 22.6367C42.0593 22.6367 43.2422 23.8196 43.2422 25.2734V26.1523Z" fill="white"/>
</g>
<defs>
<clipPath id="clip0_7300_373261">
<rect width="30" height="30" fill="white" transform="translate(15 5)"/>
</clipPath>
</defs>
</svg>
