<svg width="30" height="30" viewBox="0 0 30 30" fill="none" xmlns="http://www.w3.org/2000/svg">
<g clip-path="url(#clip0_7300_373247)">
<path d="M10.6055 11.4844V14.1211H19.3945V11.4844C19.3945 9.0612 17.4232 7.08984 15 7.08984C12.5768 7.08984 10.6055 9.0612 10.6055 11.4844ZM12.3633 11.4844C12.3633 10.0305 13.5461 8.84766 15 8.84766C16.4539 8.84766 17.6367 10.0305 17.6367 11.4844V12.3633H12.3633V11.4844Z" fill="white"/>
<path d="M18.5156 19.3945C18.5156 17.4559 16.9386 15.8789 15 15.8789C13.0614 15.8789 11.4844 17.4559 11.4844 19.3945C11.4844 21.3332 13.0614 22.9102 15 22.9102C16.9386 22.9102 18.5156 21.3332 18.5156 19.3945ZM15 21.1523C14.0307 21.1523 13.2422 20.3638 13.2422 19.3945C13.2422 18.4252 14.0307 17.6367 15 17.6367C15.9693 17.6367 16.7578 18.4252 16.7578 19.3945C16.7578 20.3638 15.9693 21.1523 15 21.1523Z" fill="white"/>
<path d="M7.91016 12.3633C7.91016 10.7281 6.78795 9.35005 5.27344 8.95889V3.51562H11.4844C11.4844 4.45221 11.8472 5.34187 12.5056 6.02051C13.1747 6.71013 14.0604 7.08984 15 7.08984C15.9396 7.08984 16.8253 6.71013 17.4944 6.02051C18.1528 5.34187 18.5156 4.45221 18.5156 3.51562H24.7266V8.95889C23.2121 9.35005 22.0898 10.7281 22.0898 12.3633C22.0898 14.3019 23.6668 15.8789 25.6055 15.8789C27.5441 15.8789 29.1211 14.3019 29.1211 12.3633C29.1211 10.7281 27.9989 9.35005 26.4844 8.95889V1.75781H18.0428C17.4337 0.70816 16.2984 0 15 0C13.7016 0 12.5663 0.70816 11.9572 1.75781H3.51562V8.95889C2.00111 9.35005 0.878906 10.7281 0.878906 12.3633C0.878906 14.3019 2.4559 15.8789 4.39453 15.8789C6.33316 15.8789 7.91016 14.3019 7.91016 12.3633ZM27.3633 12.3633C27.3633 13.3326 26.5748 14.1211 25.6055 14.1211C24.6362 14.1211 23.8477 13.3326 23.8477 12.3633C23.8477 11.394 24.6362 10.6055 25.6055 10.6055C26.5748 10.6055 27.3633 11.394 27.3633 12.3633ZM15 1.75781C15.9693 1.75781 16.7578 2.54631 16.7578 3.51562C16.7578 4.50027 15.9528 5.33203 15 5.33203C14.0472 5.33203 13.2422 4.50027 13.2422 3.51562C13.2422 2.54631 14.0307 1.75781 15 1.75781ZM4.39453 14.1211C3.42522 14.1211 2.63672 13.3326 2.63672 12.3633C2.63672 11.394 3.42522 10.6055 4.39453 10.6055C5.36385 10.6055 6.15234 11.394 6.15234 12.3633C6.15234 13.3326 5.36385 14.1211 4.39453 14.1211Z" fill="white"/>
<path d="M30 20.2734C30 17.8503 28.0286 15.8789 25.6055 15.8789C23.1823 15.8789 21.2109 17.8503 21.2109 20.2734V22.9102H24.7266V28.2422H19.3945V27.3633C19.3945 26.1896 18.94 25.0781 18.1144 24.2338C17.2801 23.3803 16.1742 22.9102 15 22.9102C13.8258 22.9102 12.7199 23.3803 11.8856 24.2338C11.06 25.0781 10.6055 26.1896 10.6055 27.3633V28.2422H5.27344V22.9102H8.78906V20.2734C8.78906 17.8503 6.8177 15.8789 4.39453 15.8789C1.97136 15.8789 0 17.8503 0 20.2734V22.9102H3.51562V30H26.4844V22.9102H30V20.2734ZM1.75781 21.1523V20.2734C1.75781 18.8196 2.94067 17.6367 4.39453 17.6367C5.84839 17.6367 7.03125 18.8196 7.03125 20.2734V21.1523H1.75781ZM17.6367 28.2422H12.3633V27.3633C12.3633 25.9023 13.5706 24.668 15 24.668C16.4294 24.668 17.6367 25.9023 17.6367 27.3633V28.2422ZM28.2422 21.1523H22.9688V20.2734C22.9688 18.8196 24.1516 17.6367 25.6055 17.6367C27.0593 17.6367 28.2422 18.8196 28.2422 20.2734V21.1523Z" fill="white"/>
</g>
<defs>
<clipPath id="clip0_7300_373247">
<rect width="30" height="30" fill="white"/>
</clipPath>
</defs>
</svg>
