<svg width="28" height="30" viewBox="0 0 28 30" fill="none" xmlns="http://www.w3.org/2000/svg">
<path d="M21.2471 17.6995L18.0563 16.1041C20.3071 14.2429 21.9102 10.8659 21.9102 7.91016C21.9102 3.5485 18.3617 0 14 0C9.63834 0 6.08984 3.5485 6.08984 7.91016C6.08984 10.8656 7.69297 14.243 9.94373 16.1041L6.75289 17.6995C3.4601 17.8137 0.816406 20.5276 0.816406 23.8477V29.1211C0.816406 29.6065 1.20992 30 1.69531 30H26.3047C26.7901 30 27.1836 29.6065 27.1836 29.1211V23.8477C27.1836 20.5276 24.5399 17.8137 21.2471 17.6995ZM19.7476 18.9151L17.2147 22.7146L15.2836 21.749L17.8165 17.9496L19.7476 18.9151ZM14 1.75781C17.094 1.75781 19.6615 4.05375 20.0893 7.03125H19.2734C17.8196 7.03125 16.6367 5.84842 16.6367 4.39453C16.6367 3.90914 16.2432 3.51562 15.7578 3.51562C15.2724 3.51562 14.8789 3.90914 14.8789 4.39453C14.8789 5.84842 13.6961 7.03125 12.2422 7.03125H7.9107C8.3385 4.05375 10.906 1.75781 14 1.75781ZM10.1834 17.9495L12.7164 21.7489L10.7853 22.7145L8.25231 18.9151L10.1834 17.9495ZM13.1211 28.2422H2.57422V23.8477C2.57422 21.578 4.30373 19.7049 6.51406 19.4766L9.75307 24.3352C9.9991 24.7042 10.4813 24.8319 10.8774 24.6337L13.1211 23.512V28.2422ZM11.7703 17.1608C12.2183 16.5974 12.1778 15.7896 11.6686 15.2756C11.6686 15.2756 11.6685 15.2756 11.6685 15.2755C11.5763 15.1825 11.4054 15.0142 11.2967 14.933C9.55367 13.6298 8.19148 11.1095 7.90449 8.78906H12.2422C13.6781 8.78906 14.9554 8.09684 15.7578 7.0285C16.5603 8.09684 17.8375 8.7832 19.2734 8.7832H20.0956C19.8085 11.1046 18.4456 13.6314 16.7016 14.9343C16.5935 15.0151 16.4232 15.1826 16.3313 15.2752C15.8198 15.7913 15.7829 16.6 16.2295 17.1611L14 20.5054L11.7703 17.1608ZM25.4258 28.2422H14.8789V23.512L17.1226 24.6338C17.5191 24.832 18.0011 24.7039 18.2469 24.3352L21.4859 19.4767C23.6963 19.7049 25.4258 21.578 25.4258 23.8477V28.2422Z" fill="white"/>
</svg>
