<svg width="59" height="40" viewBox="0 0 59 40" fill="none" xmlns="http://www.w3.org/2000/svg">
<rect width="59" height="40" rx="5" fill="#DB1F35"/>
<path d="M37.2471 22.6995L34.0563 21.1041C36.3071 19.2429 37.9102 15.8659 37.9102 12.9102C37.9102 8.5485 34.3617 5 30 5C25.6383 5 22.0898 8.5485 22.0898 12.9102C22.0898 15.8656 23.693 19.243 25.9437 21.1041L22.7529 22.6995C19.4601 22.8137 16.8164 25.5276 16.8164 28.8477V34.1211C16.8164 34.6065 17.2099 35 17.6953 35H42.3047C42.7901 35 43.1836 34.6065 43.1836 34.1211V28.8477C43.1836 25.5276 40.5399 22.8137 37.2471 22.6995ZM35.7476 23.9151L33.2147 27.7146L31.2836 26.749L33.8165 22.9496L35.7476 23.9151ZM30 6.75781C33.094 6.75781 35.6615 9.05375 36.0893 12.0312H35.2734C33.8196 12.0312 32.6367 10.8484 32.6367 9.39453C32.6367 8.90914 32.2432 8.51562 31.7578 8.51562C31.2724 8.51562 30.8789 8.90914 30.8789 9.39453C30.8789 10.8484 29.6961 12.0312 28.2422 12.0312H23.9107C24.3385 9.05375 26.906 6.75781 30 6.75781ZM26.1834 22.9495L28.7164 26.7489L26.7853 27.7145L24.2523 23.9151L26.1834 22.9495ZM29.1211 33.2422H18.5742V28.8477C18.5742 26.578 20.3037 24.7049 22.5141 24.4766L25.7531 29.3352C25.9991 29.7042 26.4813 29.8319 26.8774 29.6337L29.1211 28.512V33.2422ZM27.7703 22.1608C28.2183 21.5974 28.1778 20.7896 27.6686 20.2756C27.6686 20.2756 27.6685 20.2756 27.6685 20.2755C27.5763 20.1825 27.4054 20.0142 27.2967 19.933C25.5537 18.6298 24.1915 16.1095 23.9045 13.7891H28.2422C29.6781 13.7891 30.9554 13.0968 31.7578 12.0285C32.5603 13.0968 33.8375 13.7832 35.2734 13.7832H36.0956C35.8085 16.1046 34.4456 18.6314 32.7016 19.9343C32.5935 20.0151 32.4232 20.1826 32.3313 20.2752C31.8198 20.7913 31.7829 21.6 32.2295 22.1611L30 25.5054L27.7703 22.1608ZM41.4258 33.2422H30.8789V28.512L33.1226 29.6338C33.5191 29.832 34.0011 29.7039 34.2469 29.3352L37.4859 24.4767C39.6963 24.7049 41.4258 26.578 41.4258 28.8477V33.2422Z" fill="white"/>
<path d="M38.7891 29.7266H35.2734C34.788 29.7266 34.3945 30.1201 34.3945 30.6055C34.3945 31.0909 34.788 31.4844 35.2734 31.4844H38.7891C39.2745 31.4844 39.668 31.0909 39.668 30.6055C39.668 30.1201 39.2745 29.7266 38.7891 29.7266Z" fill="white"/>
</svg>
