<svg width="24" height="24" viewBox="0 0 24 24" fill="none" xmlns="http://www.w3.org/2000/svg">
<path d="M16.625 12C16.625 12.5178 16.2053 12.9375 15.6875 12.9375H12.9375V15.6875C12.9375 16.2053 12.5178 16.625 12 16.625C11.4822 16.625 11.0625 16.2053 11.0625 15.6875V12.9375H8.31248C7.7947 12.9375 7.37498 12.5178 7.37498 12C7.37498 11.4822 7.7947 11.0625 8.31248 11.0625H11.0625V8.31248C11.0625 7.7947 11.4822 7.37498 12 7.37498C12.5178 7.37498 12.9375 7.7947 12.9375 8.31248V11.0625H15.6875C16.2052 11.0625 16.625 11.4822 16.625 12ZM24 6.95494V17.0451C24 18.798 23.3174 20.446 22.0779 21.6855C21.8805 21.8248 20.2507 24 17.0451 24H6.95494C3.74972 24 2.12161 21.8262 1.92211 21.6855C0.682641 20.446 0 18.798 0 17.0451V6.95494C0 5.202 0.682641 3.55402 1.92211 2.31455C2.11955 2.17523 3.74934 0 6.95494 0H17.0451C20.2503 0 21.8784 2.17378 22.0779 2.31455C23.3174 3.55402 24 5.20205 24 6.95494ZM22.125 6.95494C22.125 5.70286 21.6374 4.52573 20.7521 3.64041C20.5467 3.4927 19.4064 1.875 17.0451 1.875H6.95494C4.60627 1.875 3.44639 3.49767 3.24792 3.64041C2.36259 4.52573 1.875 5.70286 1.875 6.95494V17.0451C1.875 18.2971 2.36259 19.4743 3.24792 20.3596C3.45333 20.5073 4.59361 22.125 6.95494 22.125H17.0451C19.3937 22.125 20.5536 20.5023 20.7521 20.3596C21.6374 19.4743 22.125 18.2971 22.125 17.0451V6.95494Z" fill="black"/>
</svg>
