<svg width="59" height="43" viewBox="0 0 59 43" fill="none" xmlns="http://www.w3.org/2000/svg">
<rect width="59" height="40" rx="5" fill="#DB1F35"/>
<path d="M39.627 8.2168H23.7012C22.3927 8.2168 21.3281 9.28135 21.3281 10.5898C21.3281 11.8983 22.3927 12.9629 23.7012 12.9629H39.627C40.9355 12.9629 42 11.8983 42 10.5898C42 9.28135 40.9355 8.2168 39.627 8.2168ZM39.627 11.3809H23.7012C23.265 11.3809 22.9102 11.026 22.9102 10.5898C22.9102 10.1537 23.265 9.79883 23.7012 9.79883H39.627C40.0631 9.79883 40.418 10.1537 40.418 10.5898C40.418 11.026 40.0631 11.3809 39.627 11.3809Z" fill="white"/>
<path d="M39.627 16.127H23.7012C22.3927 16.127 21.3281 17.1915 21.3281 18.5C21.3281 19.8085 22.3927 20.873 23.7012 20.873H39.627C40.9355 20.873 42 19.8085 42 18.5C42 17.1915 40.9355 16.127 39.627 16.127ZM39.627 19.291H23.7012C23.265 19.291 22.9102 18.9362 22.9102 18.5C22.9102 18.0638 23.265 17.709 23.7012 17.709H39.627C40.0631 17.709 40.418 18.0638 40.418 18.5C40.418 18.9362 40.0631 19.291 39.627 19.291Z" fill="white"/>
<path d="M39.627 24.0371H23.7012C22.3927 24.0371 21.3281 25.1017 21.3281 26.4102C21.3281 27.7187 22.3927 28.7832 23.7012 28.7832H39.627C40.9355 28.7832 42 27.7187 42 26.4102C42 25.1017 40.9355 24.0371 39.627 24.0371ZM39.627 27.2012H23.7012C23.265 27.2012 22.9102 26.8463 22.9102 26.4102C22.9102 25.974 23.265 25.6191 23.7012 25.6191H39.627C40.0631 25.6191 40.418 25.974 40.418 26.4102C40.418 26.8463 40.0631 27.2012 39.627 27.2012Z" fill="white"/>
<path d="M17.373 8.2168C16.0645 8.2168 15 9.28135 15 10.5898C15 11.8983 16.0645 12.9629 17.373 12.9629C18.6815 12.9629 19.7461 11.8983 19.7461 10.5898C19.7461 9.28135 18.6815 8.2168 17.373 8.2168ZM17.373 11.3809C16.9369 11.3809 16.582 11.026 16.582 10.5898C16.582 10.1537 16.9369 9.79883 17.373 9.79883C17.8092 9.79883 18.1641 10.1537 18.1641 10.5898C18.1641 11.026 17.8092 11.3809 17.373 11.3809Z" fill="white"/>
<path d="M17.373 16.127C16.0645 16.127 15 17.1915 15 18.5C15 19.8085 16.0645 20.873 17.373 20.873C18.6815 20.873 19.7461 19.8085 19.7461 18.5C19.7461 17.1915 18.6815 16.127 17.373 16.127ZM17.373 19.291C16.9369 19.291 16.582 18.9362 16.582 18.5C16.582 18.0638 16.9369 17.709 17.373 17.709C17.8092 17.709 18.1641 18.0638 18.1641 18.5C18.1641 18.9362 17.8092 19.291 17.373 19.291Z" fill="white"/>
<path d="M17.373 24.0371C16.0645 24.0371 15 25.1017 15 26.4102C15 27.7187 16.0645 28.7832 17.373 28.7832C18.6815 28.7832 19.7461 27.7187 19.7461 26.4102C19.7461 25.1017 18.6815 24.0371 17.373 24.0371ZM17.373 27.2012C16.9369 27.2012 16.582 26.8463 16.582 26.4102C16.582 25.974 16.9369 25.6191 17.373 25.6191C17.8092 25.6191 18.1641 25.974 18.1641 26.4102C18.1641 26.8463 17.8092 27.2012 17.373 27.2012Z" fill="white"/>
<path d="M49.7963 32.798H46.6643V35.858H44.3423V32.798H41.2283V30.602H44.3423V27.542H46.6643V30.602H49.7963V32.798Z" fill="white"/>
</svg>
