<svg width="30" height="30" viewBox="0 0 30 30" fill="none" xmlns="http://www.w3.org/2000/svg">
<path d="M10.4692 8.22684L13.4007 10.671C13.8495 11.0454 14.4153 11.2504 14.9997 11.2504C15.5841 11.2504 16.1499 11.0454 16.5987 10.671L19.5297 8.22684C19.8038 7.99851 20.0008 7.69129 20.094 7.34699C20.1872 7.0027 20.1721 6.63803 20.0507 6.30263C19.9293 5.96724 19.7075 5.67739 19.4155 5.47253C19.1235 5.26767 18.7755 5.15776 18.4188 5.15774H17.8113V2.81277C17.8113 2.44352 17.7385 2.07789 17.5972 1.73675C17.4559 1.3956 17.2488 1.08563 16.9877 0.824533C16.7266 0.563433 16.4166 0.356318 16.0755 0.215012C15.7344 0.0737058 15.3687 0.000976563 14.9995 0.000976562C14.6302 0.000976563 14.2646 0.0737058 13.9234 0.215012C13.5823 0.356318 13.2723 0.563433 13.0112 0.824533C12.7501 1.08563 12.543 1.3956 12.4017 1.73675C12.2604 2.07789 12.1877 2.44352 12.1877 2.81277V5.15788H11.5807C11.224 5.15802 10.8761 5.26799 10.5842 5.47283C10.2923 5.67767 10.0705 5.96744 9.9491 6.30275C9.82767 6.63805 9.81245 7.00262 9.90552 7.34688C9.99858 7.69114 10.1954 7.99838 10.4692 8.22684ZM13.1252 7.03251C13.3738 7.03251 13.6123 6.93374 13.7881 6.75792C13.9639 6.58211 14.0627 6.34365 14.0627 6.09501V2.81277C14.0614 2.68896 14.0848 2.56614 14.1313 2.45139C14.1778 2.33665 14.2466 2.23226 14.3337 2.14428C14.4208 2.05629 14.5245 1.98644 14.6388 1.93877C14.7531 1.8911 14.8757 1.86656 14.9995 1.86656C15.1233 1.86656 15.2459 1.8911 15.3602 1.93877C15.4744 1.98644 15.5781 2.05629 15.6652 2.14428C15.7523 2.23226 15.8211 2.33665 15.8677 2.45139C15.9142 2.56614 15.9375 2.68896 15.9363 2.81277V6.09538C15.9363 6.34402 16.035 6.58248 16.2109 6.7583C16.3867 6.93411 16.6251 7.03288 16.8738 7.03288H18.0342L15.3975 9.23156C15.2858 9.32468 15.1449 9.37566 14.9994 9.37562C14.854 9.37557 14.7131 9.32451 14.6015 9.23132L11.9647 7.03288L13.1252 7.03251ZM29.9153 15.0811L27.5716 9.92484C27.4718 9.7049 27.2909 9.53202 27.0667 9.44235L22.0263 7.42612C21.7954 7.33372 21.5373 7.33682 21.3087 7.43473C21.0802 7.53263 20.8998 7.71733 20.8075 7.94819C20.7151 8.17904 20.7182 8.43715 20.8161 8.66572C20.914 8.8943 21.0987 9.07461 21.3295 9.16701L24.194 10.3128L14.9997 13.9904L5.80537 10.3128L8.66976 9.1671C8.90063 9.07473 9.08535 8.89442 9.18328 8.66585C9.2812 8.43728 9.28432 8.17917 9.19195 7.94831C9.09957 7.71744 8.91927 7.53272 8.6907 7.43479C8.46213 7.33686 8.20402 7.33374 7.97315 7.42612L2.93264 9.44235C2.70844 9.53205 2.52757 9.70492 2.42784 9.92484L0.0840911 15.0811C0.0320942 15.1954 0.00360684 15.3191 0.000320851 15.4446C-0.00296514 15.5702 0.0190173 15.6952 0.0649625 15.8121C0.110908 15.929 0.179879 16.0355 0.267779 16.1252C0.35568 16.2149 0.460717 16.2861 0.576653 16.3344L2.34347 17.0707V24.3753C2.34346 24.5626 2.39958 24.7457 2.5046 24.9008C2.60961 25.056 2.7587 25.1761 2.93264 25.2457L14.6514 29.9332C14.8645 30.0184 15.1015 30.0226 15.3174 29.9449L27.0362 25.7261C27.2177 25.6607 27.3746 25.5409 27.4855 25.383C27.5964 25.2252 27.6559 25.037 27.656 24.844V17.0707L29.4231 16.3344C29.539 16.286 29.644 16.2149 29.7319 16.1251C29.8198 16.0354 29.8887 15.9289 29.9346 15.812C29.9805 15.6951 30.0025 15.5701 29.9992 15.4446C29.9958 15.319 29.9673 15.1954 29.9153 15.0811ZM3.76378 11.5157L13.6709 15.4784L11.7683 18.9661L2.19103 14.9758L3.76378 11.5157ZM4.21846 17.8519L11.8265 21.0219C12.0404 21.111 12.2797 21.1178 12.4983 21.0408C12.7169 20.9639 12.8993 20.8088 13.0102 20.6054L14.0622 18.6768V27.6781L4.21846 23.7406V17.8519ZM25.781 24.1851L15.9372 27.7288V18.6768L16.9891 20.6054C17.1 20.8089 17.2823 20.9642 17.501 21.0411C17.7196 21.1181 17.959 21.1112 18.1729 21.0219L25.781 17.8519V24.1851ZM18.231 18.9663L16.3285 15.4784L26.2356 11.5157L27.8085 14.9758L18.231 18.9663Z" fill="white"/>
</svg>
