<svg width="30" height="30" viewBox="0 0 30 30" fill="none" xmlns="http://www.w3.org/2000/svg">
<path d="M25.6055 15.7122H22.6689C22.2692 15.7122 21.8822 15.7668 21.514 15.8673C20.7875 14.4392 19.3044 13.458 17.5954 13.458H12.4046C10.6956 13.458 9.21246 14.4392 8.48602 15.8673C8.11775 15.7668 7.7308 15.7122 7.33113 15.7122H4.39453C1.97139 15.7122 0 17.6836 0 20.1068V24.8012C0 26.2551 1.18283 27.4379 2.63672 27.4379H27.3633C28.8172 27.4379 30 26.2551 30 24.8012V20.1068C30 17.6836 28.0286 15.7122 25.6055 15.7122ZM8.01006 17.8527V25.6801H2.63672C2.15209 25.6801 1.75781 25.2859 1.75781 24.8012V20.1068C1.75781 18.6529 2.94064 17.4701 4.39453 17.4701H7.33113C7.56973 17.4701 7.80076 17.5025 8.02072 17.5622C8.01439 17.6584 8.01006 17.755 8.01006 17.8527ZM20.2321 25.6801H9.76787V17.8526C9.76787 16.3987 10.9507 15.2159 12.4046 15.2159H17.5954C19.0493 15.2159 20.2321 16.3987 20.2321 17.8526V25.6801ZM28.2422 24.8012C28.2422 25.2859 27.8479 25.6801 27.3633 25.6801H21.9899V17.8526C21.9899 17.7549 21.9856 17.6582 21.9793 17.5621C22.1992 17.5025 22.4303 17.47 22.6689 17.47H25.6055C27.0594 17.47 28.2422 18.6529 28.2422 20.1068V24.8012Z" fill="white"/>
<path d="M5.86598 7.41211C3.71271 7.41211 1.96094 9.16389 1.96094 11.3171C1.96088 13.4704 3.71271 15.2222 5.86598 15.2222C8.01918 15.2222 9.77102 13.4704 9.77102 11.3171C9.77102 9.16389 8.01924 7.41211 5.86598 7.41211ZM5.86592 13.4644C4.68191 13.4644 3.71869 12.5012 3.71869 11.3171C3.71869 10.1331 4.68191 9.16992 5.86592 9.16992C7.04992 9.16992 8.01314 10.1331 8.01314 11.3171C8.01314 12.5012 7.04992 13.4644 5.86592 13.4644Z" fill="white"/>
<path d="M14.9983 2.5625C12.1216 2.5625 9.78125 4.90285 9.78125 7.77957C9.78125 10.6563 12.1216 12.9966 14.9983 12.9966C17.875 12.9966 20.2154 10.6563 20.2154 7.77957C20.2154 4.90291 17.875 2.5625 14.9983 2.5625ZM14.9983 11.2388C13.0909 11.2388 11.5391 9.68703 11.5391 7.77957C11.5391 5.87217 13.0909 4.32031 14.9983 4.32031C16.9058 4.32031 18.4576 5.87211 18.4576 7.77957C18.4576 9.68703 16.9058 11.2388 14.9983 11.2388Z" fill="white"/>
<path d="M24.1394 7.41211C21.9862 7.41211 20.2344 9.16389 20.2344 11.3171C20.2344 13.4704 21.9862 15.2222 24.1394 15.2222C26.2927 15.2222 28.0445 13.4704 28.0445 11.3171C28.0445 9.16389 26.2927 7.41211 24.1394 7.41211ZM24.1394 13.4644C22.9555 13.4644 21.9922 12.5012 21.9922 11.3171C21.9922 10.1331 22.9555 9.16992 24.1394 9.16992C25.3234 9.16992 26.2866 10.1331 26.2866 11.3171C26.2866 12.5012 25.3234 13.4644 24.1394 13.4644Z" fill="white"/>
</svg>
