<svg width="24" height="24" viewBox="0 0 24 24" fill="none" xmlns="http://www.w3.org/2000/svg">
<path d="M12 0C5.3828 0 0 5.3828 0 12C0 18.6172 5.3828 24 12 24C18.6172 24 24 18.6163 24 12C24 5.38373 18.6172 0 12 0ZM12 22.141C6.40898 22.141 1.85902 17.592 1.85902 12C1.85902 6.40805 6.40898 1.85902 12 1.85902C17.592 1.85902 22.141 6.40805 22.141 12C22.141 17.592 17.591 22.141 12 22.141Z" fill="white"/>
<path d="M17.308 13.2823L12.6605 8.63475C12.2979 8.27409 11.7124 8.27409 11.3498 8.63475L6.70229 13.2823C6.40393 13.6299 6.40393 14.144 6.70229 14.4916C7.03599 14.8811 7.62343 14.9266 8.01291 14.5929L12.0005 10.6053L15.9974 14.5929C16.3599 14.9536 16.9455 14.9536 17.308 14.5929C17.6687 14.2304 17.6687 13.6448 17.308 13.2823Z" fill="white"/>
</svg>
