<svg width="16" height="16" viewBox="0 0 16 16" fill="none" xmlns="http://www.w3.org/2000/svg">
<path d="M3.4787 7.9C2.9787 8.2 2.3787 8 2.0787 7.5C1.7787 7 1.9787 6.5 2.4787 6.2L7.4787 3.2C7.7787 3 8.1787 3 8.4787 3.2L13.4787 6.2C13.9787 6.5 14.0787 7.1 13.7787 7.6C13.5787 8 12.9787 8.2 12.4787 7.9L7.9787 5.2L3.4787 7.9Z" fill="#FF5630"/>
<path d="M3.4787 12.2C2.9787 12.5 2.3787 12.4 2.0787 11.9C1.7787 11.4 1.9787 10.8 2.4787 10.5L7.4787 7.5C7.7787 7.3 8.1787 7.3 8.4787 7.5L13.4787 10.5C13.9787 10.8 14.0787 11.4 13.7787 11.9C13.4787 12.4 12.8787 12.5 12.3787 12.2L7.9787 9.5L3.4787 12.2Z" fill="#FF7452"/>
</svg>
