<svg width="24" height="24" viewBox="0 0 24 24" fill="none" xmlns="http://www.w3.org/2000/svg">
<path d="M12 24C5.3828 24 0 18.6172 0 12C0 5.3828 5.3828 0 12 0C18.6172 0 24 5.38373 24 12C24 18.6163 18.6172 24 12 24ZM12 1.85902C6.40898 1.85902 1.85902 6.40805 1.85902 12C1.85902 17.592 6.40898 22.141 12 22.141C17.592 22.141 22.141 17.592 22.141 12C22.141 6.40805 17.591 1.85902 12 1.85902Z" fill="black"/>
<path d="M17.3075 10.7172L12.66 15.3648C12.2974 15.7254 11.7119 15.7254 11.3493 15.3648L6.70177 10.7172C6.40341 10.3696 6.40341 9.85554 6.70177 9.50792C7.03547 9.11843 7.62291 9.07292 8.01239 9.40662L12 13.3942L15.9969 9.40657C16.3594 9.04592 16.945 9.04592 17.3075 9.40657C17.6682 9.7691 17.6682 10.3547 17.3075 10.7172Z" fill="black"/>
</svg>
