<svg width="24" height="24" viewBox="0 0 24 24" fill="none" xmlns="http://www.w3.org/2000/svg">
<path d="M12 0C5.3828 0 0 5.3828 0 12C0 18.6172 5.3828 24 12 24C18.6172 24 24 18.6163 24 12C24 5.38373 18.6172 0 12 0ZM12 22.141C6.40898 22.141 1.85902 17.592 1.85902 12C1.85902 6.40805 6.40898 1.85902 12 1.85902C17.592 1.85902 22.141 6.40805 22.141 12C22.141 17.592 17.591 22.141 12 22.141Z" fill="black"/>
<path d="M17.3061 13.2827L12.6585 8.63518C12.296 8.27452 11.7104 8.27452 11.3479 8.63518L6.70033 13.2827C6.40197 13.6304 6.40197 14.1444 6.70033 14.492C7.03404 14.8815 7.62147 14.927 8.01096 14.5933L11.9986 10.6058L15.9955 14.5934C16.358 14.954 16.9435 14.954 17.3061 14.5934C17.6667 14.2308 17.6667 13.6452 17.3061 13.2827Z" fill="black"/>
</svg>
