<svg width="24" height="24" viewBox="0 0 24 24" fill="none" xmlns="http://www.w3.org/2000/svg">
<path d="M22.5 6.75C22.5 8.35275 21.876 9.8595 20.7428 10.9928L9.93527 21.9285C9.05627 22.8075 7.90202 23.247 6.74852 23.247C5.59652 23.247 4.44452 22.8083 3.56777 21.9315C1.81352 20.1765 1.81352 17.322 3.56777 15.5677L11.3753 7.8045C12.5475 6.63975 14.4105 6.6015 15.5303 7.71975C16.077 8.2665 16.365 9.0045 16.3418 9.79875C16.3185 10.5757 15.9983 11.3123 15.4395 11.871L8.03027 19.2803C7.73702 19.5735 7.26302 19.5735 6.96977 19.2803C6.67652 18.987 6.67652 18.513 6.96977 18.2197L14.379 10.8105C14.6663 10.5232 14.8313 10.1482 14.8425 9.7545C14.8538 9.378 14.721 9.0315 14.4698 8.78025C13.9335 8.24625 13.02 8.2845 12.4335 8.868L4.62677 16.6298C3.45902 17.7983 3.45902 19.7017 4.62827 20.871C5.79827 22.0402 7.70102 22.0402 8.87102 20.871L19.6785 9.93525C20.532 9.08175 21 7.95225 21 6.75C21 5.54775 20.532 4.41825 19.6823 3.5685C18.8318 2.718 17.7023 2.25 16.5 2.25C15.2978 2.25 14.1683 2.718 13.3178 3.5685L2.77877 14.0325C2.48402 14.3242 2.01002 14.3228 1.71827 14.028C1.42652 13.734 1.42802 13.26 1.72202 12.9675L12.2595 2.50575C13.3905 1.374 14.8973 0.75 16.5 0.75C18.1028 0.75 19.6095 1.374 20.7428 2.508C21.876 3.6405 22.5 5.14725 22.5 6.75Z" fill="black"/>
</svg>
