<svg width="30" height="30" viewBox="0 0 30 30" fill="none" xmlns="http://www.w3.org/2000/svg">
<g clip-path="url(#clip0_7038_224084)">
<path d="M12.8529 16.6349C12.8529 15.038 11.5537 13.7388 9.95677 13.7388C8.35981 13.7388 7.06055 15.038 7.06055 16.6349H8.81835C8.81835 16.0072 9.32907 15.4966 9.95677 15.4966C10.5845 15.4966 11.0951 16.0072 11.0951 16.6349H12.8529Z" fill="white"/>
<path d="M20.0426 13.7388C18.4457 13.7388 17.1465 15.038 17.1465 16.6349H18.9043C18.9043 16.0072 19.4149 15.4966 20.0426 15.4966C20.6703 15.4966 21.1811 16.0072 21.1811 16.6349H22.9389C22.9389 15.038 21.6397 13.7388 20.0426 13.7388Z" fill="white"/>
<path d="M14.9991 21.7781C13.8877 21.7781 12.8457 21.1821 12.2795 20.2227L10.7656 21.116C11.6464 22.6086 13.2686 23.5359 14.999 23.5359C16.7294 23.5359 18.3516 22.6086 19.2324 21.116L17.7185 20.2227C17.1524 21.1821 16.1103 21.7781 14.9991 21.7781Z" fill="white"/>
<path d="M28.8563 13.5216C28.2965 12.9624 27.5935 12.5927 26.8305 12.4479C25.1826 7.35567 20.4023 3.8496 15 3.8496H14.4107C12.9956 3.8496 11.8443 2.69826 11.8443 1.2832H10.0865C10.0865 2.24345 10.4015 3.13125 10.9331 3.8496H10.3762C8.96103 3.8496 7.80976 2.69826 7.80976 1.2832H6.05195C6.05195 3.19309 7.29696 4.8166 9.0176 5.38756C6.29628 6.88367 4.16329 9.37713 3.1696 12.4479C2.40655 12.5927 1.70338 12.9625 1.1431 13.5222C0.405953 14.2601 0 15.2407 0 16.2832C0 17.3129 0.397238 18.2845 1.11861 19.0189C1.68239 19.5928 2.3944 19.9716 3.1696 20.1186C4.81737 25.2108 9.59762 28.7168 15 28.7168C20.4024 28.7168 25.1826 25.2108 26.8304 20.1186C27.6056 19.9716 28.3176 19.5928 28.8814 19.0189C29.6028 18.2845 30 17.3129 30 16.2832C30 15.2407 29.594 14.2601 28.8563 13.5216ZM26.1379 18.429L25.4783 18.4415L25.3061 19.0783C24.0513 23.7183 19.8133 26.9589 14.9999 26.9589C10.1866 26.9589 5.94867 23.7184 4.69393 19.0783L4.52169 18.4415L3.8621 18.429C2.70175 18.4071 1.75775 17.4445 1.75775 16.2832C1.75775 15.7098 1.98109 15.1705 2.38592 14.7652C2.78072 14.3708 3.30496 14.1478 3.86192 14.1373L4.52163 14.125L4.69387 13.488C5.94867 8.84809 10.1867 5.60746 15 5.60746C16.5887 5.60746 17.8811 6.89991 17.8811 8.48856C17.8811 10.0772 16.5887 11.3697 15 11.3697C13.4113 11.3697 12.1189 10.0773 12.1189 8.48862H10.3611C10.3611 11.0465 12.4421 13.1275 15 13.1275C17.5579 13.1275 19.6389 11.0465 19.6389 8.48862C19.6389 7.76067 19.4699 7.07167 19.1698 6.45791C22.118 7.71194 24.4335 10.2614 25.3061 13.4881L25.4783 14.125L26.138 14.1374C26.695 14.1478 27.2192 14.3708 27.6134 14.7645C28.0189 15.1705 28.2423 15.7099 28.2423 16.2833C28.2422 17.4446 27.2982 18.4071 26.1379 18.429Z" fill="white"/>
</g>
<defs>
<clipPath id="clip0_7038_224084">
<rect width="30" height="30" fill="white"/>
</clipPath>
</defs>
</svg>
