<svg width="59" height="40" viewBox="0 0 59 40" fill="none" xmlns="http://www.w3.org/2000/svg">
    <rect width="59" height="40" rx="5" fill="#DB1F35"/>
    <path xmlns="http://www.w3.org/2000/svg" d="M26.878 21.5011C26.878 20.7907 26.306 20.2145 25.6034 20.2145H25.5639V11.2869C25.5639 9.91296 24.4467 8.79241 23.0694 8.79241H15.7795V3.00639C15.7795 2.63931 15.5822 2.29582 15.2626 2.11431L13.5575 1.13177C13.2342 0.946011 12.8352 0.942145 12.5195 1.12771C12.2077 1.30922 12.0146 1.65252 12.0146 2.02752V8.79628H4.71256C3.33917 8.79628 2.21823 9.91296 2.21823 11.2908V13.0983C2.21437 13.1256 2.21437 13.1534 2.21437 13.1813C2.21437 13.2089 2.21823 13.2362 2.21823 13.264V20.2222H2.18692C1.48408 20.2222 0.912109 20.7984 0.912109 21.5088V22.7165C0.912109 23.4269 1.48408 24.0033 2.18692 24.0033H25.5991C26.3018 24.0033 26.8741 23.4269 26.8741 22.7165V21.5011H26.878ZM2.25805 22.6533V21.5561H25.54V22.6533H2.25805ZM14.4376 4.34054L13.3525 3.7129V2.56025L14.4376 3.18364V4.34054ZM13.3563 4.62469L14.4415 5.25214V6.83062L13.3563 6.20297V4.62469ZM13.3563 7.11863L14.4415 7.74627V8.79628H13.3563V7.11863ZM4.71256 10.1382H23.0694C23.7048 10.1382 24.2219 10.655 24.2219 11.2908V12.6087C23.7405 12.7471 23.306 13.0274 22.9745 13.426L22.2761 14.2746C22.0509 14.5465 21.7194 14.6965 21.3643 14.6888C21.0172 14.6811 20.7092 14.5313 20.496 14.2663C20.4922 14.2585 20.4844 14.2508 20.48 14.2429L19.6909 13.2089C19.221 12.5971 18.5188 12.2378 17.757 12.2221C16.9954 12.2063 16.2767 12.5378 15.7838 13.1339L14.848 14.2746C14.623 14.5465 14.2915 14.6965 13.9366 14.6888C13.5811 14.6811 13.2537 14.5191 13.0405 14.2429L12.2669 13.2128C12.2669 13.2128 12.2669 13.2128 12.2669 13.2089C12.2669 13.2089 12.2669 13.2089 12.2669 13.2048C11.8053 12.601 11.0789 12.2339 10.3215 12.2183C9.56747 12.2024 8.85323 12.5339 8.35954 13.13L7.36888 14.3337C7.15181 14.5978 6.82436 14.7483 6.477 14.7483C6.477 14.7483 6.477 14.7483 6.47313 14.7483C6.12983 14.7483 5.80586 14.5939 5.58512 14.3219L4.83086 13.4061C4.49936 13.0034 4.06134 12.7233 3.57191 12.5853V11.275C3.56031 10.655 4.07738 10.1382 4.71256 10.1382ZM3.56031 14.0652C3.64323 14.1246 3.71804 14.1914 3.78511 14.2707L4.53898 15.186C5.01662 15.7663 5.71521 16.0978 6.46134 16.0978H6.46521C7.21501 16.0978 7.9136 15.7701 8.38718 15.1981L9.37784 13.9902C9.60671 13.7138 9.93821 13.5563 10.2817 13.5638C10.6329 13.5721 10.9724 13.7416 11.1856 14.0219L11.959 15.052V15.0597C12.4209 15.6636 13.1275 16.0189 13.8931 16.0346H13.9443C14.6943 16.0346 15.3927 15.7073 15.8665 15.1347L16.8019 13.9941C17.0271 13.7221 17.3702 13.5601 17.7135 13.5677C18.0651 13.576 18.3885 13.7416 18.6094 14.0258L19.371 15.0242C19.3793 15.0362 19.3871 15.052 19.3989 15.0638C19.8606 15.6677 20.5592 16.0189 21.3208 16.0346H21.3722C22.1222 16.0346 22.8208 15.7073 23.2944 15.1347L23.993 14.2864C24.0562 14.2073 24.1312 14.1402 24.2062 14.0851V20.2222H3.56031V14.0652Z" fill="white"/>
</svg>
