<svg width="30" height="30" viewBox="0 0 30 30" fill="none" xmlns="http://www.w3.org/2000/svg">
<path d="M27.878 26.5013C27.878 25.7909 27.306 25.2147 26.6034 25.2147H26.5639V16.2872C26.5639 14.9132 25.4467 13.7927 24.0694 13.7927H16.7795V8.00663C16.7795 7.63956 16.5822 7.29606 16.2626 7.11456L14.5575 6.13202C14.2342 5.94626 13.8352 5.94239 13.5195 6.12796C13.2077 6.30946 13.0146 6.65276 13.0146 7.02776V13.7965H5.71256C4.33917 13.7965 3.21823 14.9132 3.21823 16.291V18.0986C3.21437 18.1258 3.21437 18.1537 3.21437 18.1815C3.21437 18.2092 3.21823 18.2364 3.21823 18.2642V25.2224H3.18692C2.48408 25.2224 1.91211 25.7987 1.91211 26.509V27.7168C1.91211 28.4271 2.48408 29.0036 3.18692 29.0036H26.5991C27.3018 29.0036 27.8741 28.4271 27.8741 27.7168V26.5013H27.878ZM3.25805 27.6536V26.5564H26.54V27.6536H3.25805ZM15.4376 9.34078L14.3525 8.71314V7.5605L15.4376 8.18389V9.34078ZM14.3563 9.62493L15.4415 10.2524V11.8309L14.3563 11.2032V9.62493ZM14.3563 12.1189L15.4415 12.7465V13.7965H14.3563V12.1189ZM5.71256 15.1384H24.0694C24.7048 15.1384 25.2219 15.6553 25.2219 16.291V17.609C24.7405 17.7474 24.306 18.0276 23.9745 18.4262L23.2761 19.2748C23.0509 19.5468 22.7194 19.6968 22.3643 19.689C22.0172 19.6813 21.7092 19.5315 21.496 19.2665C21.4922 19.2588 21.4844 19.251 21.48 19.2431L20.6909 18.2092C20.221 17.5974 19.5188 17.238 18.757 17.2224C17.9954 17.2065 17.2767 17.538 16.7838 18.1342L15.848 19.2748C15.623 19.5468 15.2915 19.6968 14.9366 19.689C14.5811 19.6813 14.2537 19.5193 14.0405 19.2431L13.2669 18.213C13.2669 18.213 13.2669 18.213 13.2669 18.2092C13.2669 18.2092 13.2669 18.2092 13.2669 18.2051C12.8053 17.6012 12.0789 17.2342 11.3215 17.2185C10.5675 17.2026 9.85323 17.5342 9.35954 18.1303L8.36888 19.334C8.15181 19.598 7.82436 19.7486 7.477 19.7486C7.477 19.7486 7.477 19.7486 7.47313 19.7486C7.12983 19.7486 6.80586 19.5941 6.58512 19.3222L5.83086 18.4063C5.49936 18.0037 5.06134 17.7236 4.57191 17.5856V16.2752C4.56031 15.6553 5.07738 15.1384 5.71256 15.1384ZM4.56031 19.0655C4.64323 19.1248 4.71804 19.1917 4.78511 19.2709L5.53898 20.1862C6.01662 20.7665 6.71521 21.098 7.46134 21.098H7.46521C8.21501 21.098 8.9136 20.7704 9.38718 20.1984L10.3778 18.9905C10.6067 18.714 10.9382 18.5565 11.2817 18.564C11.6329 18.5724 11.9724 18.7419 12.1856 19.0222L12.959 20.0523V20.06C13.4209 20.6639 14.1275 21.0191 14.8931 21.0348H14.9443C15.6943 21.0348 16.3927 20.7075 16.8665 20.135L17.8019 18.9943C18.0271 18.7224 18.3702 18.5604 18.7135 18.5679C19.0651 18.5762 19.3885 18.7419 19.6094 19.026L20.371 20.0244C20.3793 20.0364 20.3871 20.0523 20.3989 20.064C20.8606 20.6679 21.5592 21.0191 22.3208 21.0348H22.3722C23.1222 21.0348 23.8208 20.7075 24.2944 20.135L24.993 19.2866C25.0562 19.2075 25.1312 19.1405 25.2062 19.0854V25.2224H4.56031V19.0655Z" fill="white"/>
<path d="M15.0096 5.68596C15.1201 5.68596 15.2346 5.65813 15.3372 5.59878C15.6608 5.41708 15.775 5.0069 15.5939 4.68699C15.4555 4.44247 15.424 4.13068 15.5106 3.85059C15.5817 3.61727 15.7238 3.44002 15.9096 3.34511C16.3082 3.1636 16.6714 2.91869 16.9828 2.61888C17.1368 2.93087 17.196 3.28577 17.1448 3.64124C17.0616 4.23332 16.687 4.73841 16.1423 4.98719C15.8065 5.14124 15.6567 5.53983 15.8108 5.8752C15.9254 6.11972 16.1659 6.26586 16.4226 6.26586C16.5173 6.26586 16.6118 6.24634 16.7029 6.20284C17.6659 5.76077 18.3289 4.87237 18.475 3.82275C18.621 2.76888 18.234 1.73087 17.4287 1.04427C17.4248 1.04021 17.4248 1.04021 17.421 1.03615C17.4132 1.02842 17.4015 1.02069 17.3933 1.01663C17.3856 1.00889 17.3736 1.00058 17.3659 0.996717C17.362 0.996717 17.362 0.992851 17.3578 0.988985C17.3539 0.984926 17.346 0.98106 17.3421 0.98106C17.3305 0.973328 17.3183 0.969075 17.3065 0.961343C17.2988 0.957477 17.2909 0.953611 17.2787 0.949359C17.2671 0.945493 17.2553 0.937954 17.2433 0.933702C17.2317 0.929642 17.2238 0.925776 17.2116 0.92191C17.2 0.917851 17.1921 0.913985 17.1805 0.910119C17.1685 0.906253 17.1565 0.902387 17.1448 0.902387C17.1368 0.898328 17.125 0.898328 17.1173 0.894075C17.1055 0.890209 17.0933 0.890209 17.0815 0.88615C17.0738 0.88615 17.0616 0.882284 17.0539 0.882284C17.0421 0.882284 17.0303 0.882284 17.0145 0.878418C17.0067 0.878418 16.9948 0.878418 16.9868 0.878418C16.975 0.878418 16.9632 0.878418 16.9515 0.878418C16.9433 0.878418 16.9315 0.878418 16.9238 0.882284C16.9118 0.882284 16.9002 0.88615 16.8884 0.88615C16.8763 0.88615 16.8685 0.890209 16.8567 0.890209C16.8446 0.894075 16.837 0.894075 16.825 0.898328C16.8132 0.902387 16.8053 0.902387 16.7935 0.906253C16.7815 0.910119 16.7738 0.913985 16.7657 0.913985C16.7541 0.917851 16.7462 0.92191 16.734 0.925776C16.7263 0.929642 16.7145 0.933702 16.7067 0.937954C16.6948 0.941627 16.687 0.945493 16.6752 0.953611C16.6675 0.957477 16.6553 0.965209 16.6474 0.969075C16.6397 0.973328 16.6279 0.98106 16.6196 0.984926C16.6118 0.992851 16.6 0.996717 16.5923 1.00484C16.5842 1.01276 16.5765 1.01663 16.5683 1.02455C16.5569 1.03228 16.5486 1.04021 16.5409 1.04813C16.533 1.05625 16.5252 1.06012 16.5214 1.06785C16.5131 1.07578 16.5013 1.08776 16.4935 1.09549C16.4897 1.09936 16.4858 1.10342 16.4817 1.10728C16.4779 1.11115 16.4779 1.11115 16.4738 1.11502C16.4659 1.12333 16.4582 1.13512 16.45 1.14285C16.4423 1.15058 16.4342 1.16257 16.4303 1.17069C16.4303 1.17455 16.4265 1.17455 16.4226 1.17842C16.1582 1.58879 15.7793 1.91238 15.3332 2.11399C15.3291 2.11785 15.3252 2.11785 15.3214 2.12172C15.3175 2.12558 15.3136 2.12558 15.3055 2.12964C14.7848 2.39002 14.4016 2.85606 14.2199 3.44388C14.0268 4.07539 14.0978 4.76199 14.4177 5.33048C14.5437 5.55935 14.7728 5.68596 15.0096 5.68596Z" fill="white"/>
</svg>
