<svg id="Layer_1" enable-background="new 0 0 512.08 512.08" height="512" viewBox="0 0 512.08 512.08" width="512" xmlns="http://www.w3.org/2000/svg"><g><path d="m63.68 245.675h-12.674c-28.125 0-51.006 22.881-51.006 51.006s22.881 51.005 51.006 51.005h18.478c20.078 76.686 89.96 133.436 172.854 133.436h27.404c82.894 0 152.777-56.749 172.854-133.436h18.478c28.125 0 51.005-22.881 51.005-51.006s-22.881-51.005-51.005-51.005h-12.674v-54.995c19.323-20.813 31.159-48.669 31.159-79.241v-80.481h-30c0 16.401-13.344 29.745-29.745 29.745h-237.996c-65.142 0-118.138 52.997-118.138 118.138zm30-66.833c0-48.6 39.539-88.138 88.138-88.138h237.996c10.822 0 20.981-2.893 29.745-7.944v28.679c0 47.736-38.836 86.572-86.572 86.572h-101.483c-24.664 0-44.729-20.065-44.729-44.729h-30c0 24.664-20.065 44.729-44.729 44.729h-48.366zm-42.674 138.844c-11.583 0-21.006-9.423-21.006-21.006s9.423-21.005 21.006-21.005h12.674v26.789c0 5.128.23 10.203.655 15.222zm218.736 133.436h-27.404c-81.97 0-148.658-66.688-148.658-148.658v-74.454h48.367c24.385 0 46.08-11.741 59.729-29.866 13.648 18.125 35.344 29.866 59.729 29.866h101.483c20.044 0 38.922-5.086 55.413-14.034v88.488c-.001 81.97-66.689 148.658-148.659 148.658zm191.333-133.436h-13.33c.426-5.02.655-10.094.655-15.222v-26.789h12.674c11.583 0 21.005 9.423 21.005 21.006s-9.422 21.005-21.004 21.005z"/><path d="m175.79 270.777h30v30.002h-30z"/><path d="m306.29 270.777h30v30.002h-30z"/><path d="m256.056 382.071c-17.645 0-32-14.355-32-32h-30c0 34.187 27.813 62 62 62s62-27.813 62-62h-30c0 17.645-14.355 32-32 32z"/></g></svg>