<svg width="50" height="50" viewBox="0 0 50 50" fill="none" xmlns="http://www.w3.org/2000/svg">
<g clip-path="url(#clip0_727_12139)">
<path d="M14.4535 37.0426C12.269 36.931 12.3102 33.8585 14.4534 33.7518C20.5245 33.7729 36.5375 33.7575 42.8016 33.7619C44.515 33.7619 45.9808 32.5959 46.3661 30.9267L49.9231 15.5239C50.1268 14.6419 49.9212 13.7292 49.3592 13.0197C48.7972 12.3102 47.9558 11.8976 47.0508 11.8976C44.5308 11.8976 23.14 11.8008 12.1837 11.7571L10.447 5.31296C10.03 3.77298 8.6247 2.69751 7.02932 2.69751H1.46562C0.656208 2.69751 0 3.35372 0 4.16313C0 4.97255 0.656208 5.62875 1.46562 5.62875H7.02932C7.30398 5.62875 7.54581 5.81391 7.61723 6.07743L14.2873 30.8246C13.1145 30.8672 12.0221 31.3442 11.1937 32.1847C10.3234 33.0679 9.85592 34.2371 9.87751 35.4769C9.9207 37.9565 11.9735 39.9738 14.4535 39.9738H16.5906C16.2729 40.6405 16.0946 41.3859 16.0946 42.1723C16.0946 45.0009 18.3958 47.3022 21.2245 47.3022C24.0531 47.3022 26.3543 45.0009 26.3543 42.1723C26.3543 41.3858 26.1759 40.6405 25.8583 39.9738H35.1128C34.7954 40.6403 34.6171 41.3853 34.6171 42.1715C34.6171 45.0002 36.9184 47.3014 39.747 47.3014C42.5756 47.3014 44.877 45.0001 44.877 42.1715C44.877 41.3548 44.6841 40.5825 44.3431 39.8964C44.9231 39.7011 45.3413 39.154 45.3413 38.5082C45.3413 37.6988 44.6851 37.0426 43.8757 37.0426H14.4535ZM23.423 42.1724C23.423 43.3848 22.4367 44.371 21.2244 44.371C20.012 44.371 19.0257 43.3848 19.0257 42.1724C19.0257 40.9607 20.011 39.9748 21.2225 39.9739H21.2262C22.4377 39.9748 23.423 40.9607 23.423 42.1724ZM39.7471 44.3702C38.5348 44.3702 37.5485 43.3839 37.5485 42.1716C37.5485 40.9713 38.5156 39.9931 39.7114 39.9739H39.7829C40.9788 39.9931 41.9459 40.9713 41.9459 42.1716C41.9458 43.3839 40.9595 44.3702 39.7471 44.3702ZM47.0615 14.8396C47.0702 14.8505 47.069 14.8557 47.0671 14.8641L45.5684 21.3544H40.4932L41.3574 14.8057L47.0391 14.8286C47.0477 14.8288 47.0529 14.8288 47.0615 14.8396ZM31.9514 30.8305V24.2856H37.1497L36.286 30.8305H31.9514ZM24.6837 30.8305L23.8129 24.2856H29.0202V30.8305H24.6837ZM17.9367 30.8305H17.9321C17.5749 30.8304 17.2601 30.5895 17.1672 30.2462L15.5607 24.2856H20.8558L21.7266 30.8305H17.9367ZM23.4229 21.3545L22.5415 14.73L29.0201 14.7561V21.3545H23.4229ZM31.9514 21.3545V14.7679L38.4023 14.7939L37.5365 21.3545H31.9514ZM19.5828 14.718L20.4658 21.3544H14.7706L12.9748 14.6913L19.5828 14.718ZM42.8016 30.8305H39.2425L40.1063 24.2856H44.8913L43.51 30.267C43.4334 30.5989 43.1422 30.8305 42.8016 30.8305Z" fill="#DB1F35"/>
</g>
<defs>
<clipPath id="clip0_727_12139">
<rect width="50" height="50" fill="white"/>
</clipPath>
</defs>
</svg>
