<svg width="30" height="30" viewBox="0 0 30 30" fill="none" xmlns="http://www.w3.org/2000/svg">
<path d="M21.5981 4.19922C21.5981 2.54512 20.2522 1.19922 18.5981 1.19922H5.39807C3.74397 1.19922 2.39807 2.54512 2.39807 4.19922V25.7992C2.39807 27.4533 3.74397 28.7992 5.39807 28.7992H18.5981C20.2522 28.7992 21.5981 27.4533 21.5981 25.7992C21.5981 24.0891 21.5981 19.788 21.5981 17.9992H27.6019V7.79922H21.5981C21.5981 7.72108 21.5981 4.07208 21.5981 4.19922ZM3.59807 4.19922C3.59807 3.20664 4.40549 2.39922 5.39807 2.39922H18.5981C19.5906 2.39922 20.3981 3.20664 20.3981 4.19922V4.79922H3.59807V4.19922ZM20.3981 25.7992C20.3981 26.7918 19.5906 27.5992 18.5981 27.5992H5.39807C4.40549 27.5992 3.59807 26.7918 3.59807 25.7992V23.9992H20.3981V25.7992ZM26.4019 16.7992H20.0275L17.4019 19.0823V16.7992H15.6019V8.99922H26.4019V16.7992ZM20.3981 7.79922H14.4019V17.9992H16.2019V21.7161L20.3981 18.0672V22.7992H3.59807V5.99922H20.3981V7.79922Z" fill="black"/>
<path d="M10.068 25.2012H13.9254V26.4012H10.068V25.2012Z" fill="black"/>
<path d="M17.403 10.7988H24.603V11.9988H17.403V10.7988Z" fill="black"/>
<path d="M17.403 13.1992H22.203V14.3992H17.403V13.1992Z" fill="black"/>
</svg>
