<svg width="56" height="57" viewBox="0 0 56 47" fill="none" xmlns="http://www.w3.org/2000/svg">
<g filter="url(#filter0_d_724_169286)">
<rect x="5.5" y="2.49997" width="45" height="45" rx="5" fill="#DB1F35"/>
</g>
<path d="M16.7147 14.3091H39.2147C39.4775 14.3089 39.7401 14.3256 40.0008 14.359C39.9124 13.7387 39.6993 13.1427 39.3744 12.6069C39.0495 12.0712 38.6194 11.6068 38.1101 11.2418C37.6009 10.8767 37.023 10.6186 36.4112 10.4829C35.7995 10.3473 35.1667 10.3369 34.5508 10.4524L16.0467 13.6116H16.0256C14.8641 13.8337 13.8312 14.4908 13.1379 15.4488C14.1824 14.7059 15.4328 14.3074 16.7147 14.3091Z" fill="white"/>
<path d="M39.2149 15.9997H16.7149C15.5219 16.001 14.378 16.4755 13.5344 17.3192C12.6908 18.1628 12.2162 19.3066 12.2149 20.4997V33.9997C12.2162 35.1928 12.6908 36.3366 13.5344 37.1802C14.378 38.0239 15.5219 38.4984 16.7149 38.4997H39.2149C40.408 38.4984 41.5518 38.0239 42.3955 37.1802C43.2391 36.3366 43.7136 35.1928 43.7149 33.9997V20.4997C43.7136 19.3066 43.2391 18.1628 42.3955 17.3192C41.5518 16.4755 40.408 16.001 39.2149 15.9997ZM35.8751 29.4997C35.4301 29.4997 34.9951 29.3677 34.6251 29.1205C34.255 28.8733 33.9667 28.5219 33.7964 28.1107C33.6261 27.6996 33.5815 27.2472 33.6683 26.8108C33.7551 26.3743 33.9694 25.9734 34.2841 25.6587C34.5988 25.344 34.9997 25.1298 35.4361 25.0429C35.8726 24.9561 36.325 25.0007 36.7361 25.171C37.1473 25.3413 37.4987 25.6297 37.7459 25.9997C37.9931 26.3697 38.1251 26.8047 38.1251 27.2497C38.1251 27.8464 37.888 28.4187 37.4661 28.8407C37.0441 29.2627 36.4718 29.4997 35.8751 29.4997Z" fill="white"/>
<path d="M12.25 25.2422V18.2461C12.25 16.7224 13.0937 14.168 16.0222 13.6146C18.5078 13.1484 20.9687 13.1484 20.9687 13.1484C20.9687 13.1484 22.5859 14.2734 21.25 14.2734C19.914 14.2734 19.9492 15.9961 21.25 15.9961C22.5507 15.9961 21.25 17.6484 21.25 17.6484L16.0117 23.5898L12.25 25.2422Z" fill="white"/>
<defs>
<filter id="filter0_d_724_169286" x="-4.76837e-07" y="0.499969" width="56" height="56" filterUnits="userSpaceOnUse" color-interpolation-filters="sRGB">
<feFlood flood-opacity="0" result="BackgroundImageFix"/>
<feColorMatrix in="SourceAlpha" type="matrix" values="0 0 0 0 0 0 0 0 0 0 0 0 0 0 0 0 0 0 127 0" result="hardAlpha"/>
<feOffset dy="3.5"/>
<feGaussianBlur stdDeviation="2.75"/>
<feColorMatrix type="matrix" values="0 0 0 0 0 0 0 0 0 0 0 0 0 0 0 0 0 0 0.02 0"/>
<feBlend mode="normal" in2="BackgroundImageFix" result="effect1_dropShadow_724_169286"/>
<feBlend mode="normal" in="SourceGraphic" in2="effect1_dropShadow_724_169286" result="shape"/>
</filter>
</defs>
</svg>
