<svg width="56" height="57" viewBox="0 0 56 57" fill="none" xmlns="http://www.w3.org/2000/svg">
<g filter="url(#filter0_d_724_169259)">
<rect x="5.5" y="2.49994" width="45" height="45" rx="5" fill="#DB1F35"/>
</g>
<path d="M22.3748 38.4998C23.6174 38.4998 24.6248 37.4924 24.6248 36.2498C24.6248 35.0072 23.6174 33.9998 22.3748 33.9998C21.1321 33.9998 20.1248 35.0072 20.1248 36.2498C20.1248 37.4924 21.1321 38.4998 22.3748 38.4998Z" fill="white"/>
<path d="M38.1249 38.4998C39.3675 38.4998 40.3749 37.4924 40.3749 36.2498C40.3749 35.0072 39.3675 33.9998 38.1249 33.9998C36.8822 33.9998 35.8749 35.0072 35.8749 36.2498C35.8749 37.4924 36.8822 38.4998 38.1249 38.4998Z" fill="white"/>
<path d="M42.1186 15.4927C41.9606 15.2993 41.7614 15.1436 41.5357 15.0369C41.31 14.9301 41.0633 14.8749 40.8136 14.8753H19.414L18.983 12.4299C18.937 12.1694 18.8008 11.9334 18.5981 11.7634C18.3955 11.5934 18.1394 11.5003 17.8749 11.5003H13.3749C13.0765 11.5003 12.7904 11.6188 12.5794 11.8298C12.3684 12.0408 12.2499 12.327 12.2499 12.6253C12.2499 12.9237 12.3684 13.2098 12.5794 13.4208C12.7904 13.6318 13.0765 13.7503 13.3749 13.7503H16.9313L20.1418 31.9458C20.1877 32.2063 20.324 32.4422 20.5266 32.6122C20.7293 32.7822 20.9854 32.8754 21.2499 32.8753H39.2499C39.5482 32.8753 39.8344 32.7568 40.0454 32.5458C40.2563 32.3348 40.3749 32.0487 40.3749 31.7503C40.3749 31.4519 40.2563 31.1658 40.0454 30.9548C39.8344 30.7438 39.5482 30.6253 39.2499 30.6253H22.1935L21.7969 28.3753H38.7886C39.1788 28.3748 39.5568 28.2395 39.8586 27.9924C40.1605 27.7452 40.3677 27.4014 40.4452 27.019L42.4702 16.894C42.519 16.649 42.5127 16.3961 42.452 16.1538C42.3912 15.9115 42.2773 15.6856 42.1186 15.4927Z" fill="white"/>
<defs>
<filter id="filter0_d_724_169259" x="-4.76837e-07" y="0.499939" width="56" height="56" filterUnits="userSpaceOnUse" color-interpolation-filters="sRGB">
<feFlood flood-opacity="0" result="BackgroundImageFix"/>
<feColorMatrix in="SourceAlpha" type="matrix" values="0 0 0 0 0 0 0 0 0 0 0 0 0 0 0 0 0 0 127 0" result="hardAlpha"/>
<feOffset dy="3.5"/>
<feGaussianBlur stdDeviation="2.75"/>
<feColorMatrix type="matrix" values="0 0 0 0 0 0 0 0 0 0 0 0 0 0 0 0 0 0 0.02 0"/>
<feBlend mode="normal" in2="BackgroundImageFix" result="effect1_dropShadow_724_169259"/>
<feBlend mode="normal" in="SourceGraphic" in2="effect1_dropShadow_724_169259" result="shape"/>
</filter>
</defs>
</svg>
