<svg width="32" height="31" viewBox="0 0 32 31" fill="none" xmlns="http://www.w3.org/2000/svg">
<g filter="url(#filter0_d_718_169394)">
<rect x="6" y="2" width="19.999" height="19.999" rx="5" fill="#D51F26"/>
</g>
<path d="M13.5 17.9999C14.0523 17.9999 14.5 17.5522 14.5 16.9999C14.5 16.4477 14.0523 15.9999 13.5 15.9999C12.9477 15.9999 12.5 16.4477 12.5 16.9999C12.5 17.5522 12.9477 17.9999 13.5 17.9999Z" fill="white"/>
<path d="M20.5 17.9999C21.0523 17.9999 21.5 17.5522 21.5 16.9999C21.5 16.4477 21.0523 15.9999 20.5 15.9999C19.9477 15.9999 19.5 16.4477 19.5 16.9999C19.5 17.5522 19.9477 17.9999 20.5 17.9999Z" fill="white"/>
<path d="M22.275 7.77456C22.2048 7.68864 22.1163 7.61943 22.0159 7.57197C21.9156 7.52452 21.806 7.49999 21.695 7.50018H12.1841L11.9925 6.41331C11.9721 6.29754 11.9115 6.19266 11.8214 6.11711C11.7314 6.04156 11.6176 6.00016 11.5 6.00018H9.5C9.36739 6.00018 9.24021 6.05286 9.14645 6.14663C9.05268 6.2404 9 6.36757 9 6.50018C9 6.63279 9.05268 6.75997 9.14645 6.85374C9.24021 6.9475 9.36739 7.00018 9.5 7.00018H11.0806L12.5075 15.0871C12.5279 15.2028 12.5885 15.3077 12.6786 15.3833C12.7686 15.4588 12.8824 15.5002 13 15.5002H21C21.1326 15.5002 21.2598 15.4475 21.3536 15.3537C21.4473 15.26 21.5 15.1328 21.5 15.0002C21.5 14.8676 21.4473 14.7404 21.3536 14.6466C21.2598 14.5529 21.1326 14.5002 21 14.5002H13.4194L13.2431 13.5002H20.795C20.9684 13.5 21.1364 13.4398 21.2706 13.33C21.4047 13.2201 21.4968 13.0673 21.5312 12.8974L22.4312 8.39737C22.4529 8.28846 22.4502 8.1761 22.4231 8.0684C22.3961 7.96069 22.3455 7.86033 22.275 7.77456V7.77456Z" fill="white"/>
<defs>
<filter id="filter0_d_718_169394" x="0.5" y="-2.38419e-07" width="30.999" height="30.999" filterUnits="userSpaceOnUse" color-interpolation-filters="sRGB">
<feFlood flood-opacity="0" result="BackgroundImageFix"/>
<feColorMatrix in="SourceAlpha" type="matrix" values="0 0 0 0 0 0 0 0 0 0 0 0 0 0 0 0 0 0 127 0" result="hardAlpha"/>
<feOffset dy="3.5"/>
<feGaussianBlur stdDeviation="2.75"/>
<feColorMatrix type="matrix" values="0 0 0 0 0 0 0 0 0 0 0 0 0 0 0 0 0 0 0.02 0"/>
<feBlend mode="normal" in2="BackgroundImageFix" result="effect1_dropShadow_718_169394"/>
<feBlend mode="normal" in="SourceGraphic" in2="effect1_dropShadow_718_169394" result="shape"/>
</filter>
</defs>
</svg>
