<svg width="59" height="40" viewBox="0 0 59 40" fill="none" xmlns="http://www.w3.org/2000/svg">
<rect width="59" height="40" rx="5" fill="#DB1F35"/>
<g clip-path="url(#clip0_1516_216961)">
<path d="M26.7188 34.9999C32.3627 34.9999 38.4375 33.753 38.4375 31.0156V26.7969C38.4375 25.8057 37.6919 24.9727 36.2116 24.312L38.4616 20.8193L40.4244 18.8562C40.7741 18.5036 40.9703 18.0271 40.9703 17.5305C40.9703 17.0339 40.7742 16.5574 40.4247 16.2047L39.1312 14.9113L43.9616 10.5201C44.2792 10.2313 44.5349 9.88103 44.7133 9.49053C44.8916 9.10002 44.9888 8.67739 44.999 8.24821C45.0092 7.81904 44.9322 7.39226 44.7726 6.99372C44.6131 6.59518 44.3743 6.23317 44.0707 5.92961C43.7672 5.62606 43.4052 5.38728 43.0066 5.22772C42.6081 5.06817 42.1813 4.99117 41.7521 5.00139C41.3229 5.0116 40.9003 5.10882 40.5098 5.28715C40.1193 5.46548 39.7691 5.72121 39.4803 6.03887L35.089 10.8691L33.7958 9.57595C33.4431 9.22632 32.9666 9.03013 32.47 9.03009C31.9734 9.03005 31.4969 9.22615 31.1442 9.57572L29.226 11.4936L26.9424 12.9712C25.2615 12.9972 16.9949 12.9921 17.37 16.281C15.7967 16.9497 15 17.8037 15 18.8283V23.047C15.0191 23.4289 15.1326 23.8 15.3304 24.1273C15.5282 24.4545 15.804 24.7276 16.1332 24.922C15.804 25.1165 15.5282 25.3895 15.3304 25.7167C15.1327 26.0439 15.0191 26.4151 15 26.7969V31.0156C15 33.753 21.0747 34.9999 26.7188 34.9999ZM40.8678 7.29998C40.9859 7.17008 41.1291 7.06549 41.2888 6.99256C41.4485 6.91963 41.6213 6.87988 41.7968 6.8757C41.9724 6.87152 42.1469 6.90301 42.3099 6.96826C42.4729 7.03351 42.6209 7.13117 42.7451 7.25531C42.8692 7.37945 42.9669 7.52749 43.0321 7.69048C43.0974 7.85347 43.1289 8.028 43.1247 8.20351C43.1205 8.37903 43.0808 8.55187 43.0078 8.71157C42.9349 8.87127 42.8303 9.0145 42.7004 9.1326L37.8042 13.5838L36.4165 12.1961L40.8678 7.29998ZM26.7188 33.1249C20.2524 33.1249 17.0137 31.5896 16.875 31.0156L16.8746 29.0934C19.1084 30.2416 23.0065 30.7812 26.7188 30.7812C30.431 30.7812 34.3292 30.2416 36.563 29.0934L36.5634 31.006C36.4238 31.5896 33.1851 33.1249 26.7188 33.1249ZM27.8024 22.7916C28.6672 23.6009 29.611 24.3212 30.6197 24.9418C29.3243 25.0856 28.022 25.1572 26.7188 25.1563C23.5277 25.1563 20.4701 24.7391 18.5385 24.0401C17.0533 23.5045 16.8771 23.047 16.875 23.047L16.8746 21.1248C19.1084 22.273 23.0065 22.8126 26.7188 22.8126C27.0858 22.8126 27.4441 22.8018 27.8024 22.7916H27.8024ZM26.7188 27.0313C28.9139 27.0477 31.1052 26.8447 33.26 26.4255C33.5196 26.6004 33.8162 26.7129 34.1265 26.7543C34.2835 26.7545 34.438 26.7151 34.5758 26.64C34.7136 26.5649 34.8303 26.4563 34.9152 26.3243L35.1814 25.9111C35.5627 25.9943 36.5657 26.5961 36.5604 26.7929C36.5441 27.4007 33.1665 28.9063 26.7188 28.9063C20.2524 28.9063 17.0137 27.3709 16.8741 26.8063C16.8751 26.8023 17.0241 26.4041 18.2467 25.915C20.3932 26.624 23.4449 27.0313 26.7188 27.0313ZM33.8 24.5935L33.7977 24.5963C29.4936 22.3549 27.6443 20.5054 25.4027 16.2008L29.6912 13.4259L36.5657 20.3002L33.8 24.5935ZM32.4699 10.9014L39.099 17.5304L37.7733 18.856L31.1442 12.227L32.4699 10.9014ZM23.8509 14.9716C23.7294 15.0232 23.6195 15.0988 23.5279 15.1938C23.4362 15.2888 23.3646 15.4012 23.3174 15.5245C23.2702 15.6478 23.2482 15.7793 23.253 15.9112C23.2577 16.0431 23.2889 16.1728 23.3448 16.2924C23.4755 16.5538 23.6039 16.8009 23.7323 17.0476C21.5517 16.835 20.0325 16.4082 19.3874 16.0097C19.9498 15.6599 21.4702 15.1932 23.8509 14.9716ZM18.7119 17.7749C19.9711 18.415 22.1683 18.8624 24.8247 19.0085C25.224 19.6722 25.6597 20.3133 26.1297 20.929C20.0619 20.8381 17.0093 19.3846 16.8741 18.8375C16.8754 18.8323 17.067 18.3348 18.7119 17.7749Z" fill="white"/>
<path d="M29.0625 18.1254C29.5803 18.1254 30 17.7056 30 17.1879C30 16.6701 29.5803 16.2504 29.0625 16.2504C28.5447 16.2504 28.125 16.6701 28.125 17.1879C28.125 17.7056 28.5447 18.1254 29.0625 18.1254Z" fill="white"/>
</g>
<defs>
<clipPath id="clip0_1516_216961">
<rect width="30" height="30" fill="white" transform="translate(15 5)"/>
</clipPath>
</defs>
</svg>
