<svg width="30" height="30" viewBox="0 0 30 30" fill="none" xmlns="http://www.w3.org/2000/svg">
<g clip-path="url(#clip0_7038_224071)">
<path d="M11.7188 29.9999C17.3627 29.9999 23.4375 28.753 23.4375 26.0156V21.7969C23.4375 20.8057 22.6919 19.9727 21.2116 19.312L23.4616 15.8193L25.4244 13.8562C25.7741 13.5036 25.9703 13.0271 25.9703 12.5305C25.9703 12.0339 25.7742 11.5574 25.4247 11.2047L24.1312 9.91128L28.9616 5.52006C29.2792 5.23128 29.5349 4.88103 29.7133 4.49053C29.8916 4.10002 29.9888 3.67739 29.999 3.24821C30.0092 2.81904 29.9322 2.39226 29.7726 1.99372C29.6131 1.59518 29.3743 1.23317 29.0707 0.929614C28.7672 0.626059 28.4052 0.387276 28.0066 0.227724C27.6081 0.0681723 27.1813 -0.00882793 26.7521 0.00138643C26.3229 0.0116008 25.9003 0.108817 25.5098 0.287148C25.1193 0.465479 24.7691 0.721214 24.4803 1.03887L20.089 5.86913L18.7958 4.57595C18.4431 4.22632 17.9666 4.03013 17.47 4.03009C16.9734 4.03005 16.4969 4.22615 16.1442 4.57572L14.226 6.49363L11.9424 7.97119C10.2615 7.99724 1.99488 7.99209 2.37 11.281C0.796701 11.9497 0 12.8037 0 13.8283V18.047C0.0191104 18.4289 0.132634 18.8 0.330404 19.1273C0.528174 19.4545 0.804016 19.7276 1.13323 19.922C0.804029 20.1165 0.528193 20.3895 0.330423 20.7167C0.132653 21.0439 0.0191225 21.4151 0 21.7969L0 26.0156C0 28.753 6.07475 29.9999 11.7188 29.9999ZM25.8678 2.29998C25.9859 2.17008 26.1291 2.06549 26.2888 1.99256C26.4485 1.91963 26.6213 1.87988 26.7968 1.8757C26.9724 1.87152 27.1469 1.90301 27.3099 1.96826C27.4729 2.03351 27.6209 2.13117 27.7451 2.25531C27.8692 2.37945 27.9669 2.52749 28.0321 2.69048C28.0974 2.85347 28.1289 3.028 28.1247 3.20351C28.1205 3.37903 28.0808 3.55187 28.0078 3.71157C27.9349 3.87127 27.8303 4.0145 27.7004 4.1326L22.8042 8.58381L21.4165 7.19613L25.8678 2.29998ZM11.7188 28.1249C5.25238 28.1249 2.0137 26.5896 1.875 26.0156L1.87457 24.0934C4.10839 25.2416 8.00648 25.7812 11.7188 25.7812C15.431 25.7812 19.3292 25.2416 21.563 24.0934L21.5634 26.006C21.4238 26.5896 18.1851 28.1249 11.7188 28.1249ZM12.8024 17.7916C13.6672 18.6009 14.611 19.3212 15.6197 19.9418C14.3243 20.0856 13.022 20.1572 11.7188 20.1563C8.52768 20.1563 5.47005 19.7391 3.53851 19.0401C2.05329 18.5045 1.87705 18.047 1.875 18.047L1.87457 16.1248C4.10839 17.273 8.00648 17.8126 11.7188 17.8126C12.0858 17.8126 12.4441 17.8018 12.8024 17.7916H12.8024ZM11.7188 22.0313C13.9139 22.0477 16.1052 21.8447 18.26 21.4255C18.5196 21.6004 18.8162 21.7129 19.1265 21.7543C19.2835 21.7545 19.438 21.7151 19.5758 21.64C19.7136 21.5649 19.8303 21.4563 19.9152 21.3243L20.1814 20.9111C20.5627 20.9943 21.5657 21.5961 21.5604 21.7929C21.5441 22.4007 18.1665 23.9063 11.7188 23.9063C5.25238 23.9063 2.0137 22.3709 1.87409 21.8063C1.87515 21.8023 2.02409 21.4041 3.24669 20.915C5.39317 21.624 8.4449 22.0313 11.7188 22.0313ZM18.8 19.5935L18.7977 19.5963C14.4936 17.3549 12.6443 15.5054 10.4027 11.2008L14.6912 8.42589L21.5657 15.3002L18.8 19.5935ZM17.4699 5.90137L24.099 12.5304L22.7733 13.856L16.1442 7.22703L17.4699 5.90137ZM8.85088 9.97158C8.72938 10.0232 8.61953 10.0988 8.52787 10.1938C8.43621 10.2888 8.36463 10.4012 8.31739 10.5245C8.27016 10.6478 8.24824 10.7793 8.25295 10.9112C8.25766 11.0431 8.2889 11.1728 8.3448 11.2924C8.47554 11.5538 8.60389 11.8009 8.73229 12.0476C6.5517 11.835 5.03253 11.4082 4.38745 11.0097C4.94982 10.6599 6.4702 10.1932 8.85088 9.97158ZM3.71189 12.7749C4.97108 13.415 7.16831 13.8624 9.82475 14.0085C10.224 14.6722 10.6597 15.3133 11.1297 15.929C5.06186 15.8381 2.00932 14.3846 1.87408 13.8375C1.87537 13.8323 2.06697 13.3348 3.71189 12.7749Z" fill="white"/>
<path d="M14.0625 13.1255C14.5803 13.1255 15 12.7058 15 12.188C15 11.6702 14.5803 11.2505 14.0625 11.2505C13.5447 11.2505 13.125 11.6702 13.125 12.188C13.125 12.7058 13.5447 13.1255 14.0625 13.1255Z" fill="white"/>
</g>
<defs>
<clipPath id="clip0_7038_224071">
<rect width="30" height="30" fill="white"/>
</clipPath>
</defs>
</svg>
