<svg width="30" height="30" viewBox="0 0 30 30" fill="none" xmlns="http://www.w3.org/2000/svg">
<g clip-path="url(#clip0_379_130192)">
<path d="M27.312 23.9261C27.8562 23.2673 28.1836 22.4231 28.1836 21.5039C28.1836 19.4038 26.4751 17.6953 24.375 17.6953C22.2749 17.6953 20.5664 19.4038 20.5664 21.5039C20.5664 22.4231 20.8938 23.2673 21.438 23.9261C20.7417 24.2327 20.1392 24.7141 19.6875 25.3155C19.2358 24.7141 18.6333 24.2327 17.937 23.9261C18.4812 23.2673 18.8086 22.4231 18.8086 21.5039C18.8086 19.4038 17.1001 17.6953 15 17.6953C12.8999 17.6953 11.1914 19.4038 11.1914 21.5039C11.1914 22.4231 11.5188 23.2673 12.063 23.9261C11.3667 24.2327 10.7642 24.7141 10.3125 25.3155C9.8608 24.7141 9.25828 24.2327 8.56201 23.9261C9.10623 23.2673 9.43359 22.4231 9.43359 21.5039C9.43359 19.4038 7.72506 17.6953 5.625 17.6953C3.52494 17.6953 1.81641 19.4038 1.81641 21.5039C1.81641 22.4231 2.14377 23.2673 2.68799 23.9261C1.14146 24.6072 0.0585938 26.1537 0.0585938 27.9492V29.1211C0.0585938 29.6065 0.452109 30 0.9375 30H29.0625C29.5479 30 29.9414 29.6065 29.9414 29.1211V27.9492C29.9414 26.1537 28.8585 24.6072 27.312 23.9261ZM24.375 19.4531C25.5058 19.4531 26.4258 20.3731 26.4258 21.5039C26.4258 22.6347 25.5058 23.5547 24.375 23.5547C23.2442 23.5547 22.3242 22.6347 22.3242 21.5039C22.3242 20.3731 23.2442 19.4531 24.375 19.4531ZM15 19.4531C16.1308 19.4531 17.0508 20.3731 17.0508 21.5039C17.0508 22.6347 16.1308 23.5547 15 23.5547C13.8692 23.5547 12.9492 22.6347 12.9492 21.5039C12.9492 20.3731 13.8692 19.4531 15 19.4531ZM5.625 19.4531C6.7558 19.4531 7.67578 20.3731 7.67578 21.5039C7.67578 22.6347 6.7558 23.5547 5.625 23.5547C4.4942 23.5547 3.57422 22.6347 3.57422 21.5039C3.57422 20.3731 4.4942 19.4531 5.625 19.4531ZM1.81641 27.9492C1.81641 26.4953 2.99924 25.3125 4.45312 25.3125H6.79688C8.25076 25.3125 9.43359 26.4953 9.43359 27.9492V28.2422H1.81641V27.9492ZM11.1914 27.9492C11.1914 26.4953 12.3742 25.3125 13.8281 25.3125H16.1719C17.6258 25.3125 18.8086 26.4953 18.8086 27.9492V28.2422H11.1914V27.9492ZM28.1836 28.2422H20.5664V27.9492C20.5664 26.4953 21.7492 25.3125 23.2031 25.3125H25.5469C27.0008 25.3125 28.1836 26.4953 28.1836 27.9492V28.2422Z" fill="black"/>
<path d="M11.1499 7.65006L10.7026 10.2581C10.6153 10.7673 10.8207 11.2724 11.2387 11.5761C11.4749 11.7477 11.7513 11.8349 12.0296 11.8349C12.2437 11.8349 12.459 11.7832 12.6579 11.6787L15 10.4473L17.3421 11.6787C17.7996 11.919 18.3432 11.8798 18.7613 11.5761C19.1793 11.2723 19.3847 10.7673 19.2973 10.2581L18.85 7.65006L20.7448 5.80307C21.1149 5.44242 21.2455 4.91314 21.0858 4.42172C20.9262 3.93023 20.5093 3.57885 19.9981 3.50461L17.3794 3.1241L16.2085 0.751172C15.9798 0.287812 15.5167 0 15 0C14.4833 0 14.0203 0.287812 13.7916 0.751172L12.6205 3.12398L10.002 3.50449C9.49063 3.57879 9.07379 3.93018 8.91413 4.4216C8.75446 4.91303 8.88512 5.4423 9.25514 5.80295L11.1499 7.65006ZM15.409 8.67633C15.281 8.60906 15.1405 8.57537 15 8.57537C14.8596 8.57537 14.7191 8.609 14.591 8.67633L12.5757 9.73588L12.9606 7.49174C13.0095 7.20662 12.915 6.9157 12.7078 6.71379L11.0774 5.12449L13.3306 4.79707C13.6169 4.75547 13.8644 4.5757 13.9924 4.31631L15 2.27455L16.0077 4.31631C16.1357 4.5757 16.3832 4.75547 16.6694 4.79707L18.9226 5.12449L17.2922 6.71379C17.0851 6.9157 16.9906 7.20662 17.0394 7.49174L17.4243 9.73588L15.409 8.67633Z" fill="black"/>
<path d="M1.89387 10.901L1.56329 12.8283C1.48272 13.2983 1.67221 13.7642 2.05794 14.0445C2.44366 14.3246 2.9454 14.3609 3.36739 14.1391L5.09819 13.2291L6.82899 14.1391C7.01257 14.2355 7.21114 14.2832 7.40878 14.2832C7.66548 14.2832 7.92053 14.2028 8.13844 14.0445C8.52417 13.7642 8.71372 13.2983 8.63309 12.8283L8.30251 10.901L9.70272 9.53613C10.0441 9.20338 10.1647 8.715 10.0174 8.2616C9.87007 7.8082 9.48552 7.48389 9.0136 7.41527L7.07854 7.13408L6.21317 5.38061C6.00218 4.95305 5.57497 4.6875 5.09819 4.6875C4.62141 4.6875 4.19421 4.95305 3.98315 5.38061L3.11778 7.13408L1.18261 7.41527C0.710808 7.48389 0.326257 7.8082 0.178953 8.2616C0.0316478 8.715 0.152234 9.20338 0.493601 9.53613L1.89387 10.901ZM3.82782 8.80717C4.11411 8.76557 4.36155 8.5858 4.48958 8.32641L5.09819 7.09324L5.7068 8.32641C5.83483 8.5858 6.08233 8.76557 6.36856 8.80717L7.72946 9.00492L6.74468 9.96486C6.53755 10.1668 6.44303 10.4577 6.4919 10.7428L6.72434 12.0981L5.50718 11.4582C5.25118 11.3236 4.9452 11.3236 4.68921 11.4582L3.47204 12.0981L3.70448 10.7428C3.75335 10.4577 3.65884 10.1668 3.45171 9.96486L2.46692 9.00492L3.82782 8.80717Z" fill="black"/>
<path d="M19.9836 8.2616C19.8363 8.715 19.9569 9.20338 20.2983 9.53613L21.6985 10.901L21.3679 12.8283C21.2874 13.2983 21.4768 13.7642 21.8626 14.0445C22.2483 14.3246 22.75 14.3609 23.172 14.1391L24.9028 13.2291L26.6336 14.1391C26.8172 14.2355 27.0158 14.2832 27.2134 14.2832C27.4701 14.2832 27.7252 14.2028 27.9431 14.0445C28.3288 13.7642 28.5183 13.2983 28.4377 12.8283L28.1071 10.901L29.5074 9.53613C29.8487 9.20338 29.9693 8.715 29.822 8.2616C29.6747 7.8082 29.2901 7.48389 28.8182 7.41527L26.8832 7.13408L26.0177 5.38061C25.8069 4.95305 25.3797 4.6875 24.9029 4.6875C24.4261 4.6875 23.9989 4.95305 23.7879 5.38061L22.9225 7.13408L20.9874 7.41527C20.5155 7.48389 20.1309 7.8082 19.9836 8.2616ZM23.6325 8.80717C23.9188 8.76557 24.1662 8.5858 24.2943 8.32641L24.9029 7.09324L25.5115 8.32641C25.6395 8.5858 25.887 8.76557 26.1733 8.80717L27.5341 9.00492L26.5494 9.96486C26.3422 10.1668 26.2477 10.4577 26.2966 10.7428L26.529 12.0981L25.3119 11.4582C25.0559 11.3236 24.7499 11.3236 24.4939 11.4582L23.2767 12.0981L23.5092 10.7428C23.558 10.4577 23.4635 10.1668 23.2564 9.96486L22.2716 9.00492L23.6325 8.80717Z" fill="black"/>
</g>
<defs>
<clipPath id="clip0_379_130192">
<rect width="30" height="30" fill="white"/>
</clipPath>
</defs>
</svg>
