<svg width="32" height="31" viewBox="0 0 32 31" fill="none" xmlns="http://www.w3.org/2000/svg">
<g filter="url(#filter0_d_718_169371)">
<rect x="6" y="2" width="19.999" height="19.999" rx="5" fill="#D51F26"/>
</g>
<path d="M10.9843 7.24851H20.9843C21.1012 7.24846 21.2178 7.25587 21.3337 7.2707C21.2944 6.995 21.1997 6.73012 21.0553 6.49201C20.9109 6.2539 20.7198 6.0475 20.4934 5.88526C20.2671 5.72302 20.0102 5.6083 19.7384 5.548C19.4665 5.48771 19.1852 5.4831 18.9115 5.53445L10.6875 6.93851H10.6781C10.1619 7.03723 9.7028 7.3293 9.39465 7.75507C9.8589 7.42486 10.4146 7.24778 10.9843 7.24851Z" fill="white"/>
<path d="M20.9844 7.99988H10.9844C10.4541 8.00046 9.94575 8.21136 9.5708 8.5863C9.19585 8.96125 8.98495 9.46962 8.98438 9.99988V15.9999C8.98495 16.5301 9.19585 17.0385 9.5708 17.4134C9.94575 17.7884 10.4541 17.9993 10.9844 17.9999H20.9844C21.5146 17.9993 22.023 17.7884 22.3979 17.4134C22.7729 17.0385 22.9838 16.5301 22.9844 15.9999V9.99988C22.9838 9.46962 22.7729 8.96125 22.3979 8.5863C22.023 8.21136 21.5146 8.00046 20.9844 7.99988ZM19.5 13.9999C19.3022 13.9999 19.1089 13.9412 18.9444 13.8313C18.78 13.7215 18.6518 13.5653 18.5761 13.3826C18.5004 13.1998 18.4806 12.9988 18.5192 12.8048C18.5578 12.6108 18.653 12.4326 18.7929 12.2928C18.9327 12.1529 19.1109 12.0577 19.3049 12.0191C19.4989 11.9805 19.7 12.0003 19.8827 12.076C20.0654 12.1517 20.2216 12.2799 20.3315 12.4443C20.4413 12.6088 20.5 12.8021 20.5 12.9999C20.5 13.2651 20.3946 13.5194 20.2071 13.707C20.0196 13.8945 19.7652 13.9999 19.5 13.9999Z" fill="white"/>
<path d="M9 12.1077V8.99829C9 8.3211 9.375 7.18579 10.6766 6.93985C11.7812 6.73267 12.875 6.73267 12.875 6.73267C12.875 6.73267 13.5937 7.23267 13 7.23267C12.4062 7.23267 12.4219 7.99829 13 7.99829C13.5781 7.99829 13 8.73267 13 8.73267L10.6719 11.3733L9 12.1077Z" fill="white"/>
<defs>
<filter id="filter0_d_718_169371" x="0.5" y="-2.38419e-07" width="30.999" height="30.999" filterUnits="userSpaceOnUse" color-interpolation-filters="sRGB">
<feFlood flood-opacity="0" result="BackgroundImageFix"/>
<feColorMatrix in="SourceAlpha" type="matrix" values="0 0 0 0 0 0 0 0 0 0 0 0 0 0 0 0 0 0 127 0" result="hardAlpha"/>
<feOffset dy="3.5"/>
<feGaussianBlur stdDeviation="2.75"/>
<feColorMatrix type="matrix" values="0 0 0 0 0 0 0 0 0 0 0 0 0 0 0 0 0 0 0.02 0"/>
<feBlend mode="normal" in2="BackgroundImageFix" result="effect1_dropShadow_718_169371"/>
<feBlend mode="normal" in="SourceGraphic" in2="effect1_dropShadow_718_169371" result="shape"/>
</filter>
</defs>
</svg>
