<svg width="59" height="40" viewBox="0 0 59 40" fill="none" xmlns="http://www.w3.org/2000/svg">
<rect width="59" height="40" rx="5" fill="#DB1F35"/>
<g clip-path="url(#clip0_185_87118)">
<path d="M34.937 29.0848C34.8681 28.8727 34.6847 28.7181 34.464 28.6861L31.7425 28.2909L30.5259 25.825C30.4273 25.625 30.2235 25.4983 30.0005 25.4983C29.7774 25.4983 29.5737 25.625 29.475 25.825L28.2584 28.2909L25.5369 28.6861C25.3162 28.7181 25.1328 28.8727 25.0639 29.0848C24.9949 29.2969 25.0524 29.5298 25.2121 29.6855L27.1812 31.605L26.7165 34.3149C26.6788 34.5347 26.7691 34.7569 26.9496 34.8879C27.13 35.0191 27.3693 35.0364 27.5667 34.9326L30.0004 33.6533L32.4342 34.9326C32.632 35.0366 32.8712 35.0188 33.0513 34.8879C33.2317 34.7569 33.3221 34.5347 33.2844 34.3149L32.8197 31.605L34.7888 29.6855C34.9485 29.5298 35.006 29.2969 34.937 29.0848ZM31.7811 30.9808C31.643 31.1154 31.58 31.3094 31.6126 31.4995L31.9287 33.3429L30.2731 32.4726C30.1877 32.4277 30.0941 32.4053 30.0005 32.4053C29.9068 32.4053 29.8132 32.4278 29.7278 32.4726L28.0722 33.3429L28.3883 31.4995C28.421 31.3094 28.3579 31.1154 28.2199 30.9808L26.8804 29.6751L28.7318 29.4063C28.9227 29.3785 29.0877 29.2587 29.1731 29.0856L30.0004 27.4086L30.8279 29.0857C30.9132 29.2587 31.0782 29.3786 31.2691 29.4063L33.1205 29.6751L31.7811 30.9808Z" fill="white"/>
<path d="M24.9013 25.5694C24.8324 25.3573 24.649 25.2027 24.4283 25.1706L21.7074 24.7755L20.4908 22.3096C20.3921 22.1096 20.1884 21.983 19.9654 21.9829C19.9654 21.9829 19.9654 21.9829 19.9653 21.9829C19.7423 21.9829 19.5386 22.1095 19.4399 22.3095L18.2227 24.7754L15.5017 25.1706C15.281 25.2027 15.0977 25.3573 15.0287 25.5694C14.9598 25.7815 15.0172 26.0143 15.177 26.17L17.1461 28.0896L16.6813 30.7995C16.6436 31.0192 16.7339 31.2414 16.9144 31.3725C17.0944 31.5033 17.3337 31.5211 17.5314 31.4171L19.9652 30.1379L22.3984 31.4171C22.5958 31.5209 22.835 31.5036 23.0155 31.3726C23.1959 31.2415 23.2863 31.0193 23.2486 30.7995L22.7839 28.0896L24.753 26.17C24.9128 26.0143 24.9703 25.7815 24.9013 25.5694ZM21.7454 27.4654C21.6073 27.6 21.5443 27.7939 21.5769 27.984L21.893 29.8273L20.2381 28.9572C20.0673 28.8674 19.8635 28.8674 19.6927 28.9572L18.037 29.8275L18.3532 27.9841C18.3858 27.794 18.3228 27.6001 18.1848 27.4655L16.8452 26.1596L18.696 25.8908C18.8869 25.8631 19.0519 25.7432 19.1373 25.5703L19.9652 23.8928L20.7928 25.5702C20.8782 25.7432 21.0431 25.8631 21.234 25.8908L23.0849 26.1596L21.7454 27.4654Z" fill="white"/>
<path d="M44.9716 25.5692C44.9027 25.3571 44.7193 25.2025 44.4986 25.1705L41.7776 24.7752L40.5604 22.3093C40.4617 22.1093 40.258 21.9827 40.035 21.9827C39.812 21.9827 39.6082 22.1093 39.5096 22.3094L38.293 24.7752L35.5721 25.1704C35.3513 25.2025 35.168 25.357 35.099 25.5691C35.0301 25.7812 35.0875 26.0141 35.2473 26.1698L37.2164 28.0893L36.7517 30.7992C36.7139 31.0191 36.8043 31.2412 36.9848 31.3723C37.1653 31.5034 37.4045 31.5207 37.6019 31.4169L40.035 30.1376L42.4688 31.4169C42.6674 31.5213 42.9066 31.5026 43.0859 31.3723C43.2664 31.2412 43.3567 31.019 43.319 30.7992L42.8542 28.0893L44.8233 26.1698C44.9831 26.0141 45.0405 25.7813 44.9716 25.5692ZM41.8157 27.4652C41.6777 27.5998 41.6146 27.7938 41.6472 27.9838L41.9634 29.8273L40.3077 28.957C40.2224 28.9121 40.1287 28.8897 40.0351 28.8897C39.9415 28.8897 39.8478 28.9121 39.7624 28.957L38.1074 29.8271L38.4235 27.9838C38.4562 27.7938 38.3931 27.5998 38.2551 27.4652L36.9156 26.1595L38.7664 25.8906C38.9573 25.8629 39.1223 25.743 39.2076 25.57L40.0352 23.8926L40.8632 25.5701C40.9486 25.743 41.1136 25.8629 41.3044 25.8906L43.1553 26.1595L41.8157 27.4652Z" fill="white"/>
<path d="M30 21.9922C30.3236 21.9922 30.586 21.7299 30.586 21.4062C30.586 21.0826 30.3236 20.8203 30 20.8203C29.6764 20.8203 29.4141 21.0826 29.4141 21.4062C29.4141 21.7299 29.6764 21.9922 30 21.9922Z" fill="white"/>
<path d="M37.6172 21.4063V19.6484C37.6172 17.3868 35.7772 15.5469 33.5156 15.5469C32.8695 15.5469 32.3437 15.0212 32.3437 14.375V13.7738C33.4026 12.6245 34.1016 10.7834 34.1016 9.10156C34.1016 6.49625 32.4211 5 30 5C27.5808 5 25.8984 6.49438 25.8984 9.10156C25.8984 10.7834 26.5974 12.6245 27.6562 13.7738V14.375C27.6562 15.0212 27.1305 15.5469 26.4844 15.5469C24.2228 15.5469 22.3828 17.3868 22.3828 19.6484V21.4063C22.3828 21.7299 22.6451 21.9922 22.9687 21.9922H27.3633C27.6869 21.9922 27.9492 21.7299 27.9492 21.4063C27.9492 21.0826 27.6869 20.8203 27.3633 20.8203H23.5547V19.6484C23.5547 18.033 24.8689 16.7188 26.4844 16.7188C27.7767 16.7188 28.8281 15.6673 28.8281 14.375V13.5365C28.8281 13.3787 28.7645 13.2276 28.6515 13.1173C27.7205 12.2082 27.0703 10.5569 27.0703 9.10156C27.0703 6.45734 29.1191 6.17188 30 6.17188C30.8809 6.17188 32.9297 6.45734 32.9297 9.10156C32.9297 10.5569 32.2795 12.2082 31.3485 13.1173C31.2356 13.2276 31.1719 13.3787 31.1719 13.5365V14.375C31.1719 15.6673 32.2233 16.7188 33.5156 16.7188C35.1311 16.7188 36.4453 18.033 36.4453 19.6484V20.8203H32.6367C32.3131 20.8203 32.0508 21.0826 32.0508 21.4063C32.0508 21.7299 32.3131 21.9922 32.6367 21.9922H37.0312C37.3549 21.9922 37.6172 21.7299 37.6172 21.4063Z" fill="white"/>
</g>
<defs>
<clipPath id="clip0_185_87118">
<rect width="30" height="30" fill="white" transform="translate(15 5)"/>
</clipPath>
</defs>
</svg>
