<svg width="50" height="50" viewBox="0 0 50 50" fill="none" xmlns="http://www.w3.org/2000/svg">
<path d="M45.52 39.8768C46.4271 38.7788 46.9727 37.3719 46.9727 35.8398C46.9727 32.3397 44.1251 29.4922 40.625 29.4922C37.1249 29.4922 34.2773 32.3397 34.2773 35.8398C34.2773 37.3719 34.8229 38.7788 35.73 39.8768C34.5695 40.3879 33.5653 41.1902 32.8125 42.1926C32.0597 41.1902 31.0555 40.3879 29.895 39.8768C30.8021 38.7788 31.3477 37.3719 31.3477 35.8398C31.3477 32.3397 28.5001 29.4922 25 29.4922C21.4999 29.4922 18.6523 32.3397 18.6523 35.8398C18.6523 37.3719 19.1979 38.7788 20.105 39.8768C18.9445 40.3879 17.9403 41.1902 17.1875 42.1926C16.4347 41.1902 15.4305 40.3879 14.27 39.8768C15.1771 38.7788 15.7227 37.3719 15.7227 35.8398C15.7227 32.3397 12.8751 29.4922 9.375 29.4922C5.8749 29.4922 3.02734 32.3397 3.02734 35.8398C3.02734 37.3719 3.57295 38.7788 4.47998 39.8768C1.90244 41.012 0.0976562 43.5896 0.0976562 46.582V48.5352C0.0976562 49.3441 0.753516 50 1.5625 50H48.4375C49.2465 50 49.9023 49.3441 49.9023 48.5352V46.582C49.9023 43.5896 48.0976 41.012 45.52 39.8768ZM40.625 32.4219C42.5097 32.4219 44.043 33.9552 44.043 35.8398C44.043 37.7245 42.5097 39.2578 40.625 39.2578C38.7403 39.2578 37.207 37.7245 37.207 35.8398C37.207 33.9552 38.7403 32.4219 40.625 32.4219ZM25 32.4219C26.8847 32.4219 28.418 33.9552 28.418 35.8398C28.418 37.7245 26.8847 39.2578 25 39.2578C23.1153 39.2578 21.582 37.7245 21.582 35.8398C21.582 33.9552 23.1153 32.4219 25 32.4219ZM9.375 32.4219C11.2597 32.4219 12.793 33.9552 12.793 35.8398C12.793 37.7245 11.2597 39.2578 9.375 39.2578C7.49033 39.2578 5.95703 37.7245 5.95703 35.8398C5.95703 33.9552 7.49033 32.4219 9.375 32.4219ZM3.02734 46.582C3.02734 44.1589 4.99873 42.1875 7.42188 42.1875H11.3281C13.7513 42.1875 15.7227 44.1589 15.7227 46.582V47.0703H3.02734V46.582ZM18.6523 46.582C18.6523 44.1589 20.6237 42.1875 23.0469 42.1875H26.9531C29.3763 42.1875 31.3477 44.1589 31.3477 46.582V47.0703H18.6523V46.582ZM46.9727 47.0703H34.2773V46.582C34.2773 44.1589 36.2487 42.1875 38.6719 42.1875H42.5781C45.0013 42.1875 46.9727 44.1589 46.9727 46.582V47.0703Z" fill="#DB1F35"/>
<path d="M18.5841 12.7501L17.8385 17.0968C17.6929 17.9455 18.0353 18.7873 18.732 19.2935C19.1257 19.5795 19.5863 19.7248 20.0501 19.7248C20.407 19.7248 20.7658 19.6387 21.0972 19.4645L25.0008 17.4121L28.9043 19.4645C29.6667 19.865 30.5728 19.7997 31.2696 19.2935C31.9663 18.7872 32.3086 17.9455 32.163 17.0968L31.4175 12.7501L34.5755 9.67178C35.1922 9.0707 35.41 8.18857 35.1439 7.36953C34.8778 6.55039 34.1831 5.96475 33.3309 5.84102L28.9666 5.20684L27.0149 1.25195C26.6337 0.479687 25.862 0 25.0008 0C24.1397 0 23.3679 0.479687 22.9868 1.25195L21.035 5.20664L16.6708 5.84082C15.8185 5.96465 15.1238 6.55029 14.8577 7.36934C14.5916 8.18838 14.8093 9.07051 15.426 9.67158L18.5841 12.7501ZM25.6825 14.4605C25.4691 14.3484 25.2349 14.2923 25.0008 14.2923C24.7668 14.2923 24.5326 14.3483 24.3192 14.4605L20.9603 16.2265L21.6018 12.4862C21.6833 12.011 21.5257 11.5262 21.1805 11.1896L18.4632 8.54082L22.2185 7.99512C22.6957 7.92578 23.1081 7.62617 23.3214 7.19385L25.0008 3.79092L26.6802 7.19385C26.8936 7.62617 27.3061 7.92578 27.7832 7.99512L31.5385 8.54082L28.8211 11.1896C28.4759 11.5262 28.3184 12.011 28.3999 12.4862L29.0414 16.2265L25.6825 14.4605Z" fill="#DB1F35"/>
<path d="M3.15646 18.1684L2.60548 21.3806C2.4712 22.1638 2.78702 22.9403 3.42989 23.4074C4.07277 23.8743 4.909 23.9348 5.61232 23.5651L8.49698 22.0485L11.3817 23.5651C11.6876 23.7259 12.0186 23.8054 12.348 23.8054C12.7758 23.8054 13.2009 23.6713 13.5641 23.4074C14.2069 22.9403 14.5229 22.1638 14.3885 21.3805L13.8375 18.1684L16.1712 15.8936C16.7401 15.339 16.9411 14.525 16.6956 13.7693C16.4501 13.0137 15.8092 12.4731 15.0227 12.3588L11.7976 11.8901L10.3553 8.96768C10.0036 8.25508 9.29161 7.8125 8.49698 7.8125C7.70236 7.8125 6.99034 8.25508 6.63859 8.96768L5.1963 11.8901L1.97101 12.3588C1.18468 12.4731 0.543762 13.0137 0.298254 13.7693C0.0527464 14.525 0.253723 15.339 0.822668 15.8936L3.15646 18.1684ZM6.3797 14.6786C6.85685 14.6093 7.26925 14.3097 7.48263 13.8773L8.49698 11.8221L9.51134 13.8773C9.72472 14.3097 10.1372 14.6093 10.6143 14.6786L12.8824 15.0082L11.2411 16.6081C10.8959 16.9446 10.7384 17.4295 10.8198 17.9047L11.2072 20.1636L9.17863 19.097C8.75196 18.8727 8.242 18.8727 7.81534 19.097L5.78673 20.1636L6.17413 17.9047C6.25558 17.4295 6.09806 16.9446 5.75284 16.6081L4.11154 15.0082L6.3797 14.6786Z" fill="#DB1F35"/>
<path d="M33.3061 13.7693C33.0606 14.525 33.2615 15.339 33.8305 15.8936L36.1642 18.1684L35.6132 21.3806C35.4789 22.1638 35.7947 22.9403 36.4376 23.4074C37.0805 23.8743 37.9167 23.9348 38.62 23.5651L41.5047 22.0485L44.3894 23.5651C44.6953 23.7259 45.0263 23.8054 45.3557 23.8054C45.7835 23.8054 46.2086 23.6713 46.5718 23.4074C47.2147 22.9403 47.5306 22.1638 47.3962 21.3805L46.8452 18.1684L49.1789 15.8936C49.7479 15.339 49.9488 14.525 49.7033 13.7693C49.4578 13.0137 48.8169 12.4731 48.0304 12.3588L44.8053 11.8901L43.3629 8.96768C43.0114 8.25508 42.2994 7.8125 41.5048 7.8125C40.7102 7.8125 39.9982 8.25508 39.6465 8.96768L38.2042 11.8901L34.9789 12.3588C34.1925 12.4731 33.5516 13.0137 33.3061 13.7693ZM39.3875 14.6786C39.8647 14.6093 40.2771 14.3097 40.4904 13.8773L41.5048 11.8221L42.5192 13.8773C42.7325 14.3097 43.145 14.6093 43.6221 14.6786L45.8902 15.0082L44.2489 16.6081C43.9037 16.9446 43.7462 17.4295 43.8277 17.9047L44.2151 20.1636L42.1864 19.097C41.7598 18.8727 41.2498 18.8727 40.8232 19.097L38.7945 20.1636L39.1819 17.9047C39.2634 17.4295 39.1059 16.9446 38.7607 16.6081L37.1193 15.0082L39.3875 14.6786Z" fill="#DB1F35"/>
</svg>
