<svg width="18" height="22" viewBox="0 0 18 22" fill="none" xmlns="http://www.w3.org/2000/svg">
<path d="M16.5908 4.03027L13.7197 1.15918C13.5114 0.949555 13.2635 0.783352 12.9904 0.670203C12.7173 0.557053 12.4245 0.499205 12.1289 0.500008H6C5.40346 0.500663 4.83155 0.737927 4.40973 1.15974C3.98792 1.58156 3.75066 2.15348 3.75 2.75001V3.50001H3C2.40346 3.50067 1.83155 3.73793 1.40973 4.15975C0.987918 4.58157 0.750655 5.15348 0.75 5.75002V19.25C0.750655 19.8466 0.987918 20.4185 1.40973 20.8403C1.83155 21.2621 2.40346 21.4994 3 21.5001H12C12.5965 21.4994 13.1685 21.2621 13.5903 20.8403C14.0121 20.4185 14.2493 19.8466 14.25 19.25V18.5H15C15.5965 18.4994 16.1685 18.2621 16.5903 17.8403C17.0121 17.4185 17.2493 16.8466 17.25 16.25V5.62147C17.2508 5.32584 17.1929 5.03299 17.0797 4.75986C16.9666 4.48674 16.8004 4.23876 16.5908 4.03027ZM13.5 3.06059L14.6894 4.25002H13.5V3.06059ZM12 20H3C2.80117 19.9998 2.61055 19.9207 2.46995 19.7801C2.32936 19.6395 2.25026 19.4489 2.25 19.25V5.75002C2.25026 5.55119 2.32936 5.36057 2.46995 5.21997C2.61055 5.07938 2.80117 5.00028 3 5.00002H9V7.25002C9.0004 7.64773 9.15856 8.02903 9.43978 8.31025C9.721 8.59147 10.1023 8.74963 10.5 8.75003H12.75V19.25C12.7498 19.4489 12.6707 19.6396 12.5301 19.7802C12.3895 19.9208 12.1989 19.9999 12 20ZM10.5 6.0606L11.6894 7.25002H10.5V6.0606ZM15 17H14.25V8.62148C14.2508 8.32584 14.1929 8.033 14.0797 7.75987C13.9666 7.48675 13.8004 7.23877 13.5908 7.03027L10.7197 4.15919C10.5113 3.94954 10.2633 3.78332 9.9902 3.67017C9.71706 3.55702 9.42419 3.49919 9.12855 3.50001H5.25V2.75001C5.25026 2.55118 5.32936 2.36056 5.46995 2.21997C5.61055 2.07937 5.80117 2.00027 6 2.00001H12V4.25002C12.0005 4.6477 12.1586 5.02897 12.4398 5.31017C12.721 5.59138 13.1023 5.74956 13.5 5.75002H15.75V16.25C15.7498 16.4489 15.6707 16.6396 15.5301 16.7802C15.3895 16.9208 15.1989 16.9999 15 17ZM10.5 11H4.5C4.30109 11 4.11032 10.921 3.96967 10.7804C3.82902 10.6397 3.75 10.4489 3.75 10.25C3.75 10.0511 3.82902 9.86035 3.96967 9.7197C4.11032 9.57905 4.30109 9.50003 4.5 9.50003H10.5C10.6989 9.50003 10.8897 9.57905 11.0303 9.7197C11.171 9.86035 11.25 10.0511 11.25 10.25C11.25 10.4489 11.171 10.6397 11.0303 10.7804C10.8897 10.921 10.6989 11 10.5 11ZM10.5 14H4.5C4.30109 14 4.11032 13.921 3.96967 13.7804C3.82902 13.6397 3.75 13.4489 3.75 13.25C3.75 13.0511 3.82902 12.8604 3.96967 12.7197C4.11032 12.5791 4.30109 12.5 4.5 12.5H10.5C10.6989 12.5 10.8897 12.5791 11.0303 12.7197C11.171 12.8604 11.25 13.0511 11.25 13.25C11.25 13.4489 11.171 13.6397 11.0303 13.7804C10.8897 13.921 10.6989 14 10.5 14ZM10.5 17H4.5C4.30109 17 4.11032 16.921 3.96967 16.7804C3.82902 16.6397 3.75 16.449 3.75 16.25C3.75 16.0511 3.82902 15.8604 3.96967 15.7197C4.11032 15.5791 4.30109 15.5 4.5 15.5H10.5C10.6989 15.5 10.8897 15.5791 11.0303 15.7197C11.171 15.8604 11.25 16.0511 11.25 16.25C11.25 16.449 11.171 16.6397 11.0303 16.7804C10.8897 16.921 10.6989 17 10.5 17Z" fill="black"/>
</svg>
