<svg width="24" height="24" viewBox="0 0 24 24" fill="none" xmlns="http://www.w3.org/2000/svg">
<path d="M8.96148 14.25C8.22747 14.2502 7.5099 14.0327 6.89954 13.6249C6.28918 13.2172 5.81345 12.6377 5.53253 11.9595C5.2516 11.2814 5.1781 10.5352 5.32133 9.81529C5.46455 9.09539 5.81807 8.43414 6.33715 7.91517L10.1661 4.08695C10.8621 3.39094 11.806 2.99991 12.7903 2.99988C13.7745 2.99984 14.7185 3.39081 15.4145 4.08676C16.1105 4.78272 16.5016 5.72665 16.5016 6.71092C16.5016 7.69518 16.1107 8.63914 15.4147 9.33515L15.0005 9.7496L13.9386 8.68992L14.3569 8.2715C14.7699 7.85639 15.0015 7.29448 15.001 6.70891C15.0004 6.12333 14.7678 5.56186 14.354 5.14752C13.9327 4.74543 13.3726 4.52109 12.7902 4.52109C12.2078 4.52109 11.6478 4.74543 11.2265 5.14752L7.39795 8.97552C7.19258 9.18081 7.02966 9.42454 6.91851 9.6928C6.80735 9.96106 6.75014 10.2486 6.75014 10.539C6.75014 10.8294 6.80735 11.1169 6.91851 11.3851C7.02966 11.6534 7.19258 11.8971 7.39795 12.1024C7.81928 12.5045 8.3793 12.7289 8.9617 12.7289C9.54411 12.7289 10.1041 12.5045 10.5255 12.1024L11.5862 13.1633C11.2422 13.509 10.8332 13.783 10.3827 13.9695C9.93213 14.1561 9.44909 14.2514 8.96148 14.25Z" fill="white"/>
<path d="M14.9615 12.75C14.2275 12.7501 13.5099 12.5326 12.8995 12.1249C12.2892 11.7171 11.8135 11.1376 11.5325 10.4594C11.2516 9.78131 11.1781 9.0351 11.3213 8.3152C11.4646 7.5953 11.8181 6.93405 12.3372 6.41508L12.7516 6.00063L13.8123 7.06158L13.3979 7.47581C13.1926 7.6811 13.0297 7.92482 12.9186 8.19306C12.8074 8.4613 12.7502 8.7488 12.7502 9.03915C12.7502 9.32949 12.8074 9.61699 12.9186 9.88523C13.0297 10.1535 13.1926 10.3972 13.3979 10.6025C13.8192 11.0046 14.3792 11.2289 14.9616 11.2289C15.544 11.2289 16.1041 11.0046 16.5254 10.6025C16.7204 10.4075 20.0724 7.05551 20.3544 6.77411C20.7684 6.35919 21.0009 5.79698 21.0009 5.21085C21.0009 4.62471 20.7684 4.06251 20.3544 3.64758C19.933 3.24549 19.373 3.02115 18.7906 3.02115C18.2082 3.02115 17.6482 3.24549 17.2269 3.64758L16.1661 2.58671C16.8623 1.89176 17.8059 1.50164 18.7896 1.50208C19.7733 1.50251 20.7166 1.89346 21.4122 2.58901C22.1078 3.28457 22.4988 4.22783 22.4992 5.21151C22.4997 6.1952 22.1096 7.13883 21.4147 7.83506C21.1323 8.11706 17.7817 11.4672 17.5869 11.6627C17.2428 12.0085 16.8337 12.2826 16.383 12.4692C15.9324 12.6558 15.4492 12.7513 14.9615 12.75V12.75Z" fill="white"/>
<path d="M18 22.5H3C2.6023 22.4996 2.22101 22.3414 1.9398 22.0602C1.65859 21.779 1.50042 21.3977 1.5 21V6C1.50042 5.6023 1.65859 5.22101 1.9398 4.9398C2.22101 4.65859 2.6023 4.50042 3 4.5H6V6H3V21H18V13.5H19.5V21C19.4996 21.3977 19.3414 21.779 19.0602 22.0602C18.779 22.3414 18.3977 22.4996 18 22.5Z" fill="white"/>
</svg>
