<svg width="24" height="30" viewBox="0 0 24 30" fill="none" xmlns="http://www.w3.org/2000/svg">
<path d="M23.8779 24.7393L22.5382 7.85754C22.4547 6.76992 21.5349 5.91791 20.4441 5.91791H17.7978V5.79896C17.7978 2.60139 15.1965 0 11.9989 0C8.8013 0 6.19992 2.60139 6.19992 5.79896V5.91791H3.55371C2.46287 5.91791 1.543 6.76986 1.4598 7.85525L0.119644 24.7416C0.015933 26.0937 0.484976 27.4397 1.40642 28.4345C2.32787 29.4294 3.6341 30 4.99013 30H19.0076C20.3635 30 21.6698 29.4294 22.5913 28.4345C23.5128 27.4397 23.9818 26.0937 23.8779 24.7393ZM7.95714 5.79896C7.95714 3.57035 9.77033 1.75723 11.9989 1.75723C14.2274 1.75723 16.0406 3.57041 16.0406 5.79896V5.91791H7.95714V5.79896ZM21.3021 27.2405C20.7034 27.8868 19.8886 28.2428 19.0076 28.2428H4.99019C4.10917 28.2428 3.29437 27.8868 2.69566 27.2405C2.09701 26.5942 1.80439 25.7544 1.87166 24.8783L3.21169 7.99189C3.22529 7.81424 3.37552 7.67514 3.55371 7.67514H6.19992V9.8393C6.19992 10.3245 6.59331 10.7179 7.07853 10.7179C7.56374 10.7179 7.95714 10.3245 7.95714 9.8393V7.67514H16.0406V9.8393C16.0406 10.3245 16.434 10.7179 16.9192 10.7179C17.4044 10.7179 17.7978 10.3245 17.7978 9.8393V7.67514H20.4441C20.6222 7.67514 20.7725 7.8143 20.7863 7.99424L22.126 24.876C22.1934 25.7544 21.9008 26.5941 21.3021 27.2405Z" fill="white"/>
</svg>
