<svg width="30" height="30" viewBox="0 0 30 30" fill="none" xmlns="http://www.w3.org/2000/svg">
<path d="M5.625 29.0625H16.875C18.1178 29.0612 19.3093 28.5669 20.1881 27.6881C21.0669 26.8093 21.5612 25.6178 21.5625 24.375V21.5625H24.375C25.6178 21.5612 26.8093 21.0669 27.6881 20.1881C28.5669 19.3093 29.0612 18.1178 29.0625 16.875V5.625C29.0612 4.38219 28.5669 3.19066 27.6881 2.31186C26.8093 1.43307 25.6178 0.938791 24.375 0.9375H13.125C11.8822 0.938791 10.6907 1.43307 9.81186 2.31186C8.93306 3.19066 8.43879 4.38219 8.4375 5.625V8.4375H5.625C4.38219 8.43879 3.19066 8.93306 2.31186 9.81186C1.43307 10.6907 0.938791 11.8822 0.9375 13.125V24.375C0.938791 25.6178 1.43307 26.8093 2.31186 27.6881C3.19066 28.5669 4.38219 29.0612 5.625 29.0625ZM10.3125 5.625C10.3133 4.87934 10.6099 4.16446 11.1372 3.63719C11.6645 3.10993 12.3793 2.81334 13.125 2.8125H24.375C25.1207 2.81334 25.8355 3.10993 26.3628 3.63719C26.8901 4.16446 27.1867 4.87934 27.1875 5.625V16.875C27.1867 17.6207 26.8901 18.3355 26.3628 18.8628C25.8355 19.3901 25.1207 19.6867 24.375 19.6875H13.125C12.3793 19.6867 11.6645 19.3901 11.1372 18.8628C10.6099 18.3355 10.3133 17.6207 10.3125 16.875V5.625ZM2.8125 13.125C2.81334 12.3793 3.10993 11.6645 3.63719 11.1372C4.16446 10.6099 4.87934 10.3133 5.625 10.3125H8.4375V16.875C8.43879 18.1178 8.93306 19.3093 9.81186 20.1881C10.6907 21.0669 11.8822 21.5612 13.125 21.5625H19.6875V24.375C19.6867 25.1207 19.3901 25.8355 18.8628 26.3628C18.3355 26.8901 17.6207 27.1867 16.875 27.1875H5.625C4.87934 27.1867 4.16446 26.8901 3.63719 26.3628C3.10993 25.8355 2.81334 25.1207 2.8125 24.375V13.125Z" fill="white"/>
<path d="M15 12.1875H17.8125V15C17.8125 15.2486 17.9113 15.4871 18.0871 15.6629C18.2629 15.8387 18.5014 15.9375 18.75 15.9375C18.9986 15.9375 19.2371 15.8387 19.4129 15.6629C19.5887 15.4871 19.6875 15.2486 19.6875 15V12.1875H22.5C22.7486 12.1875 22.9871 12.0887 23.1629 11.9129C23.3387 11.7371 23.4375 11.4986 23.4375 11.25C23.4375 11.0014 23.3387 10.7629 23.1629 10.5871C22.9871 10.4113 22.7486 10.3125 22.5 10.3125H19.6875V7.5C19.6875 7.25136 19.5887 7.0129 19.4129 6.83709C19.2371 6.66127 18.9986 6.5625 18.75 6.5625C18.5014 6.5625 18.2629 6.66127 18.0871 6.83709C17.9113 7.0129 17.8125 7.25136 17.8125 7.5V10.3125H15C14.7514 10.3125 14.5129 10.4113 14.3371 10.5871C14.1613 10.7629 14.0625 11.0014 14.0625 11.25C14.0625 11.4986 14.1613 11.7371 14.3371 11.9129C14.5129 12.0887 14.7514 12.1875 15 12.1875Z" fill="white"/>
</svg>
