<svg width="59" height="40" viewBox="0 0 59 40" fill="none" xmlns="http://www.w3.org/2000/svg">
<rect width="59" height="40" rx="5" fill="#DB1F35"/>
<path d="M18.5175 12.8204L28.5175 16.9866C28.6698 17.051 28.8334 17.0841 28.9988 17.0841C29.1641 17.0841 29.3277 17.051 29.48 16.9866L39.48 12.8204C39.7074 12.7252 39.9015 12.565 40.0381 12.3598C40.1746 12.1547 40.2475 11.9137 40.2475 11.6672C40.2475 11.4208 40.1746 11.1798 40.0381 10.9746C39.9015 10.7695 39.7074 10.6092 39.48 10.5141L29.48 6.34661C29.1718 6.2191 28.8257 6.2191 28.5175 6.34661L18.5175 10.5141C18.2901 10.6092 18.096 10.7695 17.9594 10.9746C17.8229 11.1798 17.75 11.4208 17.75 11.6672C17.75 11.9137 17.8229 12.1547 17.9594 12.3598C18.096 12.565 18.2901 12.7252 18.5175 12.8204ZM28.9988 8.85411L35.7488 11.6666L28.9988 14.4791L22.2488 11.6666L28.9988 8.85411Z" fill="white"/>
<path d="M40.1538 16.7415C40.0907 16.59 39.9982 16.4524 39.8819 16.3366C39.7655 16.2208 39.6275 16.1291 39.4756 16.0666C39.3238 16.0042 39.1612 15.9722 38.997 15.9727C38.8328 15.9731 38.6704 16.0058 38.5188 16.069L29.0001 20.0353L19.4813 16.069C19.1754 15.9414 18.8312 15.9405 18.5246 16.0667C18.2179 16.1928 17.974 16.4355 17.8463 16.7415C17.7187 17.0475 17.7179 17.3917 17.844 17.6983C17.9701 18.0049 18.2129 18.2489 18.5188 18.3765L28.5188 22.5428C28.6713 22.6064 28.8349 22.6391 29.0001 22.6391C29.1653 22.6391 29.3289 22.6064 29.4813 22.5428L39.4813 18.3765C39.6329 18.3133 39.7705 18.2209 39.8863 18.1046C40.0021 17.9882 40.0938 17.8502 40.1562 17.6983C40.2187 17.5465 40.2506 17.3839 40.2502 17.2197C40.2498 17.0555 40.2171 16.893 40.1538 16.7415Z" fill="white"/>
<path d="M38.5188 21.6247L29.0001 25.5897L19.4813 21.6247C19.1754 21.497 18.8312 21.4962 18.5246 21.6223C18.2179 21.7484 17.974 21.9912 17.8463 22.2972C17.7187 22.6032 17.7179 22.9473 17.844 23.2539C17.9701 23.5606 18.2129 23.8045 18.5188 23.9322L28.5188 28.0997C28.6713 28.1633 28.8349 28.196 29.0001 28.196C29.1653 28.196 29.3289 28.1633 29.4813 28.0997L39.4813 23.9322C39.7873 23.8045 40.0301 23.5606 40.1562 23.2539C40.2823 22.9473 40.2815 22.6032 40.1538 22.2972C40.0262 21.9912 39.7822 21.7484 39.4756 21.6223C39.169 21.4962 38.8248 21.497 38.5188 21.6247Z" fill="white"/>
<path d="M18.5195 29.4858L28.5195 33.6533C28.672 33.7169 28.8355 33.7497 29.0007 33.7497C29.1659 33.7497 29.3295 33.7169 29.482 33.6533L39.482 29.4858C39.6379 29.4258 39.7802 29.3351 39.9004 29.2191C40.0207 29.1031 40.1165 28.9642 40.1821 28.8106C40.2478 28.657 40.282 28.4917 40.2827 28.3247C40.2834 28.1576 40.2506 27.9921 40.1863 27.8379C40.1219 27.6837 40.0273 27.544 39.9081 27.427C39.7888 27.31 39.6473 27.2181 39.4919 27.1567C39.3365 27.0954 39.1704 27.0658 39.0034 27.0697C38.8364 27.0736 38.6718 27.111 38.5195 27.1796L29.0007 31.1458L19.482 27.1796C19.3296 27.111 19.1651 27.0736 18.9981 27.0697C18.8311 27.0658 18.6649 27.0954 18.5096 27.1567C18.3542 27.2181 18.2127 27.31 18.0934 27.427C17.9741 27.544 17.8795 27.6837 17.8152 27.8379C17.7508 27.9921 17.718 28.1576 17.7188 28.3247C17.7195 28.4917 17.7537 28.657 17.8193 28.8106C17.885 28.9642 17.9808 29.1031 18.101 29.2191C18.2213 29.3351 18.3636 29.4258 18.5195 29.4858Z" fill="white"/>
</svg>
