<svg width="59" height="40" viewBox="0 0 59 40" fill="none" xmlns="http://www.w3.org/2000/svg">
<rect width="59" height="40" rx="5" fill="#DB1F35"/>
<path d="M40.8779 29.7393L39.5382 12.8575C39.4547 11.7699 38.5349 10.9179 37.4441 10.9179H34.7978V10.799C34.7978 7.60139 32.1965 5 28.9989 5C25.8013 5 23.1999 7.60139 23.1999 10.799V10.9179H20.5537C19.4629 10.9179 18.543 11.7699 18.4598 12.8553L17.1196 29.7416C17.0159 31.0937 17.485 32.4397 18.4064 33.4345C19.3279 34.4294 20.6341 35 21.9901 35H36.0076C37.3635 35 38.6698 34.4294 39.5913 33.4345C40.5128 32.4397 40.9818 31.0937 40.8779 29.7393ZM24.9571 10.799C24.9571 8.57035 26.7703 6.75723 28.9989 6.75723C31.2274 6.75723 33.0406 8.57041 33.0406 10.799V10.9179H24.9571V10.799ZM38.3021 32.2405C37.7034 32.8868 36.8886 33.2428 36.0076 33.2428H21.9902C21.1092 33.2428 20.2944 32.8868 19.6957 32.2405C19.097 31.5942 18.8044 30.7544 18.8717 29.8783L20.2117 12.9919C20.2253 12.8142 20.3755 12.6751 20.5537 12.6751H23.1999V14.8393C23.1999 15.3245 23.5933 15.7179 24.0785 15.7179C24.5637 15.7179 24.9571 15.3245 24.9571 14.8393V12.6751H33.0406V14.8393C33.0406 15.3245 33.434 15.7179 33.9192 15.7179C34.4044 15.7179 34.7978 15.3245 34.7978 14.8393V12.6751H37.4441C37.6222 12.6751 37.7725 12.8143 37.7863 12.9942L39.126 29.876C39.1934 30.7544 38.9008 31.5941 38.3021 32.2405Z" fill="white"/>
<path d="M32.9592 19.8994C32.6162 19.5563 32.0599 19.5563 31.7168 19.8994L27.7936 23.8226L26.285 22.3141C25.942 21.971 25.3856 21.971 25.0425 22.3141C24.6994 22.6572 24.6994 23.2135 25.0425 23.5566L27.1723 25.6864C27.3439 25.858 27.5688 25.9438 27.7935 25.9438C28.0183 25.9438 28.2432 25.8581 28.4147 25.6864L32.9592 21.142C33.3023 20.7988 33.3023 20.2426 32.9592 19.8994Z" fill="white"/>
</svg>
