<svg width="1417" height="542" viewBox="0 0 1417 542" fill="none" xmlns="http://www.w3.org/2000/svg">
<mask id="path-1-inside-1_6562_315477" fill="white">
<path d="M21.4725 392.292C20.5578 392.423 19.6248 392.326 18.7568 392.009C17.8889 391.692 17.1131 391.164 16.4989 390.474C15.7786 389.411 13.4804 389.822 11.4566 389.994C11.9974 390.292 12.4478 390.73 12.7601 391.263C13.8577 393.218 8.33519 393.458 10.0503 395.79C11.7653 398.123 6.13986 398.26 6.13986 395.79C6.13986 393.321 0.240055 394.556 0.480164 396.168C0.557321 396.856 0.387147 397.549 0 398.123C1.61216 398.706 3.43013 399.358 4.18476 399.666C11.3144 400.832 18.5587 401.131 25.7602 400.558C25.7137 398.723 25.8171 396.888 26.069 395.07C26.069 393.595 22.5702 391.743 21.4725 392.292ZM376.559 14.346C385.889 13.3856 385.649 8.20634 380.744 7.21166C375.839 6.21697 375.085 10.1614 372.649 9.92132C370.214 9.68122 360.918 11.4648 362.839 13.5914C364.76 15.7179 371.929 14.8261 376.559 14.346ZM423.93 150.892C427.12 151.372 435.695 149.657 436.69 147.942C437.684 146.227 433.26 144.272 427.6 144.272C421.94 144.272 421.151 150.343 423.93 150.892ZM605.281 25.4933C609.946 27.4484 608.231 28.6831 603.326 28.6831C598.42 28.6831 594.201 30.3295 597.426 31.6329C599.895 32.6276 599.655 35.3029 604.8 36.5377C609.946 37.7725 615.091 33.588 614.611 30.6382C614.13 27.6884 632.516 25.0131 637.455 23.7783C642.394 22.5435 634.231 17.3986 639.65 16.9184C645.07 16.4382 642.84 14.003 636.22 13.0083C629.6 12.0136 632.276 6.38847 630.08 4.4334C627.885 2.47833 626.65 6.86867 618.041 8.58364C609.431 10.2986 605.281 12.5281 608.711 14.2431C612.141 15.958 608.711 20.1083 605.041 19.9025C601.37 19.6967 600.616 23.4353 605.281 25.3904V25.4933ZM618.315 32.3532C618.315 35.0628 610.391 37.7382 612.621 39.7276C614.851 41.7169 616.326 40.9623 618.795 41.4425C621.265 41.9227 622.466 48.0623 626.89 47.0676C631.315 46.073 643.321 51.9725 650.421 51.9725C657.521 51.9725 658.276 46.1073 656.081 45.8672C653.886 45.6271 655.841 42.1971 659.751 36.5377C663.661 30.8783 647.506 26.7281 647.506 31.1184C647.506 35.5087 642.84 30.158 641.365 27.4484C639.891 24.7387 618.315 29.5406 618.315 32.2503V32.3532ZM495.585 154.322C499.53 156.277 502.445 155.557 501.965 151.612C501.485 147.668 492.464 152.916 495.585 154.322ZM598.901 7.82905C599.895 4.15901 583.602 5.73678 587.856 9.30393C589.331 10.6759 597.94 11.6363 598.901 7.96625V7.82905ZM1321.11 185.878C1326.02 188.313 1328.97 182.928 1332.91 185.638C1336.86 188.347 1346.39 184.403 1350.34 183.648C1354.28 182.894 1352.29 178.023 1341.25 176.548C1330.2 175.073 1315.83 183.237 1321.11 185.878ZM656.321 66.8584C659.751 68.8135 670.796 64.4232 678.171 64.6633C685.546 64.9034 706.126 59.0039 706.881 55.0937C707.636 51.1836 699.266 51.4237 696.076 47.9937C692.886 44.5638 685.786 47.5135 684.071 50.4633C682.356 53.4131 680.366 50.7034 685.031 46.0387C689.696 41.3739 680.366 37.7039 680.126 40.6194C679.886 43.5348 671.311 41.1338 671.311 43.8092C671.311 46.4846 668.12 47.7536 668.361 50.4633C668.601 53.173 662.461 48.9884 662.221 55.128C661.981 61.2676 652.719 64.8005 656.321 66.8584ZM972.888 117.416C975.428 118.757 977.678 120.587 979.508 122.801C981.497 124.756 988.838 121.806 991.788 120.846C994.738 119.885 994.978 125.27 999.643 122.321C1004.31 119.371 1008.97 120.846 1014.36 120.846C1019.74 120.846 1013.4 114.226 1013.64 111.276C1013.88 108.327 1020.02 110.282 1018.06 112.751C1016.11 115.221 1021.01 120.846 1028.83 120.366C1036.65 119.885 1030.82 114.946 1034.73 113.231C1038.64 111.516 1038.16 109.561 1032.54 106.131C1026.91 102.701 1019.54 104.897 1014.63 102.701C1009.73 100.506 1003.07 100.232 1002.83 105.617C1002.59 111.002 992.302 99.7516 986.883 98.0024C981.463 96.2531 964.792 113.334 972.888 117.416ZM1024.34 148.834C1028.73 147.84 1021.15 139.745 1013.53 138.544C1005.92 137.344 998.854 143.586 999.814 144.924C1001.87 148.08 1019.78 149.795 1024.2 148.834H1024.34ZM1004.68 132.611C1004.68 128.94 991.307 133.983 996.83 135.8C999.643 136.795 1004.55 136.315 1004.55 132.611H1004.68ZM1047.39 117.141C1053.29 117.656 1056.24 123.315 1067.52 124.001C1078.81 124.687 1087.11 122.561 1087.11 120.023C1087.11 117.484 1076.82 113.917 1073.63 115.872C1070.44 117.827 1067.97 112.683 1064.06 113.917C1060.15 115.152 1054.73 114.878 1052.78 111.448C1050.82 108.018 1044.3 116.936 1047.25 117.141H1047.39ZM227.589 17.673C233.249 12.5281 240.624 17.4329 241.584 14.9633C242.544 12.4938 231.019 11.7735 226.869 14.003C222.718 16.2324 212.908 14.4146 214.109 17.1928C215.841 18.9539 218.19 19.9739 220.659 20.0379C223.129 20.1019 225.527 19.2049 227.349 17.5358L227.589 17.673ZM1022.21 432.148C1019.54 425.014 1026.16 418.154 1021.25 414.449C1016.35 410.745 1018.3 403.199 1015.83 404.64C1013.36 406.08 1015.83 412.769 1011.92 413.249C1008.01 413.729 1011.68 417.399 1010.21 422.338C1008.73 427.277 1010.93 434.343 1012.92 438.768C1014.91 443.192 1010.21 466.722 1012.16 470.666C1014.12 474.611 1008.97 491.966 1010.69 493.99C1013.64 497.42 1011.68 489.291 1016.07 488.57C1020.46 487.85 1020.5 493.475 1023.21 494.71C1025.92 495.945 1024.2 486.855 1021.73 487.336C1019.26 487.816 1017.34 481.47 1016.07 477.526C1014.8 473.582 1018.54 468.951 1018.54 464.046C1018.54 459.142 1024.68 459.382 1028.35 463.052C1032.02 466.722 1032.54 464.286 1031.06 461.577C1029.59 458.867 1024.92 439.351 1022.21 432.148ZM250.434 15.2377C253.864 17.673 240.864 16.9527 239.149 19.388C237.433 21.8232 229.887 20.9658 231.294 23.8126C232.7 26.6595 245.014 27.0025 245.014 24.5329C245.014 22.0633 251.394 24.2928 251.634 22.0976C251.874 19.9025 254.584 17.4329 261.444 16.9527C268.305 16.4725 268.305 14.003 261.925 11.0532C255.545 8.10345 247.004 12.8711 250.434 15.3406V15.2377ZM239.869 213.592C246.489 219.731 252.149 210.916 255.339 210.402C258.529 209.887 253.384 206.492 247.964 205.017C242.544 203.542 234.895 208.961 239.869 213.592ZM1415.48 255.437C1410.88 253.323 1406.71 250.368 1403.2 246.725C1401.28 243.912 1391.81 242.54 1391.81 244.015C1391.81 245.49 1388.72 243.672 1388 242.06C1387.28 240.448 1377.33 240.208 1377.2 242.06C1377.06 243.912 1379.53 243.912 1381 245.902C1382.48 247.891 1379.05 248.954 1379.77 251.15C1380.49 253.345 1376.1 250.052 1374.49 248.817C1372.88 247.582 1373.66 242.815 1374.14 240.345C1374.62 237.876 1371.3 238.39 1370.95 235.955C1370.61 233.52 1359.53 228.478 1354.87 226.488C1350.2 224.499 1344.2 222.818 1342.59 220.349C1340.97 217.879 1332.67 217.673 1329.48 214.346C1326.29 211.019 1312.33 205.154 1306.26 204.777C1300.19 204.399 1301.6 201.107 1298.68 201.587C1292.17 201.878 1285.64 201.637 1279.16 200.866C1275.22 200.249 1274.36 203.199 1271.55 202.067C1268.74 200.935 1254.12 195.687 1252.41 197.677C1250.69 199.666 1251.45 202.444 1249.7 202.924C1247.95 203.405 1249.7 205.874 1253.78 209.579C1257.86 213.283 1255.36 216.061 1251.65 217.673C1247.95 219.285 1242.08 216.198 1240.27 213.352C1238.45 210.505 1233.41 211.774 1232.17 208.104C1230.94 204.434 1233.65 203.782 1236.12 205.874C1236.62 206.314 1237.23 206.609 1237.89 206.727C1238.55 206.846 1239.23 206.784 1239.85 206.549C1240.48 206.313 1241.03 205.912 1241.45 205.389C1241.86 204.866 1242.13 204.239 1242.22 203.576C1242.6 200.866 1235.6 199.014 1231.93 199.254C1228.26 199.495 1226.07 204.777 1222.12 206.972C1218.18 209.167 1202.98 206.114 1201.37 204.674C1199.76 203.233 1178.56 204.674 1176.36 206.114C1174.17 207.555 1175.75 213.352 1174.65 213.866C1173.55 214.38 1172.42 207.246 1172.42 205.874C1172.42 204.502 1169.85 203.576 1166.04 203.576C1162.23 203.576 1160.04 203.576 1161.61 201.827C1163.19 200.078 1160.14 198.637 1163.09 196.579C1166.04 194.521 1157.7 187.97 1149.61 184.78C1141.51 181.59 1123.09 183.442 1118.19 184.78C1113.28 186.118 1103.47 185.74 1098.81 185.878C1094.14 186.015 1097.95 184.025 1096.61 181.83C1095.27 179.635 1087.28 176.925 1086.15 178.743C1085.02 180.561 1082.96 178.743 1082.96 177.406C1082.96 176.068 1075.48 173.358 1072.67 173.976C1069.86 174.593 1068.38 171.266 1071.81 171.266C1075.24 171.266 1081.14 172.021 1078.67 168.076C1076.2 164.132 1054.01 162.931 1051.92 163.686C1049.83 164.44 1051.92 167.116 1047.01 171.781C1042.11 176.445 1037.58 173.255 1038.2 171.026C1038.81 168.796 1044.68 169.174 1044.68 166.979C1044.68 164.783 1036.58 165.984 1035.35 164.166C1034.12 162.348 1037.07 161.079 1040.02 161.937C1042.97 162.794 1048.11 163.309 1048.35 161.937C1048.59 160.565 1045.3 160.359 1040.39 159.467C1035.49 158.575 1023.58 155.797 1017.31 156.414C1011.03 157.032 1008.25 154.116 1004.82 153.842C1001.39 153.568 1001.39 155.694 1002.97 157.649C1004.55 159.604 999.54 160.839 995.595 160.222C991.65 159.604 985.682 162.451 988.014 165.367C990.347 168.282 992.679 164.509 994.634 165.367C996.59 166.224 989.489 168.419 992.405 169.791C995.321 171.163 994.875 173.941 995.012 175.416C995.149 176.891 990.073 177.646 988.152 175.416C986.231 173.187 983.727 175.176 980.297 174.936C976.866 174.696 974.26 176.274 977.964 176.788C981.669 177.303 982.869 179.601 977.964 180.218C973.059 180.836 974.26 175.691 971.344 176.308C968.428 176.925 962.014 173.976 958.584 174.079C955.154 174.181 953.542 176.925 949.014 177.268C946.663 177.397 944.31 177.04 942.103 176.22C939.896 175.399 937.882 174.134 936.185 172.501C934.333 170.031 933.716 169.311 931.52 172.124C929.325 174.936 929.188 180.355 926.992 180.733C924.797 181.11 923.905 185.878 921.71 187.078C919.515 188.279 919.378 185.26 916.531 185.5C913.684 185.74 904.662 176.925 904.148 174.353C903.633 171.781 898.008 166.841 896.567 165.881C895.127 164.921 898.008 164.406 899.997 165.881C900.808 166.598 901.823 167.043 902.899 167.154C903.976 167.265 905.06 167.036 906 166.498C907.852 165.538 907.612 160.976 904.422 160.873C901.232 160.77 902.433 158.026 904.045 157.443C905.657 156.86 900.375 152.161 902.33 151.681C904.285 151.201 903.427 149.109 900.718 148.731C898.008 148.354 895.229 146.159 895.092 144.821C894.955 143.483 883.567 142.969 884.047 144.821C884.527 146.673 880.377 146.193 880.994 144.581C881.612 142.969 876.913 143.483 871.527 142.009C866.142 140.534 865.902 137.172 864.152 136.795C862.403 136.418 862.918 142.077 860.242 140.842C859.646 140.526 858.964 140.411 858.297 140.515C857.63 140.618 857.015 140.936 856.544 141.419C856.072 141.902 855.77 142.524 855.682 143.193C855.595 143.862 855.726 144.542 856.057 145.13C857.532 148.32 856.057 148.834 856.057 151.407C856.057 153.979 854.342 152.882 851.152 151.75C847.962 150.618 847.962 154.459 841.068 152.744C834.173 151.029 831.12 152.744 829.92 150.652C828.719 148.56 826.49 148.217 826.49 150.035C826.49 151.853 815.685 151.132 814.827 148.457C813.97 145.782 816.679 145.267 818.257 144.547C819.835 143.826 816.542 142.695 810.78 143.038C805.017 143.381 801.347 140.122 795.447 140.705C788.451 141.223 781.488 142.128 774.592 143.415C772.74 144.272 776.307 147.599 773.494 147.84C770.681 148.08 772.637 142.454 772.122 139.745C771.607 137.035 767.354 136.658 767.972 138.75C768.589 140.842 761.111 141.563 759.362 139.985C756.618 137.596 753.333 135.912 749.792 135.08C745.024 133.845 739.124 138.99 740.462 140.465C741.8 141.94 745.367 140.842 745.504 141.837C745.744 143.861 735.214 143.038 735.214 144.753C735.214 146.468 725.541 148.834 722.591 149.177C714.53 150.206 712.781 150.172 708.87 153.362C704.96 156.552 708.013 150.515 710.963 147.599C713.913 144.684 716.966 145.884 718.681 143.552C720.396 141.22 723.105 141.46 727.77 140.705C732.435 139.951 732.161 137.275 734.391 136.315C736.62 135.354 741.971 133.228 742.966 131.033C743.961 128.838 755.006 125.133 757.201 125.27C759.396 125.408 759.911 120.846 761.111 120.846C764.575 119.822 767.948 118.515 771.196 116.936C772.198 116.48 773.069 115.779 773.728 114.898C774.387 114.017 774.814 112.983 774.969 111.894C774.969 110.282 771.539 110.522 771.264 109.047C770.99 107.572 772.877 108.567 775.449 107.572C778.022 106.577 775.449 103.182 773.357 103.799C771.265 104.416 774.489 101.947 772.637 99.7516C770.784 97.5565 767.114 101.089 767.217 98.757C767.556 96.3344 766.942 93.8748 765.502 91.8971C764.061 90.4222 761.352 94.4695 758.264 92.1372C755.177 89.8048 746.259 88.3299 746.259 89.3246C746.259 90.3193 741.937 87.8497 741.114 88.8444C737.752 89.7454 734.223 89.8277 730.823 89.0845C728.628 88.4671 725.575 89.942 725.438 92.1372C725.301 94.3323 716.623 93.5091 715.148 93.1318C713.673 92.7545 721.15 86.512 721.15 85.4145C721.15 84.3169 708.287 85.6546 707.43 84.4198C706.572 83.185 700.57 82.842 697.62 82.9449C694.67 83.0478 697.62 82.2246 700.089 81.9502C702.559 81.6758 704.994 79.5149 707.807 79.0348C710.62 78.5546 710.003 77.5599 708.802 75.8449C707.601 74.1299 704.617 74.9531 701.942 74.1299C699.12 73.0951 696.201 72.3481 693.229 71.9005C689.533 72.4289 685.877 73.2082 682.287 74.2328C676.524 75.3304 676.044 79.7551 673.094 81.0927C670.144 82.4304 664.999 87.9526 667.469 88.2956C669.938 88.6386 668.669 90.285 669.047 91.7256C669.424 93.1661 667.194 93.6806 664.382 93.2004C661.569 92.7203 651.622 92.8575 651.759 94.9154C651.896 96.9734 657.522 98.0024 657.144 99.1C656.767 100.198 652.857 99.1 650.901 97.8652C648.946 96.6304 644.521 97.385 643.664 99.4772C642.806 101.57 639.376 101.055 638.244 100.575C637.112 100.095 634.814 101.535 632.859 100.918C630.904 100.3 636.529 97.4879 635.191 96.2531C633.854 95.0183 627.954 96.2531 627.336 98.3454C626.719 100.438 623.151 96.7676 621.814 97.5222C620.068 98.5104 618.271 99.4035 616.429 100.198C613.822 101.295 609.568 98.9628 608.436 100.918C607.304 102.873 613.341 103.525 613.479 104.348C613.616 105.171 600.101 105.068 599.758 106.44C599.415 107.812 594.853 107.778 589.468 107.881C584.082 107.984 586.037 110.727 581.716 111.585C577.394 112.442 575.336 112.545 573.895 114.775C573.557 115.282 573.115 115.71 572.598 116.033C572.082 116.356 571.502 116.564 570.899 116.646C570.295 116.727 569.681 116.678 569.098 116.504C568.514 116.329 567.975 116.032 567.515 115.632C566.04 113.917 561.992 116.49 564.085 116.73C566.177 116.97 564.085 119.199 562.85 118.685C561.615 118.17 557.602 121.017 559.797 120.777C561.992 120.537 563.227 122.389 561.992 123.727C560.757 125.065 556.093 122.115 554.892 123.35C553.692 124.584 557.224 126.197 559.42 125.922C559.849 125.855 560.289 125.876 560.71 125.984C561.131 126.093 561.526 126.286 561.87 126.553C562.214 126.82 562.499 127.154 562.709 127.535C562.919 127.916 563.048 128.336 563.09 128.769C563.364 130.347 557.945 127.774 556.847 129.112C555.749 130.45 557.705 131.067 560.037 131.341C562.37 131.616 560.655 132.439 562.747 134.291L563.124 134.669C564.393 136.212 562.027 136.726 562.267 138.098C562.507 139.47 559.9 140.294 559.9 138.853C559.9 137.412 553.417 136.864 552.045 138.476C550.673 140.088 549.747 141.288 548.135 139.813C546.522 138.339 541.892 140.191 535.855 140.431C528.659 140.474 521.479 141.094 514.382 142.283C511.329 143.381 508.757 147.668 511.57 150.481C514.382 153.293 511.57 154.528 511.57 156.38C511.57 158.232 518.91 162.039 522.855 162.382C526.799 162.725 529.955 167.562 527.622 170.477C525.29 173.393 518.155 169.62 513.525 165.95C508.894 162.28 498.055 160.805 494.487 161.045C490.92 161.285 493.012 157.855 488.485 157.992C483.957 158.129 479.978 162.554 483.065 162.554C486.152 162.554 488.107 162.314 486.495 163.789C484.883 165.264 487.353 164.886 491.057 166.464C494.762 168.042 487.97 170.271 484.197 167.699C483.488 167.231 482.694 166.907 481.86 166.747C481.025 166.586 480.168 166.592 479.336 166.764C478.504 166.937 477.714 167.271 477.012 167.75C476.31 168.228 475.709 168.84 475.244 169.551C474.147 171.506 479.669 177.166 486.289 178.126C492.91 179.086 490.714 181.213 493.767 182.31C496.82 183.408 494.659 184.643 492.566 184.78C490.474 184.917 486.289 181.59 482.996 179.841C479.704 178.092 470.717 180.595 468.864 178.64C467.012 176.685 470.099 174.696 468.384 173.255C466.669 171.815 468.144 168.453 470.339 165.024C471.218 163.199 471.351 161.104 470.711 159.183C470.071 157.262 468.707 155.666 466.909 154.734C463.719 153.773 463.994 157.066 464.714 158.164C465.045 159.68 465.028 161.251 464.666 162.759C464.303 164.268 463.605 165.675 462.622 166.876C460.186 169.928 452.674 169.928 452.674 172.021C452.674 174.113 447.666 175.691 449.244 177.166C452.802 180.615 455.956 184.458 458.643 188.622C459.637 190.954 452.64 198.328 453.737 202.616C454.835 206.903 452.743 208.858 454.115 210.951C455.487 213.043 458.54 211.191 460.495 212.048C462.45 212.906 465.64 210.813 470.202 209.956C474.764 209.098 483.065 213.9 486.152 215.375C489.239 216.85 487.627 219.285 489.205 221.755C490.783 224.224 485.535 224.19 485.398 227.894C485.26 231.599 494.625 233.142 494.968 234.274C495.311 235.406 488.348 234.514 485.638 233.52C482.928 232.525 482.688 228.992 481.865 228.237C481.041 227.483 483.683 224.567 483.923 222.235C484.163 219.903 480.87 218.565 479.772 216.953C478.675 215.341 476.685 213.043 474.49 213.523C472.295 214.003 464.199 214.758 461.73 216.953C459.26 219.148 462.073 225.425 463.445 228.512C464.817 231.599 456.344 235.852 456.584 238.287C456.825 240.722 454.012 241.717 450.342 243.844C446.671 245.97 442.624 247.274 442.727 250.464C442.83 253.653 437.822 251.938 435.249 250.464C432.677 248.989 429.349 251.321 425.679 251.184C422.009 251.047 422.009 247.994 419.059 249.092C418.555 249.365 417.98 249.479 417.41 249.42C416.839 249.361 416.3 249.131 415.863 248.76C415.425 248.389 415.11 247.895 414.958 247.342C414.806 246.79 414.825 246.204 415.011 245.662C415.869 243.432 419.162 245.147 419.436 246.759C419.711 248.371 421.769 247.617 424.204 246.279C426.639 244.941 425.439 247.994 429.006 248.234C432.574 248.474 430.584 246.382 433.294 246.622C436.004 246.862 436.107 246.039 435.249 244.667C434.392 243.295 437.239 242.335 438.919 241.614C440.6 240.894 439.914 238.184 441.526 237.19C443.138 236.195 442.006 234.617 443.721 234.48C445.437 234.343 446.191 231.805 447.769 231.805C449.347 231.805 450.204 229.198 449.244 227.86C448.284 226.522 449.861 222.818 451.439 222.338C453.017 221.858 453.189 220.383 451.714 219.285C450.239 218.188 444.853 214.483 445.196 212.151C445.539 209.819 444.202 205.531 444.956 203.713C445.433 201.105 445.433 198.432 444.956 195.824C445.401 192.866 446.102 189.951 447.049 187.112C447.769 183.099 442.761 178.778 440.189 177.68C437.616 176.582 439.331 174.25 442.898 171.438C446.466 168.625 446.706 159.261 446.328 157.306C445.951 155.351 438.816 153.636 436.038 153.876C430.757 154.001 425.473 153.761 420.225 153.156C417.653 152.641 416.795 155.351 415.56 157.786C413.281 161.499 411.429 165.457 410.038 169.585C408.425 175.108 401.943 176.823 398.993 178.057C396.043 179.292 394.225 183.305 395.563 185.295C396.9 187.284 398.993 185.672 400.227 186.392C401.462 187.112 400.228 192.292 399.233 193.012C398.238 193.732 400.811 195.584 398.753 196.922C396.694 198.26 394.705 201.107 395.94 202.581C397.175 204.056 403.177 204.811 405.75 206.252C408.323 207.692 407.328 210.436 409.18 213.111C411.032 215.787 413.262 214.106 414.222 215.684C415.183 217.262 410.792 223.676 409.077 223.916C407.362 224.156 400.982 217.399 398.993 215.958C397.003 214.518 389.423 212.117 385.649 210.162C381.876 208.207 378.789 208.447 374.604 205.634C370.126 202.501 364.678 201.066 359.237 201.587C351.657 201.587 346.752 199.872 344.179 200.249C341.606 200.626 342.567 197.642 338.039 195.687C333.511 193.732 330.527 191.023 327.955 192.257C325.382 193.492 326.377 198.5 330.287 199.117C334.197 199.735 332.277 201.827 336.427 201.587C340.578 201.347 341.812 202.787 341.709 205.36C341.844 206.702 342.251 208.003 342.906 209.182C343.56 210.362 344.449 211.395 345.517 212.22C347.369 213.935 346.237 216.747 342.944 216.747C339.651 216.747 335.81 217.227 337.285 219.56C338.76 221.892 336.29 222.509 332.997 221.275C329.704 220.04 331.625 217.845 332.997 216.37C334.369 214.895 330.047 213.317 327.955 212.563C325.862 211.808 317.664 217.982 315.195 218.942C312.725 219.903 307.099 217.467 301.2 218.942C295.3 220.417 295.711 225.082 293.482 224.602C291.252 224.122 284.769 225.219 282.3 223.744C279.83 222.269 281.819 221.412 284.392 221.549C286.965 221.686 287.822 220.794 286.347 219.079C284.872 217.365 288.337 214.655 288.2 213.42C288.062 212.185 278.526 215.409 276.914 216.85C275.302 218.291 276.914 220.657 275.337 221.515C273.759 222.372 273.621 220.04 271.632 219.32C269.642 218.599 255.339 221.892 252.629 224.945C249.919 227.997 244.637 228.135 244.637 229.85C244.637 231.564 238.154 231.462 235.581 232.696C233.009 233.931 234.724 238.939 233.729 241.408C232.734 243.878 222.684 243.123 219.631 243.226C216.578 243.329 215.446 237.361 213.011 236.984C210.576 236.607 212.016 233.177 212.737 231.702C213.457 230.227 215.446 231.462 218.499 229.507C221.552 227.551 224.639 230.467 225.874 229.129C227.109 227.792 221.209 224.224 220.832 221.137C220.454 218.051 213.971 217.227 210.301 218.222C206.84 218.997 203.22 218.598 200.011 217.09C197.438 215.89 197.678 219.32 201.486 220.28C205.293 221.24 203.338 224.224 203.956 226.042C204.008 229.386 202.878 232.642 200.765 235.235C198.536 238.424 200.148 238.321 203.475 238.184C206.803 238.047 206.528 242.369 206.528 245.559C206.528 248.749 203.956 249.606 203.956 251.938C203.956 254.271 201.246 250.841 200.525 251.938C199.805 253.036 198.57 251.458 198.09 249.503C197.61 247.548 192.533 248.646 189.72 247.925C186.908 247.205 185.81 248.406 184.472 250.498C182.475 252.409 179.858 253.54 177.098 253.688C174.765 253.962 171.335 257.975 169.105 259.45C166.876 260.925 166.533 263.737 169.62 266.687C172.707 269.637 173.29 271.592 173.05 273.17C172.81 274.748 164.44 274.302 163.103 272.552C160.565 270.908 157.527 270.215 154.527 270.597C152.675 270.975 147.667 265.075 145.06 264.972C142.453 264.869 140.875 268.025 140.018 269.637C139.16 271.249 141.253 271.729 142.487 274.405C143.722 277.08 148.25 277.251 150.583 277.251C152.915 277.251 152.058 280.681 151.337 282.259C150.617 283.837 146.295 284.832 145.06 283.254C143.825 281.676 138.68 283.254 138.577 281.264C138.004 279.776 136.931 278.534 135.541 277.751C134.151 276.969 132.532 276.695 130.962 276.977C127.155 277.594 126.4 275.159 126.675 272.209C126.949 269.26 124.582 267.545 124.685 266.207C124.788 264.869 122.97 262.125 124.925 260.788C126.88 259.45 125.44 257.358 125.543 255.54C125.646 253.722 122.215 250.361 119.128 250.361C116.041 250.361 116.693 247.308 114.12 246.691C110.787 245.432 107.964 243.104 106.094 240.071C105.717 238.219 101.772 237.979 103.144 237.395C104.363 237.21 105.61 237.335 106.767 237.761C107.925 238.187 108.956 238.899 109.764 239.831C112.943 242.719 117.004 244.447 121.289 244.736C127.086 245.49 129.384 248.165 135.764 249.297C142.145 250.429 146.055 251.115 155.145 252.487C164.235 253.859 176.652 244.495 179.156 241.923C181.66 239.35 178.401 234.068 178.401 232.113C178.401 230.158 174.251 229.884 173.633 228.443C172.953 227.209 171.962 226.174 170.759 225.44C169.556 224.706 168.182 224.299 166.773 224.259C163.343 224.259 162.725 220.211 159.913 220.451C157.1 220.692 155.11 219.217 147.77 214.312C140.429 209.407 130.105 205.771 128.355 206.594C126.606 207.418 125.268 207.966 124.033 206.114C122.799 204.262 119.986 204.537 118.031 206.114C116.076 207.692 114.12 204.777 110.416 205.634C106.711 206.492 104.79 204.056 105.751 202.924C106.711 201.793 112.165 202.924 111.891 200.969C111.616 199.014 109.695 200.969 106.403 198.774C103.11 196.579 101.223 198.02 100.503 199.872C99.7824 201.724 97.0726 201.209 95.4604 199.632C95.4604 199.632 95.0831 199.357 94.9116 199.22C94.3285 202.307 92.5106 202.65 90.6583 202.204C88.806 201.758 86.2677 205.394 83.798 205.394C82.487 205.581 81.2581 206.144 80.2599 207.015C79.2617 207.885 78.5367 209.026 78.1726 210.299C77.6581 212.494 74.9826 211.294 74.9826 212.768C75.1646 214.337 74.721 215.915 73.7478 217.159C72.5129 218.634 73.7477 219.388 74.9826 221.823C76.2174 224.259 78.8929 224.053 80.1278 224.773C81.3626 225.493 86.0276 229.438 86.0276 230.913C86.0276 232.388 82.3231 236.058 80.8824 237.052C79.4417 238.047 77.4523 240.482 78.4127 241.957C79.3731 243.432 83.5579 249.572 86.2677 254.477C88.9775 259.381 85.273 257.186 83.5579 259.381C81.8428 261.577 84.2783 264.286 84.7928 265.761C85.3073 267.236 82.5632 266.996 82.8376 268.196C83.112 269.397 86.7479 269.946 86.988 270.906C87.2281 271.866 84.5527 273.135 85.7532 275.091C86.9538 277.046 89.9379 277.046 90.178 279.515C90.4181 281.985 84.7927 282.191 85.0328 284.18C85.2729 286.169 92.4077 288.57 95.5977 292.275C98.7877 295.979 98.5132 296.905 97.7929 298.894C96.318 302.839 87.5026 306.234 85.5131 310.659C83.5236 315.084 76.1831 317.519 72.753 320.949C71.2838 322.503 69.9632 324.191 68.8084 325.991C69.9877 325.687 71.136 325.274 72.2385 324.756C74.1937 323.762 75.6687 328.529 77.5209 330.141C79.3732 331.753 83.4207 330.141 84.7585 331.719C86.0962 333.297 83.6266 333.331 80.8482 332.851C78.0698 332.371 77.418 334.051 72.8559 335.526C69.4258 336.624 69.8717 337.79 68.774 338.75C70.7635 341.632 68.0881 341.975 67.0933 344.204C66.0986 346.433 64.4864 346.948 64.3149 348.423C64.3863 350.049 64.5928 351.667 64.9323 353.259C64.9972 354.909 65.6548 356.48 66.7846 357.684C68.0538 359.536 65.687 359.536 64.5551 360.462C63.4231 361.388 64.212 363.412 65.687 364.852C66.2908 365.433 66.703 366.184 66.8685 367.006C67.034 367.827 66.9448 368.679 66.6131 369.448C66.0642 370.752 67.8822 372.878 69.1856 374.25C70.4891 375.622 70.2833 379.052 71.381 379.944C71.934 380.538 72.6366 380.972 73.415 381.201C74.1934 381.431 75.0192 381.447 75.8059 381.247C76.6347 380.988 77.531 381.053 78.314 381.428C79.097 381.804 79.7085 382.462 80.0249 383.271C80.951 384.917 82.426 384.197 84.4498 383.271C86.4735 382.345 91.0699 384.917 92.1676 385.466C93.2652 386.015 92.7507 389.171 92.9222 391.194C93.0937 393.218 91.8245 395.79 93.8483 397.059C95.8721 398.329 95.3232 401.313 97.69 402.239C100.057 403.165 101.12 406.458 102.492 406.835C103.5 407.197 104.426 407.757 105.215 408.482C106.004 409.206 106.641 410.08 107.089 411.054C107.466 412.734 104.516 414.209 102.835 414.929C101.154 415.65 98.0674 412.734 96.9697 414.003C95.8721 415.273 97.347 417.673 98.2388 421.721C99.1307 425.768 99.9196 426.145 101.669 426.145C103.418 426.145 104.242 424.876 105.545 424.122C106.848 423.367 109.764 424.499 111.068 423.95C112.371 423.401 116.967 423.196 117.928 424.671C119.051 426.557 119.442 428.791 119.025 430.947C118.271 432.216 119.952 433.691 120.843 435.543C121.735 437.396 125.646 436.47 126.915 437.018C128.184 437.567 131.168 441.614 130.619 443.432C130.07 445.25 132.437 445.662 133.741 445.113C135.044 444.564 136.313 446.039 137.788 446.965C138.449 447.349 139.213 447.519 139.975 447.451C140.736 447.383 141.458 447.082 142.042 446.588C143.482 445.662 145.883 444.907 146.638 446.211C147.393 447.514 150.308 449.915 150.308 450.635C150.308 451.356 154.905 450.635 157.169 451.733C159.432 452.83 161.765 452.282 164.029 453.585C166.293 454.888 168.625 455.06 168.831 456.535C169.037 458.01 166.43 459.279 166.43 459.965C166.43 460.651 168.454 461.268 168.454 462.366C168.454 463.463 165.881 463.498 165.504 464.389C165.126 465.281 166.979 466.619 167.356 467.511C167.733 468.402 165.881 471.592 165.881 472.484C165.881 473.376 160.358 472.313 159.021 472.313C157.683 472.313 153.876 476.566 152.606 476.737C151.337 476.909 152.023 478.932 152.401 480.682C156.38 479.893 160.427 479.584 160.873 480.476C161.628 481.951 152.298 485.861 150.583 486.478C148.868 487.096 154.013 489.668 153.773 491.143C153.533 492.618 148.353 492.995 148.868 495.911C149.382 498.826 147.153 499.34 144.306 499.34C141.459 499.34 140.875 501.021 142.11 501.296C143.345 501.57 143.345 505.206 148.627 506.543C154.652 508.875 159.97 512.727 164.063 517.725C164.695 518.39 165.424 518.956 166.224 519.406C167.185 518.77 168.238 518.284 169.345 517.965C172.886 517.898 176.361 518.928 179.293 520.915C181.865 522.733 191.058 520.538 192.156 522.012C192.749 522.898 193.513 523.658 194.402 524.246C195.291 524.835 196.288 525.242 197.335 525.442C199.153 525.442 201.005 529.112 202.48 528.015C205.198 527.115 208.062 526.742 210.919 526.917C212.428 526.917 212.428 528.015 213.903 528.015C215.378 528.015 215.343 533.537 216.475 533.16C217.607 532.782 221.621 536.59 224.193 536.83C226.766 537.07 229.338 541.632 230.47 541.254C231.602 540.877 233.386 543.107 234.141 541.254C234.895 539.402 238.463 540.363 239.492 537.344C234.827 531.616 229.819 525.305 229.956 522.836C230.196 518.685 231.911 515.976 226.766 511.585C221.621 507.195 227.246 504.211 230.951 499.546C234.655 494.882 241.241 493.544 245.666 490.594C244.809 489.982 243.903 489.442 242.956 488.982C239.526 487.507 238.565 486.032 241.138 485.312C243.711 484.592 242.613 483.117 240.006 480.167C237.399 477.217 236.336 474.268 234.861 474.268C232.888 474.037 230.889 474.165 228.961 474.645C226.766 475.365 227.143 472.793 227.486 470.22C227.829 467.648 223.473 468.025 222.718 466.79C221.964 465.556 223.816 462.023 224.57 461.645C225.325 461.268 227.486 460.171 227.486 459.073C227.486 457.975 223.473 457.598 224.914 455.026C226.354 452.453 229.338 452.453 229.338 449.881C229.338 447.308 231.568 445.079 234.141 446.931C236.713 448.783 237.811 453.551 240.761 452.453C243.711 451.356 241.858 448.783 241.481 447.308C241.104 445.833 240.383 443.604 243.711 442.884C247.038 442.163 245.529 438.836 248.101 438.836C251.264 438.011 254.258 436.641 256.951 434.789C258.426 434.034 261.753 432.216 263.194 432.937C264.634 433.657 266.624 435.509 267.619 432.937C268.613 430.364 273.141 431.462 273.518 432.937C273.896 434.412 280.893 434.412 283.088 435.886C285.284 437.361 289.949 440.311 289.949 441.786C289.949 443.261 292.144 445.456 292.144 442.884C292.144 440.311 293.996 441.031 296.946 442.884C299.896 444.736 303.807 443.981 304.664 442.129C305.522 440.277 310.941 438.082 312.759 439.557C314.577 441.031 315.366 442.129 317.561 439.934C319.757 437.739 324.936 438.082 325.656 440.311C326.377 442.541 329.087 442.884 331.179 442.884C333.271 442.884 333.752 446.314 335.226 445.456C336.701 444.599 336.324 441.031 338.176 441.409C340.029 441.786 341.606 443.981 344.419 443.981C347.232 443.981 349.564 443.227 349.564 441.031C349.564 438.836 349.222 435.132 347.369 435.132C345.517 435.132 343.699 433.314 341.469 433.314C339.24 433.314 337.079 429.644 339.274 428.889C341.469 428.135 345.174 426.317 344.419 424.465C343.665 422.613 342.944 418.943 345.894 418.6C348.844 418.257 355.087 418.222 354.744 417.125C354.401 416.027 348.467 415.272 347.369 413.42C346.272 411.568 345.894 407.178 346.992 406.56C348.089 405.943 351.794 406.938 353.852 406.217C355.91 405.497 360.712 407.315 363.799 405.086C367.677 403.152 371.993 402.265 376.32 402.513C379.75 402.513 382.219 400.318 384.792 399.941C388.756 399.46 392.686 398.727 396.557 397.745C398.409 396.991 408.322 395.516 408.7 393.698C409.077 391.88 417.001 390.268 418.99 391.297C420.951 392.392 423.249 392.722 425.439 392.223C427.257 391.503 431.133 393.527 430.756 395.653C430.378 397.78 432.402 399.906 432.231 401.553C432.059 403.199 430.207 403.782 431.304 404.983C432.402 406.183 437.376 405.36 438.851 403.714C440.326 402.067 441.972 404.434 441.972 405.737C441.972 407.041 444.373 407.932 444.373 406.286C444.373 404.64 447.323 405.737 448.249 406.835C449.175 407.932 452.674 405.531 452.674 407.384C452.674 409.236 447.495 410.814 449.724 412.734C451.954 414.655 453.154 410.333 455.967 411.225C458.78 412.117 462.416 408.104 464.988 407.555C467.689 406.51 470.23 405.09 472.535 403.336C474.764 402.033 479.395 402.41 478.057 403.885C476.719 405.36 474.936 408.104 480.458 410.162C485.981 412.22 492.224 422.853 495.722 428.169C499.221 433.486 502.582 443.089 504.366 443.089C506.15 443.089 506.767 438.287 509.168 437.773C511.569 437.258 513.044 441.786 515.617 442.335C518.19 442.884 521.688 444.358 523.712 443.638C525.736 442.918 530.332 440.208 531.979 441.237C533.625 442.266 535.855 442.163 537.33 445.662C538.805 449.16 541 449.915 542.475 449.915C543.95 449.915 544.259 451.561 544.259 453.036C544.259 454.511 546.968 456.466 548.443 456.466C550.703 456.421 552.94 456.004 555.064 455.231C556.264 454.511 557.773 453.757 558.013 455.471C558.254 457.186 560.86 459.587 562.301 459.587C563.742 459.587 566.726 460.822 566.966 459.587C567.206 458.353 571.151 457.632 572.626 457.358C574.101 457.084 579.246 456.157 580.206 453.928C581.167 451.699 585.386 451.699 586.586 450.224C587.787 448.749 591.251 448.028 592.006 446.554C592.76 445.079 597.151 445.319 597.666 444.084C598.18 442.849 601.816 442.609 603.531 443.089C607.31 444.075 611.166 444.741 615.056 445.079C616.291 444.839 616.531 449.503 617.766 449.743C619.001 449.984 623.426 453.413 624.626 452.453C625.566 451.746 626.689 451.321 627.861 451.23C629.034 451.139 630.209 451.385 631.247 451.939C633.716 453.414 636.186 455.369 637.147 453.654C638.107 451.939 643.286 451.218 644.007 450.224C644.727 449.229 645.447 446.314 644.247 445.319C642.772 443.277 641.765 440.934 641.297 438.459C640.783 436.504 644.247 435.989 644.727 434.274C645.207 432.559 648.157 432.319 649.152 431.325C650.147 430.33 650.352 428.135 652.102 428.615C654.235 429.171 656.288 430.001 658.208 431.085C659.79 431.959 661.58 432.386 663.387 432.319C665.566 432.708 667.644 433.536 669.493 434.755C671.242 435.749 676.627 435.749 677.622 437.224C678.617 438.699 677.348 442.884 678.583 444.358C679.817 445.833 682.767 448.989 683.728 448.269C684.688 447.548 689.387 450.738 691.102 450.464C692.817 450.189 695.527 447.514 697.002 447.514C698.477 447.514 703.142 446.314 704.617 446.554C707.087 447.395 709.64 447.969 712.232 448.269C712.952 447.754 717.857 448.509 718.578 449.984C719.298 451.458 725.438 451.458 725.438 453.173C725.438 454.888 728.868 455.883 729.863 457.838C730.858 459.793 738.918 458.593 740.393 459.793C741.868 460.994 751.198 460.788 751.438 459.793C751.679 458.799 760.528 458.318 762.243 457.084C763.958 455.849 768.623 456.363 768.863 454.648C769.103 452.933 773.529 451.699 775.484 450.224C777.439 448.749 785.294 448.989 785.774 450.738C786.254 452.487 790.919 452.933 792.874 452.179C794.829 451.424 800.009 452.453 800.729 454.168C801.45 455.883 807.384 456.843 808.824 456.363C810.265 455.883 814.964 452.453 816.679 452.179C818.394 451.904 820.864 450.224 820.35 448.509C819.835 446.794 823.78 441.889 824.294 439.934C825.373 436.95 827.135 434.26 829.44 432.079C830.674 431.565 833.384 429.37 833.11 427.895C832.835 426.42 832.149 421.995 830.674 421.995C829.199 421.995 826.49 422.27 829.954 417.571C833.419 412.872 839.524 414.141 840.484 414.141C841.445 414.141 849.334 412.151 852.764 413.146C856.195 414.141 858.39 412.666 862.094 414.621C865.799 416.576 870.91 415.821 872.145 417.536C873.38 419.251 878.285 420.76 877.53 423.71C876.775 426.66 880.24 424.911 881.475 431.29C882.709 437.67 885.625 438.15 886.38 441.1C887.134 444.05 891.045 449.469 890.565 451.184C890.084 452.899 889.57 455.574 893.72 455.849C897.871 456.123 900.855 459.279 901.85 458.799C904.984 458.958 907.951 460.264 910.185 462.469C912.62 464.904 916.325 463.703 916.085 466.379C915.845 469.054 918.04 471.284 917.8 473.513C917.56 475.742 922.465 477.183 925.895 476.703C929.325 476.223 931.795 477.938 933.235 474.988C934.676 472.038 939.65 473.239 941.33 472.038C943.011 470.838 948.191 469.328 947.985 473.753C947.779 478.178 950.66 479.138 948.225 480.613C945.79 482.088 944.555 488.468 943.8 491.177C943.045 493.887 939.375 494.607 938.895 497.557C938.415 500.507 934.95 500.747 934.95 502.942C934.95 505.137 930.08 504.657 927.61 502.942C925.14 501.227 922.705 506.132 920.75 506.132C918.794 506.132 919 510.316 919.515 512.031C920.029 513.746 918.794 515.941 919.995 518.891C920.43 521.521 920.625 524.184 920.578 526.849C922.576 525.125 924.913 523.84 927.438 523.076C930.491 523.076 933.544 528.358 936.974 528.461C940.404 528.564 956.011 518.171 956.114 516.456C956.217 514.741 965.341 506.166 969.629 501.467C974.475 496.679 978.568 491.187 981.771 485.175C984.505 481.084 987.459 477.145 990.621 473.376C992.64 470.748 994.365 467.907 995.766 464.904C998.442 459.142 998.442 444.05 999.197 443.055C999.951 442.06 999.54 439.625 1000.77 437.91C1002.01 436.195 1001.39 434.137 1003.83 432.045C1004.7 431.462 1005.33 430.572 1005.58 429.55C1005.84 428.528 1005.7 427.448 1005.2 426.523C1004.58 424.911 1005.2 421.343 1004.72 420.246C1004.24 419.148 1004.2 418.668 1005.68 417.811C1007.15 416.953 1004.72 414.724 1002.63 413.763C1000.53 412.803 997.859 411.911 997.585 409.579C997.166 408.171 996.307 406.936 995.134 406.053C993.961 405.17 992.535 404.686 991.067 404.674C988.392 404.914 983.349 403.199 983.967 404.914C984.584 406.629 983.727 408.104 982.389 407.727C981.051 407.349 980.399 408.481 978.959 410.916C977.518 413.352 971.721 413.626 974.294 411.294C976.866 408.961 973.436 408.859 973.917 406.389C974.397 403.919 976.489 401.484 973.676 402.959C970.864 404.434 970.864 408.344 968.531 408.824C966.199 409.304 966.919 402.204 967.537 400.352C968.154 398.5 963.249 400.352 958.104 400.112C952.959 399.872 954.296 396.202 958.447 393.973C962.597 391.743 961.877 389.685 963.969 388.828C966.062 387.97 971.447 384.403 974.637 382.585C975.778 381.955 976.774 381.092 977.56 380.052C978.346 379.012 978.904 377.818 979.199 376.548C979.954 374.49 985.819 371.884 991.102 367.596C994.751 365.157 997.848 361.979 1000.19 358.267C1001.39 355.694 1009.25 352.504 1009.38 350.549C1009.52 348.594 1018.71 343.689 1024.96 342.455C1031.2 341.22 1041.15 342.832 1043 344.65C1043.23 345.004 1043.55 345.294 1043.93 345.495C1044.3 345.695 1044.72 345.8 1045.14 345.8C1045.57 345.8 1045.99 345.695 1046.36 345.495C1046.73 345.294 1047.05 345.004 1047.29 344.65C1048.42 343.415 1050.72 344.032 1055.04 344.65C1059.36 345.267 1060.18 342.695 1063 343.552C1065.81 344.41 1068.14 344.89 1069.86 341.597C1071.57 338.304 1079.7 338.888 1081.52 340.26C1083.34 341.632 1084.95 343.415 1087.8 341.46C1090.64 339.505 1090.75 344.032 1093.56 344.41C1096.37 344.787 1094.52 347.222 1092.08 346.982C1089.65 346.742 1086.56 348.217 1089.37 349.829C1092.19 351.441 1095.51 348.354 1097.74 348.594C1100.72 349.124 1103.79 348.602 1106.42 347.119C1109.51 345.164 1110.37 348.697 1112.32 347.119C1114.91 345.55 1117.91 344.819 1120.93 345.027C1123.13 345.027 1121.27 342.455 1117.5 342.455C1113.73 342.455 1114.07 340.5 1116.88 335.595C1119.7 330.69 1125.46 327.877 1129.03 324.825C1132.59 321.772 1135.17 323.213 1135.17 321.395C1135.17 319.577 1136.88 313.883 1139.59 313.78C1142.3 313.677 1149.02 314.878 1153.31 312.546C1157.6 310.213 1157.12 314.261 1158.83 314.878C1160.55 315.495 1162.88 311.448 1164.84 312.546C1166.79 313.643 1161.89 316.73 1160.79 320.263C1159.69 323.796 1163.36 322.492 1165.46 323.487C1167.55 324.482 1162.75 325.922 1163.26 326.917C1163.77 327.912 1167.92 327.912 1173.31 322.492C1178.7 317.073 1183.6 315.633 1187.03 315.975C1190.46 316.319 1188.51 312.923 1188.75 307.915C1188.99 302.907 1199.52 301.398 1202.95 302.873C1206.38 304.348 1206.17 305.686 1202.95 304.828C1199.72 303.971 1196.57 306.92 1196.7 311.071C1196.84 315.221 1193.75 316.593 1195.33 318.205C1196.91 319.817 1193 320.16 1192.9 321.875C1192.79 323.59 1192.9 324.962 1190.43 325.682C1187.96 326.403 1179.76 327.26 1179.52 330.45C1179.28 333.64 1174.85 333.88 1172.66 337.961C1170.46 342.043 1162.61 344.204 1157.33 352.059C1152.04 359.913 1143.6 359.913 1143.6 361.388C1143.6 362.863 1137.84 362.726 1135.89 362.966C1133.93 363.206 1137.71 368.008 1133.04 373.05C1128.2 378.201 1125.48 384.986 1125.43 392.052C1125.43 398.912 1127.9 419.183 1129.99 422.75C1132.08 426.317 1130.84 434.995 1132.56 436.847C1134.28 438.699 1133.66 441.752 1134.76 442.849C1135.85 443.947 1140.42 437.944 1143.47 435.372C1146.52 432.8 1145.56 431.942 1147.65 430.604C1149.75 429.267 1148.89 423.744 1149.5 422.132C1150.12 420.52 1153.93 419.903 1155.13 418.325C1156.33 416.747 1159.56 417.708 1161.27 417.09C1162.99 416.473 1161.27 412.426 1160.52 410.23C1159.76 408.035 1165.56 404.708 1168.51 402.616C1171.46 400.524 1175.13 403.988 1178.46 400.901C1181.78 397.814 1178.22 394.281 1176.98 392.703C1175.75 391.126 1180.41 383.374 1182.88 382.619C1185.35 381.865 1186.79 384.472 1189.26 382.242C1191.73 380.013 1187.03 376.48 1185.32 376.72C1183.6 376.96 1182.98 370.477 1187.03 367.425C1191.08 364.372 1189.5 363.72 1186.79 363C1184.08 362.28 1183.6 363.24 1181.51 363.377C1179.42 363.515 1177.36 359.056 1180.55 354.768C1183.74 350.481 1186.79 350.961 1187.41 347.428C1188.03 343.895 1192.55 338.819 1193.65 337.138C1194.75 335.458 1199.17 337.138 1200.89 336.761C1202.6 336.384 1201.99 340.191 1204.08 338.236C1206.17 336.281 1209.6 330.244 1212.41 330.244C1215.23 330.244 1213.41 334.806 1214.13 337.481C1214.85 340.157 1216.46 336.761 1221.85 333.091C1227.23 329.421 1239 329.661 1242.6 331.479C1246.2 333.297 1246.78 337.241 1248.74 336.761C1251.72 336.006 1249.22 332.714 1252.17 331.856C1256.47 330.118 1260.52 327.811 1264.21 324.996C1268.12 322.184 1267.02 324.276 1269.11 321.566C1271.21 318.857 1273.3 320.126 1273.88 318.376C1274.46 316.627 1280.16 313.849 1287.88 312.134C1295.59 310.419 1305.68 305.274 1305.2 303.662C1304.72 302.05 1308.11 301.33 1308.63 302.942C1309.14 304.554 1312.06 303.902 1316 304.76C1319.95 305.617 1321.9 307.229 1325.06 304.039C1328.21 300.849 1324.72 299.752 1324.82 297.179C1324.92 294.607 1319.3 292.137 1320.05 289.565C1320.81 286.992 1316.24 279.858 1314.77 281.23C1313.29 282.602 1309.83 280.133 1309.83 278.177C1309.83 276.222 1309.59 273.89 1307.26 275.331C1304.92 276.771 1301.01 276.085 1300.4 273.89C1299.78 271.695 1304.96 270.083 1308.63 271.558C1312.3 273.033 1311.2 274.507 1313.05 275.605C1316.17 276.548 1319.52 276.328 1322.49 274.988C1325.06 273.753 1332.3 271.558 1333.53 269.328C1334.77 267.099 1333.53 266.276 1335.86 265.041C1338.2 263.806 1336.48 261.234 1334.39 260.136C1333.94 259.967 1333.56 259.649 1333.32 259.235C1333.08 258.821 1332.98 258.336 1333.06 257.862C1333.13 257.388 1333.36 256.953 1333.72 256.63C1334.07 256.307 1334.53 256.116 1335.01 256.089C1337.2 256.089 1336.62 253.516 1338.06 253.379C1339.5 253.242 1339.77 254.477 1342.48 253.139C1345.19 251.801 1342.48 255.231 1341.39 257.564C1340.29 259.896 1343.96 261.851 1344.34 263.189C1344.71 264.526 1349.96 265.041 1352.91 263.463C1355.86 261.885 1365.33 265.418 1365.95 267.75C1366.31 269.302 1367.03 270.748 1368.05 271.974C1369.06 273.2 1370.35 274.173 1371.81 274.816C1375.76 276.806 1379.29 275.914 1380.04 277.766C1380.17 278.218 1380.38 278.639 1380.68 279.005C1380.97 279.37 1381.34 279.671 1381.75 279.89C1382.17 280.108 1382.62 280.24 1383.09 280.275C1383.56 280.311 1384.03 280.251 1384.47 280.098C1386.66 279.618 1387.9 282.053 1389.48 280.578C1391.05 279.104 1391.95 281.436 1394.04 279.618C1396.13 277.8 1389.48 276.531 1390.33 275.056C1391.19 273.581 1392.56 276.188 1394.38 276.051C1396.2 275.914 1393.9 272.381 1395.24 272.004C1396.58 271.626 1395.51 264.286 1394.04 263.772C1392.56 263.257 1393.76 260.719 1396.61 262.811C1399.46 264.369 1402.71 265.049 1405.94 264.766C1408.03 264.766 1405.94 262.811 1403.99 262.434C1402.03 262.057 1404.33 260.342 1405.8 261.679C1407.28 263.017 1410.09 263.669 1410.33 262.194C1410.57 260.719 1412.08 257.529 1414.65 257.666C1417.23 257.804 1417.95 256.294 1415.48 255.437ZM731.166 416.404C724.306 422.681 710.208 424.156 710.208 429.301C710.208 434.446 693.263 437.018 691.788 434.823C690.313 432.628 704.308 432.251 707.636 424.876C710.963 417.502 723.483 413.729 729.691 403.885C734.116 397.025 737.821 386.221 740.393 386.975C742.966 387.73 738.164 410.162 731.166 416.404ZM762.346 128.289C761.352 130.278 756.035 130.415 757.441 132.233C759.877 135.423 772.156 133.708 772.396 129.798C772.637 125.888 763.341 126.231 762.346 128.186V128.289ZM315.332 6.83437C321.232 6.83437 319.482 3.16432 323.427 3.64451C327.371 4.12471 332.517 3.88461 330.527 1.44935C328.538 -0.985912 314.337 -0.0255289 315.812 1.92954C317.287 3.88461 304.287 3.16432 304.527 3.88461C305.041 5.49669 309.569 6.83437 315.332 6.83437ZM284.872 23.2981C284.872 19.3537 272.112 23.7097 274.582 24.4986C277.052 25.2875 285.009 27.4141 285.009 23.4353L284.872 23.2981ZM316.567 20.1083C317.287 22.0633 315.332 22.3034 310.427 22.3034C305.522 22.3034 302.949 25.0817 305.487 27.2083C308.026 29.3348 321.472 28.6831 323.667 25.7334C325.862 22.7836 331.522 25.2532 332.517 22.3034C333.511 19.3537 315.949 18.2904 316.704 20.2455L316.567 20.1083ZM358.517 15.4435C360.232 13.2141 355.327 13.2141 354.847 11.0189C354.367 8.82373 340.578 8.30924 341.332 10.7788C342.087 13.2484 331.831 15.8894 334.952 18.3933C340.989 23.1609 356.939 17.7759 358.654 15.5807L358.517 15.4435ZM319.619 11.6363C320.374 6.49137 311.799 10.6759 305.384 7.96625C298.97 5.25659 295.094 5.46239 299.519 9.20103C301.474 10.916 288.577 12.2537 290.669 14.346C295.334 19.0107 318.762 16.7812 319.619 11.6363ZM283.088 147.84C283.329 150.309 281.854 152.024 277.189 152.024C272.524 152.024 279.384 154.939 279.864 157.649C280.344 160.359 275.233 158.404 274.959 162.554C274.685 166.704 265.869 162.554 264.669 167.973C263.468 173.393 269.094 172.638 273.004 172.878C276.914 173.118 271.529 176.788 274.479 178.983C277.429 181.179 279.624 180.458 277.669 176.308C275.714 172.158 287.959 177.783 284.289 180.973C280.619 184.163 290.189 186.598 294.854 186.838C299.519 187.078 316.052 190.714 316.429 186.838C316.704 184.403 310.324 182.208 305.144 176.788C299.965 171.369 296.329 162.554 302.229 158.884C308.128 155.214 302.949 153.465 308.814 149.314C314.68 145.164 311.284 141.22 316.189 140.705C321.094 140.191 315.709 135.8 320.614 135.08C321.496 134.897 322.33 134.535 323.066 134.016C323.802 133.498 324.424 132.834 324.893 132.066C325.363 131.297 325.669 130.441 325.795 129.55C325.92 128.658 325.861 127.75 325.622 126.883C324.902 124.927 330.802 127.123 333.477 124.173C336.153 121.223 342.567 123.212 344.522 119.028C346.477 114.843 374.707 105.308 390.657 101.604C406.608 97.8995 417.653 91.314 412.027 86.8893C406.402 82.4647 390.417 88.6043 386.507 91.7942C382.597 94.984 376.937 92.7546 372.992 94.984C369.048 97.2135 360.712 99.1342 356.562 96.4246C352.412 93.7149 347.472 99.6487 344.282 99.3743C341.092 99.1 337.422 102.598 333.992 102.324C330.562 102.05 323.701 105.034 323.187 106.989C322.672 108.944 316.807 108.464 316.807 110.933C316.807 113.403 312.142 115.598 309.672 113.369C307.202 111.139 304.287 115.838 307.717 119.028C311.147 122.218 301.337 122.458 303.052 124.413C304.767 126.368 299.382 127.603 300.617 129.832C301.851 132.062 297.186 132.782 293.482 133.502C289.777 134.223 287.856 139.162 292.521 139.402C297.186 139.642 289.812 140.362 290.292 144.067C290.772 147.771 282.814 145.37 283.088 147.84Z"/>
</mask>
<path d="M21.4725 392.292C20.5578 392.423 19.6248 392.326 18.7568 392.009C17.8889 391.692 17.1131 391.164 16.4989 390.474C15.7786 389.411 13.4804 389.822 11.4566 389.994C11.9974 390.292 12.4478 390.73 12.7601 391.263C13.8577 393.218 8.33519 393.458 10.0503 395.79C11.7653 398.123 6.13986 398.26 6.13986 395.79C6.13986 393.321 0.240055 394.556 0.480164 396.168C0.557321 396.856 0.387147 397.549 0 398.123C1.61216 398.706 3.43013 399.358 4.18476 399.666C11.3144 400.832 18.5587 401.131 25.7602 400.558C25.7137 398.723 25.8171 396.888 26.069 395.07C26.069 393.595 22.5702 391.743 21.4725 392.292ZM376.559 14.346C385.889 13.3856 385.649 8.20634 380.744 7.21166C375.839 6.21697 375.085 10.1614 372.649 9.92132C370.214 9.68122 360.918 11.4648 362.839 13.5914C364.76 15.7179 371.929 14.8261 376.559 14.346ZM423.93 150.892C427.12 151.372 435.695 149.657 436.69 147.942C437.684 146.227 433.26 144.272 427.6 144.272C421.94 144.272 421.151 150.343 423.93 150.892ZM605.281 25.4933C609.946 27.4484 608.231 28.6831 603.326 28.6831C598.42 28.6831 594.201 30.3295 597.426 31.6329C599.895 32.6276 599.655 35.3029 604.8 36.5377C609.946 37.7725 615.091 33.588 614.611 30.6382C614.13 27.6884 632.516 25.0131 637.455 23.7783C642.394 22.5435 634.231 17.3986 639.65 16.9184C645.07 16.4382 642.84 14.003 636.22 13.0083C629.6 12.0136 632.276 6.38847 630.08 4.4334C627.885 2.47833 626.65 6.86867 618.041 8.58364C609.431 10.2986 605.281 12.5281 608.711 14.2431C612.141 15.958 608.711 20.1083 605.041 19.9025C601.37 19.6967 600.616 23.4353 605.281 25.3904V25.4933ZM618.315 32.3532C618.315 35.0628 610.391 37.7382 612.621 39.7276C614.851 41.7169 616.326 40.9623 618.795 41.4425C621.265 41.9227 622.466 48.0623 626.89 47.0676C631.315 46.073 643.321 51.9725 650.421 51.9725C657.521 51.9725 658.276 46.1073 656.081 45.8672C653.886 45.6271 655.841 42.1971 659.751 36.5377C663.661 30.8783 647.506 26.7281 647.506 31.1184C647.506 35.5087 642.84 30.158 641.365 27.4484C639.891 24.7387 618.315 29.5406 618.315 32.2503V32.3532ZM495.585 154.322C499.53 156.277 502.445 155.557 501.965 151.612C501.485 147.668 492.464 152.916 495.585 154.322ZM598.901 7.82905C599.895 4.15901 583.602 5.73678 587.856 9.30393C589.331 10.6759 597.94 11.6363 598.901 7.96625V7.82905ZM1321.11 185.878C1326.02 188.313 1328.97 182.928 1332.91 185.638C1336.86 188.347 1346.39 184.403 1350.34 183.648C1354.28 182.894 1352.29 178.023 1341.25 176.548C1330.2 175.073 1315.83 183.237 1321.11 185.878ZM656.321 66.8584C659.751 68.8135 670.796 64.4232 678.171 64.6633C685.546 64.9034 706.126 59.0039 706.881 55.0937C707.636 51.1836 699.266 51.4237 696.076 47.9937C692.886 44.5638 685.786 47.5135 684.071 50.4633C682.356 53.4131 680.366 50.7034 685.031 46.0387C689.696 41.3739 680.366 37.7039 680.126 40.6194C679.886 43.5348 671.311 41.1338 671.311 43.8092C671.311 46.4846 668.12 47.7536 668.361 50.4633C668.601 53.173 662.461 48.9884 662.221 55.128C661.981 61.2676 652.719 64.8005 656.321 66.8584ZM972.888 117.416C975.428 118.757 977.678 120.587 979.508 122.801C981.497 124.756 988.838 121.806 991.788 120.846C994.738 119.885 994.978 125.27 999.643 122.321C1004.31 119.371 1008.97 120.846 1014.36 120.846C1019.74 120.846 1013.4 114.226 1013.64 111.276C1013.88 108.327 1020.02 110.282 1018.06 112.751C1016.11 115.221 1021.01 120.846 1028.83 120.366C1036.65 119.885 1030.82 114.946 1034.73 113.231C1038.64 111.516 1038.16 109.561 1032.54 106.131C1026.91 102.701 1019.54 104.897 1014.63 102.701C1009.73 100.506 1003.07 100.232 1002.83 105.617C1002.59 111.002 992.302 99.7516 986.883 98.0024C981.463 96.2531 964.792 113.334 972.888 117.416ZM1024.34 148.834C1028.73 147.84 1021.15 139.745 1013.53 138.544C1005.92 137.344 998.854 143.586 999.814 144.924C1001.87 148.08 1019.78 149.795 1024.2 148.834H1024.34ZM1004.68 132.611C1004.68 128.94 991.307 133.983 996.83 135.8C999.643 136.795 1004.55 136.315 1004.55 132.611H1004.68ZM1047.39 117.141C1053.29 117.656 1056.24 123.315 1067.52 124.001C1078.81 124.687 1087.11 122.561 1087.11 120.023C1087.11 117.484 1076.82 113.917 1073.63 115.872C1070.44 117.827 1067.97 112.683 1064.06 113.917C1060.15 115.152 1054.73 114.878 1052.78 111.448C1050.82 108.018 1044.3 116.936 1047.25 117.141H1047.39ZM227.589 17.673C233.249 12.5281 240.624 17.4329 241.584 14.9633C242.544 12.4938 231.019 11.7735 226.869 14.003C222.718 16.2324 212.908 14.4146 214.109 17.1928C215.841 18.9539 218.19 19.9739 220.659 20.0379C223.129 20.1019 225.527 19.2049 227.349 17.5358L227.589 17.673ZM1022.21 432.148C1019.54 425.014 1026.16 418.154 1021.25 414.449C1016.35 410.745 1018.3 403.199 1015.83 404.64C1013.36 406.08 1015.83 412.769 1011.92 413.249C1008.01 413.729 1011.68 417.399 1010.21 422.338C1008.73 427.277 1010.93 434.343 1012.92 438.768C1014.91 443.192 1010.21 466.722 1012.16 470.666C1014.12 474.611 1008.97 491.966 1010.69 493.99C1013.64 497.42 1011.68 489.291 1016.07 488.57C1020.46 487.85 1020.5 493.475 1023.21 494.71C1025.92 495.945 1024.2 486.855 1021.73 487.336C1019.26 487.816 1017.34 481.47 1016.07 477.526C1014.8 473.582 1018.54 468.951 1018.54 464.046C1018.54 459.142 1024.68 459.382 1028.35 463.052C1032.02 466.722 1032.54 464.286 1031.06 461.577C1029.59 458.867 1024.92 439.351 1022.21 432.148ZM250.434 15.2377C253.864 17.673 240.864 16.9527 239.149 19.388C237.433 21.8232 229.887 20.9658 231.294 23.8126C232.7 26.6595 245.014 27.0025 245.014 24.5329C245.014 22.0633 251.394 24.2928 251.634 22.0976C251.874 19.9025 254.584 17.4329 261.444 16.9527C268.305 16.4725 268.305 14.003 261.925 11.0532C255.545 8.10345 247.004 12.8711 250.434 15.3406V15.2377ZM239.869 213.592C246.489 219.731 252.149 210.916 255.339 210.402C258.529 209.887 253.384 206.492 247.964 205.017C242.544 203.542 234.895 208.961 239.869 213.592ZM1415.48 255.437C1410.88 253.323 1406.71 250.368 1403.2 246.725C1401.28 243.912 1391.81 242.54 1391.81 244.015C1391.81 245.49 1388.72 243.672 1388 242.06C1387.28 240.448 1377.33 240.208 1377.2 242.06C1377.06 243.912 1379.53 243.912 1381 245.902C1382.48 247.891 1379.05 248.954 1379.77 251.15C1380.49 253.345 1376.1 250.052 1374.49 248.817C1372.88 247.582 1373.66 242.815 1374.14 240.345C1374.62 237.876 1371.3 238.39 1370.95 235.955C1370.61 233.52 1359.53 228.478 1354.87 226.488C1350.2 224.499 1344.2 222.818 1342.59 220.349C1340.97 217.879 1332.67 217.673 1329.48 214.346C1326.29 211.019 1312.33 205.154 1306.26 204.777C1300.19 204.399 1301.6 201.107 1298.68 201.587C1292.17 201.878 1285.64 201.637 1279.16 200.866C1275.22 200.249 1274.36 203.199 1271.55 202.067C1268.74 200.935 1254.12 195.687 1252.41 197.677C1250.69 199.666 1251.45 202.444 1249.7 202.924C1247.95 203.405 1249.7 205.874 1253.78 209.579C1257.86 213.283 1255.36 216.061 1251.65 217.673C1247.95 219.285 1242.08 216.198 1240.27 213.352C1238.45 210.505 1233.41 211.774 1232.17 208.104C1230.94 204.434 1233.65 203.782 1236.12 205.874C1236.62 206.314 1237.23 206.609 1237.89 206.727C1238.55 206.846 1239.23 206.784 1239.85 206.549C1240.48 206.313 1241.03 205.912 1241.45 205.389C1241.86 204.866 1242.13 204.239 1242.22 203.576C1242.6 200.866 1235.6 199.014 1231.93 199.254C1228.26 199.495 1226.07 204.777 1222.12 206.972C1218.18 209.167 1202.98 206.114 1201.37 204.674C1199.76 203.233 1178.56 204.674 1176.36 206.114C1174.17 207.555 1175.75 213.352 1174.65 213.866C1173.55 214.38 1172.42 207.246 1172.42 205.874C1172.42 204.502 1169.85 203.576 1166.04 203.576C1162.23 203.576 1160.04 203.576 1161.61 201.827C1163.19 200.078 1160.14 198.637 1163.09 196.579C1166.04 194.521 1157.7 187.97 1149.61 184.78C1141.51 181.59 1123.09 183.442 1118.19 184.78C1113.28 186.118 1103.47 185.74 1098.81 185.878C1094.14 186.015 1097.95 184.025 1096.61 181.83C1095.27 179.635 1087.28 176.925 1086.15 178.743C1085.02 180.561 1082.96 178.743 1082.96 177.406C1082.96 176.068 1075.48 173.358 1072.67 173.976C1069.86 174.593 1068.38 171.266 1071.81 171.266C1075.24 171.266 1081.14 172.021 1078.67 168.076C1076.2 164.132 1054.01 162.931 1051.92 163.686C1049.83 164.44 1051.92 167.116 1047.01 171.781C1042.11 176.445 1037.58 173.255 1038.2 171.026C1038.81 168.796 1044.68 169.174 1044.68 166.979C1044.68 164.783 1036.58 165.984 1035.35 164.166C1034.12 162.348 1037.07 161.079 1040.02 161.937C1042.97 162.794 1048.11 163.309 1048.35 161.937C1048.59 160.565 1045.3 160.359 1040.39 159.467C1035.49 158.575 1023.58 155.797 1017.31 156.414C1011.03 157.032 1008.25 154.116 1004.82 153.842C1001.39 153.568 1001.39 155.694 1002.97 157.649C1004.55 159.604 999.54 160.839 995.595 160.222C991.65 159.604 985.682 162.451 988.014 165.367C990.347 168.282 992.679 164.509 994.634 165.367C996.59 166.224 989.489 168.419 992.405 169.791C995.321 171.163 994.875 173.941 995.012 175.416C995.149 176.891 990.073 177.646 988.152 175.416C986.231 173.187 983.727 175.176 980.297 174.936C976.866 174.696 974.26 176.274 977.964 176.788C981.669 177.303 982.869 179.601 977.964 180.218C973.059 180.836 974.26 175.691 971.344 176.308C968.428 176.925 962.014 173.976 958.584 174.079C955.154 174.181 953.542 176.925 949.014 177.268C946.663 177.397 944.31 177.04 942.103 176.22C939.896 175.399 937.882 174.134 936.185 172.501C934.333 170.031 933.716 169.311 931.52 172.124C929.325 174.936 929.188 180.355 926.992 180.733C924.797 181.11 923.905 185.878 921.71 187.078C919.515 188.279 919.378 185.26 916.531 185.5C913.684 185.74 904.662 176.925 904.148 174.353C903.633 171.781 898.008 166.841 896.567 165.881C895.127 164.921 898.008 164.406 899.997 165.881C900.808 166.598 901.823 167.043 902.899 167.154C903.976 167.265 905.06 167.036 906 166.498C907.852 165.538 907.612 160.976 904.422 160.873C901.232 160.77 902.433 158.026 904.045 157.443C905.657 156.86 900.375 152.161 902.33 151.681C904.285 151.201 903.427 149.109 900.718 148.731C898.008 148.354 895.229 146.159 895.092 144.821C894.955 143.483 883.567 142.969 884.047 144.821C884.527 146.673 880.377 146.193 880.994 144.581C881.612 142.969 876.913 143.483 871.527 142.009C866.142 140.534 865.902 137.172 864.152 136.795C862.403 136.418 862.918 142.077 860.242 140.842C859.646 140.526 858.964 140.411 858.297 140.515C857.63 140.618 857.015 140.936 856.544 141.419C856.072 141.902 855.77 142.524 855.682 143.193C855.595 143.862 855.726 144.542 856.057 145.13C857.532 148.32 856.057 148.834 856.057 151.407C856.057 153.979 854.342 152.882 851.152 151.75C847.962 150.618 847.962 154.459 841.068 152.744C834.173 151.029 831.12 152.744 829.92 150.652C828.719 148.56 826.49 148.217 826.49 150.035C826.49 151.853 815.685 151.132 814.827 148.457C813.97 145.782 816.679 145.267 818.257 144.547C819.835 143.826 816.542 142.695 810.78 143.038C805.017 143.381 801.347 140.122 795.447 140.705C788.451 141.223 781.488 142.128 774.592 143.415C772.74 144.272 776.307 147.599 773.494 147.84C770.681 148.08 772.637 142.454 772.122 139.745C771.607 137.035 767.354 136.658 767.972 138.75C768.589 140.842 761.111 141.563 759.362 139.985C756.618 137.596 753.333 135.912 749.792 135.08C745.024 133.845 739.124 138.99 740.462 140.465C741.8 141.94 745.367 140.842 745.504 141.837C745.744 143.861 735.214 143.038 735.214 144.753C735.214 146.468 725.541 148.834 722.591 149.177C714.53 150.206 712.781 150.172 708.87 153.362C704.96 156.552 708.013 150.515 710.963 147.599C713.913 144.684 716.966 145.884 718.681 143.552C720.396 141.22 723.105 141.46 727.77 140.705C732.435 139.951 732.161 137.275 734.391 136.315C736.62 135.354 741.971 133.228 742.966 131.033C743.961 128.838 755.006 125.133 757.201 125.27C759.396 125.408 759.911 120.846 761.111 120.846C764.575 119.822 767.948 118.515 771.196 116.936C772.198 116.48 773.069 115.779 773.728 114.898C774.387 114.017 774.814 112.983 774.969 111.894C774.969 110.282 771.539 110.522 771.264 109.047C770.99 107.572 772.877 108.567 775.449 107.572C778.022 106.577 775.449 103.182 773.357 103.799C771.265 104.416 774.489 101.947 772.637 99.7516C770.784 97.5565 767.114 101.089 767.217 98.757C767.556 96.3344 766.942 93.8748 765.502 91.8971C764.061 90.4222 761.352 94.4695 758.264 92.1372C755.177 89.8048 746.259 88.3299 746.259 89.3246C746.259 90.3193 741.937 87.8497 741.114 88.8444C737.752 89.7454 734.223 89.8277 730.823 89.0845C728.628 88.4671 725.575 89.942 725.438 92.1372C725.301 94.3323 716.623 93.5091 715.148 93.1318C713.673 92.7545 721.15 86.512 721.15 85.4145C721.15 84.3169 708.287 85.6546 707.43 84.4198C706.572 83.185 700.57 82.842 697.62 82.9449C694.67 83.0478 697.62 82.2246 700.089 81.9502C702.559 81.6758 704.994 79.5149 707.807 79.0348C710.62 78.5546 710.003 77.5599 708.802 75.8449C707.601 74.1299 704.617 74.9531 701.942 74.1299C699.12 73.0951 696.201 72.3481 693.229 71.9005C689.533 72.4289 685.877 73.2082 682.287 74.2328C676.524 75.3304 676.044 79.7551 673.094 81.0927C670.144 82.4304 664.999 87.9526 667.469 88.2956C669.938 88.6386 668.669 90.285 669.047 91.7256C669.424 93.1661 667.194 93.6806 664.382 93.2004C661.569 92.7203 651.622 92.8575 651.759 94.9154C651.896 96.9734 657.522 98.0024 657.144 99.1C656.767 100.198 652.857 99.1 650.901 97.8652C648.946 96.6304 644.521 97.385 643.664 99.4772C642.806 101.57 639.376 101.055 638.244 100.575C637.112 100.095 634.814 101.535 632.859 100.918C630.904 100.3 636.529 97.4879 635.191 96.2531C633.854 95.0183 627.954 96.2531 627.336 98.3454C626.719 100.438 623.151 96.7676 621.814 97.5222C620.068 98.5104 618.271 99.4035 616.429 100.198C613.822 101.295 609.568 98.9628 608.436 100.918C607.304 102.873 613.341 103.525 613.479 104.348C613.616 105.171 600.101 105.068 599.758 106.44C599.415 107.812 594.853 107.778 589.468 107.881C584.082 107.984 586.037 110.727 581.716 111.585C577.394 112.442 575.336 112.545 573.895 114.775C573.557 115.282 573.115 115.71 572.598 116.033C572.082 116.356 571.502 116.564 570.899 116.646C570.295 116.727 569.681 116.678 569.098 116.504C568.514 116.329 567.975 116.032 567.515 115.632C566.04 113.917 561.992 116.49 564.085 116.73C566.177 116.97 564.085 119.199 562.85 118.685C561.615 118.17 557.602 121.017 559.797 120.777C561.992 120.537 563.227 122.389 561.992 123.727C560.757 125.065 556.093 122.115 554.892 123.35C553.692 124.584 557.224 126.197 559.42 125.922C559.849 125.855 560.289 125.876 560.71 125.984C561.131 126.093 561.526 126.286 561.87 126.553C562.214 126.82 562.499 127.154 562.709 127.535C562.919 127.916 563.048 128.336 563.09 128.769C563.364 130.347 557.945 127.774 556.847 129.112C555.749 130.45 557.705 131.067 560.037 131.341C562.37 131.616 560.655 132.439 562.747 134.291L563.124 134.669C564.393 136.212 562.027 136.726 562.267 138.098C562.507 139.47 559.9 140.294 559.9 138.853C559.9 137.412 553.417 136.864 552.045 138.476C550.673 140.088 549.747 141.288 548.135 139.813C546.522 138.339 541.892 140.191 535.855 140.431C528.659 140.474 521.479 141.094 514.382 142.283C511.329 143.381 508.757 147.668 511.57 150.481C514.382 153.293 511.57 154.528 511.57 156.38C511.57 158.232 518.91 162.039 522.855 162.382C526.799 162.725 529.955 167.562 527.622 170.477C525.29 173.393 518.155 169.62 513.525 165.95C508.894 162.28 498.055 160.805 494.487 161.045C490.92 161.285 493.012 157.855 488.485 157.992C483.957 158.129 479.978 162.554 483.065 162.554C486.152 162.554 488.107 162.314 486.495 163.789C484.883 165.264 487.353 164.886 491.057 166.464C494.762 168.042 487.97 170.271 484.197 167.699C483.488 167.231 482.694 166.907 481.86 166.747C481.025 166.586 480.168 166.592 479.336 166.764C478.504 166.937 477.714 167.271 477.012 167.75C476.31 168.228 475.709 168.84 475.244 169.551C474.147 171.506 479.669 177.166 486.289 178.126C492.91 179.086 490.714 181.213 493.767 182.31C496.82 183.408 494.659 184.643 492.566 184.78C490.474 184.917 486.289 181.59 482.996 179.841C479.704 178.092 470.717 180.595 468.864 178.64C467.012 176.685 470.099 174.696 468.384 173.255C466.669 171.815 468.144 168.453 470.339 165.024C471.218 163.199 471.351 161.104 470.711 159.183C470.071 157.262 468.707 155.666 466.909 154.734C463.719 153.773 463.994 157.066 464.714 158.164C465.045 159.68 465.028 161.251 464.666 162.759C464.303 164.268 463.605 165.675 462.622 166.876C460.186 169.928 452.674 169.928 452.674 172.021C452.674 174.113 447.666 175.691 449.244 177.166C452.802 180.615 455.956 184.458 458.643 188.622C459.637 190.954 452.64 198.328 453.737 202.616C454.835 206.903 452.743 208.858 454.115 210.951C455.487 213.043 458.54 211.191 460.495 212.048C462.45 212.906 465.64 210.813 470.202 209.956C474.764 209.098 483.065 213.9 486.152 215.375C489.239 216.85 487.627 219.285 489.205 221.755C490.783 224.224 485.535 224.19 485.398 227.894C485.26 231.599 494.625 233.142 494.968 234.274C495.311 235.406 488.348 234.514 485.638 233.52C482.928 232.525 482.688 228.992 481.865 228.237C481.041 227.483 483.683 224.567 483.923 222.235C484.163 219.903 480.87 218.565 479.772 216.953C478.675 215.341 476.685 213.043 474.49 213.523C472.295 214.003 464.199 214.758 461.73 216.953C459.26 219.148 462.073 225.425 463.445 228.512C464.817 231.599 456.344 235.852 456.584 238.287C456.825 240.722 454.012 241.717 450.342 243.844C446.671 245.97 442.624 247.274 442.727 250.464C442.83 253.653 437.822 251.938 435.249 250.464C432.677 248.989 429.349 251.321 425.679 251.184C422.009 251.047 422.009 247.994 419.059 249.092C418.555 249.365 417.98 249.479 417.41 249.42C416.839 249.361 416.3 249.131 415.863 248.76C415.425 248.389 415.11 247.895 414.958 247.342C414.806 246.79 414.825 246.204 415.011 245.662C415.869 243.432 419.162 245.147 419.436 246.759C419.711 248.371 421.769 247.617 424.204 246.279C426.639 244.941 425.439 247.994 429.006 248.234C432.574 248.474 430.584 246.382 433.294 246.622C436.004 246.862 436.107 246.039 435.249 244.667C434.392 243.295 437.239 242.335 438.919 241.614C440.6 240.894 439.914 238.184 441.526 237.19C443.138 236.195 442.006 234.617 443.721 234.48C445.437 234.343 446.191 231.805 447.769 231.805C449.347 231.805 450.204 229.198 449.244 227.86C448.284 226.522 449.861 222.818 451.439 222.338C453.017 221.858 453.189 220.383 451.714 219.285C450.239 218.188 444.853 214.483 445.196 212.151C445.539 209.819 444.202 205.531 444.956 203.713C445.433 201.105 445.433 198.432 444.956 195.824C445.401 192.866 446.102 189.951 447.049 187.112C447.769 183.099 442.761 178.778 440.189 177.68C437.616 176.582 439.331 174.25 442.898 171.438C446.466 168.625 446.706 159.261 446.328 157.306C445.951 155.351 438.816 153.636 436.038 153.876C430.757 154.001 425.473 153.761 420.225 153.156C417.653 152.641 416.795 155.351 415.56 157.786C413.281 161.499 411.429 165.457 410.038 169.585C408.425 175.108 401.943 176.823 398.993 178.057C396.043 179.292 394.225 183.305 395.563 185.295C396.9 187.284 398.993 185.672 400.227 186.392C401.462 187.112 400.228 192.292 399.233 193.012C398.238 193.732 400.811 195.584 398.753 196.922C396.694 198.26 394.705 201.107 395.94 202.581C397.175 204.056 403.177 204.811 405.75 206.252C408.323 207.692 407.328 210.436 409.18 213.111C411.032 215.787 413.262 214.106 414.222 215.684C415.183 217.262 410.792 223.676 409.077 223.916C407.362 224.156 400.982 217.399 398.993 215.958C397.003 214.518 389.423 212.117 385.649 210.162C381.876 208.207 378.789 208.447 374.604 205.634C370.126 202.501 364.678 201.066 359.237 201.587C351.657 201.587 346.752 199.872 344.179 200.249C341.606 200.626 342.567 197.642 338.039 195.687C333.511 193.732 330.527 191.023 327.955 192.257C325.382 193.492 326.377 198.5 330.287 199.117C334.197 199.735 332.277 201.827 336.427 201.587C340.578 201.347 341.812 202.787 341.709 205.36C341.844 206.702 342.251 208.003 342.906 209.182C343.56 210.362 344.449 211.395 345.517 212.22C347.369 213.935 346.237 216.747 342.944 216.747C339.651 216.747 335.81 217.227 337.285 219.56C338.76 221.892 336.29 222.509 332.997 221.275C329.704 220.04 331.625 217.845 332.997 216.37C334.369 214.895 330.047 213.317 327.955 212.563C325.862 211.808 317.664 217.982 315.195 218.942C312.725 219.903 307.099 217.467 301.2 218.942C295.3 220.417 295.711 225.082 293.482 224.602C291.252 224.122 284.769 225.219 282.3 223.744C279.83 222.269 281.819 221.412 284.392 221.549C286.965 221.686 287.822 220.794 286.347 219.079C284.872 217.365 288.337 214.655 288.2 213.42C288.062 212.185 278.526 215.409 276.914 216.85C275.302 218.291 276.914 220.657 275.337 221.515C273.759 222.372 273.621 220.04 271.632 219.32C269.642 218.599 255.339 221.892 252.629 224.945C249.919 227.997 244.637 228.135 244.637 229.85C244.637 231.564 238.154 231.462 235.581 232.696C233.009 233.931 234.724 238.939 233.729 241.408C232.734 243.878 222.684 243.123 219.631 243.226C216.578 243.329 215.446 237.361 213.011 236.984C210.576 236.607 212.016 233.177 212.737 231.702C213.457 230.227 215.446 231.462 218.499 229.507C221.552 227.551 224.639 230.467 225.874 229.129C227.109 227.792 221.209 224.224 220.832 221.137C220.454 218.051 213.971 217.227 210.301 218.222C206.84 218.997 203.22 218.598 200.011 217.09C197.438 215.89 197.678 219.32 201.486 220.28C205.293 221.24 203.338 224.224 203.956 226.042C204.008 229.386 202.878 232.642 200.765 235.235C198.536 238.424 200.148 238.321 203.475 238.184C206.803 238.047 206.528 242.369 206.528 245.559C206.528 248.749 203.956 249.606 203.956 251.938C203.956 254.271 201.246 250.841 200.525 251.938C199.805 253.036 198.57 251.458 198.09 249.503C197.61 247.548 192.533 248.646 189.72 247.925C186.908 247.205 185.81 248.406 184.472 250.498C182.475 252.409 179.858 253.54 177.098 253.688C174.765 253.962 171.335 257.975 169.105 259.45C166.876 260.925 166.533 263.737 169.62 266.687C172.707 269.637 173.29 271.592 173.05 273.17C172.81 274.748 164.44 274.302 163.103 272.552C160.565 270.908 157.527 270.215 154.527 270.597C152.675 270.975 147.667 265.075 145.06 264.972C142.453 264.869 140.875 268.025 140.018 269.637C139.16 271.249 141.253 271.729 142.487 274.405C143.722 277.08 148.25 277.251 150.583 277.251C152.915 277.251 152.058 280.681 151.337 282.259C150.617 283.837 146.295 284.832 145.06 283.254C143.825 281.676 138.68 283.254 138.577 281.264C138.004 279.776 136.931 278.534 135.541 277.751C134.151 276.969 132.532 276.695 130.962 276.977C127.155 277.594 126.4 275.159 126.675 272.209C126.949 269.26 124.582 267.545 124.685 266.207C124.788 264.869 122.97 262.125 124.925 260.788C126.88 259.45 125.44 257.358 125.543 255.54C125.646 253.722 122.215 250.361 119.128 250.361C116.041 250.361 116.693 247.308 114.12 246.691C110.787 245.432 107.964 243.104 106.094 240.071C105.717 238.219 101.772 237.979 103.144 237.395C104.363 237.21 105.61 237.335 106.767 237.761C107.925 238.187 108.956 238.899 109.764 239.831C112.943 242.719 117.004 244.447 121.289 244.736C127.086 245.49 129.384 248.165 135.764 249.297C142.145 250.429 146.055 251.115 155.145 252.487C164.235 253.859 176.652 244.495 179.156 241.923C181.66 239.35 178.401 234.068 178.401 232.113C178.401 230.158 174.251 229.884 173.633 228.443C172.953 227.209 171.962 226.174 170.759 225.44C169.556 224.706 168.182 224.299 166.773 224.259C163.343 224.259 162.725 220.211 159.913 220.451C157.1 220.692 155.11 219.217 147.77 214.312C140.429 209.407 130.105 205.771 128.355 206.594C126.606 207.418 125.268 207.966 124.033 206.114C122.799 204.262 119.986 204.537 118.031 206.114C116.076 207.692 114.12 204.777 110.416 205.634C106.711 206.492 104.79 204.056 105.751 202.924C106.711 201.793 112.165 202.924 111.891 200.969C111.616 199.014 109.695 200.969 106.403 198.774C103.11 196.579 101.223 198.02 100.503 199.872C99.7824 201.724 97.0726 201.209 95.4604 199.632C95.4604 199.632 95.0831 199.357 94.9116 199.22C94.3285 202.307 92.5106 202.65 90.6583 202.204C88.806 201.758 86.2677 205.394 83.798 205.394C82.487 205.581 81.2581 206.144 80.2599 207.015C79.2617 207.885 78.5367 209.026 78.1726 210.299C77.6581 212.494 74.9826 211.294 74.9826 212.768C75.1646 214.337 74.721 215.915 73.7478 217.159C72.5129 218.634 73.7477 219.388 74.9826 221.823C76.2174 224.259 78.8929 224.053 80.1278 224.773C81.3626 225.493 86.0276 229.438 86.0276 230.913C86.0276 232.388 82.3231 236.058 80.8824 237.052C79.4417 238.047 77.4523 240.482 78.4127 241.957C79.3731 243.432 83.5579 249.572 86.2677 254.477C88.9775 259.381 85.273 257.186 83.5579 259.381C81.8428 261.577 84.2783 264.286 84.7928 265.761C85.3073 267.236 82.5632 266.996 82.8376 268.196C83.112 269.397 86.7479 269.946 86.988 270.906C87.2281 271.866 84.5527 273.135 85.7532 275.091C86.9538 277.046 89.9379 277.046 90.178 279.515C90.4181 281.985 84.7927 282.191 85.0328 284.18C85.2729 286.169 92.4077 288.57 95.5977 292.275C98.7877 295.979 98.5132 296.905 97.7929 298.894C96.318 302.839 87.5026 306.234 85.5131 310.659C83.5236 315.084 76.1831 317.519 72.753 320.949C71.2838 322.503 69.9632 324.191 68.8084 325.991C69.9877 325.687 71.136 325.274 72.2385 324.756C74.1937 323.762 75.6687 328.529 77.5209 330.141C79.3732 331.753 83.4207 330.141 84.7585 331.719C86.0962 333.297 83.6266 333.331 80.8482 332.851C78.0698 332.371 77.418 334.051 72.8559 335.526C69.4258 336.624 69.8717 337.79 68.774 338.75C70.7635 341.632 68.0881 341.975 67.0933 344.204C66.0986 346.433 64.4864 346.948 64.3149 348.423C64.3863 350.049 64.5928 351.667 64.9323 353.259C64.9972 354.909 65.6548 356.48 66.7846 357.684C68.0538 359.536 65.687 359.536 64.5551 360.462C63.4231 361.388 64.212 363.412 65.687 364.852C66.2908 365.433 66.703 366.184 66.8685 367.006C67.034 367.827 66.9448 368.679 66.6131 369.448C66.0642 370.752 67.8822 372.878 69.1856 374.25C70.4891 375.622 70.2833 379.052 71.381 379.944C71.934 380.538 72.6366 380.972 73.415 381.201C74.1934 381.431 75.0192 381.447 75.8059 381.247C76.6347 380.988 77.531 381.053 78.314 381.428C79.097 381.804 79.7085 382.462 80.0249 383.271C80.951 384.917 82.426 384.197 84.4498 383.271C86.4735 382.345 91.0699 384.917 92.1676 385.466C93.2652 386.015 92.7507 389.171 92.9222 391.194C93.0937 393.218 91.8245 395.79 93.8483 397.059C95.8721 398.329 95.3232 401.313 97.69 402.239C100.057 403.165 101.12 406.458 102.492 406.835C103.5 407.197 104.426 407.757 105.215 408.482C106.004 409.206 106.641 410.08 107.089 411.054C107.466 412.734 104.516 414.209 102.835 414.929C101.154 415.65 98.0674 412.734 96.9697 414.003C95.8721 415.273 97.347 417.673 98.2388 421.721C99.1307 425.768 99.9196 426.145 101.669 426.145C103.418 426.145 104.242 424.876 105.545 424.122C106.848 423.367 109.764 424.499 111.068 423.95C112.371 423.401 116.967 423.196 117.928 424.671C119.051 426.557 119.442 428.791 119.025 430.947C118.271 432.216 119.952 433.691 120.843 435.543C121.735 437.396 125.646 436.47 126.915 437.018C128.184 437.567 131.168 441.614 130.619 443.432C130.07 445.25 132.437 445.662 133.741 445.113C135.044 444.564 136.313 446.039 137.788 446.965C138.449 447.349 139.213 447.519 139.975 447.451C140.736 447.383 141.458 447.082 142.042 446.588C143.482 445.662 145.883 444.907 146.638 446.211C147.393 447.514 150.308 449.915 150.308 450.635C150.308 451.356 154.905 450.635 157.169 451.733C159.432 452.83 161.765 452.282 164.029 453.585C166.293 454.888 168.625 455.06 168.831 456.535C169.037 458.01 166.43 459.279 166.43 459.965C166.43 460.651 168.454 461.268 168.454 462.366C168.454 463.463 165.881 463.498 165.504 464.389C165.126 465.281 166.979 466.619 167.356 467.511C167.733 468.402 165.881 471.592 165.881 472.484C165.881 473.376 160.358 472.313 159.021 472.313C157.683 472.313 153.876 476.566 152.606 476.737C151.337 476.909 152.023 478.932 152.401 480.682C156.38 479.893 160.427 479.584 160.873 480.476C161.628 481.951 152.298 485.861 150.583 486.478C148.868 487.096 154.013 489.668 153.773 491.143C153.533 492.618 148.353 492.995 148.868 495.911C149.382 498.826 147.153 499.34 144.306 499.34C141.459 499.34 140.875 501.021 142.11 501.296C143.345 501.57 143.345 505.206 148.627 506.543C154.652 508.875 159.97 512.727 164.063 517.725C164.695 518.39 165.424 518.956 166.224 519.406C167.185 518.77 168.238 518.284 169.345 517.965C172.886 517.898 176.361 518.928 179.293 520.915C181.865 522.733 191.058 520.538 192.156 522.012C192.749 522.898 193.513 523.658 194.402 524.246C195.291 524.835 196.288 525.242 197.335 525.442C199.153 525.442 201.005 529.112 202.48 528.015C205.198 527.115 208.062 526.742 210.919 526.917C212.428 526.917 212.428 528.015 213.903 528.015C215.378 528.015 215.343 533.537 216.475 533.16C217.607 532.782 221.621 536.59 224.193 536.83C226.766 537.07 229.338 541.632 230.47 541.254C231.602 540.877 233.386 543.107 234.141 541.254C234.895 539.402 238.463 540.363 239.492 537.344C234.827 531.616 229.819 525.305 229.956 522.836C230.196 518.685 231.911 515.976 226.766 511.585C221.621 507.195 227.246 504.211 230.951 499.546C234.655 494.882 241.241 493.544 245.666 490.594C244.809 489.982 243.903 489.442 242.956 488.982C239.526 487.507 238.565 486.032 241.138 485.312C243.711 484.592 242.613 483.117 240.006 480.167C237.399 477.217 236.336 474.268 234.861 474.268C232.888 474.037 230.889 474.165 228.961 474.645C226.766 475.365 227.143 472.793 227.486 470.22C227.829 467.648 223.473 468.025 222.718 466.79C221.964 465.556 223.816 462.023 224.57 461.645C225.325 461.268 227.486 460.171 227.486 459.073C227.486 457.975 223.473 457.598 224.914 455.026C226.354 452.453 229.338 452.453 229.338 449.881C229.338 447.308 231.568 445.079 234.141 446.931C236.713 448.783 237.811 453.551 240.761 452.453C243.711 451.356 241.858 448.783 241.481 447.308C241.104 445.833 240.383 443.604 243.711 442.884C247.038 442.163 245.529 438.836 248.101 438.836C251.264 438.011 254.258 436.641 256.951 434.789C258.426 434.034 261.753 432.216 263.194 432.937C264.634 433.657 266.624 435.509 267.619 432.937C268.613 430.364 273.141 431.462 273.518 432.937C273.896 434.412 280.893 434.412 283.088 435.886C285.284 437.361 289.949 440.311 289.949 441.786C289.949 443.261 292.144 445.456 292.144 442.884C292.144 440.311 293.996 441.031 296.946 442.884C299.896 444.736 303.807 443.981 304.664 442.129C305.522 440.277 310.941 438.082 312.759 439.557C314.577 441.031 315.366 442.129 317.561 439.934C319.757 437.739 324.936 438.082 325.656 440.311C326.377 442.541 329.087 442.884 331.179 442.884C333.271 442.884 333.752 446.314 335.226 445.456C336.701 444.599 336.324 441.031 338.176 441.409C340.029 441.786 341.606 443.981 344.419 443.981C347.232 443.981 349.564 443.227 349.564 441.031C349.564 438.836 349.222 435.132 347.369 435.132C345.517 435.132 343.699 433.314 341.469 433.314C339.24 433.314 337.079 429.644 339.274 428.889C341.469 428.135 345.174 426.317 344.419 424.465C343.665 422.613 342.944 418.943 345.894 418.6C348.844 418.257 355.087 418.222 354.744 417.125C354.401 416.027 348.467 415.272 347.369 413.42C346.272 411.568 345.894 407.178 346.992 406.56C348.089 405.943 351.794 406.938 353.852 406.217C355.91 405.497 360.712 407.315 363.799 405.086C367.677 403.152 371.993 402.265 376.32 402.513C379.75 402.513 382.219 400.318 384.792 399.941C388.756 399.46 392.686 398.727 396.557 397.745C398.409 396.991 408.322 395.516 408.7 393.698C409.077 391.88 417.001 390.268 418.99 391.297C420.951 392.392 423.249 392.722 425.439 392.223C427.257 391.503 431.133 393.527 430.756 395.653C430.378 397.78 432.402 399.906 432.231 401.553C432.059 403.199 430.207 403.782 431.304 404.983C432.402 406.183 437.376 405.36 438.851 403.714C440.326 402.067 441.972 404.434 441.972 405.737C441.972 407.041 444.373 407.932 444.373 406.286C444.373 404.64 447.323 405.737 448.249 406.835C449.175 407.932 452.674 405.531 452.674 407.384C452.674 409.236 447.495 410.814 449.724 412.734C451.954 414.655 453.154 410.333 455.967 411.225C458.78 412.117 462.416 408.104 464.988 407.555C467.689 406.51 470.23 405.09 472.535 403.336C474.764 402.033 479.395 402.41 478.057 403.885C476.719 405.36 474.936 408.104 480.458 410.162C485.981 412.22 492.224 422.853 495.722 428.169C499.221 433.486 502.582 443.089 504.366 443.089C506.15 443.089 506.767 438.287 509.168 437.773C511.569 437.258 513.044 441.786 515.617 442.335C518.19 442.884 521.688 444.358 523.712 443.638C525.736 442.918 530.332 440.208 531.979 441.237C533.625 442.266 535.855 442.163 537.33 445.662C538.805 449.16 541 449.915 542.475 449.915C543.95 449.915 544.259 451.561 544.259 453.036C544.259 454.511 546.968 456.466 548.443 456.466C550.703 456.421 552.94 456.004 555.064 455.231C556.264 454.511 557.773 453.757 558.013 455.471C558.254 457.186 560.86 459.587 562.301 459.587C563.742 459.587 566.726 460.822 566.966 459.587C567.206 458.353 571.151 457.632 572.626 457.358C574.101 457.084 579.246 456.157 580.206 453.928C581.167 451.699 585.386 451.699 586.586 450.224C587.787 448.749 591.251 448.028 592.006 446.554C592.76 445.079 597.151 445.319 597.666 444.084C598.18 442.849 601.816 442.609 603.531 443.089C607.31 444.075 611.166 444.741 615.056 445.079C616.291 444.839 616.531 449.503 617.766 449.743C619.001 449.984 623.426 453.413 624.626 452.453C625.566 451.746 626.689 451.321 627.861 451.23C629.034 451.139 630.209 451.385 631.247 451.939C633.716 453.414 636.186 455.369 637.147 453.654C638.107 451.939 643.286 451.218 644.007 450.224C644.727 449.229 645.447 446.314 644.247 445.319C642.772 443.277 641.765 440.934 641.297 438.459C640.783 436.504 644.247 435.989 644.727 434.274C645.207 432.559 648.157 432.319 649.152 431.325C650.147 430.33 650.352 428.135 652.102 428.615C654.235 429.171 656.288 430.001 658.208 431.085C659.79 431.959 661.58 432.386 663.387 432.319C665.566 432.708 667.644 433.536 669.493 434.755C671.242 435.749 676.627 435.749 677.622 437.224C678.617 438.699 677.348 442.884 678.583 444.358C679.817 445.833 682.767 448.989 683.728 448.269C684.688 447.548 689.387 450.738 691.102 450.464C692.817 450.189 695.527 447.514 697.002 447.514C698.477 447.514 703.142 446.314 704.617 446.554C707.087 447.395 709.64 447.969 712.232 448.269C712.952 447.754 717.857 448.509 718.578 449.984C719.298 451.458 725.438 451.458 725.438 453.173C725.438 454.888 728.868 455.883 729.863 457.838C730.858 459.793 738.918 458.593 740.393 459.793C741.868 460.994 751.198 460.788 751.438 459.793C751.679 458.799 760.528 458.318 762.243 457.084C763.958 455.849 768.623 456.363 768.863 454.648C769.103 452.933 773.529 451.699 775.484 450.224C777.439 448.749 785.294 448.989 785.774 450.738C786.254 452.487 790.919 452.933 792.874 452.179C794.829 451.424 800.009 452.453 800.729 454.168C801.45 455.883 807.384 456.843 808.824 456.363C810.265 455.883 814.964 452.453 816.679 452.179C818.394 451.904 820.864 450.224 820.35 448.509C819.835 446.794 823.78 441.889 824.294 439.934C825.373 436.95 827.135 434.26 829.44 432.079C830.674 431.565 833.384 429.37 833.11 427.895C832.835 426.42 832.149 421.995 830.674 421.995C829.199 421.995 826.49 422.27 829.954 417.571C833.419 412.872 839.524 414.141 840.484 414.141C841.445 414.141 849.334 412.151 852.764 413.146C856.195 414.141 858.39 412.666 862.094 414.621C865.799 416.576 870.91 415.821 872.145 417.536C873.38 419.251 878.285 420.76 877.53 423.71C876.775 426.66 880.24 424.911 881.475 431.29C882.709 437.67 885.625 438.15 886.38 441.1C887.134 444.05 891.045 449.469 890.565 451.184C890.084 452.899 889.57 455.574 893.72 455.849C897.871 456.123 900.855 459.279 901.85 458.799C904.984 458.958 907.951 460.264 910.185 462.469C912.62 464.904 916.325 463.703 916.085 466.379C915.845 469.054 918.04 471.284 917.8 473.513C917.56 475.742 922.465 477.183 925.895 476.703C929.325 476.223 931.795 477.938 933.235 474.988C934.676 472.038 939.65 473.239 941.33 472.038C943.011 470.838 948.191 469.328 947.985 473.753C947.779 478.178 950.66 479.138 948.225 480.613C945.79 482.088 944.555 488.468 943.8 491.177C943.045 493.887 939.375 494.607 938.895 497.557C938.415 500.507 934.95 500.747 934.95 502.942C934.95 505.137 930.08 504.657 927.61 502.942C925.14 501.227 922.705 506.132 920.75 506.132C918.794 506.132 919 510.316 919.515 512.031C920.029 513.746 918.794 515.941 919.995 518.891C920.43 521.521 920.625 524.184 920.578 526.849C922.576 525.125 924.913 523.84 927.438 523.076C930.491 523.076 933.544 528.358 936.974 528.461C940.404 528.564 956.011 518.171 956.114 516.456C956.217 514.741 965.341 506.166 969.629 501.467C974.475 496.679 978.568 491.187 981.771 485.175C984.505 481.084 987.459 477.145 990.621 473.376C992.64 470.748 994.365 467.907 995.766 464.904C998.442 459.142 998.442 444.05 999.197 443.055C999.951 442.06 999.54 439.625 1000.77 437.91C1002.01 436.195 1001.39 434.137 1003.83 432.045C1004.7 431.462 1005.33 430.572 1005.58 429.55C1005.84 428.528 1005.7 427.448 1005.2 426.523C1004.58 424.911 1005.2 421.343 1004.72 420.246C1004.24 419.148 1004.2 418.668 1005.68 417.811C1007.15 416.953 1004.72 414.724 1002.63 413.763C1000.53 412.803 997.859 411.911 997.585 409.579C997.166 408.171 996.307 406.936 995.134 406.053C993.961 405.17 992.535 404.686 991.067 404.674C988.392 404.914 983.349 403.199 983.967 404.914C984.584 406.629 983.727 408.104 982.389 407.727C981.051 407.349 980.399 408.481 978.959 410.916C977.518 413.352 971.721 413.626 974.294 411.294C976.866 408.961 973.436 408.859 973.917 406.389C974.397 403.919 976.489 401.484 973.676 402.959C970.864 404.434 970.864 408.344 968.531 408.824C966.199 409.304 966.919 402.204 967.537 400.352C968.154 398.5 963.249 400.352 958.104 400.112C952.959 399.872 954.296 396.202 958.447 393.973C962.597 391.743 961.877 389.685 963.969 388.828C966.062 387.97 971.447 384.403 974.637 382.585C975.778 381.955 976.774 381.092 977.56 380.052C978.346 379.012 978.904 377.818 979.199 376.548C979.954 374.49 985.819 371.884 991.102 367.596C994.751 365.157 997.848 361.979 1000.19 358.267C1001.39 355.694 1009.25 352.504 1009.38 350.549C1009.52 348.594 1018.71 343.689 1024.96 342.455C1031.2 341.22 1041.15 342.832 1043 344.65C1043.23 345.004 1043.55 345.294 1043.93 345.495C1044.3 345.695 1044.72 345.8 1045.14 345.8C1045.57 345.8 1045.99 345.695 1046.36 345.495C1046.73 345.294 1047.05 345.004 1047.29 344.65C1048.42 343.415 1050.72 344.032 1055.04 344.65C1059.36 345.267 1060.18 342.695 1063 343.552C1065.81 344.41 1068.14 344.89 1069.86 341.597C1071.57 338.304 1079.7 338.888 1081.52 340.26C1083.34 341.632 1084.95 343.415 1087.8 341.46C1090.64 339.505 1090.75 344.032 1093.56 344.41C1096.37 344.787 1094.52 347.222 1092.08 346.982C1089.65 346.742 1086.56 348.217 1089.37 349.829C1092.19 351.441 1095.51 348.354 1097.74 348.594C1100.72 349.124 1103.79 348.602 1106.42 347.119C1109.51 345.164 1110.37 348.697 1112.32 347.119C1114.91 345.55 1117.91 344.819 1120.93 345.027C1123.13 345.027 1121.27 342.455 1117.5 342.455C1113.73 342.455 1114.07 340.5 1116.88 335.595C1119.7 330.69 1125.46 327.877 1129.03 324.825C1132.59 321.772 1135.17 323.213 1135.17 321.395C1135.17 319.577 1136.88 313.883 1139.59 313.78C1142.3 313.677 1149.02 314.878 1153.31 312.546C1157.6 310.213 1157.12 314.261 1158.83 314.878C1160.55 315.495 1162.88 311.448 1164.84 312.546C1166.79 313.643 1161.89 316.73 1160.79 320.263C1159.69 323.796 1163.36 322.492 1165.46 323.487C1167.55 324.482 1162.75 325.922 1163.26 326.917C1163.77 327.912 1167.92 327.912 1173.31 322.492C1178.7 317.073 1183.6 315.633 1187.03 315.975C1190.46 316.319 1188.51 312.923 1188.75 307.915C1188.99 302.907 1199.52 301.398 1202.95 302.873C1206.38 304.348 1206.17 305.686 1202.95 304.828C1199.72 303.971 1196.57 306.92 1196.7 311.071C1196.84 315.221 1193.75 316.593 1195.33 318.205C1196.91 319.817 1193 320.16 1192.9 321.875C1192.79 323.59 1192.9 324.962 1190.43 325.682C1187.96 326.403 1179.76 327.26 1179.52 330.45C1179.28 333.64 1174.85 333.88 1172.66 337.961C1170.46 342.043 1162.61 344.204 1157.33 352.059C1152.04 359.913 1143.6 359.913 1143.6 361.388C1143.6 362.863 1137.84 362.726 1135.89 362.966C1133.93 363.206 1137.71 368.008 1133.04 373.05C1128.2 378.201 1125.48 384.986 1125.43 392.052C1125.43 398.912 1127.9 419.183 1129.99 422.75C1132.08 426.317 1130.84 434.995 1132.56 436.847C1134.28 438.699 1133.66 441.752 1134.76 442.849C1135.85 443.947 1140.42 437.944 1143.47 435.372C1146.52 432.8 1145.56 431.942 1147.65 430.604C1149.75 429.267 1148.89 423.744 1149.5 422.132C1150.12 420.52 1153.93 419.903 1155.13 418.325C1156.33 416.747 1159.56 417.708 1161.27 417.09C1162.99 416.473 1161.27 412.426 1160.52 410.23C1159.76 408.035 1165.56 404.708 1168.51 402.616C1171.46 400.524 1175.13 403.988 1178.46 400.901C1181.78 397.814 1178.22 394.281 1176.98 392.703C1175.75 391.126 1180.41 383.374 1182.88 382.619C1185.35 381.865 1186.79 384.472 1189.26 382.242C1191.73 380.013 1187.03 376.48 1185.32 376.72C1183.6 376.96 1182.98 370.477 1187.03 367.425C1191.08 364.372 1189.5 363.72 1186.79 363C1184.08 362.28 1183.6 363.24 1181.51 363.377C1179.42 363.515 1177.36 359.056 1180.55 354.768C1183.74 350.481 1186.79 350.961 1187.41 347.428C1188.03 343.895 1192.55 338.819 1193.65 337.138C1194.75 335.458 1199.17 337.138 1200.89 336.761C1202.6 336.384 1201.99 340.191 1204.08 338.236C1206.17 336.281 1209.6 330.244 1212.41 330.244C1215.23 330.244 1213.41 334.806 1214.13 337.481C1214.85 340.157 1216.46 336.761 1221.85 333.091C1227.23 329.421 1239 329.661 1242.6 331.479C1246.2 333.297 1246.78 337.241 1248.74 336.761C1251.72 336.006 1249.22 332.714 1252.17 331.856C1256.47 330.118 1260.52 327.811 1264.21 324.996C1268.12 322.184 1267.02 324.276 1269.11 321.566C1271.21 318.857 1273.3 320.126 1273.88 318.376C1274.46 316.627 1280.16 313.849 1287.88 312.134C1295.59 310.419 1305.68 305.274 1305.2 303.662C1304.72 302.05 1308.11 301.33 1308.63 302.942C1309.14 304.554 1312.06 303.902 1316 304.76C1319.95 305.617 1321.9 307.229 1325.06 304.039C1328.21 300.849 1324.72 299.752 1324.82 297.179C1324.92 294.607 1319.3 292.137 1320.05 289.565C1320.81 286.992 1316.24 279.858 1314.77 281.23C1313.29 282.602 1309.83 280.133 1309.83 278.177C1309.83 276.222 1309.59 273.89 1307.26 275.331C1304.92 276.771 1301.01 276.085 1300.4 273.89C1299.78 271.695 1304.96 270.083 1308.63 271.558C1312.3 273.033 1311.2 274.507 1313.05 275.605C1316.17 276.548 1319.52 276.328 1322.49 274.988C1325.06 273.753 1332.3 271.558 1333.53 269.328C1334.77 267.099 1333.53 266.276 1335.86 265.041C1338.2 263.806 1336.48 261.234 1334.39 260.136C1333.94 259.967 1333.56 259.649 1333.32 259.235C1333.08 258.821 1332.98 258.336 1333.06 257.862C1333.13 257.388 1333.36 256.953 1333.72 256.63C1334.07 256.307 1334.53 256.116 1335.01 256.089C1337.2 256.089 1336.62 253.516 1338.06 253.379C1339.5 253.242 1339.77 254.477 1342.48 253.139C1345.19 251.801 1342.48 255.231 1341.39 257.564C1340.29 259.896 1343.96 261.851 1344.34 263.189C1344.71 264.526 1349.96 265.041 1352.91 263.463C1355.86 261.885 1365.33 265.418 1365.95 267.75C1366.31 269.302 1367.03 270.748 1368.05 271.974C1369.06 273.2 1370.35 274.173 1371.81 274.816C1375.76 276.806 1379.29 275.914 1380.04 277.766C1380.17 278.218 1380.38 278.639 1380.68 279.005C1380.97 279.37 1381.34 279.671 1381.75 279.89C1382.17 280.108 1382.62 280.24 1383.09 280.275C1383.56 280.311 1384.03 280.251 1384.47 280.098C1386.66 279.618 1387.9 282.053 1389.48 280.578C1391.05 279.104 1391.95 281.436 1394.04 279.618C1396.13 277.8 1389.48 276.531 1390.33 275.056C1391.19 273.581 1392.56 276.188 1394.38 276.051C1396.2 275.914 1393.9 272.381 1395.24 272.004C1396.58 271.626 1395.51 264.286 1394.04 263.772C1392.56 263.257 1393.76 260.719 1396.61 262.811C1399.46 264.369 1402.71 265.049 1405.94 264.766C1408.03 264.766 1405.94 262.811 1403.99 262.434C1402.03 262.057 1404.33 260.342 1405.8 261.679C1407.28 263.017 1410.09 263.669 1410.33 262.194C1410.57 260.719 1412.08 257.529 1414.65 257.666C1417.23 257.804 1417.95 256.294 1415.48 255.437ZM731.166 416.404C724.306 422.681 710.208 424.156 710.208 429.301C710.208 434.446 693.263 437.018 691.788 434.823C690.313 432.628 704.308 432.251 707.636 424.876C710.963 417.502 723.483 413.729 729.691 403.885C734.116 397.025 737.821 386.221 740.393 386.975C742.966 387.73 738.164 410.162 731.166 416.404ZM762.346 128.289C761.352 130.278 756.035 130.415 757.441 132.233C759.877 135.423 772.156 133.708 772.396 129.798C772.637 125.888 763.341 126.231 762.346 128.186V128.289ZM315.332 6.83437C321.232 6.83437 319.482 3.16432 323.427 3.64451C327.371 4.12471 332.517 3.88461 330.527 1.44935C328.538 -0.985912 314.337 -0.0255289 315.812 1.92954C317.287 3.88461 304.287 3.16432 304.527 3.88461C305.041 5.49669 309.569 6.83437 315.332 6.83437ZM284.872 23.2981C284.872 19.3537 272.112 23.7097 274.582 24.4986C277.052 25.2875 285.009 27.4141 285.009 23.4353L284.872 23.2981ZM316.567 20.1083C317.287 22.0633 315.332 22.3034 310.427 22.3034C305.522 22.3034 302.949 25.0817 305.487 27.2083C308.026 29.3348 321.472 28.6831 323.667 25.7334C325.862 22.7836 331.522 25.2532 332.517 22.3034C333.511 19.3537 315.949 18.2904 316.704 20.2455L316.567 20.1083ZM358.517 15.4435C360.232 13.2141 355.327 13.2141 354.847 11.0189C354.367 8.82373 340.578 8.30924 341.332 10.7788C342.087 13.2484 331.831 15.8894 334.952 18.3933C340.989 23.1609 356.939 17.7759 358.654 15.5807L358.517 15.4435ZM319.619 11.6363C320.374 6.49137 311.799 10.6759 305.384 7.96625C298.97 5.25659 295.094 5.46239 299.519 9.20103C301.474 10.916 288.577 12.2537 290.669 14.346C295.334 19.0107 318.762 16.7812 319.619 11.6363ZM283.088 147.84C283.329 150.309 281.854 152.024 277.189 152.024C272.524 152.024 279.384 154.939 279.864 157.649C280.344 160.359 275.233 158.404 274.959 162.554C274.685 166.704 265.869 162.554 264.669 167.973C263.468 173.393 269.094 172.638 273.004 172.878C276.914 173.118 271.529 176.788 274.479 178.983C277.429 181.179 279.624 180.458 277.669 176.308C275.714 172.158 287.959 177.783 284.289 180.973C280.619 184.163 290.189 186.598 294.854 186.838C299.519 187.078 316.052 190.714 316.429 186.838C316.704 184.403 310.324 182.208 305.144 176.788C299.965 171.369 296.329 162.554 302.229 158.884C308.128 155.214 302.949 153.465 308.814 149.314C314.68 145.164 311.284 141.22 316.189 140.705C321.094 140.191 315.709 135.8 320.614 135.08C321.496 134.897 322.33 134.535 323.066 134.016C323.802 133.498 324.424 132.834 324.893 132.066C325.363 131.297 325.669 130.441 325.795 129.55C325.92 128.658 325.861 127.75 325.622 126.883C324.902 124.927 330.802 127.123 333.477 124.173C336.153 121.223 342.567 123.212 344.522 119.028C346.477 114.843 374.707 105.308 390.657 101.604C406.608 97.8995 417.653 91.314 412.027 86.8893C406.402 82.4647 390.417 88.6043 386.507 91.7942C382.597 94.984 376.937 92.7546 372.992 94.984C369.048 97.2135 360.712 99.1342 356.562 96.4246C352.412 93.7149 347.472 99.6487 344.282 99.3743C341.092 99.1 337.422 102.598 333.992 102.324C330.562 102.05 323.701 105.034 323.187 106.989C322.672 108.944 316.807 108.464 316.807 110.933C316.807 113.403 312.142 115.598 309.672 113.369C307.202 111.139 304.287 115.838 307.717 119.028C311.147 122.218 301.337 122.458 303.052 124.413C304.767 126.368 299.382 127.603 300.617 129.832C301.851 132.062 297.186 132.782 293.482 133.502C289.777 134.223 287.856 139.162 292.521 139.402C297.186 139.642 289.812 140.362 290.292 144.067C290.772 147.771 282.814 145.37 283.088 147.84Z" fill="white" stroke="#DB1F35" stroke-width="2" mask="url(#path-1-inside-1_6562_315477)"/>
</svg>
