<svg width="50" height="50" viewBox="0 0 50 50" fill="none" xmlns="http://www.w3.org/2000/svg">
<path d="M25 0.2229L0 11.248V43.9178H15.2256V46.8475H20.8574C21.4621 48.5525 23.0903 49.7772 25 49.7772C26.9097 49.7772 28.5379 48.5525 29.1426 46.8475H37.5305C38.1352 48.5525 39.7634 49.7772 41.673 49.7772C43.5827 49.7772 45.2109 48.5525 45.8156 46.8475H50V11.248L25 0.2229ZM47.0703 14.0439H44.043V11.8228L47.0703 13.1579V14.0439ZM8.88672 14.0439V10.5308L11.8164 9.23882V14.0439H8.88672ZM14.7461 7.94692L17.6758 6.65493V14.044H14.7461V7.94692ZM20.6055 5.36294L23.5352 4.07095V14.044H20.6055V5.36294ZM26.4648 4.07095L29.3945 5.36294V14.044H26.4648V4.07095ZM32.3242 6.65493L35.2539 7.94692V14.044H32.3242V6.65493ZM38.1836 9.23892L41.1133 10.5309V14.044H38.1836V9.23892ZM5.95703 11.8229V14.044H2.92969V13.158L5.95703 11.8229ZM8.78906 40.9881V22.833H20.6055V26.4644H15.2256V40.9881H8.78906ZM25 46.8475C24.1923 46.8475 23.5352 46.1904 23.5352 45.3827C23.5352 44.575 24.1923 43.9178 25 43.9178C25.8077 43.9178 26.4648 44.575 26.4648 45.3827C26.4648 46.1904 25.8077 46.8475 25 46.8475ZM36.2831 43.9178H29.1426C28.5379 42.2128 26.9097 40.9881 25 40.9881C23.0903 40.9881 21.4621 42.2128 20.8574 43.9178H18.1553V29.3941H36.2831V43.9178ZM41.2109 30.1318H39.2128V26.4644H29.3945V22.833H41.2109V30.1318ZM41.6729 46.8475C40.8652 46.8475 40.2081 46.1904 40.2081 45.3827C40.2081 44.575 40.8652 43.9178 41.6729 43.9178C42.4807 43.9178 43.1378 44.575 43.1378 45.3827C43.1378 46.1904 42.4808 46.8475 41.6729 46.8475ZM47.0703 43.9178H45.8155C45.2108 42.2128 43.5826 40.9881 41.6729 40.9881C40.7621 40.9881 39.9152 41.2668 39.2128 41.7431V33.0615H43.823L47.0703 39.0147V43.9178ZM45.5622 30.1318H44.1406V19.9033H26.4648V26.4644H23.5352V19.9033H5.85938V40.988H2.92969V16.9736H47.0703V32.8966L45.5622 30.1318Z" fill="#DB1F35"/>
</svg>
