<svg width="30" height="30" viewBox="0 0 30 30" fill="none" xmlns="http://www.w3.org/2000/svg">
<path d="M15 0.132812L0 6.74787V26.3498H9.13535V28.1076H12.5145C12.8773 29.1306 13.8542 29.8654 15 29.8654C16.1458 29.8654 17.1227 29.1306 17.4855 28.1076H22.5183C22.8811 29.1306 23.858 29.8654 25.0038 29.8654C26.1496 29.8654 27.1266 29.1306 27.4894 28.1076H30V6.74787L15 0.132812ZM28.2422 8.42541H26.4258V7.09275L28.2422 7.89379V8.42541ZM5.33203 8.42541V6.31756L7.08984 5.54236V8.42541H5.33203ZM8.84766 4.76723L10.6055 3.99203V8.42547H8.84766V4.76723ZM12.3633 3.21684L14.1211 2.44164V8.42547H12.3633V3.21684ZM15.8789 2.44164L17.6367 3.21684V8.42547H15.8789V2.44164ZM19.3945 3.99203L21.1523 4.76723V8.42547H19.3945V3.99203ZM22.9102 5.54242L24.668 6.31762V8.42547H22.9102V5.54242ZM3.57422 7.09281V8.42547H1.75781V7.89385L3.57422 7.09281ZM5.27344 24.592V13.6988H12.3633V15.8777H9.13535V24.592H5.27344ZM15 28.1076C14.5154 28.1076 14.1211 27.7133 14.1211 27.2287C14.1211 26.744 14.5154 26.3498 15 26.3498C15.4846 26.3498 15.8789 26.744 15.8789 27.2287C15.8789 27.7133 15.4846 28.1076 15 28.1076ZM21.7699 26.3498H17.4855C17.1227 25.3268 16.1458 24.592 15 24.592C13.8542 24.592 12.8773 25.3268 12.5145 26.3498H10.8932V17.6355H21.7699V26.3498ZM24.7266 18.0781H23.5277V15.8777H17.6367V13.6988H24.7266V18.0781ZM25.0038 28.1076C24.5191 28.1076 24.1249 27.7133 24.1249 27.2287C24.1249 26.744 24.5191 26.3498 25.0038 26.3498C25.4884 26.3498 25.8827 26.744 25.8827 27.2287C25.8827 27.7133 25.4885 28.1076 25.0038 28.1076ZM28.2422 26.3498H27.4893C27.1265 25.3268 26.1496 24.592 25.0038 24.592C24.4573 24.592 23.9491 24.7591 23.5277 25.0449V19.836H26.2938L28.2422 23.4079V26.3498ZM27.3373 18.0781H26.4844V11.941H15.8789V15.8777H14.1211V11.941H3.51562V24.5919H1.75781V10.1832H28.2422V19.737L27.3373 18.0781Z" fill="black"/>
</svg>
