<svg width="50" height="50" viewBox="0 0 50 50" fill="none" xmlns="http://www.w3.org/2000/svg">
<path d="M42.1668 39.0625C43.5536 39.0625 44.8837 38.5116 45.8643 37.5309C46.845 36.5502 47.3959 35.2202 47.3959 33.8333V7.83332C47.3959 6.44646 46.845 5.1164 45.8643 4.13574C44.8837 3.15509 43.5536 2.60416 42.1668 2.60416H7.83342C6.44824 2.60964 5.12137 3.16233 4.1419 4.1418C3.16242 5.12128 2.60973 6.44815 2.60425 7.83332V33.8333C2.60425 35.2202 3.15518 36.5502 4.13584 37.5309C5.11649 38.5116 6.44655 39.0625 7.83342 39.0625H19.6459L18.5209 44.2708H16.6667C16.2523 44.2708 15.8549 44.4354 15.5619 44.7285C15.2689 45.0215 15.1042 45.4189 15.1042 45.8333C15.1042 46.2477 15.2689 46.6452 15.5619 46.9382C15.8549 47.2312 16.2523 47.3958 16.6667 47.3958H33.3334C33.7478 47.3958 34.1452 47.2312 34.4383 46.9382C34.7313 46.6452 34.8959 46.2477 34.8959 45.8333C34.8959 45.4189 34.7313 45.0215 34.4383 44.7285C34.1452 44.4354 33.7478 44.2708 33.3334 44.2708H31.4376L30.1251 39.0625H42.1668ZM7.83342 5.72916H42.1668C42.7193 5.72916 43.2492 5.94865 43.6399 6.33935C44.0306 6.73005 44.2501 7.25996 44.2501 7.81249V27.2917H5.72925V7.83332C5.72646 7.55623 5.77899 7.28136 5.88374 7.02481C5.9885 6.76826 6.14339 6.53519 6.33934 6.33925C6.53528 6.1433 6.76835 5.98841 7.0249 5.88365C7.28145 5.7789 7.55632 5.72637 7.83342 5.72916ZM5.75008 33.8333V30.4375H44.2918V33.8333C44.2918 34.3859 44.0723 34.9158 43.6816 35.3065C43.2909 35.6972 42.761 35.9167 42.2084 35.9167H7.83342C7.55808 35.9194 7.28493 35.8676 7.02976 35.7641C6.77459 35.6606 6.54246 35.5076 6.34679 35.3139C6.15112 35.1202 5.9958 34.8896 5.8898 34.6354C5.7838 34.3813 5.72923 34.1087 5.72925 33.8333H5.75008ZM28.2292 44.25H21.7292L22.8542 39.0417H26.8959L28.2292 44.25Z" fill="#DB1F35"/>
</svg>
