<svg width="56" height="57" viewBox="0 0 56 57" fill="none" xmlns="http://www.w3.org/2000/svg">
<g filter="url(#filter0_d_724_169268)">
<rect x="5.5" y="2.49994" width="45" height="45" rx="5" fill="#DB1F35"/>
</g>
<path d="M30.25 22.7621H40.0937C40.1652 22.7621 40.2338 22.7904 40.2843 22.841C40.3349 22.8915 40.3633 22.9601 40.3633 23.0316V36.2503C40.3633 37.4407 39.8904 38.5823 39.0487 39.424C38.207 40.2657 37.0654 40.7386 35.875 40.7386H20.125C18.9346 40.7386 17.793 40.2657 16.9513 39.424C16.1096 38.5823 15.6367 37.4407 15.6367 36.2503V13.7503C15.6367 12.56 16.1096 11.4184 16.9513 10.5766C17.793 9.73493 18.9346 9.26205 20.125 9.26205H26.5937C26.6652 9.26205 26.7338 9.29045 26.7843 9.341C26.8349 9.39155 26.8633 9.4601 26.8633 9.53159V19.3753C26.8633 20.2735 27.2201 21.135 27.8552 21.7701C28.4904 22.4052 29.3518 22.7621 30.25 22.7621ZM22.375 34.012H33.625C33.9265 34.012 34.2156 33.8923 34.4288 33.6791C34.642 33.4659 34.7617 33.1768 34.7617 32.8753C34.7617 32.5739 34.642 32.2847 34.4288 32.0715C34.2156 31.8584 33.9265 31.7386 33.625 31.7386H22.375C22.0735 31.7386 21.7844 31.8584 21.5712 32.0715C21.358 32.2847 21.2383 32.5739 21.2383 32.8753C21.2383 33.1768 21.358 33.4659 21.5712 33.6791C21.7844 33.8923 22.0735 34.012 22.375 34.012ZM22.375 28.3871H33.625C33.9265 28.3871 34.2156 28.2673 34.4288 28.0541C34.642 27.8409 34.7617 27.5518 34.7617 27.2503C34.7617 26.9489 34.642 26.6597 34.4288 26.4466C34.2156 26.2334 33.9265 26.1136 33.625 26.1136H22.375C22.0735 26.1136 21.7844 26.2334 21.5712 26.4466C21.358 26.6597 21.2383 26.9489 21.2383 27.2503C21.2383 27.5518 21.358 27.8409 21.5712 28.0541C21.7844 28.2673 22.0735 28.3871 22.375 28.3871Z" fill="white" stroke="#DB1F35" stroke-width="0.0234375"/>
<path d="M29.3564 10.159C29.3564 10.159 29.3564 10.159 29.3564 10.159L39.468 20.2706C39.4859 20.2886 39.4981 20.3115 39.503 20.3365C39.5079 20.3614 39.5054 20.3872 39.4957 20.4107C39.486 20.4342 39.4695 20.4543 39.4484 20.4685C39.4273 20.4826 39.4025 20.4903 39.3771 20.4904H30.2499C29.9546 20.4904 29.6714 20.3731 29.4627 20.1643C29.2539 19.9555 29.1366 19.6723 29.1366 19.3771V10.2498C29.1367 10.2244 29.1443 10.1996 29.1585 10.1785C29.1727 10.1574 29.1928 10.141 29.2162 10.1313C29.2397 10.1216 29.2656 10.119 29.2905 10.124C29.3154 10.1289 29.3383 10.1411 29.3564 10.159Z" fill="white" stroke="#DB1F35" stroke-width="0.0234375"/>
<defs>
<filter id="filter0_d_724_169268" x="-4.76837e-07" y="0.499939" width="56" height="56" filterUnits="userSpaceOnUse" color-interpolation-filters="sRGB">
<feFlood flood-opacity="0" result="BackgroundImageFix"/>
<feColorMatrix in="SourceAlpha" type="matrix" values="0 0 0 0 0 0 0 0 0 0 0 0 0 0 0 0 0 0 127 0" result="hardAlpha"/>
<feOffset dy="3.5"/>
<feGaussianBlur stdDeviation="2.75"/>
<feColorMatrix type="matrix" values="0 0 0 0 0 0 0 0 0 0 0 0 0 0 0 0 0 0 0.02 0"/>
<feBlend mode="normal" in2="BackgroundImageFix" result="effect1_dropShadow_724_169268"/>
<feBlend mode="normal" in="SourceGraphic" in2="effect1_dropShadow_724_169268" result="shape"/>
</filter>
</defs>
</svg>
