<svg width="24" height="24" viewBox="0 0 24 24" fill="none" xmlns="http://www.w3.org/2000/svg">
<path d="M12.0006 0C11.5353 0 11.1581 0.377143 11.1581 0.842449V17.0645L8.27812 14.1845C7.94996 13.8563 7.41608 13.8563 7.08792 14.1845C6.75976 14.5127 6.75976 15.0465 7.08792 15.3747L11.403 19.6898C11.5647 19.8514 11.7802 19.9347 11.9957 19.9347C12.2112 19.9347 12.4267 19.8514 12.5883 19.6898L16.9034 15.3747C17.2316 15.0465 17.2316 14.5127 16.9034 14.1845C16.5753 13.8563 16.0414 13.8563 15.7132 14.1845L12.8332 17.0645V0.837551C12.8381 0.372245 12.4659 0 12.0006 0Z" fill="white"/>
<path d="M22.6341 23.1625V18.2792C22.6341 17.8139 22.257 17.4368 21.7917 17.4368C21.3264 17.4368 20.9492 17.8139 20.9492 18.2792V22.3249H3.04719V18.2792C3.04719 17.8139 2.67004 17.4368 2.20964 17.4368C1.74923 17.4368 1.36719 17.8139 1.36719 18.2792V23.1625C1.36719 23.6278 1.74433 24 2.20964 24H21.7917C22.257 24 22.6341 23.6278 22.6341 23.1625Z" fill="white"/>
</svg>
