<svg width="59" height="40" viewBox="0 0 59 40" fill="none" xmlns="http://www.w3.org/2000/svg">
<rect width="59" height="40" rx="5" fill="#DB1F35"/>
<path d="M29.0042 27.5568C29.1348 27.6874 29.2898 27.791 29.4604 27.8617C29.631 27.9324 29.8139 27.9687 29.9986 27.9687C30.1833 27.9687 30.3661 27.9324 30.5368 27.8617C30.7074 27.791 30.8624 27.6874 30.993 27.5568L36.2963 22.2536C36.56 21.9899 36.7081 21.6322 36.7081 21.2592C36.7081 20.8863 36.56 20.5286 36.2963 20.2648C36.0325 20.0011 35.6748 19.853 35.3019 19.853C34.9289 19.853 34.5712 20.0011 34.3075 20.2648L31.4048 23.1675V7.8125C31.4048 7.43954 31.2567 7.08185 30.993 6.81813C30.7292 6.55441 30.3716 6.40625 29.9986 6.40625C29.6256 6.40625 29.268 6.55441 29.0042 6.81813C28.7405 7.08185 28.5923 7.43954 28.5923 7.8125V23.1675L25.6897 20.2648C25.4259 20.0011 25.0683 19.853 24.6953 19.853C24.3223 19.853 23.9647 20.0011 23.7009 20.2648C23.4372 20.5286 23.2891 20.8863 23.2891 21.2592C23.2891 21.6322 23.4372 21.9899 23.7009 22.2536L29.0042 27.5568Z" fill="white"/>
<path d="M42.1875 18.5938C41.8145 18.5938 41.4569 18.7419 41.1931 19.0056C40.9294 19.2694 40.7812 19.627 40.7812 20V30.7812H19.2188V20C19.2188 19.627 19.0706 19.2694 18.8069 19.0056C18.5431 18.7419 18.1855 18.5938 17.8125 18.5938C17.4395 18.5938 17.0819 18.7419 16.8181 19.0056C16.5544 19.2694 16.4062 19.627 16.4062 20V31.25C16.4062 31.8716 16.6532 32.4677 17.0927 32.9073C17.5323 33.3468 18.1284 33.5938 18.75 33.5938H41.25C41.8716 33.5938 42.4677 33.3468 42.9073 32.9073C43.3468 32.4677 43.5938 31.8716 43.5938 31.25V20C43.5938 19.627 43.4456 19.2694 43.1819 19.0056C42.9181 18.7419 42.5605 18.5938 42.1875 18.5938Z" fill="white"/>
</svg>
