<svg width="24" height="24" viewBox="0 0 24 24" fill="none" xmlns="http://www.w3.org/2000/svg">
<path d="M11.2963 17.707C11.3055 17.7162 11.3178 17.7188 11.3272 17.7276C11.4124 17.8101 11.5118 17.8766 11.6205 17.9238L11.6236 17.9244C11.806 17.9994 12.0065 18.0188 12.1999 17.9801C12.3933 17.9414 12.5709 17.8464 12.7103 17.707L17.7103 12.707C17.8925 12.5184 17.9933 12.2658 17.991 12.0036C17.9887 11.7414 17.8836 11.4906 17.6982 11.3052C17.5127 11.1198 17.2619 11.0146 16.9997 11.0123C16.7375 11.01 16.4849 11.1108 16.2963 11.293L13.0033 14.5859V3C13.0033 2.73478 12.898 2.48043 12.7104 2.29289C12.5229 2.10536 12.2686 2 12.0033 2C11.7381 2 11.4838 2.10536 11.2962 2.29289C11.1087 2.48043 11.0033 2.73478 11.0033 3V14.5859L7.71034 11.293C7.52173 11.1108 7.26913 11.01 7.00694 11.0123C6.74474 11.0146 6.49393 11.1198 6.30852 11.3052C6.12311 11.4906 6.01794 11.7414 6.01566 12.0036C6.01338 12.2658 6.11418 12.5184 6.29634 12.707L11.2963 17.707Z" fill="black"/>
<path d="M20 16V19C19.9997 19.2651 19.8943 19.5193 19.7068 19.7068C19.5193 19.8943 19.2651 19.9997 19 20H5C4.73489 19.9997 4.48074 19.8942 4.29327 19.7067C4.10581 19.5193 4.00034 19.2651 4 19V16C4 15.7348 3.89464 15.4804 3.70711 15.2929C3.51957 15.1054 3.26522 15 3 15C2.73478 15 2.48043 15.1054 2.29289 15.2929C2.10536 15.4804 2 15.7348 2 16V19C2.00087 19.7954 2.31722 20.5579 2.87964 21.1204C3.44206 21.6828 4.20462 21.9991 5 22H19C19.7954 21.9991 20.5579 21.6828 21.1204 21.1204C21.6828 20.5579 21.9991 19.7954 22 19V16C22 15.7348 21.8946 15.4804 21.7071 15.2929C21.5196 15.1054 21.2652 15 21 15C20.7348 15 20.4804 15.1054 20.2929 15.2929C20.1054 15.4804 20 15.7348 20 16Z" fill="black"/>
</svg>
