<svg width="59" height="40" viewBox="0 0 59 40" fill="none" xmlns="http://www.w3.org/2000/svg">
<rect width="59" height="40" rx="5" fill="#DB1F35"/>
<path d="M19.625 34.0625H30.875C32.1178 34.0612 33.3093 33.5669 34.1881 32.6881C35.0669 31.8093 35.5612 30.6178 35.5625 29.375V26.5625H38.375C39.6178 26.5612 40.8093 26.0669 41.6881 25.1881C42.5669 24.3093 43.0612 23.1178 43.0625 21.875V10.625C43.0612 9.38219 42.5669 8.19066 41.6881 7.31186C40.8093 6.43307 39.6178 5.93879 38.375 5.9375H27.125C25.8822 5.93879 24.6907 6.43307 23.8119 7.31186C22.9331 8.19066 22.4388 9.38219 22.4375 10.625V13.4375H19.625C18.3822 13.4388 17.1907 13.9331 16.3119 14.8119C15.4331 15.6907 14.9388 16.8822 14.9375 18.125V29.375C14.9388 30.6178 15.4331 31.8093 16.3119 32.6881C17.1907 33.5669 18.3822 34.0612 19.625 34.0625ZM24.3125 10.625C24.3133 9.87934 24.6099 9.16446 25.1372 8.63719C25.6645 8.10993 26.3793 7.81334 27.125 7.8125H38.375C39.1207 7.81334 39.8355 8.10993 40.3628 8.63719C40.8901 9.16446 41.1867 9.87934 41.1875 10.625V21.875C41.1867 22.6207 40.8901 23.3355 40.3628 23.8628C39.8355 24.3901 39.1207 24.6867 38.375 24.6875H27.125C26.3793 24.6867 25.6645 24.3901 25.1372 23.8628C24.6099 23.3355 24.3133 22.6207 24.3125 21.875V10.625ZM16.8125 18.125C16.8133 17.3793 17.1099 16.6645 17.6372 16.1372C18.1645 15.6099 18.8793 15.3133 19.625 15.3125H22.4375V21.875C22.4388 23.1178 22.9331 24.3093 23.8119 25.1881C24.6907 26.0669 25.8822 26.5612 27.125 26.5625H33.6875V29.375C33.6867 30.1207 33.3901 30.8355 32.8628 31.3628C32.3355 31.8901 31.6207 32.1867 30.875 32.1875H19.625C18.8793 32.1867 18.1645 31.8901 17.6372 31.3628C17.1099 30.8355 16.8133 30.1207 16.8125 29.375V18.125Z" fill="white"/>
<path d="M29 17.1875H31.8125V20C31.8125 20.2486 31.9113 20.4871 32.0871 20.6629C32.2629 20.8387 32.5014 20.9375 32.75 20.9375C32.9986 20.9375 33.2371 20.8387 33.4129 20.6629C33.5887 20.4871 33.6875 20.2486 33.6875 20V17.1875H36.5C36.7486 17.1875 36.9871 17.0887 37.1629 16.9129C37.3387 16.7371 37.4375 16.4986 37.4375 16.25C37.4375 16.0014 37.3387 15.7629 37.1629 15.5871C36.9871 15.4113 36.7486 15.3125 36.5 15.3125H33.6875V12.5C33.6875 12.2514 33.5887 12.0129 33.4129 11.8371C33.2371 11.6613 32.9986 11.5625 32.75 11.5625C32.5014 11.5625 32.2629 11.6613 32.0871 11.8371C31.9113 12.0129 31.8125 12.2514 31.8125 12.5V15.3125H29C28.7514 15.3125 28.5129 15.4113 28.3371 15.5871C28.1613 15.7629 28.0625 16.0014 28.0625 16.25C28.0625 16.4986 28.1613 16.7371 28.3371 16.9129C28.5129 17.0887 28.7514 17.1875 29 17.1875Z" fill="white"/>
</svg>
