<svg width="50" height="50" viewBox="0 0 50 50" fill="none" xmlns="http://www.w3.org/2000/svg">
<g clip-path="url(#clip0_424_113986)">
<path d="M49.5709 34.3152L45.6982 30.4423V17.158L48.2265 16.2465C48.807 16.0372 49.194 15.4867 49.1945 14.8696C49.195 14.2527 48.8087 13.7014 48.2285 13.4914L25.0959 5.11388C24.7738 4.9972 24.4206 4.9972 24.0985 5.11388L0.96603 13.4914C0.388058 13.7008 0.00235255 14.2486 9.02115e-06 14.8632C-0.00213921 15.4779 0.379562 16.0286 0.955874 16.2421L9.49305 19.4046V29.0576C9.49305 29.3572 9.58483 29.6496 9.7562 29.8953C9.85043 30.0304 10.743 31.2494 13.0284 32.3997C15.9155 33.853 19.7022 34.59 24.2832 34.59C28.8609 34.59 32.6668 33.8546 35.5951 32.404C37.903 31.2609 38.8253 30.0547 38.9229 29.921C39.1057 29.6703 39.2043 29.3681 39.2043 29.0578V19.4991L42.7689 18.214V30.4423L38.896 34.3152C38.6213 34.5899 38.4669 34.9624 38.4669 35.3508C38.4669 35.7393 38.6212 36.1119 38.896 36.3865L42.7689 40.2593V43.5087C42.7689 44.3176 43.4247 44.9734 44.2336 44.9734C45.0425 44.9734 45.6983 44.3176 45.6983 43.5087V40.2593L49.571 36.3865C50.1431 35.8147 50.1431 34.8871 49.5709 34.3152V34.3152ZM24.5973 8.04886L43.4198 14.8655L24.2902 21.7622L5.72319 14.8841L24.5973 8.04886ZM36.2748 28.4739C31.2675 32.9795 16.3883 32.4628 12.4225 28.4885V20.4899L23.7744 24.6951C23.9546 24.7236 24.1247 24.879 24.78 24.6996L36.2749 20.5555V28.4739H36.2748ZM44.2335 37.5813L42.0029 35.3508L44.2335 33.1203L46.4639 35.3508L44.2335 37.5813Z" fill="#DB1F35"/>
</g>
<defs>
<clipPath id="clip0_424_113986">
<rect width="50" height="50" fill="white"/>
</clipPath>
</defs>
</svg>
