<svg width="50" height="50" viewBox="0 0 50 50" fill="none" xmlns="http://www.w3.org/2000/svg">
<g clip-path="url(#clip0_8304_82845)">
<path d="M39.891 14.7181L30.5163 5.34336C30.2974 5.12445 29.9988 5 29.6875 5H13.2812C11.3427 5 9.76562 6.57711 9.76562 8.51562V41.4844C9.76562 43.4229 11.3427 45 13.2812 45H36.7188C38.6573 45 40.2344 43.4229 40.2344 41.4844V15.5469C40.2344 15.2273 40.1002 14.9273 39.891 14.7181ZM30.8594 9.00102L36.2334 14.375H32.0312C31.3851 14.375 30.8594 13.8493 30.8594 13.2031V9.00102ZM36.7188 42.6562H13.2812C12.6351 42.6562 12.1094 42.1305 12.1094 41.4844V8.51562C12.1094 7.86945 12.6351 7.34375 13.2812 7.34375H28.5156V13.2031C28.5156 15.1416 30.0927 16.7188 32.0312 16.7188H37.8906V41.4844C37.8906 42.1305 37.3649 42.6562 36.7188 42.6562Z" fill="#DB1F35"/>
<path d="M32.0312 21.5625H17.9688C17.3216 21.5625 16.7969 22.0872 16.7969 22.7344C16.7969 23.3816 17.3216 23.9062 17.9688 23.9062H32.0312C32.6784 23.9062 33.2031 23.3816 33.2031 22.7344C33.2031 22.0872 32.6784 21.5625 32.0312 21.5625Z" fill="#DB1F35"/>
<path d="M32.0312 26.25H17.9688C17.3216 26.25 16.7969 26.7747 16.7969 27.4219C16.7969 28.0691 17.3216 28.5938 17.9688 28.5938H32.0312C32.6784 28.5938 33.2031 28.0691 33.2031 27.4219C33.2031 26.7747 32.6784 26.25 32.0312 26.25Z" fill="#DB1F35"/>
<path d="M32.0312 30.9375H17.9688C17.3216 30.9375 16.7969 31.4622 16.7969 32.1094C16.7969 32.7566 17.3216 33.2812 17.9688 33.2812H32.0312C32.6784 33.2812 33.2031 32.7566 33.2031 32.1094C33.2031 31.4622 32.6784 30.9375 32.0312 30.9375Z" fill="#DB1F35"/>
<path d="M27.3438 35.625H17.9688C17.3216 35.625 16.7969 36.1497 16.7969 36.7969C16.7969 37.4441 17.3216 37.9688 17.9688 37.9688H27.3438C27.9909 37.9688 28.5156 37.4441 28.5156 36.7969C28.5156 36.1497 27.9909 35.625 27.3438 35.625Z" fill="#DB1F35"/>
</g>
<defs>
<clipPath id="clip0_8304_82845">
<rect width="40" height="40" fill="white" transform="translate(5 5)"/>
</clipPath>
</defs>
</svg>
