<svg width="30" height="30" viewBox="0 0 30 30" fill="none" xmlns="http://www.w3.org/2000/svg">
<g clip-path="url(#clip0_379_6464)">
<path d="M29.7426 21.0889L27.4189 18.7652V10.7946L28.9359 10.2477C29.2842 10.1221 29.5164 9.79184 29.5167 9.42156C29.517 9.0514 29.2852 8.72067 28.9371 8.59465L15.0576 3.56813C14.8643 3.49812 14.6524 3.49812 14.4591 3.56813L0.579618 8.59465C0.232835 8.72026 0.00141153 9.04894 5.41269e-06 9.41775C-0.00128353 9.78656 0.227738 10.1169 0.573525 10.2451L5.69583 12.1426V17.9344C5.69583 18.1141 5.7509 18.2896 5.85372 18.437C5.91026 18.5181 6.44581 19.2494 7.81701 19.9396C9.54929 20.8116 11.8213 21.2538 14.5699 21.2538C17.3066 21.2538 19.6001 20.8126 21.3571 19.9422C22.7418 19.2563 23.2952 18.5326 23.3538 18.4524C23.4634 18.302 23.5226 18.1207 23.5226 17.9345V12.1993L25.6613 11.4282V18.7652L23.3376 21.0889C23.1728 21.2537 23.0802 21.4772 23.0802 21.7103C23.0802 21.9434 23.1727 22.1669 23.3376 22.3307L25.6613 24.6554V26.605C25.6613 27.0903 26.0548 27.4838 26.5401 27.4838C27.0255 27.4838 27.419 27.0903 27.419 26.605V24.6554L29.7426 22.3307C30.0858 21.9886 30.0858 21.4321 29.7426 21.0889ZM14.7584 5.32912L26.0519 9.4191L14.5741 13.5571L3.43392 9.43029L14.7584 5.32912ZM21.7649 17.5841C18.7605 20.2875 9.83297 19.9775 7.45347 17.5929V12.7937L14.2646 15.3069C14.3727 15.334 14.4748 15.4272 14.868 15.3096L21.7649 12.8330V17.5841H21.7649ZM26.5401 23.0486L25.2018 21.7103L26.5401 20.372L27.8784 21.7103L26.5401 23.0486Z" fill="black"/>
</g>
<defs>
<clipPath id="clip0_379_6464">
<rect width="30" height="30" fill="white" transform="translate(0 0.5)"/>
</clipPath>
</defs>
</svg>
