<svg width="24" height="31" viewBox="0 0 24 31" fill="none" xmlns="http://www.w3.org/2000/svg">
<path d="M23.1683 7.78859L16.1372 0.75752C15.9731 0.59334 15.7491 0.5 15.5156 0.5H3.21094C1.75705 0.5 0.574219 1.68283 0.574219 3.13672V27.8633C0.574219 29.3172 1.75705 30.5 3.21094 30.5H20.7891C22.2429 30.5 23.4258 29.3172 23.4258 27.8633V8.41016C23.4258 8.17051 23.3252 7.94545 23.1683 7.78859ZM16.3945 3.50076L20.425 7.53125H17.2734C16.7888 7.53125 16.3945 7.13697 16.3945 6.65234V3.50076ZM20.7891 28.7422H3.21094C2.72631 28.7422 2.33203 28.3479 2.33203 27.8633V3.13672C2.33203 2.65209 2.72631 2.25781 3.21094 2.25781H14.6367V6.65234C14.6367 8.10623 15.8196 9.28906 17.2734 9.28906H21.668V27.8633C21.668 28.3479 21.2737 28.7422 20.7891 28.7422Z" fill="black"/>
<path d="M17.2734 12.9219H6.72656C6.24117 12.9219 5.84766 13.3154 5.84766 13.8008C5.84766 14.2862 6.24117 14.6797 6.72656 14.6797H17.2734C17.7588 14.6797 18.1523 14.2862 18.1523 13.8008C18.1523 13.3154 17.7588 12.9219 17.2734 12.9219Z" fill="black"/>
<path d="M17.2734 16.4375H6.72656C6.24117 16.4375 5.84766 16.831 5.84766 17.3164C5.84766 17.8018 6.24117 18.1953 6.72656 18.1953H17.2734C17.7588 18.1953 18.1523 17.8018 18.1523 17.3164C18.1523 16.831 17.7588 16.4375 17.2734 16.4375Z" fill="black"/>
<path d="M17.2734 19.9531H6.72656C6.24117 19.9531 5.84766 20.3466 5.84766 20.832C5.84766 21.3174 6.24117 21.7109 6.72656 21.7109H17.2734C17.7588 21.7109 18.1523 21.3174 18.1523 20.832C18.1523 20.3466 17.7588 19.9531 17.2734 19.9531Z" fill="black"/>
<path d="M13.7578 23.4688H6.72656C6.24117 23.4688 5.84766 23.8623 5.84766 24.3477C5.84766 24.833 6.24117 25.2266 6.72656 25.2266H13.7578C14.2432 25.2266 14.6367 24.833 14.6367 24.3477C14.6367 23.8623 14.2432 23.4688 13.7578 23.4688Z" fill="black"/>
</svg>
