<svg width="44" height="50" viewBox="0 0 44 50" fill="none" xmlns="http://www.w3.org/2000/svg">
<path d="M34.0785 29.4992L28.7604 26.8401C32.5119 23.7382 35.1836 18.1099 35.1836 13.1836C35.1836 5.91416 29.2694 0 22 0C14.7306 0 8.81641 5.91416 8.81641 13.1836C8.81641 18.1093 11.4883 23.7384 15.2396 26.8401L9.92148 29.4992C4.4335 29.6895 0.0273438 34.2126 0.0273438 39.7461V48.5352C0.0273438 49.3441 0.683203 50 1.49219 50H42.5078C43.3168 50 43.9727 49.3441 43.9727 48.5352V39.7461C43.9727 34.2126 39.5665 29.6895 34.0785 29.4992ZM31.5794 31.5252L27.3578 37.8576L24.1393 36.2483L28.3608 29.9159L31.5794 31.5252ZM22 2.92969C27.1566 2.92969 31.4358 6.75625 32.1488 11.7188H30.7891C28.3659 11.7188 26.3945 9.74736 26.3945 7.32422C26.3945 6.51523 25.7387 5.85938 24.9297 5.85938C24.1207 5.85938 23.4648 6.51523 23.4648 7.32422C23.4648 9.74736 21.4935 11.7188 19.0703 11.7188H11.8512C12.5642 6.75625 16.8434 2.92969 22 2.92969ZM15.6391 29.9158L19.8606 36.2482L16.6421 37.8575L12.4205 31.5251L15.6391 29.9158ZM20.5352 47.0703H2.95703V39.7461C2.95703 35.9634 5.83955 32.8415 9.52344 32.461L14.9218 40.5586C15.3318 41.1736 16.1354 41.3864 16.7957 41.0562L20.5352 39.1866V47.0703ZM18.2839 28.6014C19.0306 27.6623 18.963 26.316 18.1143 25.4593C18.1143 25.4593 18.1142 25.4593 18.1142 25.4592C17.9604 25.3041 17.6756 25.0236 17.4945 24.8883C14.5895 22.7163 12.3191 18.5158 11.8408 14.6484H19.0703C21.4636 14.6484 23.5923 13.4947 24.9297 11.7142C26.2671 13.4947 28.3958 14.6387 30.7891 14.6387H32.1593C31.6808 18.5077 29.4093 22.7189 26.5027 24.8904C26.3225 25.0251 26.0387 25.3043 25.8855 25.4587C25.033 26.3188 24.9716 27.6667 25.7158 28.6019L22 34.1756L18.2839 28.6014ZM41.043 47.0703H23.4648V39.1866L27.2043 41.0563C27.8652 41.3867 28.6686 41.1732 29.0782 40.5587L34.4766 32.4611C38.1604 32.8415 41.043 35.9634 41.043 39.7461V47.0703Z" fill="#DB1F35"/>
</svg>
