<svg width="32" height="31" viewBox="0 0 32 31" fill="none" xmlns="http://www.w3.org/2000/svg">
<g filter="url(#filter0_d_718_169379)">
<rect x="6" y="2" width="19.999" height="19.999" rx="5" fill="#D51F26"/>
</g>
<path d="M22.9263 5.19632C22.9206 5.16869 22.9071 5.14325 22.8874 5.12299C22.8678 5.10273 22.8428 5.0885 22.8153 5.08195C20.985 4.63445 16.7559 6.22914 14.4647 8.51945C14.056 8.92481 13.6835 9.36502 13.3513 9.83507C12.6447 9.77257 11.9381 9.82476 11.336 10.0873C9.63689 10.8351 9.1422 12.7863 9.00439 13.6257C8.99657 13.6716 8.99952 13.7188 9.013 13.7634C9.02649 13.808 9.05013 13.8489 9.08209 13.8828C9.11404 13.9167 9.15343 13.9428 9.19716 13.9589C9.24088 13.975 9.28775 13.9808 9.33408 13.9757L12.0625 13.6748C12.0645 13.8805 12.0769 14.0859 12.0997 14.2904C12.1134 14.4324 12.1765 14.565 12.2778 14.6654L13.3344 15.7194C13.4348 15.8207 13.5675 15.8837 13.7094 15.8976C13.9127 15.9203 14.117 15.9327 14.3216 15.9348L14.0222 18.6598C14.0172 18.7061 14.023 18.7529 14.0392 18.7966C14.0553 18.8403 14.0813 18.8797 14.1153 18.9116C14.1492 18.9435 14.19 18.9672 14.2346 18.9807C14.2792 18.9942 14.3263 18.9972 14.3722 18.9894C15.21 18.8551 17.1647 18.3604 17.9081 16.6613C18.1706 16.0591 18.2244 15.356 18.1638 14.6529C18.635 14.3206 19.0763 13.948 19.4828 13.5391C21.7813 11.2523 23.3669 7.11757 22.9263 5.19632ZM17.1897 10.811C16.9798 10.6013 16.8369 10.334 16.7789 10.043C16.7209 9.752 16.7506 9.45035 16.8641 9.1762C16.9776 8.90206 17.1699 8.66773 17.4166 8.50287C17.6632 8.338 17.9533 8.25 18.25 8.25C18.5467 8.25 18.8368 8.338 19.0835 8.50287C19.3302 8.66773 19.5224 8.90206 19.6359 9.1762C19.7494 9.45035 19.7791 9.752 19.7211 10.043C19.6632 10.334 19.5202 10.6013 19.3103 10.811C19.1712 10.9504 19.0059 11.0609 18.8239 11.1364C18.642 11.2118 18.447 11.2506 18.25 11.2506C18.0531 11.2506 17.858 11.2118 17.6761 11.1364C17.4942 11.0609 17.3289 10.9504 17.1897 10.811Z" fill="white"/>
<path d="M13.2625 16.4829C13.0912 16.6545 12.8166 16.7214 12.4859 16.7785C11.7431 16.9051 11.0872 16.2632 11.2206 15.5123C11.2716 15.2276 11.4222 14.8285 11.5159 14.7348C11.5364 14.7147 11.5501 14.6887 11.5549 14.6604C11.5598 14.6321 11.5556 14.603 11.543 14.5772C11.5303 14.5514 11.5099 14.5303 11.4846 14.5168C11.4592 14.5033 11.4303 14.4981 11.4019 14.502C10.9865 14.5528 10.6 14.7411 10.3041 15.037C9.56938 15.7723 9.5 18.5007 9.5 18.5007C9.5 18.5007 12.23 18.4314 12.9647 17.696C13.2615 17.4003 13.45 17.0133 13.5 16.5973C13.5116 16.4667 13.3525 16.3889 13.2625 16.4829Z" fill="white"/>
<defs>
<filter id="filter0_d_718_169379" x="0.5" y="-2.38419e-07" width="30.999" height="30.999" filterUnits="userSpaceOnUse" color-interpolation-filters="sRGB">
<feFlood flood-opacity="0" result="BackgroundImageFix"/>
<feColorMatrix in="SourceAlpha" type="matrix" values="0 0 0 0 0 0 0 0 0 0 0 0 0 0 0 0 0 0 127 0" result="hardAlpha"/>
<feOffset dy="3.5"/>
<feGaussianBlur stdDeviation="2.75"/>
<feColorMatrix type="matrix" values="0 0 0 0 0 0 0 0 0 0 0 0 0 0 0 0 0 0 0.02 0"/>
<feBlend mode="normal" in2="BackgroundImageFix" result="effect1_dropShadow_718_169379"/>
<feBlend mode="normal" in="SourceGraphic" in2="effect1_dropShadow_718_169379" result="shape"/>
</filter>
</defs>
</svg>
