<svg width="30" height="30" viewBox="0 0 30 30" fill="none" xmlns="http://www.w3.org/2000/svg">
<path d="M25.3796 14.3259C26.0313 13.5591 26.4258 12.5672 26.4258 11.4844V9.72656C26.4258 8.11752 25.556 6.70846 24.2624 5.94275C24.2494 5.93396 24.236 5.92594 24.2225 5.91785C24.5037 5.49861 24.668 4.99471 24.668 4.45312C24.668 2.99924 23.4851 1.81641 22.0312 1.81641C20.5774 1.81641 19.3945 2.99924 19.3945 4.45312C19.3945 4.99535 19.5592 5.49973 19.8409 5.91926C18.5249 6.67934 17.6367 8.1007 17.6367 9.72656V11.4844C17.6367 12.5672 18.0312 13.5591 18.6829 14.3259C17.1029 14.7409 15.768 15.7587 14.9456 17.1148C14.1356 15.7665 12.8214 14.748 11.2556 14.3292C11.9091 13.5619 12.3047 12.5688 12.3047 11.4844V9.72656C12.3047 7.30342 10.3333 5.33203 7.91016 5.33203H2.63672C2.15133 5.33203 1.75781 5.72555 1.75781 6.21094C1.75781 7.64555 2.44898 8.92166 3.51568 9.72416C3.51568 9.72498 3.51562 9.72574 3.51562 9.72656V11.4844C3.51562 12.5688 3.91125 13.5619 4.56469 14.3292C1.93172 15.0328 0 17.4373 0 20.2734V27.3047C0 27.7901 0.393516 28.1836 0.878906 28.1836C1.45324 28.1836 28.5064 28.1836 29.1211 28.1836C29.6065 28.1836 30 27.7901 30 27.3047V20.2734C30 17.4255 28.0362 15.0236 25.3796 14.3259ZM7.91016 14.1211C6.45627 14.1211 5.27344 12.9383 5.27344 11.4844V10.5171C5.5575 10.5749 5.85141 10.6055 6.15234 10.6055H10.5469V11.4844C10.5469 12.9383 9.36404 14.1211 7.91016 14.1211ZM9.30393 15.8789L7.91016 17.2727L6.51639 15.8789H9.30393ZM3.66621 7.08984H7.91016C9.05596 7.08984 10.0329 7.82473 10.3957 8.84766H6.15234C5.00643 8.84766 4.02896 8.11295 3.66621 7.08984ZM5.36625 24.1821L6.48809 26.4258H1.75781V20.2734C1.75781 18.474 2.84537 16.9246 4.39728 16.2457L6.90457 18.753L5.31855 23.5112C5.24484 23.7323 5.26201 23.9736 5.36625 24.1821ZM7.91016 25.3394L7.10127 23.7216L7.91016 21.295L8.71904 23.7216L7.91016 25.3394ZM14.0625 26.4258H9.33223L10.4541 24.1821C10.5583 23.9736 10.5755 23.7323 10.5018 23.5112L8.91568 18.753L11.423 16.2457C12.9749 16.9246 14.0625 18.474 14.0625 20.2734V26.4258ZM24.2828 8.35576C24.527 8.75543 24.668 9.22482 24.668 9.72656V11.4844C24.668 12.9383 23.4851 14.1211 22.0312 14.1211C20.8552 14.1211 19.8568 13.347 19.518 12.2817C21.7065 11.9223 23.5198 10.4086 24.2828 8.35576ZM22.0312 3.57422C22.5159 3.57422 22.9102 3.9685 22.9102 4.45312C22.9102 4.93775 22.5159 5.33203 22.0312 5.33203C21.5466 5.33203 21.1523 4.93775 21.1523 4.45312C21.1523 3.9685 21.5466 3.57422 22.0312 3.57422ZM19.3945 9.72656C19.3945 8.27268 20.5774 7.08984 22.0312 7.08984C22.2974 7.08984 22.5543 7.12986 22.7967 7.20352C22.4082 8.86852 21.0583 10.1694 19.3945 10.5145V9.72656ZM21.1523 26.4258H15.8203V20.2734C15.8203 18.487 16.9068 16.9471 18.4614 16.2607L21.1523 18.8861V26.4258ZM20.5872 15.8789H23.4754L22.0312 17.2877L20.5872 15.8789ZM28.2422 26.4258H22.9102V22.9102H25.5469C26.0323 22.9102 26.4258 22.5166 26.4258 22.0312C26.4258 21.5459 26.0323 21.1523 25.5469 21.1523H22.9102V18.8861L25.6011 16.2607C27.1557 16.9471 28.2422 18.487 28.2422 20.2734V26.4258Z" fill="white"/>
</svg>
