<svg width="24" height="24" viewBox="0 0 24 24" fill="none" xmlns="http://www.w3.org/2000/svg">
<path d="M11.9997 18.7501C11.4228 18.7489 10.8471 18.6952 10.2799 18.5896C10.104 18.5614 9.94381 18.4716 9.8281 18.3361C9.71238 18.2006 9.64869 18.0283 9.64844 17.8501C9.65031 17.7402 9.67593 17.632 9.72354 17.533C9.77115 17.4339 9.83962 17.3463 9.92426 17.2762C10.0089 17.2061 10.1077 17.1552 10.2139 17.1268C10.3201 17.0985 10.4311 17.0935 10.5394 17.1121C11.0209 17.2027 11.5097 17.2489 11.9997 17.2501C16.4427 17.2501 20.3014 13.3599 21.5149 12.0001C20.7063 11.095 19.8177 10.2646 18.8599 9.5191C18.782 9.45878 18.7168 9.38369 18.6679 9.29815C18.619 9.2126 18.5874 9.11826 18.575 9.02051C18.5499 8.82311 18.6042 8.62382 18.7261 8.46648C18.8479 8.30914 19.0272 8.20664 19.2246 8.18153C19.3224 8.1691 19.4216 8.17604 19.5167 8.20196C19.6118 8.22788 19.7008 8.27227 19.7787 8.3326C20.9998 9.2734 22.1108 10.3489 23.0907 11.5389C23.194 11.6708 23.2502 11.8336 23.2502 12.0012C23.2502 12.1688 23.194 12.3316 23.0907 12.4636C22.8889 12.7194 18.0927 18.7501 11.9997 18.7501Z" fill="black"/>
<path d="M20.03 3.96983C19.8893 3.82923 19.6986 3.75024 19.4997 3.75024C19.3009 3.75024 19.1101 3.82923 18.9695 3.96983L16.5845 6.35483C15.6815 5.9197 14.7261 5.60308 13.742 5.41283C13.1675 5.30482 12.5843 5.25033 11.9997 5.25008C5.90673 5.25008 1.11048 11.2808 0.909484 11.5373C0.806148 11.6693 0.75 11.8321 0.75 11.9997C0.75 12.1673 0.806148 12.3301 0.909484 12.4621C1.88842 13.651 2.99845 14.7255 4.21848 15.6653C4.79561 16.1177 5.40028 16.5337 6.02898 16.9111L3.96948 18.9698C3.89785 19.039 3.84071 19.1218 3.80141 19.2133C3.7621 19.3048 3.74141 19.4032 3.74055 19.5028C3.73968 19.6024 3.75866 19.7011 3.79637 19.7933C3.83408 19.8855 3.88977 19.9692 3.96019 20.0396C4.03061 20.1101 4.11435 20.1657 4.20652 20.2035C4.29869 20.2412 4.39745 20.2601 4.49704 20.2593C4.59662 20.2584 4.69503 20.2377 4.78654 20.1984C4.87804 20.1591 4.9608 20.102 5.02998 20.0303L20.03 5.03033C20.1706 4.88969 20.2496 4.69896 20.2496 4.50008C20.2496 4.30121 20.1706 4.11048 20.03 3.96983ZM5.13948 14.4818C4.18166 13.7361 3.29306 12.9055 2.48448 12.0001C3.69798 10.6411 7.55673 6.75008 11.9997 6.75008C12.4932 6.75048 12.9856 6.79667 13.4705 6.88808C14.1494 7.01725 14.8127 7.21839 15.449 7.48808L14.0675 8.86958C13.3464 8.39313 12.4829 8.18038 11.623 8.2673C10.7631 8.35423 9.95967 8.73551 9.34854 9.34664C8.73741 9.95777 8.35613 10.7612 8.2692 11.6211C8.18228 12.481 8.39503 13.3445 8.87148 14.0656L7.12473 15.8153C6.43013 15.4218 5.76646 14.976 5.13948 14.4818ZM9.97474 12.9631C9.82857 12.663 9.75168 12.3339 9.74973 12.0001C9.74988 11.4051 9.98492 10.8342 10.4037 10.4116C10.7376 10.0941 11.1589 9.88367 11.6133 9.80749C12.0677 9.73131 12.5345 9.79281 12.9537 9.98408L9.97474 12.9631Z" fill="black"/>
</svg>
