<svg width="124" height="40" viewBox="0 0 124 40" fill="none" xmlns="http://www.w3.org/2000/svg">
<rect width="124" height="40" rx="5" fill="#DB1F35"/>
<path d="M58.656 20.368C58.656 21.8507 58.1493 23.0187 57.136 23.872C56.1333 24.7147 54.688 25.184 52.8 25.28V26.496H50.416V25.264C48.5173 25.1573 47.0613 24.6827 46.048 23.84C45.0453 22.9867 44.544 21.8293 44.544 20.368C44.544 18.896 45.0453 17.744 46.048 16.912C47.0613 16.0693 48.5173 15.5893 50.416 15.472V14.32H52.8V15.456C54.688 15.5627 56.1333 16.0427 57.136 16.896C58.1493 17.7493 58.656 18.9067 58.656 20.368ZM52.8 23.248C53.9307 23.1413 54.7733 22.8533 55.328 22.384C55.8827 21.904 56.16 21.2267 56.16 20.352C56.16 18.6453 55.04 17.696 52.8 17.504V23.248ZM47.056 20.368C47.056 22.0533 48.176 23.0133 50.416 23.248V17.504C49.2747 17.6107 48.4267 17.8987 47.872 18.368C47.328 18.8267 47.056 19.4933 47.056 20.368ZM60.4031 17.392H62.8831V22.512L67.0751 17.392H69.3631V26H66.8831V20.88L62.7071 26H60.4031V17.392ZM80.0185 17.392V26H77.5225V19.44H74.8025L74.7225 20.96C74.6798 22.0907 74.5732 23.0293 74.4025 23.776C74.2318 24.5227 73.9545 25.1093 73.5705 25.536C73.1865 25.9627 72.6532 26.176 71.9705 26.176C71.6078 26.176 71.1758 26.112 70.6745 25.984L70.8025 23.936C70.9732 23.9573 71.0958 23.968 71.1705 23.968C71.5438 23.968 71.8212 23.8347 72.0025 23.568C72.1945 23.2907 72.3225 22.944 72.3865 22.528C72.4505 22.1013 72.4985 21.5413 72.5305 20.848L72.6585 17.392H80.0185ZM87.0748 20.144C88.1948 20.1547 89.0534 20.4107 89.6508 20.912C90.2481 21.4027 90.5468 22.1013 90.5468 23.008C90.5468 23.9573 90.2108 24.6987 89.5388 25.232C88.8774 25.7547 87.9441 26.016 86.7388 26.016L82.4188 26V17.392H84.8988V20.144H87.0748ZM86.5148 24.24C86.9948 24.2507 87.3628 24.1493 87.6188 23.936C87.8748 23.7227 88.0028 23.4027 88.0028 22.976C88.0028 22.56 87.8748 22.256 87.6188 22.064C87.3734 21.872 87.0054 21.7707 86.5148 21.76L84.8988 21.744V24.24H86.5148ZM98.557 19.44H95.645V26H93.165V19.44H90.253V17.392H98.557V19.44ZM104.96 17.264C105.76 17.264 106.485 17.4507 107.135 17.824C107.797 18.1867 108.314 18.704 108.688 19.376C109.061 20.0373 109.248 20.8107 109.248 21.696C109.248 22.5813 109.061 23.36 108.688 24.032C108.314 24.6933 107.797 25.2107 107.135 25.584C106.485 25.9467 105.76 26.128 104.96 26.128C103.861 26.128 102.997 25.7813 102.368 25.088V29.104H99.8715V17.392H102.256V18.384C102.874 17.6373 103.776 17.264 104.96 17.264ZM104.528 24.08C105.168 24.08 105.69 23.8667 106.096 23.44C106.512 23.0027 106.72 22.4213 106.72 21.696C106.72 20.9707 106.512 20.3947 106.096 19.968C105.69 19.5307 105.168 19.312 104.528 19.312C103.888 19.312 103.36 19.5307 102.944 19.968C102.538 20.3947 102.336 20.9707 102.336 21.696C102.336 22.4213 102.538 23.0027 102.944 23.44C103.36 23.8667 103.888 24.08 104.528 24.08Z" fill="white"/>
<path d="M33.9306 9.35659C33.8105 9.1019 33.5542 8.93945 33.2727 8.93945H10.7274C10.4459 8.93945 10.1896 9.1019 10.0695 9.35659C9.94942 9.61127 9.98705 9.91231 10.1662 10.1296L18.8329 20.6412V30.3339C18.8329 30.5856 18.9629 30.8194 19.1767 30.952C19.2939 31.0247 19.4268 31.0613 19.5603 31.0613C19.6706 31.0613 19.7812 31.0362 19.8832 30.9857L24.7527 28.5722C25.0001 28.4496 25.1566 28.1975 25.157 27.9214L25.1665 20.6415L33.8337 10.1295C34.0129 9.91231 34.0507 9.61117 33.9306 9.35659ZM23.8784 19.9172C23.7712 20.0472 23.7124 20.2104 23.7122 20.379L23.7029 27.4689L20.2878 29.1616V20.3799C20.2878 20.2111 20.2291 20.0475 20.1216 19.9172L12.2699 10.3941H31.7301L23.8784 19.9172Z" fill="white"/>
</svg>
