<svg width="24" height="24" viewBox="0 0 24 24" fill="none" xmlns="http://www.w3.org/2000/svg">
<path d="M23.9306 1.35634C23.8105 1.10166 23.5542 0.939209 23.2727 0.939209H0.727433C0.445884 0.939209 0.189649 1.10166 0.0694836 1.35634C-0.0505843 1.61103 -0.012954 1.91207 0.166178 2.12932L8.83289 12.641V22.3337C8.83289 22.5854 8.96295 22.8191 9.1767 22.9518C9.29386 23.0244 9.42683 23.0611 9.56028 23.0611C9.67055 23.0611 9.78121 23.036 9.88324 22.9854L14.7527 20.572C15.0001 20.4494 15.1566 20.1973 15.157 19.9212L15.1665 12.6413L23.8337 2.12922C24.0129 1.91207 24.0507 1.61093 23.9306 1.35634ZM13.8784 11.917C13.7712 12.0469 13.7124 12.2102 13.7122 12.3787L13.7029 19.4687L10.2878 21.1613V12.3797C10.2878 12.2108 10.2291 12.0472 10.1216 11.917L2.26989 2.39389H21.7301L13.8784 11.917Z" fill="#DB1F35"/>
</svg>
