<svg width="30" height="30" viewBox="0 0 30 30" fill="none" xmlns="http://www.w3.org/2000/svg">
<g clip-path="url(#clip0_7038_224074)">
<path d="M29.1209 6.23867H21.1506V3.83586C21.1506 2.70482 20.2305 1.78467 19.0995 1.78467H10.9005C9.76951 1.78467 8.84936 2.70482 8.84936 3.83586V6.23867H0.879082C0.393574 6.23867 0 6.63225 0 7.11775V15.6155C0 16.0728 0.350625 16.4537 0.806309 16.4915L1.2307 16.5267V27.3365C1.2307 27.822 1.62428 28.2156 2.10979 28.2156H27.8902C28.3757 28.2156 28.7693 27.822 28.7693 27.3365V16.5267L29.1936 16.4915C29.6494 16.4537 30 16.0728 30 15.6155V7.11775C30 6.63225 29.6064 6.23867 29.1209 6.23867ZM10.6075 3.83586C10.6075 3.67432 10.739 3.54283 10.9005 3.54283H19.0995C19.261 3.54283 19.3925 3.67432 19.3925 3.83586V6.23867H10.6075V3.83586ZM1.75816 7.99684H28.2418V14.8064L20.0293 15.4879L21.2865 14.2306C21.6296 13.8876 21.6298 13.3306 21.2865 12.9874L18.8001 10.501C18.4568 10.1577 17.9002 10.1577 17.5569 10.501L15.0029 13.0551L12.446 10.4981C12.1027 10.1547 11.5461 10.1548 11.2028 10.4981L8.71635 12.9845C8.37328 13.3275 8.37305 13.8845 8.71635 14.2277L9.9774 15.4887L1.75816 14.8064V7.99684ZM13.1381 17.4063C13.4814 17.063 13.4814 16.5064 13.1381 16.1631L10.5812 13.6061L11.8245 12.3629L14.3814 14.9199C14.7247 15.2632 15.2812 15.2632 15.6246 14.9199L18.1786 12.3658L19.4218 13.609L16.8677 16.1631C16.5244 16.5064 16.5244 17.063 16.8677 17.4063L19.3954 19.934L18.1522 21.1771L15.6246 18.6495C15.2812 18.3062 14.7247 18.3062 14.3814 18.6495L11.8743 21.1566L10.631 19.9135L13.1381 17.4063ZM27.0111 26.4574H2.98887V16.6728L10.7416 17.3164L8.76621 19.2918C8.42309 19.6349 8.42297 20.1918 8.76621 20.535L11.2526 23.0214C11.5959 23.3647 12.1525 23.3647 12.4958 23.0214L15.0029 20.5143L17.5306 23.0419C17.8738 23.3851 18.4304 23.3853 18.7738 23.0419L21.2602 20.5555C21.6033 20.2125 21.6035 19.6555 21.2602 19.3123L19.2635 17.3156L27.0111 16.6726V26.4574Z" fill="white"/>
</g>
<defs>
<clipPath id="clip0_7038_224074">
<rect width="30" height="30" fill="white"/>
</clipPath>
</defs>
</svg>
