<svg width="59" height="40" viewBox="0 0 59 40" fill="none" xmlns="http://www.w3.org/2000/svg">
<rect width="59" height="40" rx="5" fill="#DB1F35"/>
<path d="M41.2012 12.8844C41.1699 12.8089 41.124 12.7403 41.0663 12.6825L33.5663 5.18252C33.4489 5.06604 33.2903 5.00047 33.125 5H19.375C19.0298 5 18.75 5.27984 18.75 5.62502V34.375C18.75 34.7202 19.0298 35 19.375 35H40.625C40.9702 35 41.2501 34.7202 41.2501 34.375V13.125C41.2498 13.0423 41.2332 12.9605 41.2012 12.8844ZM33.75 7.13375L39.1163 12.5H33.75V7.13375ZM40 33.75H20V6.24998H32.5V13.125C32.5 13.4701 32.7798 13.75 33.125 13.75H40V33.75H40Z" fill="white"/>
<path d="M22.5 15.625V30.625C22.5 30.9702 22.7798 31.25 23.125 31.25H36.875C37.2202 31.25 37.5001 30.9702 37.5001 30.625V15.625C37.5001 15.2798 37.2202 15 36.875 15H23.125C22.7798 15.0001 22.5 15.2798 22.5 15.625ZM33.75 16.25H36.25V18.7501H33.75V16.25ZM33.75 20H36.25V22.5001H33.75V20ZM33.75 23.75H36.25V26.2501H33.75V23.75ZM33.75 27.5H36.25V30.0001H33.75V27.5ZM27.5 16.25H32.5V18.7501H27.5V16.25ZM27.5 20H32.5V22.5001H27.5V20ZM27.5 23.75H32.5V26.2501H27.5V23.75ZM27.5 27.5H32.5V30.0001H27.5V27.5ZM23.75 16.25H26.25V18.7501H23.75V16.25ZM23.75 20H26.25V22.5001H23.75V20ZM23.75 23.75H26.25V26.2501H23.75V23.75ZM23.75 27.5H26.25V30.0001H23.75V27.5Z" fill="white"/>
</svg>
