<svg width="13" height="17" viewBox="0 0 13 17" fill="none" xmlns="http://www.w3.org/2000/svg">
<path d="M11.695 2.43622H8.9725V1.93849C8.9725 1.11516 8.30632 0.445312 7.4875 0.445312H5.5075C4.68868 0.445312 4.0225 1.11516 4.0225 1.93849V2.43622H1.3C0.617643 2.43622 0.0625 2.99442 0.0625 3.68054V5.42258C0.0625 5.69745 0.284136 5.92031 0.5575 5.92031H0.828018L1.25567 14.9504C1.29344 15.7479 1.94498 16.3726 2.73897 16.3726H10.256C11.05 16.3726 11.7016 15.7479 11.7393 14.9504L12.167 5.92031H12.4375C12.7109 5.92031 12.9325 5.69745 12.9325 5.42258V3.68054C12.9325 2.99442 12.3774 2.43622 11.695 2.43622ZM5.0125 1.93849C5.0125 1.66406 5.23457 1.44077 5.5075 1.44077H7.4875C7.76043 1.44077 7.9825 1.66406 7.9825 1.93849V2.43622H5.0125V1.93849ZM1.0525 3.68054C1.0525 3.54332 1.16353 3.43168 1.3 3.43168H11.695C11.8315 3.43168 11.9425 3.54332 11.9425 3.68054V4.92486C11.7899 4.92486 1.68465 4.92486 1.0525 4.92486V3.68054ZM10.7504 14.9031C10.7379 15.1689 10.5207 15.3771 10.256 15.3771H2.73897C2.47429 15.3771 2.25711 15.1689 2.24455 14.9031L1.81913 5.92031H11.1759L10.7504 14.9031Z" fill="black" fill-opacity="0.3"/>
<path d="M6.495 14.3819C6.76836 14.3819 6.99 14.1591 6.99 13.8842V7.41374C6.99 7.13887 6.76836 6.91602 6.495 6.91602C6.22164 6.91602 6 7.13887 6 7.41374V13.8842C6 14.1591 6.22161 14.3819 6.495 14.3819Z" fill="black" fill-opacity="0.3"/>
<path d="M8.97156 14.3819C9.24493 14.3819 9.46656 14.1591 9.46656 13.8842V7.41374C9.46656 7.13887 9.24493 6.91602 8.97156 6.91602C8.6982 6.91602 8.47656 7.13887 8.47656 7.41374V13.8842C8.47656 14.1591 8.69817 14.3819 8.97156 14.3819Z" fill="black" fill-opacity="0.3"/>
<path d="M4.02625 14.3819C4.29961 14.3819 4.52125 14.1591 4.52125 13.8842V7.41374C4.52125 7.13887 4.29961 6.91602 4.02625 6.91602C3.75289 6.91602 3.53125 7.13887 3.53125 7.41374V13.8842C3.53125 14.1591 3.75286 14.3819 4.02625 14.3819Z" fill="black" fill-opacity="0.3"/>
</svg>
