<svg width="44" height="41" viewBox="0 0 44 41" fill="none" xmlns="http://www.w3.org/2000/svg">
<path d="M36.3725 0.506592H6.76112C3.05016 0.506592 0.03125 3.5255 0.03125 7.23646V30.791C0.03125 34.502 3.05016 37.5209 6.76112 37.5209H22.7446C23.3863 37.5209 23.9722 37.1558 24.2552 36.5794C24.5378 36.0034 24.4681 35.3162 24.0751 34.8089L19.6744 29.1214L31.8716 13.6068L39.7375 22.9905V25.8277C39.7375 26.757 40.4906 27.5102 41.4199 27.5102C42.3492 27.5102 43.1024 26.757 43.1024 25.8277V7.23646C43.1024 3.5255 40.0835 0.506592 36.3725 0.506592V0.506592ZM33.1193 9.8571C32.7937 9.46869 32.311 9.24688 31.8036 9.25575C31.2966 9.26364 30.8204 9.49958 30.5072 9.89818L17.5509 26.3775L13.139 20.6762C12.8203 20.2641 12.329 20.0232 11.8085 20.0232C11.8079 20.0232 11.8069 20.0232 11.8062 20.0232C11.2847 20.0239 10.7928 20.2664 10.475 20.6798L6.77229 25.4932C6.20577 26.2299 6.34346 27.2861 7.07987 27.8526C7.8166 28.4194 8.87275 28.2814 9.43926 27.545L11.8125 24.4601L19.3152 34.1559H6.76112C4.9058 34.1559 3.39618 32.6463 3.39618 30.791V7.23646C3.39618 5.38115 4.9058 3.87153 6.76112 3.87153H36.3725C38.2279 3.87153 39.7375 5.38115 39.7375 7.23646V17.7525L33.1193 9.8571ZM11.8085 6.56347C9.02522 6.56347 6.76112 8.82758 6.76112 11.6109C6.76112 14.3942 9.02522 16.6583 11.8085 16.6583C14.5918 16.6583 16.8559 14.3942 16.8559 11.6109C16.8559 8.82758 14.5918 6.56347 11.8085 6.56347ZM11.8085 13.2933C10.8809 13.2933 10.1261 12.5385 10.1261 11.6109C10.1261 10.6832 10.8809 9.92841 11.8085 9.92841C12.7362 9.92841 13.491 10.6832 13.491 11.6109C13.491 12.5385 12.7362 13.2933 11.8085 13.2933ZM43.1024 32.5576C43.1024 33.4869 42.3492 34.2401 41.4199 34.2401H36.7932V38.8668C36.7932 39.7961 36.04 40.5493 35.1107 40.5493C34.1814 40.5493 33.4282 39.7961 33.4282 38.8668V34.2401H28.8014C27.8721 34.2401 27.119 33.4869 27.119 32.5576C27.119 31.6283 27.8721 30.8751 28.8014 30.8751H33.4282V26.2483C33.4282 25.319 34.1814 24.5659 35.1107 24.5659C36.04 24.5659 36.7932 25.319 36.7932 26.2483V30.8751H41.4199C42.3492 30.8751 43.1024 31.6283 43.1024 32.5576Z" fill="black" fill-opacity="0.3"/>
</svg>
