<svg width="17" height="17" viewBox="0 0 17 17" fill="none" xmlns="http://www.w3.org/2000/svg">
<g clip-path="url(#clip0_7558_168322)">
<path d="M4.95845 16.554L4.45312 16.046L5.83916 14.6525L4.45312 13.259L4.95845 12.751L6.84954 14.6525L4.95845 16.554Z" fill="black" fill-opacity="0.3"/>
<path d="M6.34765 15.0119H4.55938C2.391 15.0119 0.625 13.2362 0.625 11.0558V10.6963H1.34041V11.0558C1.34041 12.8405 2.78447 14.2925 4.55938 14.2925H6.34765V15.0119Z" fill="black" fill-opacity="0.3"/>
<path d="M16.3635 16.4507H7.42188V7.45996H16.3635V16.4507ZM8.13716 15.7315H15.6481V8.17918H8.13716V15.7315Z" fill="black" fill-opacity="0.3"/>
<path d="M8.03308 13.8298L7.52344 13.3172L10.6396 10.1885L12.7856 12.3463L14.2163 10.9077L16.2593 12.9576L15.7497 13.4701L14.2163 11.9236L12.7856 13.3622L10.6396 11.2044L8.03308 13.8298Z" fill="black" fill-opacity="0.3"/>
<path d="M7.77836 9.61784H0.625V0.626953H9.56664V7.81958H8.85135V1.34618H1.34041V8.89848H7.77836V9.61784Z" fill="black" fill-opacity="0.3"/>
</g>
<defs>
<clipPath id="clip0_7558_168322">
<rect width="15.84" height="15.9273" fill="white" transform="translate(0.578125 0.626953)"/>
</clipPath>
</defs>
</svg>
