<svg width="30" height="30" viewBox="0 0 30 30" fill="none" xmlns="http://www.w3.org/2000/svg">
<g clip-path="url(#clip0_379_130171)">
<path d="M25.8469 19.4121H27.7705V21.102H25.8469V19.4121Z" fill="black"/>
<path d="M29.8966 15.0018L27.6645 10.6486C27.5445 10.4145 27.3394 10.2482 27.1034 10.172L27.1035 10.1716L16.4527 6.7396C16.27 6.68075 16.0738 6.678 15.8893 6.73178L4.16497 10.1517L4.1651 10.1522C3.99959 10.2005 3.84632 10.2929 3.72459 10.4261L0.24715 14.2298C-0.18894 14.7068 -0.0250298 15.496 0.563175 15.76L10.3058 20.1329C10.7118 20.3152 11.2023 20.1877 11.4688 19.8314L13.0782 17.6795V27.6338L5.39568 24.6765V19.6534H3.47209V25.3385C3.47209 25.7374 3.71734 26.0949 4.08894 26.238L13.695 29.9356C13.8892 30.0104 14.1073 30.0197 14.3071 29.9618L27.0761 26.2642C27.4876 26.145 27.7709 25.7677 27.7709 25.3385V22.6427H25.8473V24.614L15.0018 27.7545V17.4288L17.0579 19.8774C17.3101 20.1777 17.7311 20.2958 18.1024 20.1698L29.3497 16.3547C29.8972 16.169 30.1614 15.5182 29.8966 15.0018ZM16.1442 8.66466L23.515 11.0397L14.0838 13.7708L7.43773 11.2043L16.1442 8.66466ZM10.3905 18.0592L2.56561 14.547L4.70003 12.2124L12.5082 15.2277L10.3905 18.0592ZM18.1072 18.1335L15.7285 15.3006L26.3154 12.2349L27.6757 14.8879L18.1072 18.1335Z" fill="black"/>
<path d="M6.57583 0.258972L4.25891 2.4241L5.57102 3.83333L6.26288 3.18679V6.39795H8.18647V3.19461L8.95262 3.92064L10.2745 2.52064L7.89282 0.263588C7.52391 -0.0860276 6.94718 -0.088143 6.57583 0.258972Z" fill="black"/>
<path d="M24.3014 2.47737L23.5421 3.19692V0H21.6185V3.21756L20.9198 2.56462L19.6077 3.97385L21.9246 6.13897C22.2911 6.48154 22.8774 6.47955 23.2416 6.13436L25.6232 3.87731L24.3014 2.47737Z" fill="black"/>
</g>
<defs>
<clipPath id="clip0_379_130171">
<rect width="30" height="30" fill="white"/>
</clipPath>
</defs>
</svg>
