<svg width="59" height="40" viewBox="0 0 59 40" fill="none" xmlns="http://www.w3.org/2000/svg">
<rect width="59" height="40" rx="5" fill="#DB1F35"/>
<path d="M44.9976 15.8518L45 5.88107L41.0398 9.84125L40.596 9.39746C37.7641 6.56551 33.9987 5.00586 29.9937 5.00586C21.7261 5.0058 15 11.732 15 19.9995C15 28.2671 21.7261 34.9933 29.9937 34.9933C38.2614 34.9933 44.9874 28.2671 44.9874 19.9995H42.0854C42.0854 26.6669 36.6611 32.0912 29.9937 32.0912C23.3263 32.0912 17.902 26.6669 17.902 19.9995C17.902 13.3321 23.3263 7.90783 29.9937 7.90783C33.2237 7.90783 36.2602 9.16555 38.544 11.4494L38.9878 11.8932L35.028 15.853L44.9976 15.8518Z" fill="white"/>
<path d="M29.9958 20.0001V14.6797H27.0938V22.9021H35.3161V20.0001H29.9958Z" fill="white"/>
</svg>
