<svg width="16" height="16" viewBox="0 0 16 16" fill="none" xmlns="http://www.w3.org/2000/svg">
<path d="M3.47882 7.9C2.97882 8.2 2.37882 8 2.07882 7.5C1.77882 7 1.97882 6.5 2.47882 6.2L7.47882 3.2C7.77882 3 8.17882 3 8.47882 3.2L13.4788 6.2C13.9788 6.5 14.0788 7.1 13.7788 7.6C13.5788 8 12.9788 8.2 12.4788 7.9L7.97882 5.2L3.47882 7.9Z" fill="#FF5630"/>
<path d="M3.47882 12.2C2.97882 12.5 2.37882 12.4 2.07882 11.9C1.77882 11.4 1.97882 10.8 2.47882 10.5L7.47882 7.50001C7.77882 7.30001 8.17882 7.30001 8.47882 7.50001L13.4788 10.5C13.9788 10.8 14.0788 11.4 13.7788 11.9C13.4788 12.4 12.8788 12.5 12.3788 12.2L7.97882 9.50001L3.47882 12.2Z" fill="#FF7452"/>
</svg>
