<svg width="30" height="30" viewBox="0 0 30 30" fill="none" xmlns="http://www.w3.org/2000/svg">
<path d="M29.1211 15.293H22.8516V6.73828C22.8516 6.5052 22.759 6.28166 22.5942 6.11684L16.735 0.257461C16.5702 0.0926367 16.3466 0 16.1135 0H3.22266C1.44568 0 0 1.44568 0 3.22266V26.7773C0 28.5543 1.44568 30 3.22266 30H19.6289C21.4059 30 22.8516 28.5543 22.8516 26.7773V17.0508H29.1211C29.6065 17.0508 30 16.6573 30 16.1719C30 15.6865 29.6065 15.293 29.1211 15.293ZM19.8508 5.85938H16.9922V3.00076L19.8508 5.85938ZM21.0938 26.7773C21.0938 27.5851 20.4366 28.2422 19.6289 28.2422H3.22266C2.41494 28.2422 1.75781 27.5851 1.75781 26.7773V3.22266C1.75781 2.41494 2.41494 1.75781 3.22266 1.75781H15.2344V6.73828C15.2344 7.22367 15.6279 7.61719 16.1133 7.61719H21.0938V15.293H17.0633L19.0785 13.2777C19.4217 12.9345 19.4217 12.378 19.0785 12.0347C18.7353 11.6915 18.1788 11.6915 17.8355 12.0347L14.3199 15.5504C13.9767 15.8936 13.9767 16.4501 14.3199 16.7933L17.8355 20.3089C18.0071 20.4806 18.2321 20.5664 18.457 20.5664C18.682 20.5664 18.9069 20.4806 19.0785 20.3089C19.4217 19.9657 19.4217 19.4092 19.0785 19.066L17.0633 17.0508H21.0938V26.7773Z" fill="white"/>
</svg>
