<svg width="24" height="24" viewBox="0 0 24 24" fill="none" xmlns="http://www.w3.org/2000/svg">
<path d="M3.51562 9.42188H11.4844C11.8727 9.42188 12.1875 9.10706 12.1875 8.71875C12.1875 8.33044 11.8727 8.01562 11.4844 8.01562H3.51562C3.12731 8.01562 2.8125 8.33044 2.8125 8.71875C2.8125 9.10706 3.12731 9.42188 3.51562 9.42188Z" fill="black"/>
<path d="M3.51562 12.2344H9.60938C9.99769 12.2344 10.3125 11.9196 10.3125 11.5312C10.3125 11.1429 9.99769 10.8281 9.60938 10.8281H3.51562C3.12731 10.8281 2.8125 11.1429 2.8125 11.5312C2.8125 11.9196 3.12731 12.2344 3.51562 12.2344Z" fill="black"/>
<path d="M3.51562 15.0469H9.60938C9.99769 15.0469 10.3125 14.7321 10.3125 14.3438C10.3125 13.9554 9.99769 13.6406 9.60938 13.6406H3.51562C3.12731 13.6406 2.8125 13.9554 2.8125 14.3438C2.8125 14.7321 3.12731 15.0469 3.51562 15.0469Z" fill="black"/>
<path d="M11.4844 16.4531H3.51562C3.12731 16.4531 2.8125 16.7679 2.8125 17.1562C2.8125 17.5446 3.12731 17.8594 3.51562 17.8594H11.4844C11.8727 17.8594 12.1875 17.5446 12.1875 17.1562C12.1875 16.7679 11.8727 16.4531 11.4844 16.4531Z" fill="black"/>
<path d="M23.2969 12.2344H18.2812V5.39062C18.2812 5.20416 18.2072 5.02533 18.0753 4.89347L13.388 0.205969C13.2562 0.0741094 13.0773 0 12.8908 0H2.57812C1.15655 0 0 1.15655 0 2.57812V21.4219C0 22.8435 1.15655 24 2.57812 24H15.7031C17.1247 24 18.2812 22.8435 18.2812 21.4219V13.6406H23.2969C23.6852 13.6406 24 13.3258 24 12.9375C24 12.5492 23.6852 12.2344 23.2969 12.2344ZM15.8806 4.6875H13.5938V2.40061L15.8806 4.6875ZM16.875 21.4219C16.875 22.068 16.3493 22.5938 15.7031 22.5938H2.57812C1.93195 22.5938 1.40625 22.068 1.40625 21.4219V2.57812C1.40625 1.93195 1.93195 1.40625 2.57812 1.40625H12.1875V5.39062C12.1875 5.77894 12.5023 6.09375 12.8906 6.09375H16.875V12.2344H13.6506L15.2628 10.6222C15.5374 10.3476 15.5374 9.90239 15.2628 9.6278C14.9882 9.3532 14.543 9.3532 14.2684 9.6278L11.4559 12.4403C11.1813 12.7149 11.1813 13.1601 11.4559 13.4347L14.2684 16.2472C14.4057 16.3845 14.5857 16.4531 14.7656 16.4531C14.9456 16.4531 15.1255 16.3845 15.2628 16.2472C15.5374 15.9726 15.5374 15.5274 15.2628 15.2528L13.6506 13.6406H16.875V21.4219Z" fill="black"/>
</svg>
