<svg width="24" height="24" viewBox="0 0 24 24" fill="none" xmlns="http://www.w3.org/2000/svg">
<path d="M12 0C5.36761 0 0 5.367 0 12C0 18.6323 5.367 24 12 24C18.6324 24 24 18.633 24 12C24 5.3677 18.633 0 12 0ZM12 22.3256C6.30647 22.3256 1.67442 17.6936 1.67442 12C1.67442 6.30642 6.30647 1.67442 12 1.67442C17.6935 1.67442 22.3256 6.30642 22.3256 12C22.3256 17.6936 17.6935 22.3256 12 22.3256Z" fill="black"/>
<path d="M12.0014 10.0029C11.2906 10.0029 10.7852 10.3031 10.7852 10.7454V16.7635C10.7852 17.1426 11.2906 17.5216 12.0014 17.5216C12.6806 17.5216 13.2334 17.1426 13.2334 16.7635V10.7453C13.2334 10.3031 12.6806 10.0029 12.0014 10.0029Z" fill="black"/>
<path d="M11.9983 6.29102C11.2717 6.29102 10.7031 6.81227 10.7031 7.4125C10.7031 8.01278 11.2718 8.54983 11.9983 8.54983C12.7091 8.54983 13.2778 8.01278 13.2778 7.4125C13.2778 6.81227 12.7091 6.29102 11.9983 6.29102Z" fill="black"/>
</svg>
