<svg width="30" height="25" viewBox="0 0 30 25" fill="none" xmlns="http://www.w3.org/2000/svg">
<path d="M29.7424 18.0892L27.4188 15.7654V7.79488L28.9358 7.24795C29.2841 7.12234 29.5163 6.79208 29.5166 6.4218C29.5169 6.05164 29.2851 5.72091 28.937 5.59489L15.0574 0.568379C14.8642 0.498366 14.6523 0.498366 14.459 0.568379L0.579496 5.59489C0.232713 5.7205 0.00128946 6.04918 -0.000116658 6.41799C-0.0014056 6.78681 0.227615 7.11719 0.573403 7.24532L5.69571 9.14281V14.9346C5.69571 15.1144 5.75078 15.2898 5.8536 15.4372C5.91014 15.5183 6.44569 16.2497 7.81689 16.9398C9.54916 17.8119 11.8212 18.254 14.5698 18.254C17.3164 18.254 19.6 17.8128 21.357 16.9425C22.7417 16.2566 23.2951 15.5328 23.3536 15.4526C23.4633 15.3022 23.5224 15.1209 23.5224 14.9347V9.19953L25.6612 8.42845V15.7654L23.3375 18.0892C23.1727 18.254 23.08 18.4775 23.08 18.7106C23.08 18.9436 23.1726 19.1672 23.3375 19.3319L25.6612 21.6556V23.6052C25.6612 24.0906 26.0547 24.4841 26.54 24.4841C27.0254 24.4841 27.4188 24.0906 27.4188 23.6052V21.6556L29.7425 19.3319C30.0857 18.9888 30.0857 18.4323 29.7424 18.0892ZM14.7582 2.32936L26.0517 6.41934L14.574 10.5574L3.43379 6.43053L14.7582 2.32936ZM21.7647 14.5844C18.7604 17.2877 9.83285 16.9777 7.45335 14.5932V9.79396L14.2645 12.3171C14.3726 12.3342 14.4747 12.4274 14.8679 12.3198L21.7648 9.83333V14.5844H21.7647ZM26.54 20.0488L25.2016 18.7106L26.54 17.3722L27.8782 18.7106L26.54 20.0488Z" fill="black"/>
</svg>
