<svg width="30" height="30" viewBox="0 0 30 30" fill="none" xmlns="http://www.w3.org/2000/svg">
<g clip-path="url(#clip0_379_130180)">
<path d="M29.6252 12.0397L25.2539 8.39691V3.9258C25.2539 3.44041 24.8604 3.04689 24.375 3.04689H18.8435L15.5756 0.214761C15.2452 -0.0715869 14.7547 -0.0715869 14.4244 0.214761L11.1565 3.04689H5.625C5.13961 3.04689 4.74609 3.44041 4.74609 3.9258V8.39691L0.374824 12.0397C0.174492 12.2066 0.0585938 12.454 0.0585938 12.7149V29.1211C0.0585938 29.6065 0.452109 30 0.9375 30H29.0625C29.5479 30 29.9414 29.6065 29.9414 29.1211V12.7149C29.9414 12.454 29.8255 12.2066 29.6252 12.0397ZM10.0528 20.918L1.81641 27.3241V14.5119L10.0528 20.918ZM11.7859 21.7969H18.214L26.5009 28.2422H3.4991L11.7859 21.7969ZM19.9472 20.918L28.1836 14.5119V27.3241L19.9472 20.918ZM27.6613 12.6912L25.2539 14.5637V10.6851L27.6613 12.6912ZM15 2.04201L16.1595 3.04689H13.8405L15 2.04201ZM23.4961 4.8047V15.9308L18.2141 20.0391H11.7859L6.50391 15.9308V4.8047H23.4961ZM4.74609 14.5637L2.33871 12.6912L4.74609 10.6851V14.5637Z" fill="black"/>
<path d="M11.0735 17.5044C12.1528 18.3453 13.4973 18.8291 14.8593 18.8668C14.8677 18.867 14.8759 18.8672 14.8841 18.8672C15.3583 18.8672 15.7491 18.4895 15.7622 18.0126C15.7756 17.5273 15.3931 17.1231 14.908 17.1097C12.8419 17.0525 11.0309 15.6134 10.5041 13.6099C9.86956 11.1974 11.236 8.71444 13.6148 7.95717C14.8217 7.57303 16.1029 7.68612 17.2223 8.27569C18.3378 8.86309 19.1538 9.84975 19.5214 11.0548C19.7503 11.9241 19.6725 12.7369 19.262 13.7691C19.1608 14.0236 18.8489 14.6152 18.1397 14.6152C18.0613 14.6152 17.9914 14.5568 17.9568 14.522C17.8567 14.4214 17.7974 14.2718 17.7982 14.1219L17.8224 9.23903C17.8248 8.75364 17.4332 8.35819 16.9478 8.35578C16.9463 8.35578 16.9449 8.35578 16.9433 8.35578C16.5145 8.35578 16.1574 8.66358 16.0805 9.07098C15.684 8.86244 15.2427 8.75176 14.7784 8.75176C13.9341 8.75176 13.1072 9.13121 12.5097 9.79274C11.9039 10.4636 11.5702 11.3763 11.5702 12.3627C11.5702 13.3446 11.8838 14.2672 12.4532 14.9605C13.0438 15.6795 13.8697 16.0919 14.7192 16.0919C15.3695 16.0919 15.9668 15.8601 16.4594 15.4595C16.5343 15.567 16.6179 15.6687 16.7107 15.762C17.1029 16.1561 17.6104 16.3732 18.1397 16.3732C19.5984 16.3732 20.5196 15.3637 20.8954 14.4188C21.4513 13.0211 21.5502 11.8396 21.2161 10.588C21.2137 10.5789 21.2111 10.5697 21.2084 10.5607C20.7057 8.89508 19.581 7.53125 18.0414 6.72043C16.5021 5.90967 14.7406 5.7541 13.0816 6.28227C11.5091 6.78284 10.2011 7.86166 9.39841 9.32006C8.59544 10.7789 8.38432 12.4613 8.80403 14.0571C9.16749 15.4388 9.95223 16.6308 11.0735 17.5044ZM14.7192 14.3341C14.0474 14.3341 13.3281 13.5419 13.3281 12.3627C13.3281 11.2027 14.0655 10.5096 14.7784 10.5096C15.5043 10.5096 16.0181 11.2179 16.0497 12.2446L16.0486 12.4655C16.0068 13.5064 15.4267 14.3341 14.7192 14.3341Z" fill="black"/>
</g>
<defs>
<clipPath id="clip0_379_130180">
<rect width="30" height="30" fill="white"/>
</clipPath>
</defs>
</svg>
