<svg width="50" height="50" viewBox="0 0 50 50" fill="none" xmlns="http://www.w3.org/2000/svg">
<g clip-path="url(#clip0_202_93497)">
<path d="M49.3714 20.0657L42.0859 13.9944V6.54251C42.0859 5.73352 41.4301 5.07766 40.6211 5.07766H31.4019L25.9555 0.357446C25.4048 -0.1198 24.5873 -0.1198 24.0367 0.357446L18.5903 5.07766H9.37109C8.56211 5.07766 7.90625 5.73352 7.90625 6.54251V13.9944L0.620801 20.0657C0.286914 20.3439 0.09375 20.7562 0.09375 21.1909V48.5347C0.09375 49.3437 0.749609 49.9995 1.55859 49.9995H48.4336C49.2426 49.9995 49.8984 49.3437 49.8984 48.5347V21.1909C49.8984 20.7562 49.7053 20.3439 49.3714 20.0657ZM16.7507 34.8628L3.02344 45.5397V24.186L16.7507 34.8628ZM19.6393 36.3277H30.3528L44.1643 47.0699H5.82793L19.6393 36.3277ZM33.2415 34.8628L46.9688 24.186V45.5397L33.2415 34.8628ZM46.0982 21.1516L42.0859 24.2723V17.8079L46.0982 21.1516ZM24.9961 3.40286L26.9286 5.07766H23.0636L24.9961 3.40286ZM39.1562 8.00735V26.5509L30.3529 33.398H19.6393L10.8359 26.5509V8.00735H39.1562ZM7.90625 24.2723L3.89395 21.1516L7.90625 17.808V24.2723Z" fill="#DB1F35"/>
<path d="M18.4542 29.1738C20.2531 30.5754 22.494 31.3817 24.764 31.4445C24.7779 31.4449 24.7915 31.4451 24.8053 31.4451C25.5955 31.4451 26.2469 30.8157 26.2688 30.0208C26.2911 29.2121 25.6536 28.5383 24.845 28.516C21.4016 28.4207 18.3833 26.0222 17.5052 22.6831C16.4477 18.6622 18.725 14.5239 22.6898 13.2618C24.7012 12.6216 26.8366 12.81 28.7023 13.7926C30.5613 14.7717 31.9214 16.4161 32.534 18.4246C32.9156 19.8734 32.786 21.228 32.1017 22.9484C31.933 23.3724 31.4132 24.3586 30.2312 24.3586C30.1005 24.3586 29.9841 24.2612 29.9264 24.2031C29.7596 24.0355 29.6608 23.7862 29.662 23.5364L29.7024 15.3982C29.7064 14.5892 29.0537 13.9301 28.2447 13.9261C28.2423 13.9261 28.2399 13.9261 28.2373 13.9261C27.5226 13.9261 26.9274 14.4391 26.7992 15.1181C26.1384 14.7706 25.4029 14.5861 24.629 14.5861C23.2219 14.5861 21.8438 15.2185 20.848 16.3211C19.8382 17.4391 19.2821 18.9603 19.2821 20.6043C19.2821 22.2409 19.8048 23.7785 20.7537 24.934C21.738 26.1323 23.1146 26.8197 24.5304 26.8197C25.6142 26.8197 26.6098 26.4333 27.4308 25.7656C27.5556 25.9449 27.6949 26.1143 27.8496 26.2698C28.5032 26.9267 29.349 27.2885 30.2312 27.2885C32.6624 27.2885 34.1978 25.6059 34.824 24.0312C35.7505 21.7017 35.9154 19.7325 35.3586 17.6466C35.3546 17.6313 35.3503 17.6161 35.3457 17.601C34.5079 14.825 32.6334 12.5519 30.0674 11.2006C27.5019 9.84929 24.566 9.59001 21.8011 10.4703C19.1803 11.3046 17.0002 13.1026 15.6624 15.5333C14.3241 17.9647 13.9723 20.7686 14.6718 23.4284C15.2776 25.7311 16.5855 27.7178 18.4542 29.1738ZM24.5305 23.89C23.4108 23.89 22.2119 22.5697 22.2119 20.6043C22.2119 18.6711 23.4409 17.5158 24.6291 17.5158C25.8389 17.5158 26.6952 18.6963 26.7479 20.4075L26.746 20.7758C26.6765 22.5104 25.7096 23.89 24.5305 23.89Z" fill="#DB1F35"/>
</g>
<defs>
<clipPath id="clip0_202_93497">
<rect width="50" height="50" fill="white"/>
</clipPath>
</defs>
</svg>
