<svg width="50" height="50" viewBox="0 0 50 50" fill="none" xmlns="http://www.w3.org/2000/svg">
<g clip-path="url(#clip0_214_98854)">
<path d="M19.2707 16.6668H3.64571C1.63536 16.6668 0 15.0314 0 13.0207V3.64571C0 1.63536 1.63536 0 3.64571 0H19.2707C21.2814 0 22.9168 1.63536 22.9168 3.64571V13.0207C22.9168 15.0314 21.2814 16.6668 19.2707 16.6668ZM3.64571 3.125C3.35846 3.125 3.125 3.35846 3.125 3.64571V13.0207C3.125 13.3083 3.35846 13.5418 3.64571 13.5418H19.2707C19.5583 13.5418 19.7918 13.3083 19.7918 13.0207V3.64571C19.7918 3.35846 19.5583 3.125 19.2707 3.125H3.64571Z" fill="#DB1F35"/>
<path d="M19.2707 50H3.64571C1.63536 50 0 48.3647 0 46.3543V24.4793C0 22.4686 1.63536 20.8332 3.64571 20.8332H19.2707C21.2814 20.8332 22.9168 22.4686 22.9168 24.4793V46.3543C22.9168 48.3647 21.2814 50 19.2707 50ZM3.64571 23.9582C3.35846 23.9582 3.125 24.1917 3.125 24.4793V46.3543C3.125 46.6416 3.35846 46.875 3.64571 46.875H19.2707C19.5583 46.875 19.7918 46.6416 19.7918 46.3543V24.4793C19.7918 24.1917 19.5583 23.9582 19.2707 23.9582H3.64571Z" fill="#DB1F35"/>
<path d="M46.3543 50H30.7293C28.7186 50 27.0832 48.3647 27.0832 46.3543V36.9793C27.0832 34.9686 28.7186 33.3332 30.7293 33.3332H46.3543C48.3647 33.3332 50 34.9686 50 36.9793V46.3543C50 48.3647 48.3647 50 46.3543 50ZM30.7293 36.4582C30.4417 36.4582 30.2082 36.6917 30.2082 36.9793V46.3543C30.2082 46.6416 30.4417 46.875 30.7293 46.875H46.3543C46.6416 46.875 46.875 46.6416 46.875 46.3543V36.9793C46.875 36.6917 46.6416 36.4582 46.3543 36.4582H30.7293Z" fill="#DB1F35"/>
<path d="M46.3543 29.1668H30.7293C28.7186 29.1668 27.0832 27.5314 27.0832 25.5207V3.64571C27.0832 1.63536 28.7186 0 30.7293 0H46.3543C48.3647 0 50 1.63536 50 3.64571V25.5207C50 27.5314 48.3647 29.1668 46.3543 29.1668ZM30.7293 3.125C30.4417 3.125 30.2082 3.35846 30.2082 3.64571V25.5207C30.2082 25.8083 30.4417 26.0418 30.7293 26.0418H46.3543C46.6416 26.0418 46.875 25.8083 46.875 25.5207V3.64571C46.875 3.35846 46.6416 3.125 46.3543 3.125H30.7293Z" fill="#DB1F35"/>
</g>
<defs>
<clipPath id="clip0_214_98854">
<rect width="50" height="50" fill="white"/>
</clipPath>
</defs>
</svg>
