<svg width="59" height="40" viewBox="0 0 59 40" fill="none" xmlns="http://www.w3.org/2000/svg">
<rect width="59" height="40" rx="5" fill="#DB1F35"/>
<g clip-path="url(#clip0_8489_400943)">
<path d="M30.68 16.925V18.4333C30.68 18.9124 30.7759 19.3143 30.9645 19.6274C31.2249 20.0595 31.6525 20.3072 32.1379 20.3072C32.6135 20.3072 33.0862 20.0755 33.5428 19.6191L38.5246 14.6373C39.6182 13.5435 39.6182 11.7637 38.5244 10.6699L33.5428 5.68802C33.0862 5.2314 32.6135 5 32.1379 5C31.4124 5 30.68 5.57953 30.68 6.87386V8.24371C23.6071 8.66142 17.7518 14.0894 16.8816 21.1959C16.8328 21.5928 17.0585 21.9727 17.4304 22.1199C17.5357 22.1616 17.6454 22.1817 17.7536 22.1817C18.0278 22.1817 18.2938 22.0533 18.4632 21.8219C20.7973 18.6327 24.545 16.7286 28.4882 16.7286C29.219 16.7286 29.9535 16.7945 30.68 16.925ZM19.4229 18.2532C21.3359 13.3675 26.0971 9.97566 31.5589 9.97566C32.0443 9.97566 32.4378 9.58221 32.4378 9.09676V7.06909L37.2816 11.9127C37.6899 12.3212 37.6899 12.9859 37.2816 13.3945L32.4378 18.2381V16.2102C32.4378 15.8028 32.1578 15.4487 31.7612 15.3548C30.6841 15.1001 29.5827 14.9708 28.4882 14.9708C26.2223 14.9708 23.9682 15.5192 21.9696 16.5569C21.0639 17.0271 20.2088 17.5979 19.4229 18.2532Z" fill="white"/>
<path d="M42.555 17.8801C42.183 17.7329 41.7585 17.8556 41.5223 18.1783C39.1881 21.3673 35.4406 23.2714 31.4972 23.2714C30.7666 23.2714 30.0322 23.2054 29.3055 23.075V21.5667C29.3055 20.2723 28.5733 19.6928 27.8475 19.6928C27.3719 19.6928 26.8992 19.9244 26.4428 20.381L21.461 25.3627C20.3672 26.4565 20.3672 28.2363 21.461 29.3303L26.4428 34.3119C26.8992 34.7686 27.3719 35 27.8475 35C28.573 35 29.3055 34.4204 29.3055 33.1261V31.7562C36.3786 31.3385 42.2336 25.9106 43.1038 18.8043C43.1526 18.4072 42.9269 18.0272 42.555 17.8801ZM28.4266 30.0243C27.9411 30.0243 27.5477 30.4177 27.5477 30.9032V32.9309L22.7041 28.0875C22.2955 27.6787 22.2955 27.014 22.7038 26.6057L27.5477 21.7619V23.7898C27.5477 24.1974 27.8278 24.5515 28.2245 24.6453C29.3018 24.8999 30.403 25.0292 31.4972 25.0292C33.7634 25.0292 36.0174 24.4808 38.0158 23.4433C38.9215 22.9729 39.7766 22.4023 40.5626 21.747C38.6496 26.6325 33.8884 30.0243 28.4266 30.0243Z" fill="white"/>
</g>
<defs>
<clipPath id="clip0_8489_400943">
<rect width="30" height="30" fill="white" transform="translate(15 5)"/>
</clipPath>
</defs>
</svg>
