<svg width="24" height="24" viewBox="0 0 24 24" fill="none" xmlns="http://www.w3.org/2000/svg">
<g clip-path="url(#clip0_7226_178871)">
<path d="M12.544 9.53998V10.7466C12.544 11.1299 12.6207 11.4514 12.7716 11.7019C12.9799 12.0476 13.322 12.2457 13.7103 12.2457C14.0908 12.2457 14.469 12.0604 14.8342 11.6953L18.8197 7.70984C19.6946 6.83478 19.6946 5.41095 18.8195 4.53589L14.8342 0.550415C14.469 0.18512 14.0908 0 13.7103 0C13.1299 0 12.544 0.463623 12.544 1.49908V2.59497C6.88564 2.92914 2.20144 7.27148 1.50527 12.9567C1.46627 13.2742 1.64681 13.5782 1.94436 13.6959C2.02859 13.7292 2.11629 13.7454 2.2029 13.7454C2.42226 13.7454 2.63503 13.6426 2.77053 13.4575C4.63784 10.9061 7.63601 9.38287 10.7905 9.38287C11.3752 9.38287 11.9628 9.43561 12.544 9.53998ZM3.53829 10.6025C5.06869 6.69397 8.87764 3.98053 13.2471 3.98053C13.6355 3.98053 13.9502 3.66577 13.9502 3.2774V1.65527L17.8253 5.53015C18.1519 5.85699 18.1519 6.38873 17.8253 6.71558L13.9502 10.5905V8.96814C13.9502 8.64221 13.7263 8.35895 13.409 8.28387C12.5473 8.08008 11.6662 7.97662 10.7905 7.97662C8.9778 7.97662 7.17458 8.41534 5.5757 9.24554C4.85116 9.62164 4.16707 10.0783 3.53829 10.6025Z" fill="black"/>
<path d="M22.0471 10.304C21.7496 10.1863 21.4099 10.2844 21.2209 10.5426C19.3536 13.0938 16.3556 14.617 13.2009 14.617C12.6164 14.617 12.0289 14.5643 11.4475 14.4599V13.2533C11.4475 12.2178 10.8617 11.7542 10.2811 11.7542C9.90062 11.7542 9.52251 11.9395 9.15739 12.3048L5.17192 16.2901C4.29686 17.1651 4.29686 18.589 5.17192 19.4642L9.15739 23.4495C9.52251 23.8148 9.90062 23.9999 10.2811 23.9999C10.8616 23.9999 11.4475 23.5363 11.4475 22.5008V21.4049C17.106 21.0708 21.79 16.7284 22.4862 11.0434C22.5252 10.7257 22.3447 10.4217 22.0471 10.304ZM10.7444 20.0194C10.356 20.0194 10.0412 20.3341 10.0412 20.7225V22.3446L6.16637 18.4699C5.83952 18.1429 5.83952 17.6112 6.16618 17.2845L10.0412 13.4095V15.0318C10.0412 15.3579 10.2654 15.6412 10.5827 15.7162C11.4446 15.9198 12.3255 16.0233 13.2009 16.0233C15.0138 16.0233 16.8171 15.5846 18.4158 14.7546C19.1403 14.3783 19.8244 13.9218 20.4532 13.3976C18.9228 17.3059 15.1138 20.0194 10.7444 20.0194Z" fill="black"/>
</g>
<defs>
<clipPath id="clip0_7226_178871">
<rect width="24" height="24" fill="white"/>
</clipPath>
</defs>
</svg>
