<svg width="50" height="50" viewBox="0 0 50 50" fill="none" xmlns="http://www.w3.org/2000/svg">
<path d="M48.0469 27.2461C49.1256 27.2461 50 26.3717 50 25.293V18.0664C50 14.2971 46.9334 11.2305 43.1641 11.2305H42.1875V10.2539C42.1875 6.48457 39.1209 3.41797 35.3516 3.41797H6.73828C3.02275 3.41797 0 6.44072 0 10.1562V31.9336C0 35.7029 3.0666 38.7695 6.83594 38.7695H7.8125V39.7461C7.8125 43.5154 10.8791 46.582 14.6484 46.582H43.1806C46.9408 46.582 50 43.5229 50 39.7621L49.9986 35.2992C49.9985 34.8362 49.8339 34.3884 49.5343 34.0355L40.2897 23.1498C39.9174 22.7113 39.3753 22.4602 38.7956 22.4609C38.2204 22.4626 37.6752 22.7176 37.3053 23.1581L28.4365 33.7194L24.269 28.6434C23.9024 28.1969 23.3568 27.9355 22.7791 27.9297C22.1991 27.9254 21.6506 28.1743 21.2751 28.6134L11.719 39.7893C11.7188 39.7749 11.7188 39.7605 11.7188 39.7461V17.9688C11.7188 16.4072 12.9892 15.1367 14.5508 15.1367H43.1641C44.7795 15.1367 46.0938 16.451 46.0938 18.0664V25.293C46.0938 26.3717 46.9682 27.2461 48.0469 27.2461ZM22.7291 32.9238L26.9101 38.0162C27.2786 38.4651 27.8279 38.7267 28.4088 38.73C28.9896 38.7295 29.5418 38.4776 29.9153 38.0328L38.8094 27.4412L46.0926 36.0174L46.0938 39.7627C46.0938 41.3689 44.7869 42.6758 43.1806 42.6758H14.6484C14.5646 42.6758 14.4815 42.6723 14.3995 42.6653L22.7291 32.9238ZM7.8125 17.9688V34.8633H6.83594C5.22051 34.8633 3.90625 33.549 3.90625 31.9336V10.1562C3.90625 8.59473 5.17666 7.32422 6.73828 7.32422H35.3516C36.967 7.32422 38.2812 8.63848 38.2812 10.2539V11.2305H14.5508C10.8353 11.2305 7.8125 14.2532 7.8125 17.9688ZM19.9219 19.3359C21.2702 19.3359 22.3633 20.429 22.3633 21.7773C22.3633 23.1257 21.2702 24.2188 19.9219 24.2188C18.5735 24.2188 17.4805 23.1257 17.4805 21.7773C17.4805 20.429 18.5735 19.3359 19.9219 19.3359Z" fill="black"/>
</svg>
