<svg width="230" height="156" viewBox="0 0 230 156" fill="none" xmlns="http://www.w3.org/2000/svg">
<rect width="230" height="155.056" rx="5" fill="white"/>
<rect x="1" y="1" width="228" height="153.056" rx="4" stroke="black" stroke-opacity="0.3" stroke-width="2"/>
<path d="M40.748 113.6V122H38.804V118.556H34.988V122H33.044V113.6H34.988V116.912H38.804V113.6H40.748ZM45.2166 115.448C46.2166 115.448 46.9846 115.688 47.5206 116.168C48.0566 116.64 48.3246 117.356 48.3246 118.316V122H46.5726V121.196C46.2206 121.796 45.5646 122.096 44.6046 122.096C44.1086 122.096 43.6766 122.012 43.3086 121.844C42.9486 121.676 42.6726 121.444 42.4806 121.148C42.2886 120.852 42.1926 120.516 42.1926 120.14C42.1926 119.54 42.4166 119.068 42.8646 118.724C43.3206 118.38 44.0206 118.208 44.9646 118.208H46.4526C46.4526 117.8 46.3286 117.488 46.0806 117.272C45.8326 117.048 45.4606 116.936 44.9646 116.936C44.6206 116.936 44.2806 116.992 43.9446 117.104C43.6166 117.208 43.3366 117.352 43.1046 117.536L42.4326 116.228C42.7846 115.98 43.2046 115.788 43.6926 115.652C44.1886 115.516 44.6966 115.448 45.2166 115.448ZM45.0726 120.836C45.3926 120.836 45.6766 120.764 45.9246 120.62C46.1726 120.468 46.3486 120.248 46.4526 119.96V119.3H45.1686C44.4006 119.3 44.0166 119.552 44.0166 120.056C44.0166 120.296 44.1086 120.488 44.2926 120.632C44.4846 120.768 44.7446 120.836 45.0726 120.836ZM56.3468 119.552H55.4468V122H53.5988V119.552H52.6988L51.3308 122H49.1228L51.1508 118.664L49.2668 115.544H51.2468L52.6748 118.052H53.5988V115.544H55.4468V118.052H56.3588L57.7988 115.544H59.7788L57.8948 118.664L59.9348 122H57.7148L56.3468 119.552ZM67.2078 122V118.136L65.2758 121.376H64.4838L62.5998 118.124V122H60.9078V115.544H62.8638L64.9278 119.276L67.1238 115.544H68.8758L68.8998 122H67.2078ZM70.693 115.544H72.553V119.384L75.697 115.544H77.413V122H75.553V118.16L72.421 122H70.693V115.544ZM84.6365 117.08H82.4525V122H80.5925V117.08H78.4085V115.544H84.6365V117.08ZM91.6408 118.796C91.6408 118.82 91.6288 118.988 91.6048 119.3H86.7208C86.8088 119.7 87.0168 120.016 87.3448 120.248C87.6728 120.48 88.0808 120.596 88.5688 120.596C88.9048 120.596 89.2008 120.548 89.4568 120.452C89.7208 120.348 89.9648 120.188 90.1888 119.972L91.1848 121.052C90.5768 121.748 89.6888 122.096 88.5208 122.096C87.7928 122.096 87.1488 121.956 86.5888 121.676C86.0288 121.388 85.5968 120.992 85.2928 120.488C84.9888 119.984 84.8368 119.412 84.8368 118.772C84.8368 118.14 84.9848 117.572 85.2808 117.068C85.5848 116.556 85.9968 116.16 86.5168 115.88C87.0448 115.592 87.6328 115.448 88.2808 115.448C88.9128 115.448 89.4848 115.584 89.9968 115.856C90.5088 116.128 90.9088 116.52 91.1968 117.032C91.4928 117.536 91.6408 118.124 91.6408 118.796ZM88.2928 116.864C87.8688 116.864 87.5128 116.984 87.2248 117.224C86.9368 117.464 86.7608 117.792 86.6968 118.208H89.8768C89.8128 117.8 89.6368 117.476 89.3488 117.236C89.0608 116.988 88.7088 116.864 88.2928 116.864ZM102.282 115.544V122H100.41V119.6C99.8662 119.872 99.2662 120.008 98.6102 120.008C97.7382 120.008 97.0782 119.812 96.6302 119.42C96.1902 119.02 95.9702 118.404 95.9702 117.572V115.544H97.8422V117.452C97.8422 117.844 97.9422 118.128 98.1422 118.304C98.3502 118.48 98.6462 118.568 99.0302 118.568C99.5182 118.568 99.9782 118.464 100.41 118.256V115.544H102.282ZM109.504 117.08H107.32V122H105.46V117.08H103.276V115.544H109.504V117.08ZM113.256 122.096C112.576 122.096 111.964 121.956 111.42 121.676C110.884 121.388 110.464 120.992 110.16 120.488C109.856 119.984 109.704 119.412 109.704 118.772C109.704 118.132 109.856 117.56 110.16 117.056C110.464 116.552 110.884 116.16 111.42 115.88C111.964 115.592 112.576 115.448 113.256 115.448C113.936 115.448 114.544 115.592 115.08 115.88C115.616 116.16 116.036 116.552 116.34 117.056C116.644 117.56 116.796 118.132 116.796 118.772C116.796 119.412 116.644 119.984 116.34 120.488C116.036 120.992 115.616 121.388 115.08 121.676C114.544 121.956 113.936 122.096 113.256 122.096ZM113.256 120.56C113.736 120.56 114.128 120.4 114.432 120.08C114.744 119.752 114.9 119.316 114.9 118.772C114.9 118.228 114.744 117.796 114.432 117.476C114.128 117.148 113.736 116.984 113.256 116.984C112.776 116.984 112.38 117.148 112.068 117.476C111.756 117.796 111.6 118.228 111.6 118.772C111.6 119.316 111.756 119.752 112.068 120.08C112.38 120.4 112.776 120.56 113.256 120.56ZM125.214 115.988C125.83 115.988 126.37 116.116 126.834 116.372C127.298 116.62 127.654 116.972 127.902 117.428C128.158 117.884 128.286 118.412 128.286 119.012C128.286 119.628 128.134 120.176 127.83 120.656C127.534 121.128 127.118 121.496 126.582 121.76C126.046 122.016 125.438 122.144 124.758 122.144C123.63 122.144 122.742 121.784 122.094 121.064C121.454 120.336 121.134 119.272 121.134 117.872C121.134 116.576 121.414 115.544 121.974 114.776C122.542 114 123.41 113.492 124.578 113.252L127.65 112.64L127.902 114.248L125.19 114.788C124.454 114.932 123.906 115.172 123.546 115.508C123.194 115.844 122.986 116.32 122.922 116.936C123.202 116.632 123.538 116.4 123.93 116.24C124.322 116.072 124.75 115.988 125.214 115.988ZM124.77 120.692C125.25 120.692 125.634 120.536 125.922 120.224C126.218 119.912 126.366 119.516 126.366 119.036C126.366 118.548 126.218 118.16 125.922 117.872C125.634 117.584 125.25 117.44 124.77 117.44C124.282 117.44 123.89 117.584 123.594 117.872C123.298 118.16 123.15 118.548 123.15 119.036C123.15 119.524 123.302 119.924 123.606 120.236C123.91 120.54 124.298 120.692 124.77 120.692ZM132.952 117.608C133.792 117.616 134.428 117.804 134.86 118.172C135.292 118.54 135.508 119.068 135.508 119.756C135.508 120.476 135.264 121.032 134.776 121.424C134.288 121.816 133.596 122.012 132.7 122.012L129.556 122V115.544H131.416V117.608H132.952ZM136.204 115.544H138.064V122H136.204V115.544ZM132.532 120.68C132.892 120.688 133.168 120.612 133.36 120.452C133.552 120.292 133.648 120.052 133.648 119.732C133.648 119.42 133.552 119.192 133.36 119.048C133.176 118.904 132.9 118.828 132.532 118.82L131.416 118.808V120.68H132.532ZM148.199 118.628C148.959 118.884 149.339 119.396 149.339 120.164C149.339 120.748 149.119 121.2 148.679 121.52C148.239 121.84 147.583 122 146.711 122H143.267V115.544H146.567C147.375 115.544 148.007 115.692 148.463 115.988C148.919 116.276 149.147 116.684 149.147 117.212C149.147 117.532 149.063 117.816 148.895 118.064C148.735 118.304 148.503 118.492 148.199 118.628ZM144.983 118.196H146.399C147.055 118.196 147.383 117.964 147.383 117.5C147.383 117.044 147.055 116.816 146.399 116.816H144.983V118.196ZM146.555 120.728C147.243 120.728 147.587 120.492 147.587 120.02C147.587 119.772 147.507 119.592 147.347 119.48C147.187 119.36 146.935 119.3 146.591 119.3H144.983V120.728H146.555ZM154.128 117.608C154.968 117.616 155.604 117.804 156.036 118.172C156.468 118.54 156.684 119.068 156.684 119.756C156.684 120.476 156.44 121.032 155.952 121.424C155.464 121.816 154.772 122.012 153.876 122.012L150.732 122V115.544H152.592V117.608H154.128ZM157.38 115.544H159.24V122H157.38V115.544ZM153.708 120.68C154.068 120.688 154.344 120.612 154.536 120.452C154.728 120.292 154.824 120.052 154.824 119.732C154.824 119.42 154.728 119.192 154.536 119.048C154.352 118.904 154.076 118.828 153.708 118.82L152.592 118.808V120.68H153.708ZM164.777 115.988C165.393 115.988 165.933 116.116 166.397 116.372C166.861 116.62 167.217 116.972 167.465 117.428C167.721 117.884 167.849 118.412 167.849 119.012C167.849 119.628 167.697 120.176 167.393 120.656C167.097 121.128 166.681 121.496 166.145 121.76C165.609 122.016 165.001 122.144 164.321 122.144C163.193 122.144 162.305 121.784 161.657 121.064C161.017 120.336 160.697 119.272 160.697 117.872C160.697 116.576 160.977 115.544 161.537 114.776C162.105 114 162.973 113.492 164.141 113.252L167.213 112.64L167.465 114.248L164.753 114.788C164.017 114.932 163.469 115.172 163.109 115.508C162.757 115.844 162.549 116.32 162.485 116.936C162.765 116.632 163.101 116.4 163.493 116.24C163.885 116.072 164.313 115.988 164.777 115.988ZM164.333 120.692C164.813 120.692 165.197 120.536 165.485 120.224C165.781 119.912 165.929 119.516 165.929 119.036C165.929 118.548 165.781 118.16 165.485 117.872C165.197 117.584 164.813 117.44 164.333 117.44C163.845 117.44 163.453 117.584 163.157 117.872C162.861 118.16 162.713 118.548 162.713 119.036C162.713 119.524 162.865 119.924 163.169 120.236C163.473 120.54 163.861 120.692 164.333 120.692ZM172.923 115.448C173.523 115.448 174.067 115.588 174.555 115.868C175.051 116.14 175.439 116.528 175.719 117.032C175.999 117.528 176.139 118.108 176.139 118.772C176.139 119.436 175.999 120.02 175.719 120.524C175.439 121.02 175.051 121.408 174.555 121.688C174.067 121.96 173.523 122.096 172.923 122.096C172.099 122.096 171.451 121.836 170.979 121.316V124.328H169.107V115.544H170.895V116.288C171.359 115.728 172.035 115.448 172.923 115.448ZM172.599 120.56C173.079 120.56 173.471 120.4 173.775 120.08C174.087 119.752 174.243 119.316 174.243 118.772C174.243 118.228 174.087 117.796 173.775 117.476C173.471 117.148 173.079 116.984 172.599 116.984C172.119 116.984 171.723 117.148 171.411 117.476C171.107 117.796 170.955 118.228 170.955 118.772C170.955 119.316 171.107 119.752 171.411 120.08C171.723 120.4 172.119 120.56 172.599 120.56ZM179.853 115.448C180.853 115.448 181.621 115.688 182.157 116.168C182.693 116.64 182.961 117.356 182.961 118.316V122H181.209V121.196C180.857 121.796 180.201 122.096 179.241 122.096C178.745 122.096 178.313 122.012 177.945 121.844C177.585 121.676 177.309 121.444 177.117 121.148C176.925 120.852 176.829 120.516 176.829 120.14C176.829 119.54 177.053 119.068 177.501 118.724C177.957 118.38 178.657 118.208 179.601 118.208H181.089C181.089 117.8 180.965 117.488 180.717 117.272C180.469 117.048 180.097 116.936 179.601 116.936C179.257 116.936 178.917 116.992 178.581 117.104C178.253 117.208 177.973 117.352 177.741 117.536L177.069 116.228C177.421 115.98 177.841 115.788 178.329 115.652C178.825 115.516 179.333 115.448 179.853 115.448ZM179.709 120.836C180.029 120.836 180.313 120.764 180.561 120.62C180.809 120.468 180.985 120.248 181.089 119.96V119.3H179.805C179.037 119.3 178.653 119.552 178.653 120.056C178.653 120.296 178.745 120.488 178.929 120.632C179.121 120.768 179.381 120.836 179.709 120.836ZM190.012 117.08H187.828V122H185.968V117.08H183.784V115.544H190.012V117.08ZM194.501 117.608C195.341 117.616 195.985 117.808 196.433 118.184C196.881 118.552 197.105 119.076 197.105 119.756C197.105 120.468 196.853 121.024 196.349 121.424C195.853 121.816 195.153 122.012 194.249 122.012L191.009 122V115.544H192.869V117.608H194.501ZM194.081 120.68C194.441 120.688 194.717 120.612 194.909 120.452C195.101 120.292 195.197 120.052 195.197 119.732C195.197 119.42 195.101 119.192 194.909 119.048C194.725 118.904 194.449 118.828 194.081 118.82L192.869 118.808V120.68H194.081Z" fill="black" fill-opacity="0.3"/>
<g clip-path="url(#clip0_1334_283043)">
<path d="M129.373 57.5078H99.7611C96.0502 57.5078 93.0312 60.5267 93.0312 64.2377V87.7922C93.0312 91.5032 96.0502 94.5221 99.7611 94.5221H115.745C116.386 94.5221 116.972 94.157 117.255 93.5806C117.538 93.0046 117.468 92.3175 117.075 91.8101L112.674 86.1226L124.872 70.6081L132.737 79.9918V82.8289C132.737 83.7582 133.491 84.5114 134.42 84.5114C135.349 84.5114 136.102 83.7582 136.102 82.8289V64.2377C136.102 60.5267 133.083 57.5078 129.373 57.5078V57.5078ZM126.119 66.8583C125.794 66.4699 125.311 66.2481 124.804 66.257C124.297 66.2649 123.82 66.5008 123.507 66.8994L110.551 83.3787L106.139 77.6774C105.82 77.2653 105.329 77.0244 104.809 77.0244C104.808 77.0244 104.807 77.0244 104.806 77.0244C104.285 77.0251 103.793 77.2676 103.475 77.681L99.7723 82.4944C99.2058 83.2312 99.3435 84.2873 100.08 84.8538C100.817 85.4207 101.873 85.2827 102.439 84.5462L104.812 81.4613L112.315 91.1572H99.7611C97.9058 91.1572 96.3962 89.6475 96.3962 87.7922V64.2377C96.3962 62.3824 97.9058 60.8727 99.7611 60.8727H129.373C131.228 60.8727 132.737 62.3824 132.737 64.2377V74.7538L126.119 66.8583ZM104.809 63.5647C102.025 63.5647 99.7611 65.8288 99.7611 68.6121C99.7611 71.3954 102.025 73.6595 104.809 73.6595C107.592 73.6595 109.856 71.3954 109.856 68.6121C109.856 65.8288 107.592 63.5647 104.809 63.5647ZM104.809 70.2946C103.881 70.2946 103.126 69.5398 103.126 68.6121C103.126 67.6844 103.881 66.9296 104.809 66.9296C105.736 66.9296 106.491 67.6844 106.491 68.6121C106.491 69.5398 105.736 70.2946 104.809 70.2946ZM136.102 89.5588C136.102 90.4881 135.349 91.2413 134.42 91.2413H129.793V95.8681C129.793 96.7974 129.04 97.5505 128.111 97.5505C127.181 97.5505 126.428 96.7974 126.428 95.8681V91.2413H121.801C120.872 91.2413 120.119 90.4881 120.119 89.5588C120.119 88.6295 120.872 87.8763 121.801 87.8763H126.428V83.2496C126.428 82.3203 127.181 81.5671 128.111 81.5671C129.04 81.5671 129.793 82.3203 129.793 83.2496V87.8763H134.42C135.349 87.8763 136.102 88.6295 136.102 89.5588Z" fill="black" fill-opacity="0.3"/>
</g>
<defs>
<clipPath id="clip0_1334_283043">
<rect width="43.0712" height="43.0712" fill="white" transform="translate(93.0312 55.9922)"/>
</clipPath>
</defs>
</svg>
