<svg width="50" height="50" viewBox="0 0 50 50" fill="none" xmlns="http://www.w3.org/2000/svg">
<g clip-path="url(#clip0_188_90079)">
<path d="M49.7076 20.9237C50.3066 19.3537 49.9759 17.5072 48.7128 16.2441L33.7547 1.28601C32.0412 -0.427466 29.2531 -0.427271 27.5398 1.28601L10.7233 18.1026H4.39453C1.97139 18.1026 0 20.074 0 22.4971V45.6043C0 48.0274 1.97139 49.9988 4.39453 49.9988H45.6055C48.0286 49.9988 50 48.0274 50 45.6043V22.4971C50 21.9428 49.8958 21.4126 49.7076 20.9237ZM46.526 18.2004C46.229 18.1368 45.9212 18.1026 45.6055 18.1026H42.4313L44.4298 16.1042L46.526 18.2004ZM42.3582 14.0326L38.2882 18.1026H34.1448L40.2865 11.9609L42.3582 14.0326ZM29.6115 3.35759C29.8972 3.07205 30.2723 2.92918 30.6474 2.92918C31.0225 2.92918 31.3976 3.07205 31.6831 3.35759L38.2149 9.88943L30.0017 18.1027H14.8664L29.6115 3.35759ZM47.0703 45.6043C47.0703 46.412 46.4132 47.0691 45.6055 47.0691H4.39453C3.58682 47.0691 2.92969 46.412 2.92969 45.6043V22.4971C2.92969 21.6894 3.58682 21.0323 4.39453 21.0323H45.6055C46.4132 21.0323 47.0703 21.6894 47.0703 22.4971V45.6043Z" fill="#DB1F35"/>
<path d="M5.76172 39.7056H12.5882V42.6353H5.76172V39.7056Z" fill="#DB1F35"/>
<path d="M16.3125 39.7056H23.1389V42.6353H16.3125V39.7056Z" fill="#DB1F35"/>
<path d="M26.8633 39.7056H33.6896V42.6353H26.8633V39.7056Z" fill="#DB1F35"/>
<path d="M37.4102 39.7056H44.2366V42.6353H37.4102V39.7056Z" fill="#DB1F35"/>
<path d="M13.3073 24.9385H8.30078C6.95459 24.9385 5.85938 26.0337 5.85938 27.3799V31.2862C5.85938 32.6323 6.95459 33.7276 8.30078 33.7276H13.3073C14.6535 33.7276 15.7487 32.6323 15.7487 31.2862V27.3799C15.7487 26.0337 14.6535 24.9385 13.3073 24.9385ZM12.819 30.7979H8.78906V27.8682H12.819V30.7979Z" fill="#DB1F35"/>
</g>
<defs>
<clipPath id="clip0_188_90079">
<rect width="50" height="50" fill="white"/>
</clipPath>
</defs>
</svg>
