<svg width="20" height="24" viewBox="0 0 20 24" fill="none" xmlns="http://www.w3.org/2000/svg">
<path d="M14.6875 23.3744V19.782C14.6875 18.9399 15.9544 18.9399 15.9544 19.782V23.3744H14.6875Z" fill="black"/>
<path d="M18.8373 24.0047H1.16082C1.07754 24.0051 0.995015 23.9889 0.918007 23.9573C0.840999 23.9257 0.771032 23.8792 0.712142 23.8205C0.653252 23.7618 0.606603 23.692 0.574887 23.6152C0.54317 23.5385 0.527014 23.4562 0.527349 23.3731V15.2637C0.527454 14.6131 0.751431 13.9822 1.16187 13.4765C1.57232 12.9707 2.14438 12.6206 2.78252 12.4847L5.87894 11.838C6.02802 11.8064 6.18355 11.8296 6.31676 11.9035C6.44998 11.9773 6.55188 12.0967 6.60364 12.2397L9.99906 21.5289L13.3945 12.2472C13.4462 12.1043 13.5481 11.9849 13.6814 11.9111C13.8146 11.8372 13.9701 11.8139 14.1192 11.8456L17.2207 12.4923C17.8588 12.6282 18.4309 12.9783 18.8413 13.484C19.2518 13.9898 19.4757 14.6207 19.4758 15.2712V23.3731C19.4762 23.4566 19.4599 23.5393 19.4278 23.6164C19.3958 23.6935 19.3487 23.7635 19.2893 23.8223C19.2298 23.8811 19.1593 23.9275 19.0817 23.9588C19.0041 23.9901 18.921 24.0057 18.8373 24.0047ZM10.9037 22.7416H18.2038V15.2637C18.2032 14.9057 18.0805 14.5586 17.8558 14.2794C17.631 14.0003 17.3177 13.8057 16.9673 13.7277L14.3979 13.1946L10.9037 22.7416ZM1.7943 22.7416H9.09446L5.60021 13.1946L3.04351 13.7277C2.69076 13.8032 2.37453 13.9967 2.1473 14.2761C1.92007 14.5555 1.79551 14.904 1.7943 15.2637V22.7416Z" fill="black"/>
<path d="M4.04297 23.3744V19.782C4.04297 18.9399 5.30993 18.9399 5.30993 19.782V23.3744H4.04297Z" fill="black"/>
<path d="M10.1714 12.725H9.76848C8.466 12.7237 7.21706 12.2081 6.29488 11.2911C5.3727 10.374 4.85235 9.13015 4.84766 7.83157V4.9061C4.849 3.60533 5.36787 2.35822 6.29041 1.43844C7.21296 0.518658 8.46381 0.00133755 9.76848 0H10.1714C11.476 0.00133755 12.7269 0.518658 13.6494 1.43844C14.572 2.35822 15.0909 3.60533 15.0922 4.9061V7.83157C15.0875 9.13015 14.5672 10.374 13.645 11.2911C12.7228 12.2081 11.4739 12.7237 10.1714 12.725ZM9.76848 1.26316C8.79982 1.26449 7.87122 1.64873 7.18628 2.33163C6.50134 3.01452 6.11594 3.94034 6.1146 4.9061V7.83157C6.11929 8.79514 6.50616 9.71772 7.19074 10.3979C7.87532 11.0781 8.80201 11.4606 9.76848 11.4619H10.1714C11.1378 11.4606 12.0645 11.0781 12.7491 10.3979C13.4337 9.71772 13.8206 8.79514 13.8252 7.83157V4.9061C13.8239 3.94034 13.4385 3.01452 12.7536 2.33163C12.0686 1.64873 11.14 1.26449 10.1714 1.26316H9.76848Z" fill="black"/>
<path d="M5.44531 5.95303C6.45887 5.76861 9.21068 4.96271 9.97338 3.46461C10.3586 2.71366 11.4887 3.28966 11.1035 4.04061C9.89736 6.41787 5.84567 7.18334 5.67336 7.21618L5.44531 5.95303Z" fill="black"/>
<path d="M14.1505 7.34935C11.3911 7.34935 9.2119 5.56325 9.11055 5.47988C8.46018 4.94093 9.27103 3.9683 9.92139 4.50725C9.94167 4.52493 12.0169 6.20746 14.4191 6.07862L14.1505 7.34935Z" fill="black"/>
<path d="M10.8131 15.6479H9.18128C9.05251 15.6476 8.92688 15.6083 8.82101 15.5352C8.71513 15.4621 8.634 15.3587 8.58834 15.2387L7.4937 12.3208C7.45733 12.2244 7.44515 12.1206 7.45821 12.0185C7.47128 11.9164 7.50919 11.8189 7.56865 11.7348C7.62811 11.6506 7.70731 11.5821 7.79936 11.5355C7.8914 11.4888 7.9935 11.4652 8.09677 11.4669H11.8976C12 11.4669 12.1009 11.4916 12.1916 11.539C12.2823 11.5864 12.3602 11.655 12.4185 11.739C12.4767 11.8229 12.5138 11.9197 12.5263 12.021C12.5389 12.1224 12.5266 12.2252 12.4905 12.3208L11.406 15.2387C11.3604 15.3587 11.2792 15.4621 11.1734 15.5352C11.0675 15.6083 10.9419 15.6476 10.8131 15.6479ZM9.62217 14.3848H10.3823L11.0031 12.73H9.00137L9.62217 14.3848Z" fill="black"/>
<path d="M11.2003 18.6041L10.207 15.1935L11.4233 14.8398L12.4065 18.2529L11.2003 18.6041Z" fill="black"/>
<path d="M8.7983 18.6041C8.46338 18.5052 7.58203 18.2529 7.58203 18.2529L8.57532 14.8398L9.79159 15.1935L8.7983 18.6041C8.68689 18.7571 8.7983 18.6041 8.7983 18.6041Z" fill="black"/>
<path d="M5.89844 11.8357L7.98102 11.4671C8.83876 11.2819 9.07092 12.5909 8.20147 12.7101L6.11861 13.0764L5.89844 11.8357Z" fill="black"/>
<path d="M13.9887 13.0959C13.9525 13.0997 13.9159 13.0997 13.8797 13.0959L11.7969 12.7195L12.0173 11.4766L14.0976 11.8429L13.9887 13.0959Z" fill="black"/>
</svg>
