<svg width="24" height="24" viewBox="0 0 24 24" fill="none" xmlns="http://www.w3.org/2000/svg">
<path d="M20.2335 7.53206C21.2136 6.75891 21.8438 5.56106 21.8438 4.21875C21.8438 1.89253 19.9512 0 17.625 0C15.2988 0 13.4062 1.89253 13.4062 4.21875C13.4062 5.56064 14.0361 6.75816 15.0156 7.53141C14.8285 7.62005 14.6463 7.72017 14.4693 7.83164C13.7746 7.32839 12.9214 7.03125 12 7.03125C11.0786 7.03125 10.2254 7.32839 9.53067 7.83159C9.35372 7.72013 9.17142 7.62005 8.98439 7.53136C9.96394 6.75816 10.5938 5.56064 10.5938 4.21875C10.5938 1.89253 8.70122 0 6.375 0C4.04878 0 2.15625 1.89253 2.15625 4.21875C2.15625 5.56106 2.78644 6.75891 3.76645 7.53211C1.98534 8.37384 0.75 10.1876 0.75 12.2848V16.1719C0.75 16.5602 1.06481 16.8703 1.45312 16.8703H6.97777C6.59316 17.6001 6.375 18.4353 6.375 19.316V23.2969C6.375 23.6852 6.68981 24 7.07812 24H16.9219C17.3102 24 17.625 23.6852 17.625 23.2969V19.316C17.625 18.4353 17.4068 17.6048 17.0222 16.875H22.5469C22.9352 16.875 23.25 16.5602 23.25 16.1719V12.2848C23.25 10.1876 22.0147 8.3738 20.2335 7.53206ZM14.8125 4.21875C14.8125 2.66794 16.0742 1.40625 17.625 1.40625C19.1758 1.40625 20.4375 2.66794 20.4375 4.21875C20.4375 5.76956 19.1758 7.03125 17.625 7.03125C16.0742 7.03125 14.8125 5.76956 14.8125 4.21875ZM12 8.4375C13.5508 8.4375 14.8125 9.69919 14.8125 11.25C14.8125 12.8008 13.5508 14.0625 12 14.0625C10.4492 14.0625 9.1875 12.8008 9.1875 11.25C9.1875 9.69919 10.4492 8.4375 12 8.4375ZM3.5625 4.21875C3.5625 2.66794 4.82419 1.40625 6.375 1.40625C7.92581 1.40625 9.1875 2.66794 9.1875 4.21875C9.1875 5.76956 7.92581 7.03125 6.375 7.03125C4.82419 7.03125 3.5625 5.76956 3.5625 4.21875ZM2.15625 15.4688V12.2848C2.15625 10.1634 3.88214 8.4375 6.00352 8.4375H6.74648C7.37381 8.4375 7.97517 8.58614 8.51836 8.87034C8.05359 9.5482 7.78125 10.3679 7.78125 11.25C7.78125 12.5923 8.41144 13.7902 9.39145 14.5634C8.89955 14.7959 8.44936 15.1025 8.05523 15.4688H2.15625ZM16.2188 22.5938H7.78125V19.316C7.78125 17.1946 9.50714 15.4688 11.6285 15.4688H12.3715C14.4929 15.4688 16.2188 17.1946 16.2188 19.316V22.5938ZM21.8438 15.4688H15.9448C15.5506 15.1024 15.1005 14.7958 14.6085 14.5634C15.5886 13.7902 16.2188 12.5923 16.2188 11.25C16.2188 10.3679 15.9464 9.5482 15.4816 8.87034C16.0248 8.58609 16.6262 8.4375 17.2535 8.4375H17.9965C20.1179 8.4375 21.8438 10.1634 21.8438 12.2848V15.4688Z" fill="black"/>
</svg>
