<svg width="17" height="17" viewBox="0 0 17 17" fill="none" xmlns="http://www.w3.org/2000/svg">
<path d="M8.5 17C13.1872 17 17 13.1872 17 8.5C17 3.81281 13.1872 0 8.5 0C3.81281 0 0 3.81348 0 8.5C0 13.1865 3.81281 17 8.5 17ZM8.5 1.3168C12.4603 1.3168 15.6832 4.53903 15.6832 8.5C15.6832 12.461 12.4603 15.6832 8.5 15.6832C4.53903 15.6832 1.3168 12.461 1.3168 8.5C1.3168 4.53903 4.5397 1.3168 8.5 1.3168Z" fill="black"/>
<path d="M4.73925 7.5906L8.03127 10.8826C8.28806 11.1381 8.70284 11.1381 8.95963 10.8826L12.2517 7.5906C12.463 7.34436 12.463 6.98026 12.2517 6.73402C12.0153 6.45814 11.5992 6.4259 11.3233 6.66227L8.49874 9.48679L5.66761 6.66224C5.41081 6.40677 4.99604 6.40677 4.73925 6.66224C4.48378 6.91903 4.48378 7.33384 4.73925 7.5906Z" fill="black"/>
</svg>
