<svg width="24" height="24" viewBox="0 0 24 24" fill="none" xmlns="http://www.w3.org/2000/svg">
<path d="M10.7514 8.86035C10.3105 8.86035 9.95312 9.21768 9.95312 9.65859V14.3415C9.95312 14.7824 10.3105 15.1397 10.7514 15.1397C11.1923 15.1397 11.5496 14.7824 11.5496 14.3415V9.65859C11.5495 9.21768 11.1922 8.86035 10.7514 8.86035Z" fill="black"/>
<path d="M8.2748 6.38574C7.83389 6.38574 7.47656 6.74307 7.47656 7.18398V16.8162C7.47656 17.2571 7.83389 17.6144 8.2748 17.6144C8.7157 17.6144 9.07303 17.2571 9.07303 16.8159V7.18393C9.07303 6.74307 8.7157 6.38574 8.2748 6.38574Z" fill="black"/>
<path d="M5.7748 4.07104C5.33389 4.07104 4.97656 4.42837 4.97656 4.86928V19.1309C4.97656 19.5718 5.33389 19.9292 5.7748 19.9292C6.2157 19.9292 6.57303 19.5718 6.57303 19.1309V4.86928C6.57303 4.42837 6.2157 4.07104 5.7748 4.07104Z" fill="black"/>
<path d="M3.29823 6.38574C2.85733 6.38574 2.5 6.74307 2.5 7.18398V16.8162C2.5 17.2571 2.85733 17.6144 3.29823 17.6144C3.73914 17.6144 4.09647 17.2571 4.09647 16.8159V7.18393C4.09647 6.74307 3.73909 6.38574 3.29823 6.38574Z" fill="black"/>
<path d="M0.798234 8.70068C0.357328 8.70068 0 9.05801 0 9.49892V14.5011C0 14.942 0.357328 15.2994 0.798234 15.2994C1.23914 15.2994 1.59647 14.9423 1.59647 14.5011V9.49892C1.59647 9.05801 1.23909 8.70068 0.798234 8.70068Z" fill="black"/>
<path d="M18.2279 4.07104C17.787 4.07104 17.4297 4.42837 17.4297 4.86928V19.1309C17.4297 19.5718 17.787 19.9292 18.2279 19.9292C18.6688 19.9292 19.0262 19.5718 19.0262 19.1309V4.86928C19.0262 4.42837 18.6688 4.07104 18.2279 4.07104Z" fill="black"/>
<path d="M15.7279 6.38574C15.287 6.38574 14.9297 6.74307 14.9297 7.18398V16.8162C14.9297 17.2571 15.287 17.6144 15.7279 17.6144C16.1688 17.6144 16.5262 17.2571 16.5262 16.8159V7.18393C16.5262 6.74307 16.1688 6.38574 15.7279 6.38574Z" fill="black"/>
<path d="M13.2514 7.63647C12.8105 7.63647 12.4531 7.9938 12.4531 8.43471V15.5655C12.4531 16.0064 12.8105 16.3638 13.2514 16.3638C13.6923 16.3638 14.0496 16.0067 14.0496 15.5655V8.43471C14.0495 7.9938 13.6922 7.63647 13.2514 7.63647Z" fill="black"/>
<path d="M20.7045 6.38574C20.2636 6.38574 19.9062 6.74307 19.9062 7.18398V16.8162C19.9062 17.2571 20.2636 17.6144 20.7045 17.6144C21.1454 17.6144 21.5027 17.2571 21.5027 16.8159V7.18393C21.5027 6.74307 21.1454 6.38574 20.7045 6.38574Z" fill="black"/>
<path d="M23.2045 8.70068C22.7636 8.70068 22.4062 9.05801 22.4062 9.49892V14.5011C22.4062 14.942 22.7636 15.2994 23.2045 15.2994C23.6454 15.2994 24.0027 14.9423 24.0027 14.5011V9.49892C24.0027 9.05801 23.6454 8.70068 23.2045 8.70068Z" fill="black"/>
</svg>
