<svg width="45" height="50" viewBox="0 0 45 50" fill="none" xmlns="http://www.w3.org/2000/svg">
<path d="M22.4846 0C14.7742 0 8.50708 6.31713 8.50708 14.089C8.50708 21.861 14.7742 28.1781 22.4846 28.1781C30.195 28.1781 36.4621 21.861 36.4621 14.089C36.4621 6.31713 30.195 0 22.4846 0ZM22.4846 23.2865C17.4477 23.2865 13.3503 19.1564 13.3503 14.0793C13.3503 9.00215 17.4573 4.88186 22.4846 4.88186C27.5119 4.88186 31.6189 9.01191 31.6189 14.089C31.6189 19.1662 27.5215 23.2865 22.4846 23.2865Z" fill="#DB1F35"/>
<path d="M44.7634 41.4566C43.5041 36.7798 40.8694 32.6693 37.1401 29.5839C36.1037 28.7247 34.5829 28.8809 33.7305 29.9159C32.8781 30.9606 33.0331 32.4935 34.0599 33.3527C37.0045 35.8034 39.0968 39.045 40.0848 42.7356C40.2882 43.507 39.9686 44.0733 39.7652 44.3564C39.3971 44.8348 38.845 45.118 38.2444 45.118C36.9077 45.118 35.8228 46.2115 35.8228 47.5589C35.8228 48.9063 36.9077 49.9999 38.2444 49.9999C40.3657 49.9999 42.3224 49.0235 43.6107 47.3246C44.8893 45.6355 45.3155 43.4972 44.7634 41.4566Z" fill="#DB1F35"/>
<path d="M29.546 45.1084H6.73446C5.9208 45.1084 5.44617 44.6398 5.23307 44.3566C4.86498 43.8685 4.74874 43.2533 4.91341 42.6675C5.91112 39.0159 7.98401 35.7939 10.8996 33.3725C11.9264 32.5133 12.0814 30.9804 11.229 29.9356C10.3766 28.8909 8.85579 28.7445 7.81934 29.6037C4.12881 32.6792 1.50379 36.7409 0.244552 41.3787C-0.317261 43.4486 0.0992558 45.6162 1.38755 47.3248C2.65647 49.0139 4.61313 49.9903 6.73446 49.9903H29.546C30.8827 49.9903 31.9676 48.8968 31.9676 47.5494C31.9676 46.202 30.8827 45.1084 29.546 45.1084Z" fill="#DB1F35"/>
</svg>
