<svg width="30" height="31" viewBox="0 0 30 31" fill="none" xmlns="http://www.w3.org/2000/svg">
<path d="M28.1578 21.4421C28.1081 21.4009 22.4934 17.3828 20.97 17.6462C20.2378 17.7756 19.8188 18.2743 18.9797 19.2746C18.8447 19.4359 18.5194 19.8212 18.2681 20.0959C17.7378 19.9231 17.2205 19.7126 16.7203 19.4659C14.138 18.2087 12.0516 16.1223 10.7944 13.5399C10.5477 13.0397 10.3371 12.5224 10.1644 11.9921C10.44 11.7399 10.8263 11.4146 10.9913 11.2759C11.9859 10.4415 12.4847 10.0224 12.6141 9.28932C12.8794 7.7715 8.85938 2.15213 8.81813 2.1015C8.63505 1.84187 8.39662 1.62612 8.12003 1.46983C7.84345 1.31354 7.53561 1.22061 7.21875 1.19775C5.58938 1.19775 0.9375 7.2315 0.9375 8.24869C0.9375 8.30775 1.02281 14.3115 8.42625 21.8424C15.9488 29.2374 21.9525 29.3228 22.0116 29.3228C23.0287 29.3228 29.0625 24.6709 29.0625 23.0415C29.0397 22.7245 28.9466 22.4166 28.7902 22.14C28.6337 21.8634 28.4177 21.625 28.1578 21.4421ZM21.9084 27.4421C21.0891 27.3746 16.0509 26.7099 9.75187 20.5215C3.53156 14.1887 2.88375 9.1365 2.81906 8.35369C4.04792 6.42492 5.53199 4.67121 7.23094 3.14025C7.26844 3.17775 7.31813 3.234 7.38188 3.30713C8.68484 5.08578 9.80726 6.98988 10.7325 8.99119C10.4316 9.29388 10.1136 9.57904 9.78 9.84525C9.26268 10.2394 8.78764 10.6862 8.3625 11.1784L8.13469 11.4971L8.20219 11.8824C8.40059 12.7419 8.70446 13.5735 9.10687 14.3584C10.5486 17.319 12.941 19.7111 15.9019 21.1524C16.6866 21.5554 17.5183 21.8596 18.3778 22.0581L18.7631 22.1256L19.0819 21.8978C19.5759 21.4707 20.0246 20.9938 20.4206 20.4746C20.7141 20.124 21.1069 19.6562 21.255 19.524C23.262 20.4483 25.171 21.5721 26.9531 22.8784C27.0309 22.944 27.0853 22.9946 27.1219 23.0274C25.5912 24.7269 23.8374 26.2113 21.9084 27.4403V27.4421Z" fill="black" fill-opacity="0.3"/>
</svg>
