<svg width="24" height="24" viewBox="0 0 24 24" fill="none" xmlns="http://www.w3.org/2000/svg">
<path d="M17.2346 11.075L9.38003 6.16585C9.04374 5.95567 8.61981 5.94447 8.27297 6.13676C7.92614 6.32905 7.71094 6.69436 7.71094 7.09094V16.9091C7.71094 17.3057 7.92614 17.671 8.27297 17.8633C8.43777 17.9547 8.61988 18 8.80177 18C9.00272 18 9.20345 17.9445 9.37996 17.8342L17.2345 12.9252C17.5535 12.7259 17.7472 12.3763 17.7472 12.0001C17.7473 11.624 17.5536 11.2744 17.2346 11.075Z" fill="black"/>
<path d="M12 0C5.3832 0 0 5.3832 0 12C0 18.6168 5.3832 24 12 24C18.6168 24 24 18.6168 24 12C24 5.3832 18.6168 0 12 0ZM12 21.8182C6.58618 21.8182 2.18182 17.4137 2.18182 12C2.18182 6.58625 6.58618 2.18182 12 2.18182C17.4138 2.18182 21.8182 6.58625 21.8182 12C21.8182 17.4137 17.4137 21.8182 12 21.8182Z" fill="black"/>
</svg>
