<svg width="30" height="30" viewBox="0 0 30 30" fill="none" xmlns="http://www.w3.org/2000/svg">
<path d="M11.5808 6.09238H12.1882V8.43796C12.1867 8.80818 12.2583 9.17505 12.399 9.51752C12.5396 9.86 12.7465 10.1713 13.0077 10.4336C13.269 10.696 13.5795 10.9041 13.9214 11.0461C14.2633 11.1882 14.6298 11.2613 15.0001 11.2613C15.3703 11.2613 15.7369 11.1882 16.0788 11.0461C16.4206 10.9041 16.7311 10.696 16.9924 10.4336C17.2536 10.1713 17.4605 9.86 17.6011 9.51752C17.7418 9.17505 17.8134 8.80818 17.8119 8.43796V6.09238H18.4189C18.7755 6.09236 19.1235 5.98246 19.4155 5.77764C19.7075 5.57282 19.9293 5.28302 20.0508 4.94766C20.1722 4.61231 20.1874 4.24768 20.0943 3.90338C20.0012 3.55909 19.8043 3.25183 19.5303 3.02343L16.5988 0.578616C16.1499 0.204659 15.584 -8.56171e-05 14.9997 2.68575e-08C14.4154 8.56708e-05 13.8497 0.204996 13.4008 0.579085L10.4698 3.02343C10.1958 3.25175 9.99879 3.55895 9.90559 3.90323C9.81239 4.2475 9.82752 4.61213 9.94893 4.9475C10.0703 5.28286 10.2921 5.57269 10.5841 5.77752C10.8761 5.98236 11.2241 6.09227 11.5807 6.09229L11.5808 6.09238ZM14.6014 2.01918C14.7132 1.92602 14.8541 1.875 14.9997 1.875C15.1452 1.875 15.2861 1.92602 15.3979 2.01918L18.0337 4.21762H16.8744C16.6257 4.21762 16.3873 4.31639 16.2115 4.4922C16.0356 4.66802 15.9369 4.90647 15.9369 5.15512V8.43796C15.9378 8.56154 15.9142 8.68408 15.8675 8.7985C15.8208 8.91293 15.7519 9.01699 15.6648 9.10469C15.5778 9.19238 15.4742 9.26198 15.3601 9.30948C15.246 9.35698 15.1236 9.38143 15.0001 9.38143C14.8765 9.38143 14.7541 9.35698 14.64 9.30948C14.5259 9.26198 14.4223 9.19238 14.3353 9.10469C14.2482 9.01699 14.1793 8.91293 14.1326 8.7985C14.0859 8.68408 14.0624 8.56154 14.0632 8.43796V5.15488C14.0632 4.90624 13.9645 4.66778 13.7886 4.49197C13.6128 4.31615 13.3744 4.21738 13.1257 4.21738H11.9658L14.6014 2.01918ZM29.9155 15.081L27.5717 9.92479C27.472 9.70479 27.2911 9.5319 27.0668 9.4423L22.0264 7.42583C21.7967 7.33853 21.5418 7.34494 21.3168 7.44368C21.0917 7.54242 20.9144 7.7256 20.8231 7.95377C20.7317 8.18194 20.7336 8.43685 20.8284 8.66362C20.9231 8.8904 21.1031 9.0709 21.3297 9.16626L24.1944 10.3125L14.9998 13.9902L5.80527 10.3125L8.6699 9.16644C8.7858 9.12186 8.89168 9.0547 8.98141 8.96886C9.07114 8.88301 9.14292 8.7802 9.19258 8.66639C9.24225 8.55257 9.26881 8.43003 9.27072 8.30586C9.27263 8.1817 9.24985 8.05839 9.20371 7.9431C9.15757 7.82782 9.08899 7.72284 9.00194 7.63428C8.9149 7.54572 8.81113 7.47533 8.69665 7.42721C8.58218 7.37908 8.45929 7.35418 8.33511 7.35394C8.21093 7.35371 8.08794 7.37814 7.97329 7.42583L2.93277 9.4423C2.70853 9.53193 2.52764 9.70482 2.42798 9.92479L0.0842286 15.081C0.0321729 15.1953 0.00363945 15.3189 0.000325993 15.4445C-0.00298747 15.5701 0.0189867 15.695 0.0649412 15.8119C0.110896 15.9288 0.179892 16.0352 0.267824 16.1249C0.355757 16.2146 0.460829 16.2857 0.576791 16.3339L2.3436 17.0701V24.375C2.34371 24.5623 2.39987 24.7454 2.50487 24.9005C2.60987 25.0557 2.75889 25.1759 2.93277 25.2456L14.6515 29.9331C14.8647 30.0181 15.1016 30.0222 15.3176 29.9446L27.0363 25.7258C27.2178 25.6604 27.3747 25.5406 27.4856 25.3827C27.5965 25.2249 27.6561 25.0367 27.6561 24.8437V17.0701L29.4233 16.3339C29.5392 16.2856 29.6442 16.2145 29.7321 16.1248C29.82 16.0351 29.889 15.9287 29.9349 15.8118C29.9808 15.6949 30.0028 15.57 29.9994 15.4444C29.9961 15.3189 29.9675 15.1953 29.9155 15.081ZM3.76391 11.5158L13.671 15.4781L11.7685 18.966L2.19116 14.9757L3.76391 11.5158ZM4.2186 17.8514L11.8266 21.0214C12.0405 21.1105 12.2798 21.1173 12.4983 21.0404C12.7169 20.9636 12.8993 20.8086 13.0104 20.6053L14.0623 18.6767V27.678L4.2186 23.7401V17.8514ZM25.7811 24.185L15.9373 27.7288V18.6767L16.9893 20.6053C17.1002 20.8087 17.2826 20.9639 17.5012 21.0407C17.7199 21.1176 17.9592 21.1107 18.173 21.0214L25.7811 17.8514V24.185ZM18.2312 18.966L16.3288 15.4785L26.2358 11.5158L27.8085 14.9757L18.2312 18.966Z" fill="white"/>
</svg>
