<svg width="22" height="22" viewBox="0 0 22 22" fill="none" xmlns="http://www.w3.org/2000/svg">
<path d="M2.77414 4.65318L2.39329 3.05754C2.28812 2.5814 1.85492 2.25044 1.36789 2.27426C0.734399 2.30449 0.288096 2.90816 0.446019 3.52237L1.44211 7.64735C1.57142 8.18279 2.10932 8.51287 2.64524 8.38565L6.77219 7.39729C8.07167 7.08207 7.59902 5.13302 6.29954 5.44812L4.31516 5.92656C5.68895 4.19172 7.71342 2.9795 10.0925 2.72547C14.7971 2.2231 18.9964 5.61649 19.4988 10.3211C19.6068 11.6923 21.6777 11.469 21.4909 10.1064C20.9124 4.68826 16.3001 0.653467 10.4255 0.709064C6.97679 1.04998 4.46981 2.52966 2.77414 4.6533V4.65318ZM15.2156 14.5731C13.8626 14.8501 14.3509 16.887 15.6824 16.5204L17.6648 16.0418C16.291 17.7761 14.2668 18.9831 11.8874 19.2371C7.1828 19.7395 2.98551 16.3539 2.48313 11.6493C2.43495 11.1256 1.98938 10.7286 1.4636 10.7411C0.872819 10.7562 0.423958 11.2777 0.4968 11.8641C1.11395 17.6435 6.32093 21.8485 12.1003 21.2313C15.008 20.921 17.5121 19.4364 19.2077 17.3153L19.5945 18.9129C19.838 20.3116 21.9522 19.8054 21.5359 18.4481L20.5456 14.3212C20.433 13.8451 19.9926 13.5204 19.4197 13.5682L15.2156 14.5731Z" fill="black"/>
</svg>
