<svg width="50" height="50" viewBox="0 0 50 50" fill="none" xmlns="http://www.w3.org/2000/svg">
<g clip-path="url(#clip0_174_80880)">
<path d="M43.7425 5.14502H39.6225V1.49424C39.6225 0.669434 38.953 0 38.1282 0H6.25986C5.43408 0 4.76562 0.669434 4.76562 1.49424V43.3608C4.76562 44.1856 5.43398 44.8551 6.25986 44.8551H10.3799V48.506C10.3799 49.3308 11.0493 50.0002 11.8741 50.0002H43.7425C44.5683 50.0002 45.2367 49.3308 45.2367 48.506V6.63926C45.2366 5.81445 44.5683 5.14502 43.7425 5.14502ZM10.3799 6.63926V41.8666H7.7541V2.98838H36.6341V5.14502H11.8741C11.0493 5.14502 10.3799 5.81445 10.3799 6.63926ZM42.2482 47.0116H13.3683C13.3683 46.3057 13.3683 8.75107 13.3683 8.1335C15.6614 8.1335 41.1105 8.1335 42.2482 8.1335V47.0116Z" fill="#DB1F35"/>
<path d="M32.8934 21.431H27.2383V15.777C27.2383 14.9521 26.5688 14.2827 25.744 14.2827C20.9785 14.2827 17.1016 18.1597 17.1016 22.9252C17.1016 27.6917 20.9785 31.5696 25.744 31.5696C30.5105 31.5696 34.3875 27.6917 34.3875 22.9252C34.3876 22.1005 33.7191 21.431 32.8934 21.431ZM25.7441 28.5812C22.6263 28.5812 20.09 26.0441 20.09 22.9252C20.09 20.3253 21.8552 18.1288 24.2499 17.4714V22.9252C24.2499 23.751 24.9193 24.4194 25.7441 24.4194H31.1989C30.5425 26.8161 28.346 28.5812 25.7441 28.5812Z" fill="#DB1F35"/>
<path d="M29.8692 10.1597C29.0435 10.1597 28.375 10.828 28.375 11.6539V18.8021C28.375 19.627 29.0434 20.2964 29.8692 20.2964C33.1286 20.2964 33.7298 20.2964 37.0185 20.2964C37.8433 20.2964 38.5127 19.627 38.5127 18.8021C38.5127 13.9983 34.5943 10.1597 29.8692 10.1597ZM31.3634 17.3079V13.3482C33.2829 13.8742 34.7971 15.3883 35.324 17.3079H31.3634Z" fill="#DB1F35"/>
<path d="M37.973 34.8799C37.1146 34.8799 20.4883 34.8799 17.2833 34.8799C16.4575 34.8799 15.7891 35.5493 15.7891 36.3741C15.7891 37.1999 16.4574 37.8684 17.2833 37.8684C18.9114 37.8684 37.1107 37.8684 37.973 37.8684C38.7979 37.8684 39.4673 37.2 39.4673 36.3741C39.4673 35.5492 38.7979 34.8799 37.973 34.8799Z" fill="#DB1F35"/>
<path d="M37.973 40.5977C37.1146 40.5977 20.4883 40.5977 17.2833 40.5977C16.4552 40.5977 15.7891 41.2695 15.7891 42.0919C15.7891 42.9177 16.4574 43.5861 17.2833 43.5861H37.973C38.7979 43.5861 39.4673 42.9178 39.4673 42.0919C39.4673 41.2671 38.7979 40.5977 37.973 40.5977Z" fill="#DB1F35"/>
</g>
<defs>
<clipPath id="clip0_174_80880">
<rect width="50" height="50" fill="white"/>
</clipPath>
</defs>
</svg>
