<svg width="50" height="50" viewBox="0 0 50 50" fill="none" xmlns="http://www.w3.org/2000/svg">
<g clip-path="url(#clip0_372_148989)">
<path d="M49.0736 41.3957L40.0477 32.6355C39.463 32.0679 38.6922 31.7632 37.8729 31.7743C37.5986 31.7784 37.3307 31.819 37.074 31.8921L33.0054 27.9435C33.4157 27.3236 33.7894 26.6771 34.1232 26.0036C34.172 25.9051 34.2092 25.8038 34.2359 25.7014H35.5766C36.4395 25.7014 37.1389 25.0017 37.1389 24.1386C37.1389 23.2755 36.4393 22.5759 35.5764 22.5759L30.4028 22.5761V19.5411H33.8927C34.7557 19.5411 35.4551 18.8414 35.4551 17.9784C35.4551 17.1153 34.7556 16.4157 33.8927 16.4157H30.4028V13.5605H35.5765C36.4395 13.5605 37.1389 12.8608 37.1389 11.9979C37.1389 11.1349 36.4394 10.4352 35.5765 10.4352H34.3355C33.7093 9.08477 32.9123 7.80947 31.9659 6.64473C25.7071 -1.0581 14.3497 -2.23154 6.64858 4.02852C2.91802 7.06104 0.591355 11.365 0.0973121 16.1479C-0.396633 20.9306 1.00112 25.6194 4.03305 29.3508C7.06499 33.082 11.3682 35.4091 16.15 35.9031C16.7801 35.9683 17.4082 36.0005 18.0332 36.0005C21.5322 36.0005 24.9181 34.9882 27.8442 33.0683L31.8587 36.9646C31.6867 37.3593 31.5988 37.7899 31.6053 38.2344C31.6176 39.0522 31.9465 39.8151 32.5312 40.3825L41.5573 49.1428C42.1502 49.7182 42.9182 50.0044 43.6856 50.0044C44.4837 50.0044 45.2812 49.6944 45.8795 49.0777L49.1383 45.7188C50.3121 44.5091 50.283 42.5699 49.0736 41.3957ZM34.607 33.8528L33.8956 34.5861L30.3216 31.1175C30.571 30.884 30.8132 30.6443 31.0478 30.3984L34.607 33.8528ZM16.4711 32.7942C12.5196 32.3859 8.96343 30.463 6.45805 27.3795C3.95249 24.296 2.79741 20.4213 3.20571 16.4689C3.61401 12.5166 5.53657 8.95996 8.61938 6.45401C14.9834 1.28086 24.3689 2.25069 29.5409 8.61582C30.0089 9.1918 30.4315 9.80068 30.8072 10.435H28.8404C27.9774 10.435 27.278 11.1347 27.278 11.9977V24.1388C27.278 24.5532 27.4425 24.9508 27.7356 25.2438C28.0287 25.5369 28.426 25.7016 28.8405 25.7016L30.7273 25.7015C29.8465 27.1599 28.7245 28.448 27.3795 29.5413C24.2966 32.0472 20.4232 33.2023 16.4711 32.7942ZM43.6846 46.8521L34.7565 38.1869L37.9202 34.9259L46.8483 43.5911L43.6846 46.8521ZM17.2462 13.9269V16.0567C17.2462 16.2554 17.414 16.4231 17.6126 16.4231H22.0118C23.9368 16.4231 25.503 17.9897 25.503 19.9152V22.0449C25.503 23.9704 23.9368 25.537 22.0118 25.537H15.6836C14.8207 25.537 14.1212 24.8373 14.1212 23.9743C14.1212 23.1112 14.8207 22.4116 15.6836 22.4116H22.0118C22.2103 22.4116 22.3781 22.2438 22.3781 22.045V19.9153C22.3781 19.7166 22.2103 19.5487 22.0118 19.5487H17.6126C15.6875 19.5487 14.1213 17.9822 14.1213 16.0568V13.927C14.1213 12.0016 15.6874 10.4352 17.6126 10.4352H23.9408C24.8038 10.4352 25.5032 11.1349 25.5032 11.9979C25.5032 12.8608 24.8037 13.5605 23.9408 13.5605H17.6126C17.4139 13.5605 17.2462 13.7282 17.2462 13.9269ZM43.1724 25.6213C46.2299 25.6213 48.7175 23.1332 48.7175 20.0751V15.882C48.7175 12.8238 46.2299 10.3358 43.1724 10.3358C40.1149 10.3358 37.6273 12.8239 37.6273 15.882V20.0751C37.6273 23.1333 40.1149 25.6213 43.1724 25.6213ZM40.7522 15.882C40.7522 14.5472 41.8379 13.4613 43.1724 13.4613C44.507 13.4613 45.5926 14.5473 45.5926 15.882V20.0751C45.5926 21.41 44.5069 22.4958 43.1724 22.4958C41.8379 22.4958 40.7522 21.4099 40.7522 20.0751V15.882Z" fill="#DB1F35"/>
</g>
<defs>
<clipPath id="clip0_372_148989">
<rect width="50" height="50" fill="white"/>
</clipPath>
</defs>
</svg>
