<svg width="32" height="31" viewBox="0 0 32 31" fill="none" xmlns="http://www.w3.org/2000/svg">
<g filter="url(#filter0_d_718_169410)">
<rect x="6" y="2" width="19.999" height="19.999" rx="5" fill="#D51F26"/>
</g>
<path d="M22.6738 7.76681C22.6378 7.69679 22.5857 7.63626 22.5219 7.59015C22.4581 7.54404 22.3843 7.51366 22.3065 7.50147C22.2287 7.48929 22.1491 7.49565 22.0743 7.52004C21.9994 7.54442 21.9313 7.58615 21.8756 7.64181L19.9556 9.56306C19.8614 9.65594 19.7344 9.70801 19.6021 9.70801C19.4697 9.70801 19.3427 9.65594 19.2485 9.56306L18.4185 8.73181C18.372 8.68538 18.3352 8.63025 18.31 8.56958C18.2849 8.50891 18.272 8.44389 18.272 8.37822C18.272 8.31255 18.2849 8.24752 18.31 8.18685C18.3352 8.12618 18.372 8.07105 18.4185 8.02462L20.3303 6.11243C20.3876 6.05513 20.4302 5.98475 20.4542 5.90736C20.4783 5.82997 20.4832 5.74788 20.4685 5.66818C20.4538 5.58847 20.42 5.51354 20.3699 5.44982C20.3198 5.38611 20.2549 5.33553 20.181 5.30244C18.7369 4.65681 16.9344 4.99369 15.7978 6.12181C14.8322 7.08056 14.5444 8.57868 15.0088 10.2321C15.0338 10.3203 15.034 10.4137 15.0092 10.5019C14.9844 10.5902 14.9357 10.6698 14.8685 10.7321L9.66596 15.4837C9.46329 15.6657 9.29981 15.887 9.1855 16.1342C9.07119 16.3815 9.00845 16.6494 9.0011 16.9217C8.99374 17.194 9.04194 17.4649 9.14274 17.7179C9.24354 17.971 9.39484 18.2008 9.5874 18.3935C9.77995 18.5861 10.0097 18.7375 10.2627 18.8384C10.5157 18.9393 10.7866 18.9876 11.0589 18.9804C11.3312 18.9732 11.5992 18.9106 11.8464 18.7964C12.0937 18.6822 12.3152 18.5188 12.4972 18.3162L17.2997 13.1021C17.3611 13.0357 17.4394 12.9873 17.5263 12.9622C17.6131 12.937 17.7052 12.936 17.7925 12.9593C18.2633 13.0883 18.7488 13.1552 19.2369 13.1584C20.2806 13.1584 21.1966 12.8206 21.8572 12.1696C23.0806 10.9643 23.2672 8.91993 22.6738 7.76681ZM11.1094 17.974C10.9036 17.9965 10.6959 17.9545 10.5149 17.8539C10.334 17.7533 10.1887 17.599 10.0992 17.4123C10.0097 17.2256 9.98032 17.0158 10.0151 16.8117C10.05 16.6076 10.1473 16.4193 10.2937 16.2729C10.44 16.1265 10.6282 16.0291 10.8323 15.9942C11.0364 15.9593 11.2463 15.9886 11.433 16.0781C11.6197 16.1675 11.774 16.3127 11.8747 16.4936C11.9754 16.6745 12.0174 16.8822 11.995 17.0881C11.9704 17.3145 11.8692 17.5258 11.7081 17.6869C11.5471 17.848 11.3359 17.9493 11.1094 17.974Z" fill="white"/>
<defs>
<filter id="filter0_d_718_169410" x="0.5" y="-2.38419e-07" width="30.999" height="30.999" filterUnits="userSpaceOnUse" color-interpolation-filters="sRGB">
<feFlood flood-opacity="0" result="BackgroundImageFix"/>
<feColorMatrix in="SourceAlpha" type="matrix" values="0 0 0 0 0 0 0 0 0 0 0 0 0 0 0 0 0 0 127 0" result="hardAlpha"/>
<feOffset dy="3.5"/>
<feGaussianBlur stdDeviation="2.75"/>
<feColorMatrix type="matrix" values="0 0 0 0 0 0 0 0 0 0 0 0 0 0 0 0 0 0 0.02 0"/>
<feBlend mode="normal" in2="BackgroundImageFix" result="effect1_dropShadow_718_169410"/>
<feBlend mode="normal" in="SourceGraphic" in2="effect1_dropShadow_718_169410" result="shape"/>
</filter>
</defs>
</svg>
