<svg width="50" height="50" viewBox="0 0 50 50" fill="none" xmlns="http://www.w3.org/2000/svg">
<path d="M46.2781 20.7687C45.5596 20.3973 44.6758 20.6791 44.3044 21.3977L42.5998 24.6968L40.9589 21.4151C40.7108 20.9188 40.2036 20.6053 39.6487 20.6053C39.0939 20.6053 38.5866 20.9188 38.3386 21.4151L36.719 24.6541L35.0995 21.4151C34.837 20.8898 34.2872 20.5727 33.6997 20.6081L33.611 20.6135C32.9583 20.6536 32.4321 21.1153 32.2804 21.7174C32.1806 21.3162 31.9135 20.9593 31.5148 20.7599C30.7914 20.3983 29.9113 20.6914 29.5495 21.415L27.93 24.6541L26.3105 21.4151C26.0623 20.9188 25.5552 20.6053 25.0003 20.6053C24.4454 20.6053 23.9383 20.9188 23.69 21.4151L22.0706 24.6541L20.4512 21.4151C20.0894 20.6916 19.2094 20.3982 18.4858 20.76C18.0871 20.9593 17.82 21.3163 17.7202 21.7174C17.5686 21.1153 17.0423 20.6535 16.3895 20.6134L16.3009 20.608C15.7145 20.5718 15.1637 20.8897 14.9011 21.415L13.2815 24.6541L11.6621 21.4151C11.1288 20.3511 9.58662 20.3252 9.04169 21.4151L7.40077 24.6969L5.69618 21.3979C5.3249 20.6792 4.4412 20.3976 3.72245 20.7689C3.0037 21.1403 2.72206 22.024 3.09345 22.7427L6.12079 28.6021C6.67031 29.6658 8.19648 29.6566 8.73242 28.5848L10.3519 25.3457L11.9714 28.5846C12.5108 29.6635 14.0536 29.661 14.5918 28.5846L17.3212 23.1257C17.5132 22.939 17.6543 22.6995 17.7213 22.4289C17.7468 22.5294 17.7825 22.6287 17.8308 22.7253L20.7604 28.5846C21.2999 29.6635 22.8427 29.661 23.3809 28.5846L25.0003 25.3457L26.6197 28.5846C27.1592 29.6635 28.7021 29.6611 29.2401 28.5846L32.1698 22.7252C32.2181 22.6287 32.2538 22.5294 32.2793 22.4289C32.3463 22.6996 32.4874 22.9392 32.6795 23.1259L35.4089 28.5846C35.9482 29.6635 37.4912 29.661 38.0292 28.5846L39.6487 25.3457L41.2683 28.5846C41.8035 29.6554 43.3298 29.6665 43.8798 28.6019L46.9071 22.7425C47.2785 22.0237 46.9969 21.14 46.2781 20.7687Z" fill="#DB1F35"/>
<path d="M48.1477 15.5595C44.425 6.47373 35.4118 0 25 0C14.5855 0 5.57402 6.47598 1.85244 15.5594C0.73252 16.3566 0 17.6643 0 19.1406V30.8594C0 32.3357 0.73252 33.6434 1.85244 34.4406C5.5749 43.5261 14.588 50 25 50C35.4145 50 44.4259 43.524 48.1477 34.4405C49.2675 33.6433 50 32.3356 50 30.8594V19.1406C50 17.6644 49.2675 16.3567 48.1477 15.5595ZM44.5356 14.7461H37.0467C36.1157 10.7573 34.6626 7.32305 32.8139 4.75996C32.6847 4.58096 32.5539 4.40732 32.4218 4.23799C37.5594 6.09766 41.936 9.83272 44.5356 14.7461ZM26.4648 3.175C30.4731 4.5208 32.9796 10.5889 34.0318 14.7461H26.4648V3.175ZM23.5352 3.175V14.7461H15.9681C16.8095 11.422 18.0382 8.58662 19.5622 6.47383C20.4778 5.20449 21.8397 3.74424 23.5352 3.175ZM17.5782 4.23799C17.4461 4.40732 17.3153 4.58086 17.1861 4.75996C15.3374 7.32305 13.8842 10.7573 12.9533 14.7461H5.46436C8.06396 9.83272 12.4405 6.09766 17.5782 4.23799ZM5.46436 35.2539H12.9533C13.8059 38.9067 15.2704 42.8042 17.5782 45.762C12.4405 43.9023 8.06396 40.1673 5.46436 35.2539ZM23.5352 46.825C19.5269 45.4792 17.0203 39.4111 15.9681 35.2539H23.5352V46.825ZM26.4648 46.825V35.2344H34.0319C32.978 39.3978 30.4646 45.482 26.4648 46.825ZM32.4218 45.762C34.7293 42.8046 36.194 38.888 37.0467 35.2344H44.5356C41.936 40.1478 37.5595 43.9023 32.4218 45.762ZM47.0703 30.8594C47.0703 31.6671 46.4132 32.3242 45.6055 32.3242C44.6761 32.3242 5.45703 32.3242 4.39453 32.3242C3.58682 32.3242 2.92969 31.6671 2.92969 30.8594V19.1406C2.92969 18.3329 3.58682 17.6758 4.39453 17.6758C5.51123 17.6758 44.6027 17.6758 45.6055 17.6758C46.4132 17.6758 47.0703 18.3329 47.0703 19.1406V30.8594Z" fill="#DB1F35"/>
</svg>
