<svg width="30" height="30" viewBox="0 0 30 30" fill="none" xmlns="http://www.w3.org/2000/svg">
<path d="M27.7669 12.4615C27.3357 12.2387 26.8055 12.4077 26.5826 12.8389L25.5599 14.8184L24.5753 12.8494C24.4265 12.5516 24.1222 12.3635 23.7892 12.3635C23.4563 12.3635 23.152 12.5516 23.0031 12.8494L22.0314 14.7927L21.0597 12.8494C20.9022 12.5342 20.5723 12.3439 20.2198 12.3651L20.1666 12.3684C19.775 12.3924 19.4593 12.6695 19.3682 13.0307C19.3083 12.79 19.1481 12.5758 18.9088 12.4563C18.4748 12.2393 17.9468 12.4151 17.7297 12.8493L16.758 14.7927L15.7863 12.8494C15.6374 12.5516 15.3331 12.3635 15.0002 12.3635C14.6672 12.3635 14.363 12.5516 14.214 12.8494L13.2424 14.7927L12.2707 12.8494C12.0536 12.4152 11.5256 12.2392 11.0915 12.4563C10.8523 12.5759 10.692 12.7901 10.6321 13.0307C10.5411 12.6695 10.2254 12.3924 9.83373 12.3684L9.78053 12.3651C9.42873 12.3434 9.0982 12.5341 8.94064 12.8493L7.96892 14.7927L6.99726 12.8494C6.67728 12.211 5.75197 12.1954 5.42502 12.8494L4.44046 14.8185L3.41771 12.839C3.19494 12.4078 2.66472 12.2389 2.23347 12.4616C1.80222 12.6845 1.63324 13.2147 1.85607 13.6459L3.67248 17.1616C4.00218 17.7998 4.91789 17.7943 5.23945 17.1512L6.21111 15.2077L7.18283 17.1511C7.5065 17.7984 8.43217 17.7969 8.75508 17.1511L10.3927 13.8757C10.5079 13.7637 10.5926 13.62 10.6328 13.4576C10.6481 13.5179 10.6695 13.5775 10.6985 13.6355L12.4563 17.1511C12.7799 17.7984 13.7056 17.7969 14.0285 17.1511L15.0002 15.2077L15.9718 17.1511C16.2955 17.7984 17.2212 17.797 17.5441 17.1511L19.3019 13.6354C19.3308 13.5775 19.3523 13.5179 19.3676 13.4576C19.4078 13.62 19.4924 13.7638 19.6077 13.8758L21.2453 17.1511C21.5689 17.7984 22.4947 17.7969 22.8175 17.1511L23.7892 15.2077L24.761 17.1511C25.0821 17.7936 25.9979 17.8002 26.3279 17.1614L28.1443 13.6458C28.3671 13.2145 28.1981 12.6843 27.7669 12.4615Z" fill="black"/>
<path d="M28.8886 9.33568C26.655 3.88424 21.2471 0 15 0C8.75133 0 3.34441 3.88559 1.11146 9.33562C0.439512 9.81398 0 10.5986 0 11.4844V18.5156C0 19.4014 0.439512 20.186 1.11146 20.6644C3.34494 26.1156 8.75279 30 15 30C21.2487 30 26.6555 26.1144 28.8886 20.6643C29.5605 20.186 30 19.4014 30 18.5156V11.4844C30 10.5986 29.5605 9.81404 28.8886 9.33568ZM26.7214 8.84766H22.228C21.6694 6.45439 20.7976 4.39383 19.6883 2.85598C19.6108 2.74857 19.5323 2.64439 19.4531 2.54279C22.5356 3.65859 25.1616 5.89963 26.7214 8.84766ZM15.8789 1.905C18.2839 2.71248 19.7878 6.35332 20.4191 8.84766H15.8789V1.905ZM14.1211 1.905V8.84766H9.58084C10.0857 6.85318 10.8229 5.15197 11.7373 3.8843C12.2867 3.1227 13.1038 2.24654 14.1211 1.905ZM10.5469 2.54279C10.4677 2.64439 10.3892 2.74852 10.3117 2.85598C9.20244 4.39383 8.33051 6.45439 7.77199 8.84766H3.27861C4.83838 5.89963 7.46432 3.65859 10.5469 2.54279ZM3.27861 21.1523H7.77199C8.28352 23.344 9.16225 25.6825 10.5469 27.4572C7.46432 26.3414 4.83838 24.1004 3.27861 21.1523ZM14.1211 28.095C11.7161 27.2875 10.2122 23.6467 9.58084 21.1523H14.1211V28.095ZM15.8789 28.095V21.1406H20.4192C19.7868 23.6387 18.2788 27.2892 15.8789 28.095ZM19.4531 27.4572C20.8376 25.6828 21.7164 23.3328 22.228 21.1406H26.7214C25.1616 24.0887 22.5357 26.3414 19.4531 27.4572ZM28.2422 18.5156C28.2422 19.0003 27.8479 19.3945 27.3633 19.3945C26.8056 19.3945 3.27422 19.3945 2.63672 19.3945C2.15209 19.3945 1.75781 19.0003 1.75781 18.5156V11.4844C1.75781 10.9997 2.15209 10.6055 2.63672 10.6055C3.30674 10.6055 26.7616 10.6055 27.3633 10.6055C27.8479 10.6055 28.2422 10.9997 28.2422 11.4844V18.5156Z" fill="black"/>
</svg>
