<svg width="50" height="50" viewBox="0 0 50 50" fill="none" xmlns="http://www.w3.org/2000/svg">
<g clip-path="url(#clip0_414_150174)">
<path d="M49.0883 10.7825L25.5531 0.131751C25.1685 -0.04237 24.7273 -0.0418817 24.3432 0.132728L0.905664 10.7835C0.382617 11.0212 0.046875 11.5426 0.046875 12.1171V48.5365C0.046875 49.3455 0.702734 50.0014 1.51172 50.0014H48.4844C49.2934 50.0014 49.9492 49.3455 49.9492 48.5365V12.1171C49.9491 11.5418 49.6124 11.0196 49.0883 10.7825ZM34.2265 41.2123C35.0354 41.2123 35.6913 40.5565 35.6913 39.7475V38.2826H38.621V47.0717H29.8319V38.2826H32.7616V39.7475C32.7616 40.5566 33.4175 41.2123 34.2265 41.2123ZM38.621 35.3529H28.3671C27.5581 35.3529 26.9022 36.0088 26.9022 36.8178V47.0717H22.996C22.996 44.7456 22.996 27.2192 22.996 25.099C22.996 24.2901 22.3401 23.6342 21.5312 23.6342H11.2772V20.7045H38.621V35.3529ZM11.2772 35.3529V26.5639H14.2069V28.0287C14.2069 28.8377 14.8628 29.4936 15.6718 29.4936C16.4808 29.4936 17.1366 28.8377 17.1366 28.0287V26.5639H20.0663V35.3529H11.2772ZM11.2772 38.2826H14.2069V39.7475C14.2069 40.5565 14.8628 41.2123 15.6718 41.2123C16.4808 41.2123 17.1366 40.5565 17.1366 39.7475V38.2826H20.0663V47.0717H11.2772V38.2826ZM47.0194 47.0717H41.5507V19.2397C41.5507 18.4307 40.8948 17.7748 40.0858 17.7748H9.8124C9.00342 17.7748 8.34756 18.4307 8.34756 19.2397V47.0717H2.97646V13.0605L24.9504 3.07472L47.0194 13.0621V47.0717Z" fill="#DB1F35"/>
<path d="M19.0859 11.4258C19.0859 12.2348 19.7418 12.8906 20.5508 12.8906H29.3398C30.1488 12.8906 30.8047 12.2348 30.8047 11.4258C30.8047 10.6168 30.1488 9.96094 29.3398 9.96094H20.5508C19.7418 9.96094 19.0859 10.6168 19.0859 11.4258Z" fill="#DB1F35"/>
</g>
<defs>
<clipPath id="clip0_414_150174">
<rect width="50" height="50" fill="white"/>
</clipPath>
</defs>
</svg>
