<svg width="24" height="24" viewBox="0 0 24 24" fill="none" xmlns="http://www.w3.org/2000/svg">
<path d="M21.1875 17.0391V12.7496H12.7031V10.3717L16.9219 8.2623V2.47215L12 0.000244141L7.07812 2.47215V8.26225L11.2969 10.3716V12.7495H2.8125V17.039C1.20975 17.3657 0 18.7861 0 20.4839C0 22.4224 1.57711 23.9996 3.51562 23.9996C5.45414 23.9996 7.03125 22.4224 7.03125 20.4839C7.03125 18.7862 5.8215 17.3657 4.21875 17.039V14.1558H11.2969V17.039C9.69412 17.3657 8.48438 18.7861 8.48438 20.4839C8.48438 22.4224 10.0615 23.9996 12 23.9996C13.9385 23.9996 15.5156 22.4224 15.5156 20.4839C15.5156 18.7862 14.3059 17.3657 12.7031 17.039V14.1558H19.7812V17.039C18.1785 17.3657 16.9688 18.7861 16.9688 20.4839C16.9688 22.4224 18.5459 23.9996 20.4844 23.9996C22.4229 23.9996 24 22.4224 24 20.4839C24 18.7862 22.7903 17.3657 21.1875 17.0391ZM12.7031 8.79939V5.44975L15.5156 4.0435V7.39314L12.7031 8.79939ZM14.6493 2.90443L12 4.22907L9.35067 2.90443L12 1.57389L14.6493 2.90443ZM8.48438 7.39314V4.0435L11.2969 5.44975V8.79939L8.48438 7.39314ZM5.625 20.484C5.625 21.6471 4.67873 22.5933 3.51562 22.5933C2.35252 22.5933 1.40625 21.6471 1.40625 20.484C1.40625 19.3209 2.35252 18.3746 3.51562 18.3746C4.67873 18.3746 5.625 19.3209 5.625 20.484ZM14.1094 20.484C14.1094 21.6471 13.1631 22.5933 12 22.5933C10.8369 22.5933 9.89062 21.6471 9.89062 20.484C9.89062 19.3209 10.8369 18.3746 12 18.3746C13.1631 18.3746 14.1094 19.3209 14.1094 20.484ZM20.4844 22.5933C19.3213 22.5933 18.375 21.6471 18.375 20.484C18.375 19.3209 19.3213 18.3746 20.4844 18.3746C21.6475 18.3746 22.5938 19.3209 22.5938 20.484C22.5938 21.6471 21.6475 22.5933 20.4844 22.5933Z" fill="black"/>
</svg>
