<svg width="30" height="30" viewBox="0 0 30 30" fill="none" xmlns="http://www.w3.org/2000/svg">
<g clip-path="url(#clip0_379_130214)">
<path d="M28.9705 16.9672C27.5997 15.5964 25.3693 15.5964 23.9994 16.9663L17.5655 23.3857C17.4289 23.5221 17.3282 23.6901 17.2721 23.8748L15.8709 28.4874C15.7466 28.8964 15.8551 29.3405 16.1533 29.6465C16.377 29.8756 16.6807 30.0001 16.9924 30.0001C17.0966 30.0001 17.2018 29.9861 17.3051 29.9573L22.0351 28.6472C22.2297 28.5932 22.4071 28.49 22.5501 28.3474L28.9705 21.9392C30.341 20.5682 30.341 18.3379 28.9705 16.9672ZM21.1125 26.4708L18.7328 27.1299L19.4293 24.8372L23.7703 20.5057L25.4281 22.1632L21.1125 26.4708ZM27.3138 20.2809L27.0868 20.5075L25.4295 18.8502L25.6558 18.6243C26.1127 18.1674 26.8561 18.1674 27.3132 18.6243C27.77 19.0813 27.77 19.8248 27.3138 20.2809ZM13.418 28.828C13.418 29.4753 12.8934 29.9999 12.2461 29.9999H4.6875C2.10297 29.9999 0 27.8972 0 25.3124V4.68748C0 2.10273 2.10297 0 4.6875 0H19.0952C21.6799 0 23.7827 2.10273 23.7827 4.68748V13.7109C23.7827 14.3582 23.2581 14.8828 22.6108 14.8828C21.9635 14.8828 21.4389 14.3582 21.4389 13.7109V4.68748C21.4389 3.39522 20.3874 2.34374 19.0952 2.34374H4.6875C3.39523 2.34374 2.34375 3.39522 2.34375 4.68748V25.3124C2.34375 26.6047 3.39523 27.6561 4.6875 27.6561H12.2461C12.8934 27.6561 13.418 28.1807 13.418 28.828ZM19.1016 8.73043C19.1016 9.37771 18.577 9.9023 17.9297 9.9023H14.4727C13.8254 9.9023 13.3008 9.37771 13.3008 8.73043C13.3008 8.08316 13.8254 7.55856 14.4727 7.55856H17.9297C18.577 7.55856 19.1016 8.08316 19.1016 8.73043ZM12.0364 6.31277L9.3013 9.62307C8.9447 10.0627 8.4169 10.336 7.85179 10.3738C7.80693 10.3768 7.76184 10.3784 7.71698 10.3784C7.19559 10.3784 6.68839 10.1772 6.30867 9.81556C6.29791 9.80549 6.28738 9.79496 6.27686 9.7842L5.01984 8.49331C4.56825 8.0296 4.57832 7.2878 5.04181 6.83622C5.50552 6.38463 6.24733 6.39448 6.69891 6.85819L7.69798 7.88403L10.2294 4.82C10.6416 4.32104 11.3805 4.25078 11.8792 4.66299C12.3782 5.07521 12.4484 5.8138 12.0364 6.31277ZM17.9297 17.1093H14.4727C13.8254 17.1093 13.3008 16.5847 13.3008 15.9374C13.3008 15.2902 13.8254 14.7656 14.4727 14.7656H17.9297C18.577 14.7656 19.1016 15.2902 19.1016 15.9374C19.1016 16.5847 18.577 17.1093 17.9297 17.1093ZM12.0364 13.5124L9.3013 16.823C8.9447 17.2624 8.4169 17.5359 7.85179 17.5735C7.80693 17.5765 7.76184 17.5781 7.71698 17.5781C7.19536 17.5781 6.68839 17.3769 6.30844 17.0152C6.2986 17.0059 6.28876 16.9962 6.27914 16.9864L5.02213 15.7026C4.5694 15.2403 4.57718 14.4982 5.03952 14.0455C5.50186 13.5926 6.2439 13.6003 6.69662 14.0629L7.6973 15.0846L10.2294 12.0197C10.6416 11.5207 11.3805 11.4507 11.8792 11.8627C12.3782 12.2749 12.4484 13.0135 12.0364 13.5124ZM12.0364 20.6023L9.3013 23.9128C8.9447 24.3522 8.4169 24.6258 7.85179 24.6633C7.80693 24.6663 7.76184 24.6679 7.71698 24.6679C7.19536 24.6679 6.68839 24.4667 6.30844 24.1051C6.2986 24.0957 6.28876 24.0861 6.27914 24.0762L5.02213 22.7924C4.5694 22.3301 4.57718 21.588 5.03952 21.1353C5.50186 20.6824 6.2439 20.6901 6.69662 21.1527L7.6973 22.1744L10.2294 19.1095C10.6416 18.6105 11.3805 18.5405 11.8792 18.9525C12.3782 19.3647 12.4484 20.1033 12.0364 20.6023Z" fill="black"/>
</g>
<defs>
<clipPath id="clip0_379_130214">
<rect width="30" height="30" fill="white"/>
</clipPath>
</defs>
</svg>
