<svg width="59" height="40" viewBox="0 0 59 40" fill="none" xmlns="http://www.w3.org/2000/svg">
<rect width="59" height="40" rx="5" fill="#DB1F35"/>
<g clip-path="url(#clip0_126_44875)">
<path d="M37.9435 8.52954H36.1788V10.2942H34.4141V12.059H36.1788V13.8237H37.9435V12.059H39.7082V10.2942H37.9435V8.52954Z" fill="white"/>
<path d="M43.2362 11.1765C43.2362 7.77076 40.4654 5 37.0597 5C33.3002 5 30.4124 8.341 30.9466 12.0588H29.1186V10.2941H27.3539V12.0588H25.5892V10.2941H23.8244V12.0588H22.0597V10.2941H20.295V12.0588H16.7656V35H37.9421V17.2896C40.9313 16.8602 43.2362 14.2826 43.2362 11.1765ZM18.5303 33.2353V13.8235H20.295V15.5882H22.0597V13.8235H23.8244V15.5882H25.5892V13.8235H27.3539V15.5882H29.1186V13.8235H31.48C32.3521 15.6544 34.0993 16.9911 36.1774 17.2896V33.2353H18.5303ZM37.0597 15.5882C34.6271 15.5882 32.648 13.6091 32.648 11.1765C32.648 8.74382 34.6271 6.7647 37.0597 6.7647C39.4924 6.7647 41.4715 8.74382 41.4715 11.1765C41.4715 13.6091 39.4924 15.5882 37.0597 15.5882Z" fill="white"/>
<path d="M20.2969 18.2354H32.6498V20.0001H20.2969V18.2354Z" fill="white"/>
<path d="M20.2969 21.7646H28.238V23.5294H20.2969V21.7646Z" fill="white"/>
<path d="M30 21.7646H34.4118V23.5294H30V21.7646Z" fill="white"/>
<path d="M20.2969 25.2942H23.8263V27.0589H20.2969V25.2942Z" fill="white"/>
<path d="M25.5898 25.2942H29.1192V27.0589H25.5898V25.2942Z" fill="white"/>
<path d="M30.8828 25.2942H34.4122V27.0589H30.8828V25.2942Z" fill="white"/>
<path d="M20.2969 28.8235H23.8263V30.5882H20.2969V28.8235Z" fill="white"/>
<path d="M25.5898 28.8235H29.1192V30.5882H25.5898V28.8235Z" fill="white"/>
<path d="M30.8828 28.8235H34.4122V30.5882H30.8828V28.8235Z" fill="white"/>
</g>
<defs>
<clipPath id="clip0_126_44875">
<rect width="30" height="30" fill="white" transform="translate(15 5)"/>
</clipPath>
</defs>
</svg>
