<svg width="20" height="24" viewBox="0 0 20 24" fill="none" xmlns="http://www.w3.org/2000/svg">
<path d="M17.875 3H13.75V2.25C13.75 1.00936 12.7406 0 11.5 0H8.5C7.25936 0 6.25 1.00936 6.25 2.25V3H2.125C1.09113 3 0.25 3.84113 0.25 4.875V7.5C0.25 7.91419 0.585812 8.25 1 8.25H1.40988L2.05783 21.857C2.11506 23.0587 3.10225 24 4.30525 24H15.6947C16.8978 24 17.885 23.0587 17.9422 21.857L18.5901 8.25H19C19.4142 8.25 19.75 7.91419 19.75 7.5V4.875C19.75 3.84113 18.9089 3 17.875 3ZM7.75 2.25C7.75 1.83647 8.08647 1.5 8.5 1.5H11.5C11.9135 1.5 12.25 1.83647 12.25 2.25V3H7.75V2.25ZM1.75 4.875C1.75 4.66823 1.91823 4.5 2.125 4.5H17.875C18.0818 4.5 18.25 4.66823 18.25 4.875V6.75C18.0189 6.75 2.7078 6.75 1.75 6.75V4.875ZM16.4439 21.7857C16.4248 22.1862 16.0957 22.5 15.6947 22.5H4.30525C3.90423 22.5 3.57517 22.1862 3.55614 21.7857L2.91156 8.25H17.0884L16.4439 21.7857Z" fill="white"/>
<path d="M10 21C10.4142 21 10.75 20.6642 10.75 20.25V10.5C10.75 10.0858 10.4142 9.75 10 9.75C9.58581 9.75 9.25 10.0858 9.25 10.5V20.25C9.25 20.6642 9.58577 21 10 21Z" fill="white"/>
<path d="M13.75 21C14.1642 21 14.5 20.6642 14.5 20.25V10.5C14.5 10.0858 14.1642 9.75 13.75 9.75C13.3358 9.75 13 10.0858 13 10.5V20.25C13 20.6642 13.3358 21 13.75 21Z" fill="white"/>
<path d="M6.25 21C6.66419 21 7 20.6642 7 20.25V10.5C7 10.0858 6.66419 9.75 6.25 9.75C5.83581 9.75 5.5 10.0858 5.5 10.5V20.25C5.5 20.6642 5.83577 21 6.25 21Z" fill="white"/>
</svg>
