<svg width="17" height="17" viewBox="0 0 17 17" fill="none" xmlns="http://www.w3.org/2000/svg">
<g clip-path="url(#clip0_8835_363510)">
<path d="M13.695 2.43622H10.9725V1.93849C10.9725 1.11516 10.3063 0.445312 9.4875 0.445312H7.5075C6.68868 0.445312 6.0225 1.11516 6.0225 1.93849V2.43622H3.3C2.61764 2.43622 2.0625 2.99442 2.0625 3.68054V5.42258C2.0625 5.69745 2.28414 5.92031 2.5575 5.92031H2.82802L3.25567 14.9504C3.29344 15.7479 3.94498 16.3726 4.73897 16.3726H12.256C13.05 16.3726 13.7016 15.7479 13.7393 14.9504L14.167 5.92031H14.4375C14.7109 5.92031 14.9325 5.69745 14.9325 5.42258V3.68054C14.9325 2.99442 14.3774 2.43622 13.695 2.43622ZM7.0125 1.93849C7.0125 1.66406 7.23457 1.44077 7.5075 1.44077H9.4875C9.76043 1.44077 9.9825 1.66406 9.9825 1.93849V2.43622H7.0125V1.93849ZM3.0525 3.68054C3.0525 3.54332 3.16353 3.43168 3.3 3.43168H13.695C13.8315 3.43168 13.9425 3.54332 13.9425 3.68054V4.92486C13.7899 4.92486 3.68465 4.92486 3.0525 4.92486V3.68054ZM12.7504 14.9031C12.7379 15.1689 12.5207 15.3771 12.256 15.3771H4.73897C4.47429 15.3771 4.25711 15.1689 4.24455 14.9031L3.81913 5.92031H13.1759L12.7504 14.9031Z" fill="black" fill-opacity="0.3"/>
<path d="M8.495 14.38C8.76836 14.38 8.99 14.1571 8.99 13.8822V7.41179C8.99 7.13692 8.76836 6.91406 8.495 6.91406C8.22164 6.91406 8 7.13692 8 7.41179V13.8822C8 14.1571 8.22161 14.38 8.495 14.38Z" fill="black" fill-opacity="0.3"/>
<path d="M10.9716 14.38C11.2449 14.38 11.4666 14.1571 11.4666 13.8822V7.41179C11.4666 7.13692 11.2449 6.91406 10.9716 6.91406C10.6982 6.91406 10.4766 7.13692 10.4766 7.41179V13.8822C10.4766 14.1571 10.6982 14.38 10.9716 14.38Z" fill="black" fill-opacity="0.3"/>
<path d="M6.02625 14.38C6.29961 14.38 6.52125 14.1571 6.52125 13.8822V7.41179C6.52125 7.13692 6.29961 6.91406 6.02625 6.91406C5.75289 6.91406 5.53125 7.13692 5.53125 7.41179V13.8822C5.53125 14.1571 5.75286 14.38 6.02625 14.38Z" fill="black" fill-opacity="0.3"/>
</g>
<defs>
<clipPath id="clip0_8835_363510">
<rect width="15.84" height="15.9273" fill="white" transform="translate(0.578125 0.445312)"/>
</clipPath>
</defs>
</svg>
