<svg width="59" height="40" viewBox="0 0 59 40" fill="none" xmlns="http://www.w3.org/2000/svg">
<rect width="59" height="40" rx="5" fill="#DB1F35"/>
<path d="M29 33.125C26.4041 33.125 23.8665 32.3552 21.7081 30.913C19.5497 29.4708 17.8675 27.421 16.8741 25.0227C15.8807 22.6244 15.6208 19.9854 16.1272 17.4394C16.6336 14.8934 17.8837 12.5548 19.7192 10.7192C21.5548 8.88366 23.8934 7.63363 26.4394 7.1272C28.9854 6.62077 31.6244 6.88069 34.0227 7.87409C36.421 8.86749 38.4708 10.5497 39.913 12.7081C41.3552 14.8665 42.125 17.4041 42.125 20C42.125 23.481 40.7422 26.8194 38.2808 29.2808C35.8194 31.7422 32.481 33.125 29 33.125ZM29 8.75001C26.775 8.75001 24.5999 9.40981 22.7498 10.646C20.8998 11.8821 19.4578 13.6391 18.6064 15.6948C17.7549 17.7505 17.5321 20.0125 17.9662 22.1948C18.4003 24.3771 19.4717 26.3816 21.0451 27.955C22.6184 29.5283 24.623 30.5997 26.8052 31.0338C28.9875 31.4679 31.2495 31.2451 33.3052 30.3936C35.3609 29.5422 37.1179 28.1002 38.354 26.2502C39.5902 24.4001 40.25 22.225 40.25 20C40.25 17.0163 39.0647 14.1548 36.955 12.0451C34.8452 9.93527 31.9837 8.75001 29 8.75001ZM30.3219 20L35.2906 15.0406C35.378 14.9532 35.4474 14.8494 35.4947 14.7352C35.542 14.621 35.5663 14.4986 35.5663 14.375C35.5663 14.2514 35.542 14.129 35.4947 14.0148C35.4474 13.9006 35.378 13.7968 35.2906 13.7094C35.2032 13.622 35.0994 13.5526 34.9852 13.5053C34.871 13.458 34.7486 13.4337 34.625 13.4337C34.5014 13.4337 34.379 13.458 34.2648 13.5053C34.1506 13.5526 34.0468 13.622 33.9594 13.7094L29 18.6781L24.0406 13.7094C23.8641 13.5328 23.6247 13.4337 23.375 13.4337C23.1253 13.4337 22.8859 13.5328 22.7094 13.7094C22.5328 13.8859 22.4337 14.1253 22.4337 14.375C22.4337 14.6247 22.5328 14.8641 22.7094 15.0406L27.6781 20L22.7094 24.9594C22.6215 25.0465 22.5518 25.1502 22.5042 25.2645C22.4566 25.3787 22.4321 25.5012 22.4321 25.625C22.4321 25.7488 22.4566 25.8713 22.5042 25.9855C22.5518 26.0998 22.6215 26.2035 22.7094 26.2906C22.7965 26.3785 22.9002 26.4482 23.0145 26.4958C23.1287 26.5434 23.2512 26.5679 23.375 26.5679C23.4988 26.5679 23.6213 26.5434 23.7355 26.4958C23.8498 26.4482 23.9535 26.3785 24.0406 26.2906L29 21.3219L33.9594 26.2906C34.0465 26.3785 34.1502 26.4482 34.2645 26.4958C34.3787 26.5434 34.5012 26.5679 34.625 26.5679C34.7488 26.5679 34.8713 26.5434 34.9855 26.4958C35.0998 26.4482 35.2035 26.3785 35.2906 26.2906C35.3785 26.2035 35.4482 26.0998 35.4958 25.9855C35.5434 25.8713 35.5679 25.7488 35.5679 25.625C35.5679 25.5012 35.5434 25.3787 35.4958 25.2645C35.4482 25.1502 35.3785 25.0465 35.2906 24.9594L30.3219 20Z" fill="white"/>
</svg>
