<svg width="15" height="15" viewBox="0 0 17 17" fill="none" xmlns="http://www.w3.org/2000/svg">
<g clip-path="url(#clip0_8835_363504)">
<path d="M4.95845 16.5569L4.45312 16.049L5.83916 14.6554L4.45312 13.2619L4.95845 12.7539L6.84954 14.6554L4.95845 16.5569Z" fill="black" fill-opacity="0.3"/>
<path d="M6.34765 15.0148H4.55938C2.391 15.0148 0.625 13.2391 0.625 11.0588V10.6992H1.34041V11.0588C1.34041 12.8435 2.78447 14.2955 4.55938 14.2955H6.34765V15.0148Z" fill="black" fill-opacity="0.3"/>
<path d="M16.3635 16.4517H7.42188V7.46094H16.3635V16.4517ZM8.13716 15.7325H15.6481V8.18016H8.13716V15.7325Z" fill="black" fill-opacity="0.3"/>
<path d="M8.03308 13.8327L7.52344 13.3201L10.6396 10.1914L12.7856 12.3492L14.2163 10.9106L16.2593 12.9606L15.7497 13.473L14.2163 11.9266L12.7856 13.3652L10.6396 11.2074L8.03308 13.8327Z" fill="black" fill-opacity="0.3"/>
<path d="M7.77836 9.61979H0.625V0.628906H9.56664V7.82154H8.85135V1.34813H1.34041V8.90044H7.77836V9.61979Z" fill="black" fill-opacity="0.3"/>
</g>
<defs>
<clipPath id="clip0_8835_363504">
<rect width="15.84" height="15.9273" fill="white" transform="translate(0.578125 0.628906)"/>
</clipPath>
</defs>
</svg>
