<svg width="28" height="31" viewBox="0 0 28 31" fill="none" xmlns="http://www.w3.org/2000/svg">
<path d="M13.6035 0C8.93945 0 5.14844 3.79102 5.14844 8.45508C5.14844 13.1191 8.93945 16.9102 13.6035 16.9102C18.2676 16.9102 22.0586 13.1191 22.0586 8.45508C22.0586 3.79102 18.2676 0 13.6035 0ZM13.6035 13.9746C10.5566 13.9746 8.07813 11.4961 8.07813 8.44922C8.07813 5.40234 10.5625 2.92969 13.6035 2.92969C16.6445 2.92969 19.1289 5.4082 19.1289 8.45508C19.1289 11.502 16.6504 13.9746 13.6035 13.9746Z" fill="#DB1F35"/>
<path d="M27.0779 24.8789C26.3161 22.0722 24.7224 19.6054 22.4665 17.7539C21.8396 17.2383 20.9197 17.332 20.404 17.9531C19.8884 18.5801 19.9822 19.5 20.6032 20.0156C22.3845 21.4863 23.6501 23.4316 24.2478 25.6465C24.3708 26.1094 24.1775 26.4492 24.0544 26.6191C23.8318 26.9062 23.4978 27.0761 23.1345 27.0761C22.3259 27.0761 21.6697 27.7324 21.6697 28.541C21.6697 29.3496 22.3259 30.0058 23.1345 30.0058C24.4177 30.0058 25.6013 29.4199 26.3806 28.4004C27.154 27.3867 27.4118 26.1035 27.0779 24.8789Z" fill="#DB1F35"/>
<path d="M17.8725 27.0702H4.07371C3.58153 27.0702 3.29442 26.789 3.16551 26.6191C2.94285 26.3261 2.87254 25.9569 2.97215 25.6054C3.57567 23.414 4.82957 21.4804 6.59324 20.0273C7.21434 19.5116 7.30809 18.5917 6.79246 17.9648C6.27684 17.3378 5.35692 17.2499 4.72996 17.7655C2.49754 19.6112 0.90965 22.0487 0.147931 24.8319C-0.191913 26.0741 0.0600404 27.3749 0.839337 28.4003C1.60692 29.414 2.79051 29.9999 4.07371 29.9999H17.8725C18.6811 29.9999 19.3374 29.3437 19.3374 28.5351C19.3374 27.7265 18.6811 27.0702 17.8725 27.0702Z" fill="#DB1F35"/>
</svg>
