<svg width="56" height="57" viewBox="0 0 56 47" fill="none" xmlns="http://www.w3.org/2000/svg">
<g filter="url(#filter0_d_724_169277)">
<rect x="5.5" y="2.49994" width="45" height="45" rx="5" fill="#DB1F35"/>
</g>
<path d="M28.0002 10.3737C19.9234 10.3737 13.3752 16.9219 13.3752 24.9987C13.3752 33.0755 19.9234 39.6237 28.0002 39.6237C36.077 39.6237 42.6252 33.0755 42.6252 24.9987C42.6252 16.9219 36.077 10.3737 28.0002 10.3737Z" fill="white" stroke="#DB1F35" stroke-width="0.75" stroke-miterlimit="10"/>
<path d="M28.0001 10.3737C23.9171 10.3737 20.078 16.9219 20.078 24.9987C20.078 33.0755 23.9171 39.6237 28.0001 39.6237C32.0832 39.6237 35.9222 33.0755 35.9222 24.9987C35.9222 16.9219 32.0832 10.3737 28.0001 10.3737Z" fill="white" stroke="#DB1F35" stroke-width="0.75" stroke-miterlimit="10"/>
<path d="M18.2499 15.2488C20.9386 17.1578 24.3235 18.2961 28.0001 18.2961C31.6767 18.2961 35.0616 17.1578 37.7503 15.2488" fill="white"/>
<path d="M18.2499 15.2488C20.9386 17.1578 24.3235 18.2961 28.0001 18.2961C31.6767 18.2961 35.0616 17.1578 37.7503 15.2488" stroke="#DB1F35" stroke-width="0.75" stroke-linecap="round" stroke-linejoin="round"/>
<path d="M37.7503 34.751C35.0616 32.842 31.6767 31.7037 28.0001 31.7037C24.3235 31.7037 20.9386 32.842 18.2499 34.751" stroke="#DB1F35" stroke-width="0.75" stroke-linecap="round" stroke-linejoin="round"/>
<path d="M28.0001 10.3737V39.6237" stroke="#DB1F35" stroke-width="0.75" stroke-miterlimit="10"/>
<path d="M42.6252 24.9983H13.3752" stroke="#DB1F35" stroke-width="0.75" stroke-miterlimit="10"/>
<defs>
<filter id="filter0_d_724_169277" x="-4.76837e-07" y="0.499939" width="56" height="56" filterUnits="userSpaceOnUse" color-interpolation-filters="sRGB">
<feFlood flood-opacity="0" result="BackgroundImageFix"/>
<feColorMatrix in="SourceAlpha" type="matrix" values="0 0 0 0 0 0 0 0 0 0 0 0 0 0 0 0 0 0 127 0" result="hardAlpha"/>
<feOffset dy="3.5"/>
<feGaussianBlur stdDeviation="2.75"/>
<feColorMatrix type="matrix" values="0 0 0 0 0 0 0 0 0 0 0 0 0 0 0 0 0 0 0.02 0"/>
<feBlend mode="normal" in2="BackgroundImageFix" result="effect1_dropShadow_724_169277"/>
<feBlend mode="normal" in="SourceGraphic" in2="effect1_dropShadow_724_169277" result="shape"/>
</filter>
</defs>
</svg>
