<svg width="30" height="30" viewBox="0 0 30 30" fill="none" xmlns="http://www.w3.org/2000/svg">
<g clip-path="url(#clip0_424_106592)">
<path d="M8.67209 22.2256C7.36141 22.1586 7.38609 20.3151 8.67203 20.2511C12.3147 20.2638 21.9225 20.2545 25.681 20.2571C26.709 20.2571 27.5885 19.5576 27.8197 18.556L29.9539 9.31434C30.0761 8.78519 29.9527 8.23751 29.6155 7.81184C29.2783 7.38616 28.7735 7.13859 28.2305 7.13859C26.7185 7.13859 13.884 7.08049 7.31023 7.05429L6.26817 3.1878C6.01802 2.26381 5.17482 1.61853 4.21759 1.61853H0.879373C0.393725 1.61853 0 2.01226 0 2.4979C0 2.98355 0.393725 3.37728 0.879373 3.37728H4.21759C4.38239 3.37728 4.52748 3.48837 4.57034 3.64648L8.57237 18.4948C7.86869 18.5203 7.21327 18.8065 6.71624 19.3108C6.19401 19.8408 5.91355 20.5423 5.92651 21.2862C5.95242 22.7739 7.18407 23.9843 8.67209 23.9843H9.95433C9.76374 24.3843 9.65675 24.8316 9.65675 25.3034C9.65675 27.0006 11.0375 28.3813 12.7347 28.3813C14.4319 28.3813 15.8126 27.0006 15.8126 25.3034C15.8126 24.8315 15.7056 24.3843 15.515 23.9843H21.0677C20.8773 24.3842 20.7703 24.8312 20.7703 25.3029C20.7703 27.0001 22.1511 28.3808 23.8482 28.3808C25.5454 28.3808 26.9262 27.0001 26.9262 25.3029C26.9262 24.8129 26.8105 24.3495 26.6059 23.9378C26.9538 23.8207 27.2048 23.4924 27.2048 23.105C27.2048 22.6193 26.811 22.2256 26.3254 22.2256H8.67209ZM14.0538 25.3035C14.0538 26.0309 13.462 26.6226 12.7346 26.6226C12.0072 26.6226 11.4154 26.0309 11.4154 25.3035C11.4154 24.5764 12.0066 23.9849 12.7335 23.9843H12.7357C13.4626 23.9849 14.0538 24.5764 14.0538 25.3035ZM23.8483 26.6222C23.1209 26.6222 22.5291 26.0303 22.5291 25.303C22.5291 24.5828 23.1093 23.9959 23.8269 23.9843H23.8697C24.5873 23.9959 25.1675 24.5828 25.1675 25.303C25.1675 26.0303 24.5757 26.6222 23.8483 26.6222ZM28.2369 8.90379C28.2421 8.91035 28.2414 8.91346 28.2403 8.9185L27.341 12.8127H24.2959L24.8145 8.88344L28.2234 8.89716C28.2286 8.89728 28.2318 8.89728 28.2369 8.90379ZM19.1709 18.4983V14.5714H22.2898L21.7716 18.4983H19.1709ZM14.8102 18.4983L14.2878 14.5714H17.4121V18.4983H14.8102ZM10.762 18.4983H10.7593C10.5449 18.4983 10.3561 18.3537 10.3003 18.1478L9.33642 14.5714H12.5135L13.0359 18.4983H10.762ZM14.0537 12.8127L13.5249 8.83801L17.4121 8.85366V12.8127H14.0537ZM19.1709 12.8127V8.86076L23.0414 8.87635L22.5219 12.8127H19.1709ZM11.7497 8.8308L12.2795 12.8127H8.86238L7.78486 8.81479L11.7497 8.8308ZM25.681 18.4983H23.5455L24.0638 14.5714H26.9348L26.106 18.1602C26.0601 18.3593 25.8853 18.4983 25.681 18.4983Z" fill="black"/>
</g>
<defs>
<clipPath id="clip0_424_106592">
<rect width="30" height="30" fill="white"/>
</clipPath>
</defs>
</svg>
