<svg width="50" height="50" viewBox="0 0 50 50" fill="none" xmlns="http://www.w3.org/2000/svg">
<path d="M45.3125 0H20.3125C18.2755 0 16.5387 1.22471 15.8938 2.92969H4.6875C2.10281 2.92969 0 4.90107 0 7.32422V45.6055C0 48.0286 2.10281 50 4.6875 50H29.6875C32.2722 50 34.375 48.0286 34.375 45.6055V20.5078H45.3125C47.8972 20.5078 50 18.5364 50 16.1133V4.39453C50 1.97139 47.8972 0 45.3125 0ZM3.125 7.32422C3.125 6.5165 3.82594 5.85938 4.6875 5.85938H15.625V8.78906H3.125V7.32422ZM3.125 11.7188H15.625V16.1133C15.625 18.5364 17.7278 20.5078 20.3125 20.5078H21.875V24.9023C21.875 26.1699 23.4759 26.8302 24.4755 25.9972L29.7307 21.6179C30.1793 21.244 30.6956 20.9589 31.2499 20.7708V35.3516H3.125V11.7188ZM31.25 45.6055C31.25 46.4132 30.5491 47.0703 29.6875 47.0703H4.6875C3.82594 47.0703 3.125 46.4132 3.125 45.6055V38.2812H31.25V45.6055ZM46.875 16.1133C46.875 16.921 46.1741 17.5781 45.3125 17.5781H32.845C32.8375 17.5781 32.8301 17.5786 32.8226 17.5786C32.8192 17.5786 32.8159 17.5781 32.8125 17.5781C32.8034 17.5781 32.7947 17.5793 32.7856 17.5794C30.8916 17.5929 29.0714 18.2475 27.6546 19.4281L25 21.6403V19.043C25 18.234 24.3004 17.5781 23.4375 17.5781H20.3125C19.4509 17.5781 18.75 16.921 18.75 16.1133V4.39453C18.75 3.58682 19.4509 2.92969 20.3125 2.92969H45.3125C46.1741 2.92969 46.875 3.58682 46.875 4.39453V16.1133Z" fill="#DB1F35"/>
</svg>
