<svg width="30" height="30" viewBox="0 0 30 30" fill="none" xmlns="http://www.w3.org/2000/svg">
<path d="M22.2471 17.6995L19.0563 16.1041C21.3071 14.2429 22.9102 10.8659 22.9102 7.91016C22.9102 3.5485 19.3617 0 15 0C10.6383 0 7.08984 3.5485 7.08984 7.91016C7.08984 10.8656 8.69297 14.243 10.9437 16.1041L7.75289 17.6995C4.4601 17.8137 1.81641 20.5276 1.81641 23.8477V29.1211C1.81641 29.6065 2.20992 30 2.69531 30H27.3047C27.7901 30 28.1836 29.6065 28.1836 29.1211V23.8477C28.1836 20.5276 25.5399 17.8137 22.2471 17.6995ZM20.7476 18.9151L18.2147 22.7146L16.2836 21.749L18.8165 17.9496L20.7476 18.9151ZM15 1.75781C18.094 1.75781 20.6615 4.05375 21.0893 7.03125H20.2734C18.8196 7.03125 17.6367 5.84842 17.6367 4.39453C17.6367 3.90914 17.2432 3.51562 16.7578 3.51562C16.2724 3.51562 15.8789 3.90914 15.8789 4.39453C15.8789 5.84842 14.6961 7.03125 13.2422 7.03125H8.9107C9.3385 4.05375 11.906 1.75781 15 1.75781ZM11.1834 17.9495L13.7164 21.7489L11.7853 22.7145L9.25231 18.9151L11.1834 17.9495ZM14.1211 28.2422H3.57422V23.8477C3.57422 21.578 5.30373 19.7049 7.51406 19.4766L10.7531 24.3352C10.9991 24.7042 11.4813 24.8319 11.8774 24.6337L14.1211 23.512V28.2422ZM12.7703 17.1608C13.2183 16.5974 13.1778 15.7896 12.6686 15.2756C12.6686 15.2756 12.6685 15.2756 12.6685 15.2755C12.5763 15.1825 12.4054 15.0142 12.2967 14.933C10.5537 13.6298 9.19148 11.1095 8.90449 8.78906H13.2422C14.6781 8.78906 15.9554 8.09684 16.7578 7.0285C17.5603 8.09684 18.8375 8.7832 20.2734 8.7832H21.0956C20.8085 11.1046 19.4456 13.6314 17.7016 14.9343C17.5935 15.0151 17.4232 15.1826 17.3313 15.2752C16.8198 15.7913 16.7829 16.6 17.2295 17.1611L15 20.5054L12.7703 17.1608ZM26.4258 28.2422H15.8789V23.512L18.1226 24.6338C18.5191 24.832 19.0011 24.7039 19.2469 24.3352L22.4859 19.4767C24.6963 19.7049 26.4258 21.578 26.4258 23.8477V28.2422Z" fill="black"/>
<path d="M23.7891 24.7266H20.2734C19.788 24.7266 19.3945 25.1201 19.3945 25.6055C19.3945 26.0909 19.788 26.4844 20.2734 26.4844H23.7891C24.2745 26.4844 24.668 26.0909 24.668 25.6055C24.668 25.1201 24.2745 24.7266 23.7891 24.7266Z" fill="black"/>
</svg>
