<svg width="50" height="39" viewBox="0 0 50 39" fill="none" xmlns="http://www.w3.org/2000/svg">
<path d="M49.8272 14.0041L46.1071 6.74887C45.9071 6.3587 45.5653 6.08145 45.1719 5.95453L45.1721 5.95378L27.4208 0.233803C27.1162 0.135726 26.7893 0.131132 26.4818 0.220769L6.94121 5.92066L6.94142 5.92152C6.66557 6.00197 6.41012 6.15603 6.20724 6.37793L0.411509 12.7175C-0.315307 13.5124 -0.0421232 14.8278 0.938219 15.2678L17.1759 22.556C17.8526 22.8598 18.6701 22.6473 19.1142 22.0535L21.7966 18.467V35.0574L8.99239 30.1287V21.7568H5.7864V31.232C5.7864 31.8967 6.19516 32.4927 6.8145 32.7311L22.8247 38.8938C23.1483 39.0184 23.5118 39.034 23.8447 38.9375L45.1265 32.7748C45.8123 32.5762 46.2844 31.9473 46.2844 31.232V26.739H43.0784V30.0244L25.0026 35.2587V18.0491L28.4295 22.1302C28.8498 22.6307 29.5515 22.8275 30.1703 22.6175L48.9157 16.259C49.8283 15.9494 50.2686 14.8648 49.8272 14.0041ZM26.9066 3.44224L39.1913 7.40068L23.4725 11.9525L12.3958 7.67494L26.9066 3.44224ZM17.3171 19.0997L4.27561 13.2462L7.83298 9.35506L20.8466 14.3806L17.3171 19.0997ZM30.1783 19.2237L26.2138 14.5022L43.8585 9.39267L46.1257 13.8144L30.1783 19.2237Z" fill="#DB1F35"/>
</svg>
