<svg width="50" height="50" viewBox="0 0 50 50" fill="none" xmlns="http://www.w3.org/2000/svg">
<path d="M1.25767 17.8247C1.29393 17.8247 1.33019 17.8236 1.36701 17.8203C1.71646 17.7884 6.99833 17.2807 12.5659 14.9011C12.4307 15.0588 12.2895 15.2077 12.1593 15.3758C9.15492 19.2593 8.58074 24.884 10.4538 32.0917C13.7807 44.8906 20.7637 49.4505 26.1906 49.4505C28.4291 49.4505 30.4313 48.6637 31.8258 47.2362C33.0709 45.9604 33.7329 44.2362 33.689 42.3807C33.6648 41.3791 33.6483 40.484 33.6412 39.6747C35.6214 40.3274 37.5225 40.6159 39.2835 40.6148C42.9016 40.6148 45.9242 39.4148 47.7912 37.7329C49.5978 36.1066 50.2967 34.0835 49.7055 32.1835C49.1176 30.2862 48.572 29.5153 48.1335 28.8961C47.4928 27.9884 46.9379 27.2049 46.2895 20.6214C45.8588 16.2675 44.2176 13.0093 41.4082 10.9362C36.7159 7.47139 30.5346 8.67578 30.2736 8.72688C29.6148 8.8615 29.1906 9.5027 29.3231 10.1615C29.4549 10.8214 30.1011 11.2445 30.756 11.1153C30.8093 11.1055 36.1648 10.0813 39.9742 12.906C42.1967 14.5527 43.5049 17.2302 43.8632 20.8604C44.5412 27.7362 45.172 28.928 46.1445 30.3033C46.5346 30.8549 46.9033 31.3785 47.378 32.9066C47.6736 33.8593 47.2302 34.9587 46.1599 35.9219C43.8857 37.9708 39.0637 39.1357 33.6494 37.0895C33.7236 33.4307 34.0917 32.0598 34.8044 29.439C35.4703 26.9923 37.4956 19.545 33.9214 14.6005C32.0335 11.9906 28.9143 10.5033 24.6379 10.1428C25.5445 5.13567 28.7566 2.66479 28.9467 2.52358C29.4884 2.12798 29.6077 1.36809 29.2132 0.823584C28.817 0.279078 28.0555 0.1571 27.511 0.554903C27.3533 0.668639 25.1544 2.32303 23.5698 5.58512C23.022 5.58128 22.4945 5.58952 21.9835 5.6115C21.8868 5.46205 21.7654 5.32743 21.6022 5.22798C21.4401 5.13018 17.5544 2.82633 12.4209 4.25435C7.69998 5.56974 3.58074 9.53567 0.177448 16.0423C-0.0285965 16.4368 -0.00332173 16.9137 0.24503 17.284C0.471953 17.6247 0.853272 17.8247 1.25767 17.8247ZM31.9461 16.028C34.8406 20.0296 33.0434 26.6291 32.4527 28.7989C31.6066 31.9109 31.2357 33.5362 31.2016 37.8917V37.9214C31.1923 39.173 31.2104 40.6368 31.2538 42.4401C31.2824 43.6505 30.8774 44.7197 30.0824 45.5335C29.1505 46.4895 27.7687 47.0137 26.1912 47.0137C21.8813 47.0137 15.7934 42.9461 12.8126 31.4802C11.1395 25.0395 11.5687 20.1241 14.0862 16.867C16.3467 13.9439 19.8214 12.9835 21.9731 12.6675C21.9665 13.4868 21.995 14.3362 22.1099 15.2423C22.1873 15.8582 22.7115 16.3093 23.317 16.3093C23.3681 16.3093 23.4187 16.306 23.4703 16.2994C24.1368 16.2159 24.6121 15.6066 24.528 14.9384C24.422 14.0994 24.3956 13.3148 24.4077 12.5631C27.9445 12.8522 30.4873 14.0098 31.9461 16.028ZM22.1483 10.1934C21.4137 10.2818 20.4956 10.4412 19.4895 10.7181C20.3555 9.97963 21.1731 9.17249 21.9115 8.27798C21.9698 8.20655 22.0082 8.12468 22.0483 8.04556C22.2423 8.03677 22.4351 8.02798 22.634 8.02304C22.4357 8.70161 22.2637 9.41919 22.1483 10.1934ZM13.0269 6.61644C14.0318 6.33018 14.9747 6.22194 15.8274 6.22194C16.217 6.22194 16.584 6.24721 16.9335 6.28567C12.956 7.23347 10.9802 8.80216 10.8621 8.89886C10.3434 9.32303 10.267 10.0846 10.6879 10.6044C10.9291 10.9027 11.2807 11.056 11.6368 11.056C11.9044 11.056 12.1747 10.9692 12.3989 10.7895C12.4253 10.7675 14.3654 9.2604 18.3362 8.47688C13.7313 12.6406 7.06811 14.3769 3.54118 15.0335C6.33184 10.4395 9.51591 7.61205 13.0269 6.61644Z" fill="#DB1F35"/>
<path d="M16.9186 19.0084C16.2872 18.7627 15.5856 19.0776 15.3422 19.7045C12.6592 26.6265 15.0922 30.9793 15.1966 31.1611C15.4213 31.5518 15.8285 31.7677 16.2477 31.7677C16.4515 31.7677 16.6587 31.7177 16.8504 31.6084C17.4323 31.2798 17.6372 30.5375 17.3131 29.9523C17.2328 29.8089 15.3785 26.3529 17.6142 20.5858C17.857 19.9584 17.5449 19.2523 16.9186 19.0084Z" fill="#DB1F35"/>
</svg>
