<svg width="30" height="30" viewBox="0 0 30 30" fill="none" xmlns="http://www.w3.org/2000/svg">
<path d="M0.754967 10.6957C0.776725 10.6957 0.798483 10.695 0.820571 10.6931C1.03024 10.6739 4.19936 10.3693 7.53991 8.94151C7.45881 9.03613 7.37409 9.12547 7.29596 9.22635C5.49332 11.5565 5.14881 14.9313 6.27266 19.2559C8.26881 26.9353 12.4586 29.6712 15.7147 29.6712C17.0578 29.6712 18.2591 29.1991 19.0958 28.3426C19.8429 27.5771 20.2401 26.5426 20.2138 25.4293C20.1993 24.8283 20.1894 24.2913 20.1851 23.8057C21.3732 24.1973 22.5139 24.3704 23.5705 24.3698C25.7413 24.3698 27.5549 23.6498 28.6751 22.6406C29.759 21.6648 30.1784 20.451 29.8236 19.311C29.4709 18.1726 29.1435 17.7101 28.8805 17.3385C28.4961 16.7939 28.1631 16.3238 27.7741 12.3737C27.5156 9.7614 26.5309 7.80646 24.8453 6.56261C22.0299 4.48371 18.3211 5.20635 18.1645 5.23701C17.7693 5.31778 17.5147 5.7025 17.5942 6.09778C17.6733 6.49371 18.061 6.74756 18.454 6.67008C18.486 6.66415 21.6993 6.04965 23.9849 7.74448C25.3184 8.7325 26.1033 10.339 26.3183 12.5171C26.7251 16.6426 27.1035 17.3577 27.6871 18.1828C27.9211 18.5138 28.1423 18.828 28.4272 19.7448C28.6045 20.3165 28.3385 20.9761 27.6963 21.554C26.3318 22.7834 23.4386 23.4823 20.19 22.2546C20.2345 20.0593 20.4554 19.2368 20.883 17.6643C21.2826 16.1962 22.4977 11.7279 20.3532 8.76118C19.2205 7.19525 17.3489 6.30283 14.7831 6.08657C15.3271 3.08228 17.2543 1.59975 17.3684 1.51503C17.6934 1.27767 17.765 0.821733 17.5283 0.495029C17.2906 0.168326 16.8336 0.0951391 16.5069 0.33382C16.4123 0.402062 15.093 1.3947 14.1422 3.35195C13.8135 3.34964 13.4971 3.35459 13.1905 3.36778C13.1324 3.27811 13.0596 3.19734 12.9617 3.13767C12.8644 3.07899 10.533 1.69668 7.45288 2.55349C4.62035 3.34272 2.14881 5.72228 0.106835 9.62624C-0.0167917 9.86294 -0.00162682 10.1491 0.147384 10.3713C0.283538 10.5757 0.512329 10.6957 0.754967 10.6957ZM19.168 9.61767C20.9047 12.0187 19.8264 15.9783 19.472 17.2802C18.9643 19.1474 18.7418 20.1226 18.7213 22.7359V22.7537C18.7157 23.5047 18.7266 24.3829 18.7527 25.4649C18.7698 26.1912 18.5268 26.8327 18.0498 27.321C17.4907 27.8946 16.6616 28.2091 15.7151 28.2091C13.1291 28.2091 9.4764 25.7685 7.68793 18.889C6.68409 15.0246 6.94156 12.0754 8.45211 10.1211C9.80837 8.36723 11.8932 7.79096 13.1842 7.6014C13.1802 8.09294 13.1974 8.60261 13.2663 9.14624C13.3128 9.5158 13.6273 9.78646 13.9906 9.78646C14.0212 9.78646 14.0516 9.78448 14.0825 9.78053C14.4824 9.73042 14.7676 9.36481 14.7172 8.96393C14.6535 8.46052 14.6377 7.98976 14.645 7.53877C16.7671 7.71217 18.2928 8.40679 19.168 9.61767ZM13.2894 6.1169C12.8486 6.16997 12.2977 6.26558 11.6941 6.43173C12.2136 5.98866 12.7042 5.50437 13.1473 4.96767C13.1822 4.92481 13.2053 4.87569 13.2294 4.82822C13.3457 4.82294 13.4615 4.81767 13.5808 4.8147C13.4618 5.22184 13.3586 5.65239 13.2894 6.1169ZM7.8165 3.97074C8.41947 3.79899 8.98519 3.73404 9.49683 3.73404C9.73057 3.73404 9.95079 3.74921 10.1605 3.77228C7.77398 4.34096 6.58848 5.28217 6.5176 5.34019C6.2064 5.5947 6.16057 6.05162 6.4131 6.36349C6.55782 6.5425 6.76881 6.63448 6.98244 6.63448C7.14299 6.63448 7.30519 6.58239 7.43969 6.47459C7.45552 6.4614 8.61958 5.55712 11.0021 5.08701C8.23914 7.58525 4.24123 8.62701 2.12508 9.02096C3.79947 6.26459 5.70991 4.56811 7.8165 3.97074Z" fill="black"/>
<path d="M10.1495 11.4056C9.77073 11.2582 9.34974 11.4471 9.2037 11.8233C7.59392 15.9765 9.0537 18.5881 9.11634 18.6973C9.25117 18.9317 9.49546 19.0612 9.747 19.0612C9.86931 19.0612 9.99359 19.0312 10.1086 18.9656C10.4578 18.7685 10.5807 18.3231 10.3862 17.972C10.3381 17.8859 9.22546 15.8123 10.5669 12.3521C10.7126 11.9756 10.5253 11.552 10.1495 11.4056Z" fill="black"/>
</svg>
