<svg width="30" height="30" viewBox="0 0 30 30" fill="none" xmlns="http://www.w3.org/2000/svg">
<g clip-path="url(#clip0_379_6466)">
<path d="M11.5624 10.0001H2.18742C0.981216 10.0001 0 9.01886 0 7.81242V2.18742C0 0.981216 0.981216 0 2.18742 0H11.5624C12.7689 0 13.7501 0.981216 13.7501 2.18742V7.81242C13.7501 9.01886 12.7689 10.0001 11.5624 10.0001ZM2.18742 1.875C2.01508 1.875 1.875 2.01508 1.875 2.18742V7.81242C1.875 7.985 2.01508 8.12508 2.18742 8.12508H11.5624C11.735 8.12508 11.8751 7.985 11.8751 7.81242V2.18742C11.8751 2.01508 11.735 1.875 11.5624 1.875H2.18742Z" fill="black"/>
<path d="M11.5624 30.0001H2.18742C0.981216 30.0001 0 29.0189 0 27.8127V14.6877C0 13.4812 0.981216 12.5 2.18742 12.5H11.5624C12.7689 12.5 13.7501 13.4812 13.7501 14.6877V27.8127C13.7501 29.0189 12.7689 30.0001 11.5624 30.0001ZM2.18742 14.375C2.01508 14.375 1.875 14.5151 1.875 14.6877V27.8127C1.875 27.985 2.01508 28.1251 2.18742 28.1251H11.5624C11.735 28.1251 11.8751 27.985 11.8751 27.8127V14.6877C11.8751 14.5151 11.735 14.375 11.5624 14.375H2.18742Z" fill="black"/>
<path d="M27.8127 30.0001H18.4377C17.2312 30.0001 16.25 29.0189 16.25 27.8127V22.1877C16.25 20.9812 17.2312 20 18.4377 20H27.8127C29.0189 20 30.0001 20.9812 30.0001 22.1877V27.8127C30.0001 29.0189 29.0189 30.0001 27.8127 30.0001ZM18.4377 21.875C18.2651 21.875 18.125 22.0151 18.125 22.1877V27.8127C18.125 27.985 18.2651 28.1251 18.4377 28.1251H27.8127C27.985 28.1251 28.1251 27.985 28.1251 27.8127V22.1877C28.1251 22.0151 27.985 21.875 27.8127 21.875H18.4377Z" fill="black"/>
<path d="M27.8127 17.5001H18.4377C17.2312 17.5001 16.25 16.5189 16.25 15.3124V2.18742C16.25 0.981216 17.2312 0 18.4377 0H27.8127C29.0189 0 30.0001 0.981216 30.0001 2.18742V15.3124C30.0001 16.5189 29.0189 17.5001 27.8127 17.5001ZM18.4377 1.875C18.2651 1.875 18.125 2.01508 18.125 2.18742V15.3124C18.125 15.485 18.2651 15.6251 18.4377 15.6251H27.8127C27.985 15.6251 28.1251 15.485 28.1251 15.3124V2.18742C28.1251 2.01508 27.985 1.875 27.8127 1.875H18.4377Z" fill="black"/>
</g>
<defs>
<clipPath id="clip0_379_6466">
<rect width="30" height="30" fill="white"/>
</clipPath>
</defs>
</svg>
