<svg width="30" height="30" viewBox="0 0 30 30" fill="none" xmlns="http://www.w3.org/2000/svg">
<g clip-path="url(#clip0_379_130184)">
<path d="M29.8246 12.5536C30.184 11.6116 29.9855 10.5037 29.2277 9.74588L20.2528 0.771021C19.2247 -0.257065 17.5519 -0.256948 16.5239 0.771021L6.434 10.861H2.63672C1.18283 10.861 0 12.0438 0 13.4977V27.362C0 28.8159 1.18283 29.9987 2.63672 29.9987H27.3633C28.8172 29.9987 30 28.8159 30 27.362V13.4977C30 13.1651 29.9375 12.847 29.8246 12.5536ZM27.9156 10.9196C27.7374 10.8815 27.5527 10.861 27.3633 10.861H25.4588L26.6579 9.66192L27.9156 10.9196ZM25.4149 8.41897L22.9729 10.861H20.4869L24.1719 7.17596L25.4149 8.41897ZM17.7669 2.01397C17.9383 1.84264 18.1634 1.75692 18.3884 1.75692C18.6135 1.75692 18.8385 1.84264 19.0099 2.01397L22.929 5.93307L18.001 10.861H8.91984L17.7669 2.01397ZM28.2422 27.362C28.2422 27.8466 27.8479 28.2409 27.3633 28.2409H2.63672C2.15209 28.2409 1.75781 27.8466 1.75781 27.362V13.4977C1.75781 13.0131 2.15209 12.6188 2.63672 12.6188H27.3633C27.8479 12.6188 28.2422 13.0131 28.2422 13.4977V27.362Z" fill="black"/>
<path d="M3.45703 23.8223H7.55291V25.5801H3.45703V23.8223Z" fill="black"/>
<path d="M9.78699 23.8223H13.8828V25.5801H9.78699V23.8223Z" fill="black"/>
<path d="M16.1172 23.8223H20.213V25.5801H16.1172V23.8223Z" fill="black"/>
<path d="M22.4471 23.8223H26.543V25.5801H22.4471V23.8223Z" fill="black"/>
<path d="M7.98439 14.9629H4.98047C4.17275 14.9629 3.51562 15.62 3.51562 16.4277V18.7715C3.51562 19.5792 4.17275 20.2363 4.98047 20.2363H7.98439C8.79211 20.2363 9.44924 19.5792 9.44924 18.7715V16.4277C9.44924 15.62 8.79211 14.9629 7.98439 14.9629ZM7.69143 18.4785H5.27344V16.7207H7.69143V18.4785Z" fill="black"/>
</g>
<defs>
<clipPath id="clip0_379_130184">
<rect width="30" height="30" fill="white"/>
</clipPath>
</defs>
</svg>
