<svg width="30" height="30" viewBox="0 0 30 30" fill="none" xmlns="http://www.w3.org/2000/svg">
<g clip-path="url(#clip0_379_130198)">
<path d="M26.2449 3.08701H23.7729V0.896543C23.7729 0.40166 23.3712 0 22.8763 0H3.75531C3.25984 0 2.85876 0.40166 2.85876 0.896543V26.0165C2.85876 26.5114 3.25978 26.913 3.75531 26.913H6.22732V29.1036C6.22732 29.5985 6.62898 30.0001 7.12386 30.0001H26.2449C26.7403 30.0001 27.1414 29.5985 27.1414 29.1036V3.98355C27.1414 3.48867 26.7403 3.08701 26.2449 3.08701ZM6.22732 3.98355V25.12H4.65185V1.79303H21.9798V3.08701H7.12386C6.62898 3.08701 6.22732 3.48867 6.22732 3.98355ZM25.3483 28.207H8.02035C8.02035 27.7834 8.02035 5.25064 8.02035 4.8801C9.39625 4.8801 24.6657 4.8801 25.3483 4.8801V28.207Z" fill="black"/>
<path d="M19.7366 12.8593H16.3435V9.46685C16.3435 8.97197 15.9418 8.57031 15.447 8.57031C12.5876 8.57031 10.2615 10.8965 10.2615 13.7558C10.2615 16.6157 12.5876 18.9424 15.447 18.9424C18.3069 18.9424 20.633 16.6157 20.633 13.7558C20.6331 13.261 20.232 12.8593 19.7366 12.8593ZM15.447 17.1494C13.5763 17.1494 12.0546 15.6272 12.0546 13.7558C12.0546 12.1959 13.1136 10.878 14.5505 10.4835V13.7558C14.5505 14.2513 14.9521 14.6523 15.447 14.6523H18.7199C18.326 16.0903 17.0081 17.1494 15.447 17.1494Z" fill="black"/>
<path d="M17.9216 6.0957C17.4261 6.0957 17.025 6.49672 17.025 6.99225V11.2812C17.025 11.7761 17.426 12.1777 17.9216 12.1777C19.8772 12.1777 20.2379 12.1777 22.2111 12.1777C22.706 12.1777 23.1076 11.7761 23.1076 11.2812C23.1076 8.39891 20.7566 6.0957 17.9216 6.0957ZM18.8181 10.3846V8.00885C19.9698 8.32443 20.8783 9.23287 21.1944 10.3846H18.8181Z" fill="black"/>
<path d="M22.7835 20.9277C22.2685 20.9277 12.2927 20.9277 10.3697 20.9277C9.87422 20.9277 9.47314 21.3294 9.47314 21.8243C9.47314 22.3197 9.87416 22.7208 10.3697 22.7208C11.3466 22.7208 22.2662 22.7208 22.7835 22.7208C23.2784 22.7208 23.6801 22.3198 23.6801 21.8243C23.6801 21.3293 23.2784 20.9277 22.7835 20.9277Z" fill="black"/>
<path d="M22.7835 24.3594C22.2685 24.3594 12.2927 24.3594 10.3697 24.3594C9.87281 24.3594 9.47314 24.7625 9.47314 25.2559C9.47314 25.7514 9.87416 26.1525 10.3697 26.1525H22.7835C23.2784 26.1525 23.6801 25.7514 23.6801 25.2559C23.6801 24.761 23.2784 24.3594 22.7835 24.3594Z" fill="black"/>
</g>
<defs>
<clipPath id="clip0_379_130198">
<rect width="30" height="30" fill="white"/>
</clipPath>
</defs>
</svg>
