<svg width="30" height="30" viewBox="0 0 30 30" fill="none" xmlns="http://www.w3.org/2000/svg">
<g clip-path="url(#clip0_379_130169)">
<path d="M29.4438 24.8367L24.0283 19.5806C23.6775 19.24 23.215 19.0572 22.7234 19.0639C22.5588 19.0664 22.3981 19.0907 22.244 19.1346L19.8029 16.7654C20.049 16.3935 20.2733 16.0056 20.4735 15.6015C20.5028 15.5424 20.5252 15.4816 20.5412 15.4201H21.3456C21.8633 15.4201 22.283 15.0003 22.283 14.4825C22.283 13.9646 21.8632 13.5448 21.3455 13.5448L18.2413 13.545V11.724H20.3353C20.8531 11.724 21.2727 11.3042 21.2727 10.7864C21.2727 10.2685 20.853 9.84875 20.3353 9.84875H18.2413V8.13565H21.3455C21.8633 8.13565 22.283 7.71582 22.283 7.19803C22.283 6.68024 21.8633 6.26041 21.3455 6.26041H20.6009C20.2252 5.45018 19.747 4.685 19.1792 3.98615C15.4239 -0.635545 8.60943 -1.33961 3.98878 2.41643C1.75044 4.23594 0.354447 6.81834 0.0580211 9.68803C-0.238346 12.5577 0.600306 15.371 2.41947 17.6098C4.23863 19.8485 6.82056 21.2448 9.68966 21.5412C10.0677 21.5803 10.4446 21.5996 10.8195 21.5996C12.9189 21.5996 14.9505 20.9922 16.7061 19.8403L19.1149 22.178C19.0116 22.4149 18.9589 22.6733 18.9628 22.9399C18.9702 23.4307 19.1676 23.8884 19.5184 24.2288L24.934 29.485C25.2898 29.8302 25.7506 30.002 26.211 30.002C26.6899 30.002 27.1684 29.816 27.5274 29.446L29.4826 27.4306C30.1869 26.7048 30.1694 25.5413 29.4438 24.8367ZM20.7638 20.311L20.337 20.751L18.1926 18.6698C18.3423 18.5297 18.4876 18.3859 18.6283 18.2384L20.7638 20.311ZM9.88232 19.6759C7.51138 19.4309 5.37769 18.2771 3.87447 16.427C2.37113 14.5769 1.67808 12.2521 1.92306 9.88069C2.16804 7.50928 3.32158 5.37529 5.17126 3.87172C8.9897 0.767833 14.621 1.34973 17.7242 5.16881C18.005 5.5144 18.2585 5.87973 18.4839 6.26029H17.3039C16.7861 6.26029 16.3664 6.68012 16.3664 7.19791V14.4826C16.3664 14.7313 16.4652 14.9698 16.641 15.1456C16.8168 15.3215 17.0552 15.4203 17.3039 15.4203L18.436 15.4202C17.9076 16.2952 17.2343 17.0681 16.4274 17.7241C14.5776 19.2276 12.2535 19.9207 9.88232 19.6759ZM26.2104 28.1106L20.8535 22.9115L22.7517 20.9548L28.1086 26.154L26.2104 28.1106ZM10.3474 8.35543V9.63336C10.3474 9.75254 10.448 9.85321 10.5672 9.85321H13.2067C14.3617 9.85321 15.3014 10.7932 15.3014 11.9485V13.2263C15.3014 14.3816 14.3617 15.3215 13.2067 15.3215H9.40982C8.89202 15.3215 8.47238 14.9017 8.47238 14.3839C8.47238 13.8661 8.89208 13.4463 9.40982 13.4463H13.2067C13.3258 13.4463 13.4265 13.3456 13.4265 13.2263V11.9485C13.4265 11.8293 13.3258 11.7286 13.2067 11.7286H10.5672C9.41216 11.7286 8.47243 10.7887 8.47243 9.63342V8.35549C8.47243 7.20026 9.4121 6.26041 10.5672 6.26041H14.3641C14.8819 6.26041 15.3015 6.68024 15.3015 7.19803C15.3015 7.71582 14.8818 8.13565 14.3641 8.13565H10.5672C10.448 8.13559 10.3474 8.23625 10.3474 8.35543ZM25.9031 15.3721C27.7376 15.3721 29.2301 13.8792 29.2301 12.0444V9.52854C29.2301 7.69362 27.7376 6.20082 25.9031 6.20082C24.0686 6.20082 22.576 7.69367 22.576 9.52854V12.0444C22.576 13.8793 24.0686 15.3721 25.9031 15.3721ZM24.451 9.52854C24.451 8.72762 25.1024 8.07611 25.9031 8.07611C26.7038 8.07611 27.3552 8.72768 27.3552 9.52854V12.0444C27.3552 12.8453 26.7038 13.4968 25.9031 13.4968C25.1024 13.4968 24.451 12.8452 24.451 12.0444V9.52854Z" fill="black"/>
</g>
<defs>
<clipPath id="clip0_379_130169">
<rect width="30" height="30" fill="white"/>
</clipPath>
</defs>
</svg>
