<svg width="30" height="30" viewBox="0 0 30 30" fill="none" xmlns="http://www.w3.org/2000/svg">
<g clip-path="url(#clip0_379_130161)">
<path d="M29.4543 6.46864L15.3332 0.0781717C15.1024 -0.0263009 14.8377 -0.026008 14.6072 0.0787577L0.544692 6.46923C0.230864 6.61184 0.0294189 6.92468 0.0294189 7.26938V29.121C0.0294189 29.6064 0.422935 30 0.908325 30H29.0919C29.5773 30 29.9708 29.6064 29.9708 29.121V7.26938C29.9708 6.92421 29.7687 6.61091 29.4543 6.46864ZM20.5372 24.7265C21.0226 24.7265 21.4161 24.333 21.4161 23.8476V22.9687H23.1739V28.2421H17.9005V22.9687H19.6583V23.8476C19.6583 24.3331 20.0518 24.7265 20.5372 24.7265ZM23.1739 21.2109H17.0215C16.5362 21.2109 16.1426 21.6044 16.1426 22.0898V28.2421H13.7989C13.7989 26.8465 13.7989 16.3306 13.7989 15.0585C13.7989 14.5732 13.4054 14.1796 12.92 14.1796H6.76764V12.4218H23.1739V21.2109ZM6.76764 21.2109V15.9375H8.52545V16.8164C8.52545 17.3017 8.91897 17.6953 9.40436 17.6953C9.88975 17.6953 10.2833 17.3017 10.2833 16.8164V15.9375H12.0411V21.2109H6.76764ZM6.76764 22.9687H8.52545V23.8476C8.52545 24.333 8.91897 24.7265 9.40436 24.7265C9.88975 24.7265 10.2833 24.333 10.2833 23.8476V22.9687H12.0411V28.2421H6.76764V22.9687ZM28.213 28.2421H24.9317V11.5429C24.9317 11.0575 24.5382 10.664 24.0528 10.664H5.88874C5.40334 10.664 5.00983 11.0575 5.00983 11.5429V28.2421H1.78717V7.8354L14.9715 1.84395L28.213 7.83639V28.2421Z" fill="black"/>
<path d="M11.4551 6.85547C11.4551 7.34086 11.8486 7.73438 12.334 7.73438H17.6074C18.0928 7.73438 18.4863 7.34086 18.4863 6.85547C18.4863 6.37008 18.0928 5.97656 17.6074 5.97656H12.334C11.8486 5.97656 11.4551 6.37008 11.4551 6.85547Z" fill="black"/>
</g>
<defs>
<clipPath id="clip0_379_130161">
<rect width="30" height="30" fill="white"/>
</clipPath>
</defs>
</svg>
