<svg width="50" height="50" viewBox="0 0 50 50" fill="none" xmlns="http://www.w3.org/2000/svg">
<path d="M48.2841 28.2786C45.9995 25.994 42.2821 25.994 39.999 28.2771L29.2759 38.9761C29.0482 39.2035 28.8803 39.4835 28.7868 39.7913L26.4515 47.4791C26.2444 48.1607 26.4252 48.9008 26.9222 49.4108C27.2949 49.7927 27.8011 50.0002 28.3207 50.0002C28.4943 50.0002 28.6697 49.9769 28.8418 49.9288L36.7252 47.7453C37.0495 47.6553 37.3451 47.4833 37.5835 47.2456L48.2841 36.5653C50.5684 34.2803 50.5684 30.5632 48.2841 28.2786ZM35.1875 44.1179L31.2214 45.2166L32.3822 41.3954L39.6172 34.1761L42.3801 36.9387L35.1875 44.1179ZM45.5231 33.8015L45.1447 34.1792L42.3824 31.417L42.7597 31.0404C43.5211 30.279 44.7601 30.279 45.5219 31.0404C46.2833 31.8022 46.2833 33.0413 45.5231 33.8015ZM22.3633 48.0467C22.3633 49.1255 21.489 49.9998 20.4102 49.9998H7.8125C3.50494 49.9998 0 46.4953 0 42.1873V7.81247C0 3.50455 3.50494 0 7.8125 0H31.8253C36.1332 0 39.6378 3.50455 39.6378 7.81247V22.8515C39.6378 23.9303 38.7634 24.8046 37.6846 24.8046C36.6058 24.8046 35.7315 23.9303 35.7315 22.8515V7.81247C35.7315 5.6587 33.979 3.90623 31.8253 3.90623H7.8125C5.65872 3.90623 3.90625 5.6587 3.90625 7.81247V42.1873C3.90625 44.3411 5.65872 46.0936 7.8125 46.0936H20.4102C21.489 46.0936 22.3633 46.9679 22.3633 48.0467ZM31.8359 14.5507C31.8359 15.6295 30.9616 16.5038 29.8828 16.5038H24.1211C23.0423 16.5038 22.168 15.6295 22.168 14.5507C22.168 13.4719 23.0423 12.5976 24.1211 12.5976H29.8828C30.9616 12.5976 31.8359 13.4719 31.8359 14.5507ZM20.0607 10.5213L15.5022 16.0385C14.9078 16.7712 14.0282 17.2267 13.0863 17.2897C13.0116 17.2946 12.9364 17.2973 12.8616 17.2973C11.9926 17.2973 11.1473 16.962 10.5145 16.3593C10.4965 16.3425 10.479 16.3249 10.4614 16.307L8.36639 14.1555C7.61375 13.3827 7.63054 12.1463 8.40302 11.3937C9.17587 10.6411 10.4122 10.6575 11.1649 11.4303L12.83 13.1401L17.049 8.03334C17.7361 7.20174 18.9674 7.08463 19.7987 7.77165C20.6303 8.45868 20.7474 9.68967 20.0607 10.5213ZM29.8828 28.5155H24.1211C23.0423 28.5155 22.168 27.6412 22.168 26.5624C22.168 25.4836 23.0423 24.6093 24.1211 24.6093H29.8828C30.9616 24.6093 31.8359 25.4836 31.8359 26.5624C31.8359 27.6412 30.9616 28.5155 29.8828 28.5155ZM20.0607 22.5207L15.5022 28.0383C14.9078 28.7707 14.0282 29.2266 13.0863 29.2891C13.0116 29.2941 12.9364 29.2968 12.8616 29.2968C11.9923 29.2968 11.1473 28.9614 10.5141 28.3587C10.4977 28.3431 10.4813 28.3271 10.4652 28.3107L8.37021 26.171C7.61566 25.4004 7.62863 24.1637 8.3992 23.4092C9.16977 22.6543 10.4065 22.6672 11.161 23.4382L12.8288 25.141L17.049 20.0328C17.7361 19.2012 18.9674 19.0845 19.7987 19.7711C20.6303 20.4581 20.7474 21.6891 20.0607 22.5207ZM20.0607 34.3371L15.5022 39.8547C14.9078 40.5871 14.0282 41.0429 13.0863 41.1055C13.0116 41.1104 12.9364 41.1131 12.8616 41.1131C11.9923 41.1131 11.1473 40.7778 10.5141 40.1751C10.4977 40.1594 10.4813 40.1434 10.4652 40.127L8.37021 37.9874C7.61566 37.2168 7.62863 35.9801 8.3992 35.2255C9.16977 34.4706 10.4065 34.4836 11.161 35.2545L12.8288 36.9574L17.049 31.8492C17.7361 31.0176 18.9674 30.9008 19.7987 31.5875C20.6303 32.2745 20.7474 33.5055 20.0607 34.3371Z" fill="#DB1F35"/>
</svg>
