<svg width="24" height="24" viewBox="0 0 24 24" fill="none" xmlns="http://www.w3.org/2000/svg">
<path d="M17.25 21.75C16.836 21.75 16.5 21.414 16.5 21C16.5 20.586 16.836 20.25 17.25 20.25H17.2507C17.2507 19.836 17.586 19.5 18.0004 19.5C18.4147 19.5 18.75 19.836 18.75 20.25C18.75 21.0773 18.0773 21.75 17.25 21.75Z" fill="black"/>
<path d="M18 21C17.586 21 17.25 20.664 17.25 20.25V12.8943C17.25 12.4803 17.586 12.1443 18 12.1443C18.414 12.1443 18.75 12.4803 18.75 12.8943V20.25C18.75 20.664 18.414 21 18 21Z" fill="black"/>
<path d="M17.25 21.75H3.75C3.336 21.75 3 21.414 3 21C3 20.586 3.336 20.25 3.75 20.25H17.25C17.664 20.25 18 20.586 18 21C18 21.414 17.664 21.75 17.25 21.75Z" fill="black"/>
<path d="M3.75 21.75C2.92275 21.75 2.25 21.0773 2.25 20.25C2.25 19.836 2.586 19.5 3 19.5C3.414 19.5 3.75 19.836 3.75 20.25V20.2511C4.164 20.2511 4.5 20.5864 4.5 21.0004C4.5 21.4144 4.164 21.75 3.75 21.75Z" fill="black"/>
<path d="M3 21C2.586 21 2.25 20.664 2.25 20.25V6.75C2.25 6.336 2.586 6 3 6C3.414 6 3.75 6.336 3.75 6.75V20.25C3.75 20.664 3.414 21 3 21Z" fill="black"/>
<path d="M2.99963 7.5C2.58525 7.5 2.25 7.164 2.25 6.75C2.25 5.92275 2.92275 5.25 3.75 5.25C4.164 5.25 4.5 5.586 4.5 6C4.5 6.414 4.164 6.75 3.75 6.75H3.74925C3.74925 7.164 3.414 7.5 2.99963 7.5Z" fill="black"/>
<path d="M11.1056 6.75H3.75C3.336 6.75 3 6.414 3 6C3 5.586 3.336 5.25 3.75 5.25H11.1056C11.5196 5.25 11.8556 5.586 11.8556 6C11.8556 6.414 11.52 6.75 11.1056 6.75Z" fill="black"/>
<path d="M10.474 11.6242C10.282 11.6242 10.09 11.5511 9.94378 11.4045C9.6509 11.1116 9.6509 10.6368 9.94378 10.344L17.2687 3.01909C17.5612 2.72622 18.0367 2.72622 18.3292 3.01909C18.622 3.31197 18.622 3.78672 18.3292 4.07959L11.0043 11.4045C10.858 11.5511 10.6657 11.6242 10.474 11.6242Z" fill="black"/>
<path d="M9.75075 15C9.69862 15 9.64575 14.9947 9.59287 14.9831C9.18787 14.8965 8.92987 14.4975 9.01687 14.0929L9.741 10.7171C9.82762 10.3117 10.2274 10.0526 10.6316 10.1411C11.0366 10.2277 11.2946 10.6267 11.2076 11.0314L10.4835 14.4071C10.4077 14.7592 10.0969 15 9.75075 15Z" fill="black"/>
<path d="M13.1259 14.2755C12.9339 14.2755 12.7419 14.2024 12.5956 14.0558C12.3028 13.7629 12.3028 13.2881 12.5956 12.9953L19.9205 5.6704C20.213 5.37753 20.6885 5.37753 20.981 5.6704C21.2739 5.96328 21.2739 6.43802 20.981 6.7309L13.6561 14.0558C13.5099 14.2024 13.3179 14.2755 13.1259 14.2755Z" fill="black"/>
<path d="M9.74903 15C9.4029 15 9.09203 14.7593 9.01628 14.4075C8.92965 14.0025 9.18728 13.6035 9.59228 13.5169L12.968 12.7924C13.3719 12.7065 13.7717 12.963 13.8587 13.368C13.9453 13.773 13.6877 14.172 13.2827 14.2586L9.9069 14.9831C9.85403 14.9944 9.80115 15 9.74903 15Z" fill="black"/>
<path d="M19.1252 8.27665C18.9332 8.27665 18.7412 8.20353 18.5949 8.0569L15.9433 5.40528C15.6504 5.1124 15.6504 4.63765 15.9433 4.34478C16.2358 4.0519 16.7113 4.0519 17.0038 4.34478L19.6554 6.9964C19.9483 7.28928 19.9483 7.76403 19.6554 8.0569C19.5092 8.20353 19.3172 8.27665 19.1252 8.27665Z" fill="black"/>
<path d="M20.4506 6.95064C20.2586 6.95064 20.0666 6.87752 19.92 6.73089C19.6271 6.43802 19.6271 5.96289 19.92 5.67002C20.1277 5.46264 20.2421 5.17989 20.2421 4.87502C20.2421 4.57014 20.1277 4.28739 19.92 4.08002C19.5037 3.66339 18.7444 3.66377 18.3289 4.07964C18.036 4.37252 17.5612 4.37252 17.268 4.08002C16.9751 3.78714 16.9751 3.31202 17.268 3.01914C17.7592 2.52752 18.4185 2.25714 19.1242 2.25714C19.83 2.25714 20.4896 2.52789 20.9805 3.01914C21.4714 3.51002 21.7417 4.16889 21.7417 4.87502C21.7417 5.58114 21.4714 6.24039 20.9801 6.73127C20.8346 6.87752 20.6426 6.95064 20.4506 6.95064Z" fill="black"/>
</svg>
