<svg width="355" height="467" viewBox="0 0 355 467" fill="none" xmlns="http://www.w3.org/2000/svg">
<g clip-path="url(#clip0_8771_448483)">
<path fill-rule="evenodd" clip-rule="evenodd" d="M304.107 302.076C304.935 302.696 305.676 303.427 306.31 304.247L309.115 303.732L310.982 308.124L308.667 309.812C308.82 310.851 308.832 311.906 308.705 312.949L311.05 314.586L309.29 318.978L306.471 318.52C305.856 319.355 305.132 320.102 304.319 320.741L304.829 323.571L300.474 325.453L298.801 323.125C297.78 323.271 296.745 323.281 295.722 323.156L294.104 325.522L289.718 323.746L290.172 320.904C289.345 320.284 288.604 319.553 287.97 318.733L285.164 319.248L283.298 314.856L285.612 313.168C285.463 312.139 285.45 311.095 285.575 310.063L283.242 308.444L285.003 304.052L287.821 304.51C288.438 303.677 289.162 302.93 289.973 302.289L289.463 299.46L293.818 297.577L295.491 299.911C296.512 299.761 297.547 299.748 298.571 299.874L300.194 297.508L304.549 299.284L304.095 302.126L304.107 302.076ZM299.23 306.813C298.3 306.435 297.279 306.344 296.298 306.552C295.316 306.759 294.418 307.256 293.716 307.978C293.014 308.701 292.541 309.617 292.355 310.611C292.17 311.605 292.28 312.632 292.674 313.562C293.067 314.492 293.725 315.284 294.565 315.837C295.405 316.39 296.388 316.68 297.391 316.669C298.394 316.659 299.371 316.349 300.199 315.778C301.027 315.207 301.668 314.402 302.042 313.463C302.542 312.205 302.526 310.798 301.999 309.552C301.472 308.305 300.476 307.32 299.23 306.813Z" fill="#EBEBEB"/>
<path fill-rule="evenodd" clip-rule="evenodd" d="M43.6528 321.174C45.1472 322.297 46.4843 323.618 47.628 325.101L52.7043 324.167L56.0574 332.084L51.8769 335.134C52.1464 337.005 52.1673 338.904 51.9391 340.78L56.1819 343.735L52.9967 351.722L47.9017 350.869C46.7866 352.37 45.4792 353.716 44.0136 354.872L44.9343 359.991L37.0834 363.366L34.06 359.15C32.2173 359.422 30.3467 359.443 28.4984 359.213L25.5683 363.492L17.6427 360.28L18.4639 355.148C16.9724 354.021 15.6357 352.701 14.4887 351.22L9.41236 352.155L6.05923 344.243L10.2397 341.194C9.97212 339.333 9.95329 337.445 10.1838 335.579L5.93481 332.624L9.11997 324.637L14.215 325.459C15.3282 323.952 16.6381 322.603 18.1093 321.45L17.1824 316.33L25.0333 312.955L28.0567 317.171C29.8994 316.899 31.77 316.878 33.6183 317.108L36.5546 312.836L44.4739 316.042L43.6528 321.18V321.174ZM34.8376 329.738C33.1571 329.057 31.3142 328.894 29.5418 329.269C27.7694 329.645 26.1472 330.542 24.8802 331.847C23.6133 333.152 22.7586 334.807 22.4241 336.602C22.0896 338.397 22.2904 340.252 23.001 341.932C23.7117 343.612 24.9004 345.041 26.4167 346.04C27.933 347.039 29.7089 347.561 31.5199 347.542C33.3308 347.523 35.0955 346.963 36.5907 345.932C38.0859 344.902 39.2446 343.447 39.9202 341.753C40.3688 340.627 40.5933 339.424 40.5807 338.211C40.568 336.998 40.3186 335.799 39.8466 334.683C39.3747 333.568 38.6894 332.557 37.8299 331.708C36.9705 330.86 35.9537 330.19 34.8376 329.738Z" fill="#EBEBEB"/>
<path fill-rule="evenodd" clip-rule="evenodd" d="M22.8248 281.09C23.6491 281.714 24.3876 282.446 25.0209 283.267L27.8327 282.721L29.699 287.113L27.3724 288.813C27.5122 289.854 27.5122 290.909 27.3724 291.95L29.7239 293.587L27.9634 297.979L25.1453 297.521C24.5373 298.352 23.8217 299.097 23.0177 299.736L23.534 302.572L19.1793 304.454L17.5059 302.12C16.484 302.258 15.4484 302.258 14.4265 302.12L12.8028 304.491L8.4481 302.716L8.89601 299.874C8.07027 299.251 7.3316 298.519 6.7 297.697L3.8881 298.217L2.0218 293.826L4.35468 292.169C4.21491 291.128 4.21491 290.073 4.35468 289.032L1.95337 287.426L3.71391 283.034L6.53203 283.486C7.15525 282.645 7.88756 281.891 8.70938 281.246L8.19304 278.411L12.5477 276.528L14.2212 278.862C15.2519 278.711 16.2982 278.7 17.3317 278.831L18.9554 276.466L23.3101 278.241L22.8622 281.077L22.8248 281.09ZM17.9413 285.858C17.012 285.481 15.9929 285.392 15.0129 285.599C14.0328 285.807 13.1359 286.303 12.4355 287.025C11.7351 287.747 11.2626 288.662 11.0778 289.655C10.893 290.647 11.0042 291.673 11.3973 292.602C11.7905 293.531 12.4479 294.321 13.2864 294.873C14.125 295.426 15.107 295.715 16.1084 295.704C17.1098 295.693 18.0856 295.383 18.9123 294.813C19.7391 294.243 20.3797 293.439 20.7532 292.502C21.0013 291.879 21.1254 291.214 21.1184 290.543C21.1113 289.872 20.9733 289.209 20.7122 288.592C20.451 287.975 20.0719 287.416 19.5965 286.947C19.1211 286.478 18.5587 286.108 17.9413 285.858Z" fill="#F0F0F0"/>
<path fill-rule="evenodd" clip-rule="evenodd" d="M79.9647 246.244C82.3751 247.137 84.6558 248.353 86.7456 249.858L93.0911 246.608L100.606 255.743L96.2513 261.427C97.3332 263.779 98.0969 266.267 98.522 268.824L105.278 271.051L104.189 282.871L97.1409 283.8C96.2504 286.23 95.0433 288.53 93.5514 290.638L96.7739 297.038L87.7161 304.623L82.0737 300.231C79.7415 301.317 77.2774 302.087 74.7453 302.521L72.5369 309.335L60.8352 308.256L59.9144 301.141C57.5014 300.249 55.2185 299.034 53.1273 297.527L46.7819 300.777L39.2669 291.636L43.6216 285.952C42.5446 283.601 41.7831 281.115 41.3572 278.561L34.5763 276.334L35.665 264.526L42.7196 263.585C43.6038 261.151 44.8091 258.849 46.3029 256.74L43.0866 250.341L52.1444 242.762L57.7869 247.153C60.1178 246.066 62.5824 245.298 65.1152 244.87L67.3237 238.05L79.044 239.148L79.9647 246.263V246.244ZM71.641 261.063C69.154 260.829 66.654 261.345 64.4574 262.544C62.2608 263.743 60.4661 265.573 59.3005 267.801C58.1348 270.029 57.6504 272.555 57.9086 275.061C58.1669 277.566 59.156 279.939 60.7511 281.877C62.3462 283.816 64.4755 285.234 66.8697 285.952C69.2639 286.67 71.8155 286.656 74.2018 285.911C76.5881 285.167 78.7018 283.726 80.2758 281.769C81.8497 279.813 82.8131 277.43 83.0441 274.922C83.3539 271.559 82.3265 268.21 80.1881 265.611C78.0497 263.012 74.9753 261.376 71.641 261.063Z" fill="#E0E0E0"/>
<path d="M30.769 441.835C38.5702 436.709 40.5111 426.897 40.4365 418.025C40.4365 416.545 40.6231 414.989 39.945 413.677C39.2669 412.366 37.6432 411.431 36.2995 412.027C35.1797 412.517 34.6696 413.784 34.0226 414.826C33.1612 416.219 31.925 417.338 30.458 418.05C29.4999 418.521 28.3242 418.791 27.4035 418.251C26.1593 417.517 26.0286 415.742 26.0722 414.28C26.1593 411.536 26.2443 408.794 26.3272 406.055C26.4525 404.582 26.3369 403.098 25.9851 401.663C25.8024 400.951 25.452 400.294 24.9635 399.748C24.475 399.201 23.863 398.782 23.1794 398.526C21.7797 398.099 20.0254 398.865 19.6894 400.295C19.6219 400.903 19.5948 401.515 19.6085 402.127C19.6094 402.433 19.5199 402.733 19.3515 402.987C19.1831 403.242 18.9435 403.441 18.663 403.558C18.3567 403.588 18.0477 403.539 17.7656 403.415C17.4834 403.291 17.2376 403.096 17.0517 402.849C15.6353 401.251 14.4879 399.431 13.655 397.459C12.8196 395.482 11.7545 393.612 10.4823 391.888C9.1386 390.238 7.25363 388.908 5.14471 388.751C3.03579 388.594 0.740242 389.824 0.16791 391.888C-0.404422 393.952 0.746463 396.079 2.03421 397.792C3.93039 400.33 6.17841 402.58 8.70935 404.474C9.20418 404.763 9.59602 405.202 9.82913 405.728C10.1277 406.713 9.1697 407.667 8.18678 407.962C7.07322 408.301 5.88501 408.163 4.7279 408.269C3.5708 408.376 2.30793 408.853 1.84758 409.926C1.22548 411.413 2.43235 413.019 3.65167 414.079C6.09531 416.217 8.88576 417.915 11.9007 419.098C13.0088 419.432 14.0478 419.966 14.9677 420.673C15.8262 421.457 16.3239 422.794 15.7702 423.81C15.2165 424.826 13.8479 425.134 12.7157 424.895C11.6078 424.553 10.5316 424.115 9.49941 423.584C7.48381 422.768 4.85855 422.844 3.51481 424.563C3.09988 425.15 2.82742 425.827 2.71936 426.54C2.61131 427.252 2.67069 427.981 2.89271 428.666C3.35736 430.029 4.0894 431.284 5.04518 432.355C8.18454 436.293 12.3011 439.324 16.9771 441.139C21.649 442.877 26.0037 443.422 30.7255 441.829" fill="#DB1F35"/>
<path d="M2.33899 389.918C2.38051 389.972 2.42858 390.02 2.48207 390.062L2.91132 390.464C3.2908 390.815 3.84447 391.33 4.54745 392.013C6.53146 393.938 8.36972 396.01 10.0468 398.212C11.1106 399.605 12.2179 401.173 13.3751 402.886C14.5322 404.599 15.7453 406.431 16.9583 408.407C18.2386 410.466 19.4057 412.594 20.4546 414.782C20.9958 415.924 21.4748 417.109 21.9663 418.326L23.4406 422.003C25.3498 426.667 26.9948 431.437 28.3677 436.289C29.4719 440.252 30.1968 444.313 30.5326 448.416C30.7558 451.184 30.7349 453.966 30.4704 456.729C30.3708 457.708 30.2775 458.467 30.1966 458.976C30.1593 459.22 30.1344 459.415 30.1158 459.559C30.0971 459.703 30.1158 459.76 30.1158 459.76C30.1416 459.698 30.1584 459.632 30.1655 459.565C30.1655 459.421 30.2278 459.233 30.2713 458.988C30.3771 458.48 30.4828 457.733 30.601 456.742C30.906 453.973 30.9559 451.182 30.7503 448.404C30.4305 444.285 29.7159 440.206 28.6165 436.226C27.2504 431.363 25.6095 426.583 23.7019 421.909C23.1959 420.654 22.7024 419.424 22.2213 418.22C21.7299 417.009 21.2446 415.811 20.6972 414.669C19.6441 412.472 18.4685 410.338 17.1761 408.276C15.9319 406.293 14.7312 404.461 13.5679 402.754C12.4046 401.048 11.2848 399.479 10.2023 398.093C8.50209 395.894 6.62979 393.836 4.60343 391.938C3.88802 391.26 3.32191 390.759 2.92998 390.42L2.48207 390.043L2.33899 389.918Z" fill="#263238"/>
<path d="M20.6163 414.656C20.6917 414.454 20.7438 414.243 20.7718 414.029C20.8652 413.627 20.9709 413.038 21.0891 412.31C21.338 410.848 21.6055 408.821 21.8916 406.582C22.1778 404.342 22.4764 402.328 22.7439 400.879C22.8745 400.151 22.9865 399.561 23.0674 399.16C23.1228 398.955 23.1562 398.744 23.1669 398.532C23.0771 398.733 23.0104 398.943 22.9679 399.16C22.8497 399.555 22.7128 400.138 22.5573 400.866C22.24 402.315 21.9352 404.336 21.6241 406.575C21.3131 408.815 21.0953 410.779 20.9025 412.303C20.8092 412.994 20.7345 413.558 20.6723 414.041C20.6304 414.243 20.6116 414.45 20.6163 414.656Z" fill="#263238"/>
<path d="M1.69824 410.666C1.94529 410.725 2.19731 410.761 2.45098 410.773C2.94244 410.829 3.64542 410.904 4.51014 411.024C6.2458 411.256 8.63466 411.651 11.2475 412.209C13.8603 412.768 16.2243 413.376 17.8915 413.866C18.7313 414.104 19.4094 414.311 19.876 414.455C20.1164 414.544 20.3641 414.612 20.6163 414.656C20.3926 414.532 20.1571 414.431 19.9133 414.355C19.453 414.179 18.7811 413.941 17.9413 413.677C16.2678 413.144 13.9287 412.504 11.3035 411.94C9.0673 411.455 6.80827 411.084 4.53502 410.829C3.66408 410.71 2.95488 410.71 2.48831 410.666C2.22559 410.64 1.96096 410.64 1.69824 410.666Z" fill="#263238"/>
<path d="M28.3801 435.875C28.4361 435.806 28.4822 435.73 28.517 435.649L28.8591 434.971C29.1515 434.382 29.5559 433.516 30.0411 432.462C31.0116 430.322 32.2558 427.317 33.5871 423.979C34.9184 420.642 36.1315 417.636 37.0522 415.472C37.5063 414.424 37.8796 413.558 38.1533 412.912L38.4519 412.216C38.5008 412.137 38.5405 412.053 38.5701 411.965C38.5701 411.965 38.5141 412.04 38.4333 412.191L38.0911 412.868C37.7987 413.458 37.3944 414.324 36.9091 415.378C35.9386 417.517 34.6944 420.522 33.3632 423.86C32.0319 427.198 30.7877 430.203 29.8607 432.368C29.4066 433.415 29.0333 434.281 28.7596 434.927L28.461 435.624C28.425 435.704 28.3979 435.788 28.3801 435.875Z" fill="#263238"/>
<path d="M3.32812 427.167C3.40638 427.212 3.48997 427.248 3.57697 427.273L4.30482 427.537L6.98607 428.472C9.25052 429.262 12.3672 430.398 15.8075 431.646C19.2477 432.895 22.3768 434.005 24.6599 434.752C25.8046 435.122 26.7315 435.417 27.3723 435.605L28.1188 435.818C28.2038 435.846 28.2914 435.865 28.3801 435.875C28.3801 435.875 28.2992 435.825 28.1313 435.762L27.4096 435.505L24.7222 434.551C22.4577 433.773 19.341 432.669 15.9008 431.414C12.4606 430.159 9.33139 429.036 7.04828 428.277C5.90362 427.913 4.97669 427.65 4.35459 427.436L3.60807 427.223C3.42144 427.173 3.32812 427.154 3.32812 427.167Z" fill="#263238"/>
<path d="M88.2076 232.246V315.828C88.2076 319.83 91.4246 323.075 95.3929 323.075H220.584C224.553 323.075 227.77 319.83 227.77 315.828V232.246C227.77 228.244 224.553 225 220.584 225H95.3929C91.4246 225 88.2076 228.244 88.2076 232.246Z" fill="#455A64"/>
<path d="M97.7568 228.099V319.988H214.307V228.099H97.7568Z" fill="white"/>
<path d="M220.759 270.273C221.497 270.273 222.219 270.494 222.832 270.907C223.446 271.321 223.925 271.909 224.207 272.597C224.49 273.285 224.564 274.042 224.419 274.772C224.275 275.502 223.92 276.173 223.398 276.699C222.876 277.226 222.211 277.584 221.487 277.73C220.763 277.875 220.012 277.8 219.33 277.515C218.648 277.23 218.065 276.748 217.655 276.129C217.245 275.51 217.026 274.782 217.026 274.037C217.026 273.039 217.419 272.082 218.119 271.376C218.819 270.67 219.769 270.273 220.759 270.273Z" fill="#263238"/>
<path d="M92.2264 260.034V288.041C92.2264 288.464 92.5662 288.806 92.9854 288.806H93.0103C93.4294 288.806 93.7692 288.464 93.7692 288.041V260.034C93.7692 259.611 93.4294 259.268 93.0103 259.268H92.9854C92.5662 259.268 92.2264 259.611 92.2264 260.034Z" fill="#263238"/>
<path d="M187.98 235.001H150.915V237.504H187.98V235.001Z" fill="#455A64"/>
<path d="M139.699 277.99H102.634V280.493H139.699V277.99Z" fill="#455A64"/>
<path d="M197.013 244.311C197.013 244.399 186.692 244.474 173.964 244.474C161.236 244.474 150.946 244.399 150.946 244.311C150.946 244.223 161.261 244.148 173.964 244.148C186.667 244.148 197.013 244.217 197.013 244.311Z" fill="#455A64"/>
<path d="M197.013 249.77C197.013 249.864 186.692 249.933 173.964 249.933C161.236 249.933 150.946 249.864 150.946 249.77C150.946 249.676 161.261 249.607 173.964 249.607C186.667 249.607 197.013 249.682 197.013 249.77Z" fill="#455A64"/>
<path d="M197.013 255.234C197.013 255.322 186.692 255.397 173.964 255.397C161.236 255.397 150.946 255.322 150.946 255.234C150.946 255.147 161.261 255.065 173.964 255.065C186.667 255.065 197.013 255.115 197.013 255.234Z" fill="#455A64"/>
<path d="M197.013 260.693C197.013 260.78 186.692 260.856 173.964 260.856C161.236 260.856 150.946 260.78 150.946 260.693C150.946 260.605 161.261 260.53 173.964 260.53C186.667 260.53 197.013 260.599 197.013 260.693Z" fill="#455A64"/>
<path d="M197.013 266.151C197.013 266.239 186.692 266.314 173.964 266.314C161.236 266.314 150.946 266.239 150.946 266.151C150.946 266.063 161.261 265.988 173.964 265.988C186.667 265.988 197.013 266.063 197.013 266.151Z" fill="#455A64"/>
<path d="M186.904 271.609C186.904 271.704 178.848 271.773 168.907 271.773C158.965 271.773 150.915 271.704 150.915 271.609C150.915 271.515 158.972 271.427 168.907 271.427C178.841 271.427 186.904 271.522 186.904 271.609Z" fill="#455A64"/>
<path d="M163.507 287.834C163.507 287.928 149.97 287.997 133.279 287.997C116.588 287.997 103.038 287.928 103.038 287.834C103.038 287.74 116.575 287.671 133.279 287.671C149.982 287.671 163.507 287.74 163.507 287.834Z" fill="#455A64"/>
<path d="M163.507 292.389C163.507 292.477 149.97 292.552 133.279 292.552C116.588 292.552 103.038 292.477 103.038 292.389C103.038 292.301 116.575 292.226 133.279 292.226C149.982 292.226 163.507 292.295 163.507 292.389Z" fill="#455A64"/>
<path d="M163.507 296.937C163.507 297.032 149.97 297.101 133.279 297.101C116.588 297.101 103.038 297.032 103.038 296.937C103.038 296.843 116.575 296.774 133.279 296.774C149.982 296.774 163.507 296.85 163.507 296.937Z" fill="#455A64"/>
<path d="M163.507 301.492C163.507 301.58 149.97 301.655 133.279 301.655C116.588 301.655 103.038 301.58 103.038 301.492C103.038 301.405 116.575 301.329 133.279 301.329C149.982 301.329 163.507 301.398 163.507 301.492Z" fill="#455A64"/>
<path d="M163.507 306.041C163.507 306.135 149.97 306.204 133.279 306.204C116.588 306.204 103.038 306.135 103.038 306.041C103.038 305.947 116.575 305.878 133.279 305.878C149.982 305.878 163.507 305.934 163.507 306.041Z" fill="#455A64"/>
<path d="M140.197 233.715H103.038V269.972H140.197V233.715Z" fill="#DB1F35"/>
<path d="M105.919 266.866L116.202 248.207L124.607 260.134L129.714 253.804L137.316 266.866H105.919Z" fill="#E0E0E0"/>
<path d="M128.19 244.581C128.19 245.115 128.033 245.636 127.739 246.08C127.445 246.524 127.027 246.869 126.539 247.074C126.05 247.278 125.512 247.331 124.993 247.227C124.474 247.123 123.998 246.866 123.623 246.489C123.249 246.111 122.995 245.631 122.891 245.107C122.788 244.584 122.841 244.042 123.044 243.549C123.246 243.056 123.589 242.634 124.029 242.338C124.469 242.042 124.986 241.883 125.515 241.883C126.224 241.883 126.905 242.168 127.407 242.673C127.908 243.179 128.19 243.866 128.19 244.581Z" fill="#E0E0E0"/>
<path d="M137.316 266.967C137.313 266.917 137.313 266.866 137.316 266.816C137.316 266.709 137.316 266.571 137.316 266.396C137.316 266.013 137.316 265.467 137.316 264.765C137.316 263.328 137.316 261.245 137.273 258.61C137.273 253.315 137.229 245.767 137.198 236.714L137.347 236.87H105.956C105.913 236.908 106.286 236.532 106.13 236.695V244.851C106.13 247.519 106.13 250.125 106.13 252.668C106.13 257.744 106.13 262.544 106.13 266.96L105.975 266.804L128.675 266.885L135.083 266.923H136.781H137.217H137.372C137.372 266.923 137.329 266.923 137.235 266.923H136.812H135.145L128.719 267.036L105.919 267.117H105.757V266.96C105.757 262.569 105.757 257.744 105.757 252.668C105.757 250.129 105.757 247.524 105.757 244.851V236.695C105.602 236.852 105.969 236.469 105.937 236.513H137.329H137.484V236.663C137.484 245.761 137.422 253.333 137.403 258.654C137.403 261.282 137.403 263.347 137.366 264.777C137.366 265.467 137.366 266.001 137.366 266.377C137.366 266.546 137.366 266.684 137.366 266.785C137.366 266.885 137.322 266.973 137.316 266.967Z" fill="#455A64"/>
<path d="M198.145 282.802H171.849V308.463H198.145V282.802Z" fill="#DB1F35"/>
<path d="M173.89 306.267L181.162 293.06L187.115 301.499L190.73 297.019L196.111 306.267H173.89Z" fill="#E0E0E0"/>
<path d="M189.647 290.494C189.647 290.866 189.538 291.23 189.333 291.54C189.128 291.849 188.836 292.091 188.495 292.233C188.154 292.376 187.779 292.413 187.417 292.34C187.055 292.268 186.722 292.088 186.461 291.825C186.2 291.562 186.023 291.226 185.951 290.861C185.879 290.496 185.915 290.118 186.057 289.774C186.198 289.43 186.437 289.136 186.744 288.929C187.051 288.722 187.412 288.612 187.781 288.612C188.276 288.612 188.751 288.81 189.101 289.163C189.451 289.516 189.647 289.995 189.647 290.494Z" fill="#E0E0E0"/>
<path d="M196.111 306.336C196.111 306.336 196.111 306.298 196.111 306.229C196.111 306.16 196.111 306.054 196.111 305.928C196.111 305.658 196.111 305.301 196.111 304.774C196.111 303.757 196.111 302.264 196.08 300.42C196.08 296.655 196.08 291.335 196.024 284.923L196.136 285.036H173.914L174.039 284.91V290.664C174.039 292.55 174.039 294.392 174.039 296.191C174.039 299.786 174.039 303.186 174.039 306.311L173.933 306.198L189.996 306.254H194.531H195.732H194.55H190.046L173.908 306.305H173.796V306.198C173.796 303.061 173.796 299.673 173.796 296.078V284.785L173.921 284.653H196.142H196.248V284.76C196.248 291.197 196.204 296.561 196.192 300.325C196.192 302.208 196.192 303.644 196.192 304.661C196.192 305.144 196.192 305.52 196.192 305.79C196.192 305.909 196.192 306.003 196.192 306.079C196.192 306.154 196.111 306.336 196.111 306.336Z" fill="#455A64"/>
<path d="M217.082 332.994H40.1255C35.1196 332.994 31.0615 337.087 31.0615 342.135V453.956C31.0615 459.005 35.1196 463.098 40.1255 463.098H217.082C222.088 463.098 226.146 459.005 226.146 453.956V342.135C226.146 337.087 222.088 332.994 217.082 332.994Z" fill="#263238"/>
<path d="M22.8995 453.48H234.258V453.699C234.258 456.661 233.091 459.502 231.015 461.596C228.938 463.69 226.122 464.867 223.185 464.867H33.9729C31.0361 464.867 28.2195 463.69 26.1429 461.596C24.0662 459.502 22.8995 456.661 22.8995 453.699V453.48Z" fill="#263238"/>
<path d="M220.36 338.164H36.2933V448.034H220.36V338.164Z" fill="#E0E0E0"/>
<path d="M109.371 453.48L111.991 457.683H148.9L151.332 453.48H109.371Z" fill="#455A64"/>
<path d="M211.9 345.479H42.4335V447.99H211.9V345.479Z" fill="#FAFAFA"/>
<path d="M49.6686 350.536C49.6686 350.82 49.585 351.098 49.4285 351.334C49.2719 351.571 49.0494 351.755 48.7891 351.863C48.5288 351.972 48.2424 352.001 47.966 351.945C47.6897 351.89 47.4358 351.753 47.2366 351.552C47.0374 351.351 46.9017 351.095 46.8467 350.816C46.7917 350.538 46.82 350.249 46.9278 349.986C47.0356 349.724 47.2182 349.499 47.4525 349.342C47.6867 349.184 47.9622 349.099 48.2439 349.099C48.4313 349.099 48.6169 349.135 48.7901 349.207C48.9633 349.279 49.1207 349.385 49.2531 349.518C49.3856 349.652 49.4905 349.811 49.5618 349.985C49.6331 350.16 49.6694 350.347 49.6686 350.536Z" fill="#455A64"/>
<path d="M55.4728 350.536C55.4728 350.82 55.3892 351.098 55.2327 351.334C55.0761 351.571 54.8536 351.755 54.5933 351.863C54.333 351.972 54.0466 352.001 53.7702 351.945C53.4939 351.89 53.24 351.753 53.0408 351.552C52.8416 351.351 52.7059 351.095 52.6509 350.816C52.5959 350.538 52.6242 350.249 52.732 349.986C52.8398 349.724 53.0224 349.499 53.2567 349.341C53.491 349.184 53.7664 349.099 54.0481 349.099C54.2352 349.099 54.4205 349.137 54.5933 349.209C54.7662 349.281 54.9232 349.387 55.0555 349.52C55.1878 349.654 55.2927 349.812 55.3643 349.986C55.4359 350.161 55.4728 350.347 55.4728 350.536Z" fill="#455A64"/>
<path d="M61.2707 350.536C61.2707 350.821 61.187 351.099 61.0302 351.335C60.8734 351.571 60.6505 351.756 60.3899 351.864C60.1292 351.973 59.8424 352.001 59.5659 351.945C59.2894 351.889 59.0356 351.751 58.8366 351.55C58.6376 351.348 58.5024 351.092 58.4481 350.813C58.3939 350.533 58.423 350.244 58.5317 349.982C58.6405 349.72 58.8241 349.496 59.0592 349.338C59.2943 349.181 59.5703 349.098 59.8523 349.099C60.0391 349.099 60.2241 349.137 60.3966 349.209C60.5691 349.281 60.7257 349.387 60.8575 349.521C60.9893 349.654 61.0936 349.812 61.1646 349.987C61.2355 350.161 61.2716 350.348 61.2707 350.536Z" fill="#455A64"/>
<path d="M211.9 356.81C211.9 356.898 173.952 356.973 127.17 356.973C80.3878 356.973 42.4335 356.898 42.4335 356.81C42.4335 356.722 80.3816 356.647 127.17 356.647C173.958 356.647 211.9 356.716 211.9 356.81Z" fill="#455A64"/>
<path d="M226.146 453.561H31.0615V454.188H226.146V453.561Z" fill="#455A64"/>
<path d="M93.3959 406.613H56.3312V409.116H93.3959V406.613Z" fill="#455A64"/>
<path d="M141.267 371.899H104.202V374.402H141.267V371.899Z" fill="#455A64"/>
<path d="M196.397 381.222C196.397 381.31 175.756 381.385 150.3 381.385C124.843 381.385 104.202 381.31 104.202 381.222C104.202 381.134 124.837 381.059 150.3 381.059C175.762 381.059 196.397 381.122 196.397 381.222Z" fill="#455A64"/>
<path d="M196.397 386.668C196.397 386.762 175.756 386.831 150.3 386.831C124.843 386.831 104.202 386.762 104.202 386.668C104.202 386.574 124.837 386.505 150.3 386.505C175.762 386.505 196.397 386.58 196.397 386.668Z" fill="#455A64"/>
<path d="M196.397 392.133C196.397 392.22 175.756 392.296 150.3 392.296C124.843 392.296 104.202 392.22 104.202 392.133C104.202 392.045 124.837 391.969 150.3 391.969C175.762 391.969 196.397 392.039 196.397 392.133Z" fill="#455A64"/>
<path d="M196.397 397.591C196.397 397.679 175.756 397.754 150.3 397.754C124.843 397.754 104.202 397.679 104.202 397.591C104.202 397.503 124.837 397.428 150.3 397.428C175.762 397.428 196.397 397.535 196.397 397.591Z" fill="#455A64"/>
<path d="M196.397 403.049C196.397 403.143 175.756 403.212 150.3 403.212C124.843 403.212 104.202 403.143 104.202 403.049C104.202 402.955 124.837 402.886 150.3 402.886C175.762 402.886 196.397 402.961 196.397 403.049Z" fill="#455A64"/>
<path d="M140.19 408.514C140.19 408.602 132.134 408.677 122.199 408.677C112.264 408.677 104.202 408.602 104.202 408.514C104.202 408.426 112.258 408.351 122.199 408.351C132.14 408.351 140.19 408.42 140.19 408.514Z" fill="#455A64"/>
<path d="M195.719 419.111C195.719 419.198 182.157 419.274 165.423 419.274C148.688 419.274 135.126 419.198 135.126 419.111C135.126 419.023 148.688 418.948 165.423 418.948C182.157 418.948 195.719 419.017 195.719 419.111Z" fill="#455A64"/>
<path d="M195.719 424.908C195.719 424.996 182.157 425.071 165.423 425.071C148.688 425.071 135.126 424.996 135.126 424.908C135.126 424.82 148.688 424.745 165.423 424.745C182.157 424.745 195.719 424.814 195.719 424.908Z" fill="#455A64"/>
<path d="M195.719 430.699C195.719 430.793 182.157 430.862 165.423 430.862C148.688 430.862 135.126 430.793 135.126 430.699C135.126 430.605 148.688 430.536 165.423 430.536C182.157 430.536 195.719 430.611 195.719 430.699Z" fill="#455A64"/>
<path d="M195.719 436.496C195.719 436.59 182.157 436.659 165.423 436.659C148.688 436.659 135.126 436.59 135.126 436.496C135.126 436.402 148.688 436.333 165.423 436.333C182.157 436.333 195.719 436.433 195.719 436.496Z" fill="#455A64"/>
<path d="M93.4893 418.552C93.4893 418.646 85.402 418.715 75.4484 418.715C65.4948 418.715 57.4075 418.646 57.4075 418.552C57.4075 418.458 65.4948 418.389 75.4484 418.389C85.402 418.389 93.4893 418.464 93.4893 418.552Z" fill="#455A64"/>
<path d="M93.4893 423.107C93.4893 423.195 85.402 423.27 75.4484 423.27C65.4948 423.27 57.4075 423.195 57.4075 423.107C57.4075 423.019 65.4948 422.944 75.4484 422.944C85.402 422.944 93.4893 423.013 93.4893 423.107Z" fill="#455A64"/>
<path d="M93.4893 427.65C93.4893 427.744 85.402 427.813 75.4484 427.813C65.4948 427.813 57.4075 427.744 57.4075 427.65C57.4075 427.555 65.4948 427.486 75.4484 427.486C85.402 427.486 93.4893 427.568 93.4893 427.65Z" fill="#455A64"/>
<path d="M93.4893 432.211C93.4893 432.299 85.402 432.374 75.4484 432.374C65.4948 432.374 57.4075 432.299 57.4075 432.211C57.4075 432.123 65.4948 432.048 75.4484 432.048C85.402 432.048 93.4893 432.123 93.4893 432.211Z" fill="#455A64"/>
<path d="M93.4893 436.759C93.4893 436.854 85.402 436.923 75.4484 436.923C65.4948 436.923 57.4075 436.854 57.4075 436.759C57.4075 436.665 65.4948 436.596 75.4484 436.596C85.402 436.596 93.4893 436.672 93.4893 436.759Z" fill="#455A64"/>
<path d="M93.4892 363.724H56.3312V399.981H93.4892V363.724Z" fill="#E0E0E0"/>
<path d="M59.2115 396.882L69.4886 378.223L77.8994 390.15L83.0069 383.813L90.609 396.882H59.2115Z" fill="#DB1F35"/>
<path d="M81.4952 374.597C81.4952 375.13 81.3383 375.652 81.0444 376.096C80.7504 376.539 80.3327 376.885 79.8439 377.089C79.3551 377.293 78.8172 377.347 78.2983 377.243C77.7794 377.139 77.3028 376.882 76.9286 376.504C76.5545 376.127 76.2998 375.646 76.1965 375.123C76.0933 374.6 76.1463 374.057 76.3488 373.564C76.5512 373.071 76.8941 372.65 77.334 372.354C77.7739 372.057 78.2911 371.899 78.8202 371.899C79.1717 371.898 79.5199 371.967 79.8448 372.103C80.1698 372.238 80.465 372.437 80.7135 372.687C80.9621 372.938 81.1591 373.236 81.2933 373.563C81.4274 373.891 81.496 374.242 81.4952 374.597Z" fill="#DB1F35"/>
<path d="M90.6089 396.982C90.6045 396.932 90.6045 396.882 90.6089 396.832C90.6089 396.725 90.6089 396.587 90.6089 396.411C90.6089 396.022 90.6089 395.477 90.6089 394.78C90.6089 393.343 90.6089 391.261 90.5716 388.619C90.5716 383.324 90.5218 375.783 90.4907 366.729L90.6462 366.88H59.2488L59.423 366.71V374.867C59.423 377.533 59.423 380.143 59.423 382.678C59.423 387.76 59.423 392.559 59.423 396.976L59.2737 396.819L81.9742 396.901L88.3756 396.938H90.0739H90.5156H90.6711H90.5343H90.105H88.4378L82.0737 396.982L59.2737 397.064H59.1182V396.907C59.1182 392.515 59.1182 387.691 59.1182 382.609C59.1182 380.099 59.1182 377.464 59.1182 374.798V366.641C58.9627 366.798 59.3359 366.416 59.2986 366.459H90.696H90.8453V366.61C90.8453 375.707 90.7893 383.28 90.7707 388.569C90.7707 391.191 90.7396 393.262 90.7271 394.692C90.7271 395.376 90.7271 395.947 90.7271 396.292C90.7271 396.462 90.7271 396.593 90.7271 396.7C90.7017 396.8 90.6619 396.895 90.6089 396.982Z" fill="#455A64"/>
<path d="M130.479 416.344H104.183V442.004H130.479V416.344Z" fill="#E0E0E0"/>
<path d="M106.217 439.809L113.496 426.602L119.443 435.04L123.058 430.561L128.439 439.809H106.217Z" fill="#DB1F35"/>
<path d="M121.981 424.036C121.981 424.407 121.873 424.769 121.669 425.078C121.465 425.387 121.176 425.628 120.836 425.771C120.497 425.915 120.124 425.954 119.762 425.884C119.401 425.814 119.069 425.637 118.806 425.377C118.544 425.117 118.364 424.785 118.289 424.422C118.213 424.059 118.246 423.681 118.382 423.337C118.519 422.993 118.753 422.696 119.056 422.486C119.359 422.275 119.716 422.16 120.084 422.154C120.332 422.149 120.578 422.195 120.808 422.288C121.038 422.38 121.247 422.518 121.424 422.694C121.601 422.869 121.741 423.078 121.837 423.308C121.932 423.539 121.982 423.786 121.981 424.036Z" fill="#DB1F35"/>
<path d="M128.439 439.878C128.436 439.842 128.436 439.806 128.439 439.771C128.439 439.696 128.439 439.595 128.439 439.476C128.439 439.2 128.439 438.817 128.439 438.322C128.439 437.299 128.439 435.812 128.439 433.961C128.439 430.197 128.402 424.876 128.383 418.471L128.489 418.577H106.273C106.242 418.577 106.504 418.339 106.392 418.452V429.745C106.392 433.334 106.392 436.734 106.392 439.859L106.28 439.746L122.349 439.802L126.877 439.834H128.078H126.902L122.392 439.865L106.255 439.921H106.149V439.809C106.149 436.672 106.149 433.284 106.149 429.695C106.149 427.892 106.149 426.048 106.149 424.161V418.408L106.28 418.276H128.495H128.601V418.389C128.601 424.826 128.563 430.184 128.551 433.949C128.551 435.831 128.551 437.268 128.52 438.284C128.52 438.767 128.52 439.15 128.52 439.413C128.52 439.532 128.52 439.627 128.52 439.702C128.504 439.765 128.476 439.824 128.439 439.878Z" fill="#455A64"/>
<path d="M350.056 453.731L343.835 452.984L342.379 464.748L351.487 465.921L351.624 465.193C352.202 461.975 354.348 448.774 353.969 446.522C353.527 444.025 350.056 453.731 350.056 453.731Z" fill="#DB1F35"/>
<path d="M353.415 445.694C353.527 445.694 353.098 450.117 352.464 455.544C351.829 460.971 351.219 465.362 351.107 465.35C350.995 465.337 351.425 460.958 352.059 455.5C352.694 450.041 353.31 445.681 353.415 445.694Z" fill="#263238"/>
<path d="M351.356 453.178C351.288 453.272 350.964 453.147 350.672 452.852C350.379 452.557 350.243 452.225 350.33 452.168C350.417 452.112 350.678 452.3 350.952 452.564C351.225 452.827 351.418 453.091 351.356 453.178Z" fill="#263238"/>
<path d="M351.854 452.482C351.798 452.576 351.431 452.482 351.07 452.2C350.709 451.917 350.516 451.572 350.591 451.516C350.666 451.459 350.977 451.622 351.313 451.88C351.649 452.137 351.904 452.382 351.854 452.482Z" fill="#263238"/>
<path d="M351.487 461.799C351.487 461.849 351.331 462.006 351.02 462.232C350.626 462.505 350.258 462.814 349.919 463.154C349.6 463.496 349.37 463.912 349.247 464.365C349.166 464.71 349.185 464.948 349.123 464.992C349.061 465.036 348.949 464.773 348.967 464.365C349.018 463.824 349.251 463.317 349.627 462.928C349.982 462.553 350.404 462.249 350.871 462.031C351.226 461.824 351.487 461.755 351.487 461.799Z" fill="#263238"/>
<path d="M350.187 453.003C350.286 452.959 350.485 453.191 350.56 453.542C350.635 453.894 350.56 454.17 350.448 454.17C350.336 454.17 350.236 453.919 350.168 453.611C350.1 453.304 350.081 453.053 350.187 453.003Z" fill="#263238"/>
<path d="M349.564 453.116C349.676 453.116 349.732 453.448 349.689 453.844C349.645 454.239 349.527 454.546 349.415 454.527C349.303 454.509 349.253 454.182 349.291 453.8C349.328 453.417 349.452 453.116 349.564 453.116Z" fill="#263238"/>
<path d="M346.261 465.682L311.778 462.156L240.28 463.769L259.291 448.31L307.013 445.995L348.737 451.792L346.261 465.682Z" fill="#263238"/>
<path d="M287.977 456.027C287.977 456.115 281.264 456.19 272.99 456.19C264.716 456.19 257.998 456.115 257.998 456.027C257.998 455.939 264.71 455.864 272.99 455.864C281.27 455.864 287.977 455.933 287.977 456.027Z" fill="#455A64"/>
<path d="M284.642 447.08L287.093 462.633H291.796L288.219 446.904L284.642 447.08Z" fill="black"/>
<path d="M302.845 462.834L302.148 456.56L290.465 457.815L291.386 467.019L292.114 466.987C295.361 466.831 308.593 465.933 310.683 465.049C313.01 464.039 302.845 462.834 302.845 462.834Z" fill="#DB1F35"/>
<path d="M310.895 464.421C310.895 464.528 306.54 465.112 301.159 465.72C295.778 466.329 291.398 466.73 291.386 466.624C291.373 466.517 295.74 465.927 301.115 465.319C306.49 464.71 310.882 464.308 310.895 464.421Z" fill="#263238"/>
<path d="M303.193 464.095C303.094 464.058 303.137 463.706 303.355 463.349C303.573 462.991 303.853 462.79 303.933 462.859C304.014 462.928 303.89 463.229 303.697 463.562C303.504 463.894 303.299 464.139 303.193 464.095Z" fill="#263238"/>
<path d="M303.983 464.428C303.877 464.396 303.89 464.014 304.076 463.593C304.263 463.173 304.537 462.909 304.63 462.966C304.723 463.022 304.63 463.367 304.443 463.756C304.257 464.145 304.089 464.459 303.983 464.428Z" fill="#263238"/>
<path d="M294.876 466.184C294.832 466.222 294.639 466.078 294.353 465.827C293.998 465.5 293.615 465.206 293.208 464.948C292.807 464.714 292.353 464.585 291.89 464.572C291.535 464.572 291.311 464.641 291.267 464.572C291.224 464.503 291.442 464.346 291.852 464.271C292.385 464.198 292.926 464.308 293.389 464.585C293.831 464.854 294.221 465.203 294.54 465.613C294.82 465.921 294.938 466.147 294.876 466.184Z" fill="#263238"/>
<path d="M303.1 462.909C303.162 462.997 302.982 463.248 302.664 463.399C302.347 463.549 302.042 463.543 302.042 463.436C302.042 463.33 302.235 463.173 302.515 463.035C302.795 462.897 303.031 462.821 303.1 462.909Z" fill="#263238"/>
<path d="M302.845 462.326C302.845 462.433 302.565 462.564 302.173 462.614C301.781 462.665 301.457 462.614 301.451 462.502C301.445 462.389 301.75 462.257 302.123 462.213C302.496 462.169 302.826 462.213 302.845 462.326Z" fill="#263238"/>
<path d="M234.451 391.072L244.405 390.89C244.535 389.723 244.728 385.2 244.728 385.2C244.728 385.2 248.896 384.811 249.201 380.651C249.506 376.491 249.375 366.886 249.375 366.886C247.09 365.725 244.54 365.199 241.986 365.363C239.433 365.528 236.969 366.376 234.849 367.821L234.227 368.254L234.451 391.072Z" fill="#FFD6BA"/>
<path d="M248.007 373.982C247.938 373.861 247.911 373.72 247.93 373.582C247.95 373.445 248.014 373.317 248.113 373.22C248.212 373.123 248.34 373.062 248.478 373.046C248.615 373.031 248.753 373.062 248.871 373.135C248.952 373.185 249.021 373.253 249.071 373.334C249.122 373.414 249.154 373.506 249.165 373.601C249.175 373.696 249.164 373.792 249.132 373.882C249.1 373.972 249.048 374.053 248.98 374.12C248.912 374.187 248.829 374.237 248.739 374.266C248.649 374.296 248.554 374.304 248.46 374.291C248.366 374.278 248.276 374.243 248.198 374.189C248.119 374.136 248.054 374.065 248.007 373.982Z" fill="#263238"/>
<path d="M249.064 373.097C248.996 373.166 248.61 372.821 248.044 372.784C247.478 372.746 247.042 373.016 246.986 372.94C246.93 372.865 247.03 372.777 247.217 372.652C247.471 372.491 247.769 372.416 248.069 372.438C248.368 372.46 248.652 372.578 248.878 372.777C249.046 372.928 249.101 373.066 249.064 373.097Z" fill="#263238"/>
<path d="M242.489 373.185C242.615 373.282 242.7 373.423 242.726 373.58C242.753 373.737 242.719 373.899 242.632 374.032C242.527 374.12 242.396 374.171 242.259 374.177C242.122 374.183 241.988 374.143 241.876 374.064C241.764 373.984 241.681 373.87 241.64 373.738C241.599 373.607 241.602 373.465 241.649 373.336C241.743 373.207 241.883 373.12 242.039 373.092C242.195 373.064 242.356 373.098 242.489 373.185Z" fill="#263238"/>
<path d="M242.862 373.217C242.793 373.286 242.408 372.947 241.842 372.909C241.275 372.871 240.84 373.141 240.784 373.06C240.728 372.978 240.828 372.903 241.014 372.771C241.268 372.61 241.567 372.535 241.866 372.558C242.164 372.584 242.447 372.702 242.675 372.897C242.843 373.066 242.893 373.185 242.862 373.217Z" fill="#263238"/>
<path d="M244.853 378.085C245.154 377.987 245.469 377.94 245.786 377.947C245.935 377.947 246.053 377.916 246.066 377.834C246.084 377.685 246.055 377.534 245.985 377.401C245.867 377.012 245.742 376.617 245.611 376.203C245.246 375.186 244.981 374.135 244.821 373.066C245.291 374.032 245.658 375.046 245.916 376.09C246.041 376.504 246.159 376.899 246.271 377.288C246.354 377.487 246.369 377.707 246.314 377.916C246.29 377.971 246.253 378.019 246.206 378.057C246.16 378.095 246.105 378.122 246.047 378.135C245.962 378.147 245.877 378.147 245.792 378.135C245.478 378.178 245.16 378.161 244.853 378.085Z" fill="#263238"/>
<path d="M242.968 378.606C242.395 378.211 244.541 379.578 245.705 379.597C245.496 379.881 245.198 380.086 244.86 380.179C244.521 380.273 244.162 380.249 243.838 380.112C242.619 379.578 242.968 378.606 242.968 378.606Z" fill="white"/>
<path d="M244.759 385.143C242.85 385.06 241.009 384.405 239.471 383.261C239.471 383.261 240.56 386.342 244.703 386.222L244.759 385.143Z" fill="#A36957"/>
<path d="M249.699 365.393C249.935 365.384 250.166 365.321 250.374 365.208C250.582 365.095 250.762 364.935 250.9 364.741C251.038 364.548 251.129 364.324 251.168 364.089C251.207 363.854 251.193 363.613 251.125 363.385C251.057 363.156 250.939 362.946 250.778 362.771C250.618 362.596 250.419 362.46 250.199 362.375C249.978 362.289 249.741 362.255 249.506 362.275C249.27 362.296 249.043 362.371 248.84 362.494C249.335 362.084 249.737 361.573 250.022 360.995C250.162 360.704 250.209 360.376 250.157 360.057C250.105 359.738 249.955 359.443 249.73 359.213C249.47 359.033 249.166 358.928 248.852 358.909C248.537 358.89 248.223 358.958 247.944 359.106C247.067 359.483 246.377 360.229 245.456 360.543C244.535 360.857 243.546 360.706 242.582 360.75C241.517 360.772 240.486 361.13 239.633 361.773C239.211 362.102 238.871 362.527 238.641 363.013C238.411 363.499 238.297 364.033 238.308 364.571C236.958 364.402 235.465 364.383 234.401 365.23C233.973 365.615 233.635 366.091 233.411 366.623C233.187 367.156 233.083 367.732 233.107 368.31C233.206 369.461 233.476 370.591 233.91 371.661C233.987 371.976 234.126 372.273 234.32 372.533L234.824 375.519L236.691 375.481L236.566 369.264C236.566 369.264 236.386 366.648 238.619 366.874C240.852 367.099 243.888 369.647 248.237 369.007C248.948 368.968 249.642 368.767 250.265 368.417C250.567 368.226 250.814 367.956 250.978 367.636C251.142 367.316 251.218 366.957 251.198 366.597C251.157 366.237 250.977 365.908 250.695 365.682C250.414 365.456 250.056 365.352 249.699 365.393Z" fill="#263238"/>
<path d="M235.023 371.949C234.93 371.918 231.963 371.523 232.243 375.086C232.523 378.65 235.975 377.169 235.975 377.062C235.975 376.956 235.023 371.949 235.023 371.949Z" fill="#FFD6BA"/>
<path d="M234.799 375.889C234.799 375.889 234.743 375.939 234.644 375.996C234.502 376.07 234.337 376.085 234.184 376.04C233.946 375.913 233.745 375.725 233.603 375.495C233.461 375.264 233.382 375 233.375 374.729C233.343 374.426 233.377 374.12 233.474 373.831C233.498 373.718 233.55 373.613 233.623 373.524C233.697 373.436 233.791 373.367 233.897 373.323C233.966 373.297 234.041 373.297 234.109 373.322C234.178 373.348 234.235 373.397 234.271 373.461C234.327 373.555 234.314 373.631 234.333 373.637C234.352 373.643 234.401 373.568 234.364 373.424C234.336 373.339 234.282 373.266 234.208 373.216C234.105 373.15 233.98 373.128 233.86 373.154C233.71 373.193 233.573 373.271 233.464 373.382C233.355 373.492 233.276 373.63 233.238 373.781C233.117 374.101 233.073 374.445 233.107 374.785C233.114 375.102 233.215 375.409 233.395 375.668C233.576 375.927 233.828 376.126 234.121 376.241C234.217 376.263 234.316 376.262 234.411 376.238C234.507 376.214 234.595 376.167 234.669 376.103C234.799 375.977 234.812 375.895 234.799 375.889Z" fill="#A36957"/>
<path d="M226.376 453.122C228.243 455.926 239.565 473.105 253.071 460.619C270.284 444.696 283.921 430.787 283.921 430.787L289.034 462.251L305.066 461.379C305.066 461.379 298.845 414.524 294.869 410.264C290.465 405.515 286.403 405.917 251.77 433.478L226.376 453.122Z" fill="#455A64"/>
<path d="M283.696 399.749L298.664 388.738L299.398 389.918L284.53 401.067L283.696 399.749Z" fill="#263238"/>
<path d="M287.41 399.417C287.41 399.417 289.42 394.146 289.868 393.023C290.316 391.9 291.112 389.949 291.373 389.886C291.634 389.824 292.704 390.018 291.336 393.369C289.967 396.719 292.953 394.674 292.953 394.674L295.834 392.591C295.834 392.591 298.117 399.454 296.817 401.518C295.802 403.076 294.659 404.545 293.401 405.91L287.41 399.417Z" fill="#FFD6BA"/>
<path d="M287.566 398.789C287.267 398.099 268.237 415.058 264.449 415.635L253.35 401.054C253.35 401.054 251.042 397.371 246.097 391.06C242.905 386.982 234.09 387.829 231.788 392.791C227.857 401.224 227.813 410.603 225.717 428.842L224.827 441.151C224.63 443.774 224.67 446.409 224.945 449.025C225.281 452.087 225.972 455.299 227.378 454.847L252.759 433.679L253.574 424.067C258.912 429.525 260.573 430.667 263.348 430.234C270.34 429.143 294.789 406.964 294.789 406.964C294.789 406.964 287.858 399.492 287.566 398.789Z" fill="#DB1F35"/>
<path d="M291.485 410.082C290.988 409.778 290.529 409.416 290.117 409.003C289.075 408.068 288.1 407.06 287.199 405.985C286.293 404.915 285.462 403.783 284.711 402.598C284.374 402.121 284.093 401.607 283.871 401.067C284.248 401.508 284.591 401.978 284.897 402.472C285.519 403.344 286.396 404.53 287.448 405.778C288.499 407.027 289.519 408.081 290.272 408.834C290.707 409.219 291.112 409.636 291.485 410.082Z" fill="#263238"/>
<path d="M263.366 421.426C263.498 419.468 263.84 417.531 264.386 415.647C264.376 416.63 264.259 417.608 264.038 418.565C263.923 419.541 263.698 420.501 263.366 421.426Z" fill="#263238"/>
<path d="M265.792 420.824C265.408 420.026 265.126 419.183 264.953 418.314C264.67 417.476 264.493 416.605 264.424 415.723C264.803 416.522 265.085 417.365 265.264 418.232C265.546 419.071 265.723 419.941 265.792 420.824Z" fill="#263238"/>
<path d="M238.308 403.633C238.536 403.886 238.744 404.157 238.93 404.442L240.591 406.707C241.991 408.621 243.938 411.256 246.122 414.142L251.721 421.501L253.419 423.741C253.639 424.006 253.837 424.29 254.01 424.588C253.759 424.353 253.528 424.097 253.319 423.822C252.896 423.314 252.287 422.568 251.54 421.645C250.053 419.801 248.019 417.254 245.836 414.336C243.652 411.419 241.723 408.796 240.373 406.845C239.695 405.866 239.129 405.07 238.793 404.517C238.609 404.236 238.447 403.94 238.308 403.633Z" fill="#263238"/>
<path d="M235.061 416.024C233.804 415.182 232.674 414.162 231.708 412.994C232.964 413.835 234.094 414.856 235.061 416.024Z" fill="#263238"/>
<path d="M232.877 423.101C232.601 423.802 232.226 424.459 231.764 425.052C231.392 425.707 230.926 426.303 230.382 426.821C230.664 426.123 231.039 425.467 231.496 424.87C231.87 424.217 232.335 423.621 232.877 423.101Z" fill="#263238"/>
<path d="M235.944 432.851C235.876 432.913 235.322 432.349 234.7 431.596C234.277 431.172 233.934 430.674 233.686 430.128C233.754 430.065 234.308 430.63 234.93 431.383C235.352 431.807 235.696 432.304 235.944 432.851Z" fill="#263238"/>
<path d="M230.022 439.112C229.163 439.962 228.157 440.647 227.054 441.132C227.449 440.67 227.92 440.282 228.448 439.984C228.916 439.601 229.449 439.305 230.022 439.112Z" fill="#263238"/>
<path d="M238.302 440.762C237.641 440.475 237.069 440.013 236.647 439.426C236.141 438.903 235.782 438.253 235.608 437.544C235.695 437.5 236.149 438.322 236.896 439.194C237.642 440.066 238.358 440.687 238.302 440.762Z" fill="#263238"/>
<path d="M246.022 434.852C245.57 435.454 245.033 435.986 244.429 436.433C243.896 436.965 243.288 437.416 242.625 437.769C243.08 437.17 243.616 436.637 244.218 436.188C244.752 435.658 245.36 435.208 246.022 434.852Z" fill="#263238"/>
<path d="M230.134 446.271C229.584 446.069 229.099 445.722 228.728 445.267C228.28 444.883 227.946 444.381 227.763 443.818C227.838 443.767 228.311 444.37 228.958 445.035C229.605 445.7 230.177 446.195 230.134 446.271Z" fill="#263238"/>
<path d="M247.397 429.274C246.886 429.616 246.302 429.831 245.692 429.902C245.102 430.083 244.478 430.121 243.87 430.015C245.032 429.701 246.209 429.446 247.397 429.249V429.274Z" fill="#263238"/>
<path d="M241.649 422.674C241.522 423.439 241.313 424.188 241.027 424.908C240.824 425.63 240.581 426.34 240.299 427.035H240.23C240.23 427.003 240.268 426.985 240.28 426.985C240.293 426.985 240.28 426.985 240.28 427.054H240.212C240.289 426.3 240.454 425.559 240.703 424.845C240.89 424.071 241.21 423.337 241.649 422.674Z" fill="#263238"/>
<path d="M244.069 418.483C242.785 417.816 241.609 416.957 240.579 415.936C241.862 416.603 243.039 417.462 244.069 418.483Z" fill="#263238"/>
<path d="M239.129 409.26C238.941 409.883 238.628 410.46 238.209 410.954C237.876 411.512 237.431 411.993 236.902 412.366C237.554 411.268 238.299 410.228 239.129 409.26Z" fill="#263238"/>
<path d="M231.533 408.006C231.422 407.303 231.422 406.587 231.533 405.885C231.535 405.171 231.648 404.462 231.869 403.783C231.973 404.488 231.973 405.205 231.869 405.91C231.862 406.622 231.748 407.328 231.533 408.006Z" fill="#263238"/>
<path d="M228.578 421.834C228.403 421.086 228.335 420.317 228.379 419.55C228.308 418.785 228.35 418.013 228.504 417.26C228.744 418.773 228.769 420.313 228.578 421.834Z" fill="#263238"/>
<path d="M228.162 435.103C227.881 434.695 227.692 434.231 227.608 433.742C227.421 433.281 227.338 432.783 227.365 432.286C227.642 432.696 227.83 433.16 227.919 433.647C228.103 434.109 228.186 434.606 228.162 435.103Z" fill="#263238"/>
<path d="M238.638 397.66C238.145 398.235 237.608 398.77 237.033 399.26C236.536 399.828 235.993 400.352 235.409 400.828C236.184 399.499 237.299 398.404 238.638 397.66Z" fill="#263238"/>
<path d="M234.19 396.16C234.058 395.476 234.033 394.776 234.115 394.084C234.094 393.387 234.178 392.691 234.364 392.02C234.522 393.401 234.463 394.798 234.19 396.16Z" fill="#263238"/>
<path d="M245.108 394.667C244.494 394.363 243.916 393.99 243.384 393.557C242.791 393.211 242.235 392.805 241.723 392.346C242.404 392.523 243.041 392.844 243.59 393.287C244.182 393.64 244.698 394.109 245.108 394.667Z" fill="#263238"/>
<path d="M242.725 402.503C242.545 401.784 242.473 401.042 242.513 400.301C242.45 399.565 242.49 398.824 242.632 398.099C242.812 398.816 242.881 399.557 242.837 400.295C242.904 401.033 242.866 401.776 242.725 402.503Z" fill="#263238"/>
<path d="M249.108 407.083C248.473 407.006 247.848 406.865 247.241 406.663C246.605 406.564 245.979 406.4 245.375 406.174C246.681 406.102 247.979 406.418 249.108 407.083Z" fill="#263238"/>
<path d="M249.537 402.409C249.315 401.189 249.305 399.938 249.506 398.714C249.673 399.316 249.734 399.942 249.686 400.565C249.745 401.184 249.694 401.808 249.537 402.409Z" fill="#263238"/>
<path d="M254.402 410.246C254.21 409.487 254.122 408.706 254.14 407.924C254.054 407.145 254.073 406.358 254.196 405.584C254.396 406.341 254.486 407.123 254.464 407.905C254.55 408.685 254.529 409.472 254.402 410.246Z" fill="#263238"/>
<path d="M250.663 412.899C250.595 412.956 250.091 412.498 249.537 411.864C248.983 411.231 248.585 410.672 248.654 410.609C248.722 410.547 249.226 411.011 249.78 411.645C250.333 412.278 250.707 412.837 250.663 412.899Z" fill="#263238"/>
<path d="M255.391 416.507C254.807 416.712 254.193 416.814 253.574 416.808C252.957 416.916 252.326 416.916 251.708 416.808C252.904 416.5 254.144 416.406 255.372 416.532L255.391 416.507Z" fill="#263238"/>
<path d="M258.949 418.345C258.768 417.673 258.688 416.977 258.713 416.281C258.631 415.589 258.661 414.888 258.8 414.204C258.982 414.877 259.061 415.572 259.036 416.269C259.118 416.961 259.088 417.662 258.949 418.345Z" fill="#263238"/>
<path d="M262.464 425.209C261.716 425.355 260.948 425.355 260.2 425.209C259.442 425.174 258.697 424.998 258.004 424.688C258.753 424.677 259.501 424.742 260.237 424.883C260.988 424.925 261.733 425.034 262.464 425.209Z" fill="#263238"/>
<path d="M268.492 422.041C268.416 422.758 268.233 423.46 267.951 424.124C267.766 424.818 267.481 425.482 267.105 426.094C267.178 425.377 267.36 424.677 267.646 424.017C267.826 423.318 268.111 422.652 268.492 422.041Z" fill="#263238"/>
<path d="M272.847 416.501C272.191 416.483 271.542 416.358 270.925 416.131C270.28 416.008 269.66 415.779 269.09 415.453C269.746 415.467 270.395 415.59 271.012 415.817C271.656 415.943 272.276 416.174 272.847 416.501Z" fill="#263238"/>
<path d="M276.337 418.609C275.516 419.633 274.532 420.513 273.426 421.212C273.798 420.668 274.253 420.188 274.776 419.788C275.226 419.309 275.754 418.91 276.337 418.609Z" fill="#263238"/>
<path d="M277.743 413.414C277.396 412.793 277.184 412.104 277.121 411.394C276.945 410.703 276.915 409.982 277.034 409.279C277.236 409.95 277.371 410.639 277.438 411.337C277.606 412.018 277.708 412.713 277.743 413.414Z" fill="#263238"/>
<path d="M284.393 412.222C283.793 412.904 283.149 413.546 282.465 414.142C281.854 414.81 281.201 415.439 280.511 416.024C280.959 415.217 281.542 414.495 282.235 413.891C282.856 413.215 283.585 412.651 284.393 412.222Z" fill="#263238"/>
<path d="M285.053 409.838C284.34 409.729 283.646 409.518 282.994 409.21C282.305 409.003 281.651 408.694 281.053 408.294C281.767 408.397 282.461 408.608 283.112 408.922C283.8 409.128 284.455 409.436 285.053 409.838Z" fill="#263238"/>
<path d="M284.418 407.24C283.882 406.147 283.545 404.965 283.423 403.752C283.74 404.275 283.961 404.851 284.076 405.452C284.294 406.023 284.41 406.629 284.418 407.24Z" fill="#263238"/>
<path d="M249.593 425.316C249.125 424.929 248.729 424.462 248.423 423.935C248.035 423.468 247.728 422.938 247.515 422.367C247.59 422.31 248.137 422.932 248.685 423.747C249.08 424.209 249.388 424.741 249.593 425.316Z" fill="#263238"/>
<path d="M297.022 456.918C296.995 456.832 296.978 456.744 296.972 456.654C296.972 456.46 296.91 456.196 296.866 455.864C296.773 455.148 296.636 454.132 296.468 452.827C296.114 450.186 295.61 446.365 294.857 441.672C294.104 436.979 293.103 431.395 291.684 425.272C291.534 424.503 291.283 423.758 290.938 423.057C290.551 422.361 290.045 421.739 289.445 421.219C288.179 420.163 286.561 419.636 284.922 419.744C284.089 419.781 283.272 419.994 282.527 420.372C281.775 420.796 281.059 421.283 280.387 421.827L276.107 425.033C270.346 429.394 264.953 433.666 260.144 437.675C255.335 441.685 251.123 445.461 247.596 448.642C245.817 450.186 243.919 451.428 241.997 451.623C241.114 451.726 240.219 451.618 239.384 451.309C238.695 451.043 238.046 450.682 237.456 450.236C236.648 449.612 235.898 448.915 235.216 448.153L234.687 447.563C234.625 447.496 234.567 447.424 234.513 447.35C234.584 447.408 234.65 447.471 234.712 447.538C234.843 447.682 235.03 447.871 235.26 448.109C235.958 448.847 236.718 449.522 237.53 450.129C238.117 450.563 238.762 450.909 239.446 451.158C240.256 451.453 241.124 451.55 241.978 451.441C243.845 451.234 245.711 450.016 247.453 448.473C250.943 445.273 255.13 441.477 259.945 437.468C264.76 433.459 270.141 429.162 275.908 424.801L280.188 421.589C280.878 421.038 281.61 420.543 282.378 420.108C283.152 419.71 283.999 419.477 284.866 419.424C286.587 419.312 288.286 419.869 289.613 420.98C290.241 421.525 290.77 422.177 291.174 422.906C291.533 423.633 291.791 424.405 291.939 425.203C293.351 431.339 294.322 436.929 295.05 441.634C295.778 446.34 296.25 450.167 296.561 452.808C296.705 454.12 296.823 455.142 296.897 455.857C296.929 456.19 296.953 456.485 296.978 456.648C297 456.737 297.014 456.827 297.022 456.918Z" fill="#263238"/>
<path d="M304.288 456.573C304.086 456.632 303.877 456.663 303.666 456.667C303.262 456.711 302.677 456.761 301.955 456.811C300.506 456.918 298.509 457.018 296.3 457.118L290.645 457.363L288.928 457.426C288.722 457.458 288.512 457.458 288.306 457.426C288.508 457.362 288.717 457.326 288.928 457.319C289.327 457.269 289.911 457.213 290.633 457.15C292.082 457.031 294.079 456.905 296.288 456.811L301.949 456.604L303.666 456.56C303.873 456.535 304.082 456.54 304.288 456.573Z" fill="#263238"/>
<path d="M288.35 425.861C286.928 428.185 285.081 430.214 282.906 431.841C282.844 431.772 284.151 430.542 285.675 428.892C287.199 427.242 288.269 425.805 288.35 425.861Z" fill="#263238"/>
<path d="M288.947 427.769C288.108 428.415 287.222 428.998 286.297 429.513C285.426 430.119 284.511 430.658 283.56 431.125C285.173 429.732 286.99 428.6 288.947 427.769Z" fill="#263238"/>
<path d="M341.359 458.191C341.233 458.202 341.106 458.202 340.98 458.191L339.897 458.103L335.916 457.727L322.796 456.347C317.669 455.801 313.041 455.199 309.675 455.035C307.996 454.941 306.633 454.954 305.688 454.985L304.605 455.035C304.479 455.052 304.352 455.052 304.226 455.035C304.346 454.994 304.472 454.971 304.599 454.966C304.848 454.929 305.221 454.897 305.682 454.86C307.015 454.765 308.352 454.746 309.688 454.803C313.072 454.91 317.707 455.475 322.827 456.02L335.934 457.482L339.903 457.965L340.98 458.116C341.109 458.125 341.236 458.15 341.359 458.191Z" fill="#455A64"/>
<path d="M340.569 465.199C340.482 465.199 340.762 462.062 341.191 458.173C341.62 454.283 342.056 451.171 342.143 451.177C342.23 451.183 341.95 454.314 341.521 458.21C341.091 462.106 340.662 465.212 340.569 465.199Z" fill="#455A64"/>
</g>
<mask id="mask0_8771_448483" style="mask-type:alpha" maskUnits="userSpaceOnUse" x="145" y="0" width="210" height="198">
<rect x="145" width="210" height="198" fill="white"/>
</mask>
<g mask="url(#mask0_8771_448483)">
<path fill-rule="evenodd" clip-rule="evenodd" d="M354.955 98.9776C354.955 153.641 310.816 197.955 256.368 197.955C201.92 197.955 157.781 153.641 157.781 98.9776C157.781 44.3138 201.92 0 256.368 0C310.816 0 354.955 44.3138 354.955 98.9776C354.955 98.9776 354.955 153.641 354.955 98.9776Z" fill="#F5F7FF"/>
<path d="M183.344 45.2264C183.21 44.8226 183.433 44.3739 183.835 44.2842L192.237 42.5344C192.684 42.4446 193.086 42.8036 193.086 43.2522L191.745 63.3977C191.701 64.1605 190.673 64.2951 190.405 63.6221L183.344 45.2264Z" fill="#D9E0FF"/>
<path d="M199.387 37.5087C199.432 37.06 199.834 36.7908 200.281 36.9254L208.549 39.2136C208.996 39.3482 209.175 39.8418 208.951 40.2456L198.538 57.5644C198.181 58.1926 197.198 57.8785 197.287 57.1157L199.387 37.5087Z" fill="#D9E0FF"/>
<path d="M209.533 50.4307C209.757 50.0718 210.248 49.982 210.561 50.2513L214.449 53.4817C214.807 53.7958 214.762 54.3342 214.404 54.6034L204.662 61.4232C204.036 61.8719 203.277 61.154 203.679 60.481L209.533 50.4307Z" fill="#D9E0FF"/>
<path d="M329.213 72.1467C329.213 72.1018 329.213 72.1018 329.213 72.057C329.213 71.9672 329.213 71.8775 329.213 71.7429C329.034 64.6987 323.269 61.1542 323.269 61.1542L321.794 62.7694L278.892 48.9502C273.842 47.335 268.434 50.1168 266.825 55.1868L233.397 159.818L229.688 163.856C229.822 169.509 234.291 173.323 234.335 173.368C235.408 174.489 236.749 175.387 238.357 175.88L281.975 189.924C287.025 191.539 292.433 188.757 294.042 183.687L328.721 75.108C329.034 74.4349 329.168 73.6722 329.213 72.8646C329.213 72.6402 329.213 72.4159 329.213 72.1467Z" fill="#5D9FE7"/>
<path fill-rule="evenodd" clip-rule="evenodd" d="M299 47C299 51.4183 295.418 55 291 55C286.582 55 283 51.4183 283 47C283 42.5817 286.582 39 291 39C295.418 39 299 42.5817 299 47C299 47 299 51.4183 299 47Z" fill="url(#paint0_linear_8771_448483)"/>
<path d="M236.669 172.389C231.619 170.774 228.848 165.345 230.457 160.275L265.137 51.6956C266.746 46.6256 272.153 43.8438 277.203 45.459L320.821 59.5025C325.871 61.1178 328.642 66.5467 327.033 71.6167L292.353 180.196C290.745 185.266 285.337 188.048 280.287 186.433L236.669 172.389Z" fill="url(#paint1_linear_8771_448483)"/>
<path d="M313.662 60.9301L313.081 62.6799C312.544 64.2952 310.846 65.1925 309.193 64.699L283.362 56.3985C281.753 55.8601 280.859 54.1551 281.351 52.495L281.932 50.7452L276.256 48.9056C272.591 47.7391 268.659 49.7581 267.452 53.4372L233.085 160.984C231.923 164.664 233.934 168.612 237.599 169.823L280.636 183.687C284.3 184.854 288.233 182.835 289.44 179.156L323.806 71.6086C325.058 67.9294 323.002 63.9811 319.337 62.7697L313.662 60.9301Z" fill="white"/>
<path d="M307.092 124.148L240.459 138.147L236.705 149.857L302.579 138.237L307.092 124.148Z" fill="#EDEFFF"/>
<path d="M247.475 116.162L313.125 105.169L322.823 74.8389L258.066 83.0496L247.475 116.162Z" fill="#EDEFFF"/>
<path d="M293.193 56.802C292.88 56.7122 292.701 56.3533 292.791 56.0392C292.88 55.7251 293.237 55.5457 293.55 55.6354L301.192 58.1031C301.505 58.1928 301.684 58.5518 301.595 58.8659C301.505 59.1799 301.148 59.3594 300.835 59.2697L293.193 56.802Z" fill="white"/>
<path fill-rule="evenodd" clip-rule="evenodd" d="M305.795 59.8983C305.795 60.4186 305.375 60.8405 304.856 60.8405C304.338 60.8405 303.918 60.4186 303.918 59.8983C303.918 59.3779 304.338 58.9561 304.856 58.9561C305.375 58.9561 305.795 59.3779 305.795 59.8983C305.795 59.8983 305.795 60.4186 305.795 59.8983Z" fill="white"/>
<path fill-rule="evenodd" clip-rule="evenodd" d="M258.66 111.525C258.087 108.403 258.144 105.699 258.841 103.475C259.538 101.25 260.727 98.6939 262.359 95.877C263.568 93.7666 264.464 91.9608 264.952 90.6026C265.44 89.2444 265.535 87.7539 265.249 86.1933C264.94 84.5079 264.091 83.2261 262.713 82.4102C261.336 81.5943 259.632 81.3419 257.543 81.6619C255.692 81.9454 253.969 82.5942 252.506 83.6526C251.043 84.711 249.111 86.2262 246.733 88.323C245.244 89.5778 243.903 90.2966 242.768 90.4704C241.514 90.6624 240.396 90.2561 239.354 89.2605C238.312 88.2649 237.643 86.9556 237.357 85.3951C237.15 84.2715 237.158 83.3077 237.439 82.4947C237.659 81.6907 238.119 80.8502 238.829 80.0356C241.007 77.52 243.684 75.3774 246.81 73.6794C249.936 71.9813 253.225 70.8359 256.628 70.3146C260.271 69.7569 263.621 69.9497 266.787 70.8125C269.964 71.7377 272.505 73.2097 274.552 75.3348C276.599 77.4599 277.856 79.9628 278.394 82.8966C278.806 85.1438 278.766 87.2677 278.273 89.2684C277.781 91.2691 277.063 93.0475 276.121 94.6037C275.179 96.1598 273.935 98.083 272.343 100.445C270.523 102.905 269.183 104.972 268.311 106.581C267.44 108.19 267.081 109.914 267.103 111.708C267.082 112.93 266.764 113.877 266.162 114.611C265.56 115.345 264.722 115.794 263.647 115.959C262.393 116.151 261.298 115.869 260.41 115.043C259.522 114.216 258.946 113.085 258.66 111.525ZM258.757 129.799C258.345 127.552 258.718 125.57 259.817 123.861C260.975 122.144 262.569 121.13 264.778 120.791C266.868 120.471 268.797 120.946 270.445 122.234C272.152 123.512 273.153 125.285 273.565 127.532C273.977 129.779 273.603 131.761 272.505 133.47C271.347 135.187 269.752 136.202 267.663 136.522C265.453 136.86 263.525 136.385 261.877 135.097C260.169 133.819 259.169 132.047 258.757 129.799Z" fill="url(#paint2_linear_8771_448483)"/>
</g>
<path fill-rule="evenodd" clip-rule="evenodd" d="M272 193.5C272 197.642 268.642 201 264.5 201C260.358 201 257 197.642 257 193.5C257 189.358 260.358 186 264.5 186C268.642 186 272 189.358 272 193.5C272 193.5 272 197.642 272 193.5Z" fill="url(#paint3_linear_8771_448483)"/>
<path fill-rule="evenodd" clip-rule="evenodd" d="M161 75C161 77.7614 158.761 80 156 80C153.239 80 151 77.7614 151 75C151 72.2386 153.239 70 156 70C158.761 70 161 72.2386 161 75C161 75 161 77.7614 161 75Z" fill="url(#paint4_linear_8771_448483)"/>
<path fill-rule="evenodd" clip-rule="evenodd" d="M191 167C191 171.971 186.971 176 182 176C177.029 176 173 171.971 173 167C173 162.029 177.029 158 182 158C186.971 158 191 162.029 191 167C191 167 191 171.971 191 167Z" fill="url(#paint5_linear_8771_448483)"/>
<path fill-rule="evenodd" clip-rule="evenodd" d="M235 18.5C235 22.0899 232.09 25 228.5 25C224.91 25 222 22.0899 222 18.5C222 14.9101 224.91 12 228.5 12C232.09 12 235 14.9101 235 18.5C235 18.5 235 22.0899 235 18.5Z" fill="url(#paint6_linear_8771_448483)"/>
<path fill-rule="evenodd" clip-rule="evenodd" d="M334 137C334 140.866 330.866 144 327 144C323.134 144 320 140.866 320 137C320 133.134 323.134 130 327 130C330.866 130 334 133.134 334 137C334 137 334 140.866 334 137Z" fill="url(#paint7_linear_8771_448483)"/>
<defs>
<linearGradient id="paint0_linear_8771_448483" x1="283" y1="39" x2="283" y2="55" gradientUnits="userSpaceOnUse">
<stop stop-color="#D9E0FF"/>
<stop offset="1" stop-color="#D9E0FF" stop-opacity="0.01"/>
</linearGradient>
<linearGradient id="paint1_linear_8771_448483" x1="230" y1="45" x2="230" y2="186.892" gradientUnits="userSpaceOnUse">
<stop stop-color="#89C1FF"/>
<stop offset="1" stop-color="#65ADFD"/>
</linearGradient>
<linearGradient id="paint2_linear_8771_448483" x1="231.917" y1="57.0389" x2="200.244" y2="111.886" gradientUnits="userSpaceOnUse">
<stop stop-color="#DB1F35"/>
<stop offset="0.135417" stop-color="#E12D45"/>
<stop offset="1" stop-color="#F55978"/>
<stop offset="1" stop-color="#FFBBC3"/>
</linearGradient>
<linearGradient id="paint3_linear_8771_448483" x1="257" y1="186" x2="257" y2="201" gradientUnits="userSpaceOnUse">
<stop stop-color="#D9E0FF"/>
<stop offset="1" stop-color="#D9E0FF" stop-opacity="0.01"/>
</linearGradient>
<linearGradient id="paint4_linear_8771_448483" x1="151" y1="70" x2="151" y2="80" gradientUnits="userSpaceOnUse">
<stop stop-color="#D9E0FF"/>
<stop offset="1" stop-color="#D9E0FF" stop-opacity="0.01"/>
</linearGradient>
<linearGradient id="paint5_linear_8771_448483" x1="173" y1="158" x2="173" y2="176" gradientUnits="userSpaceOnUse">
<stop stop-color="#D9E0FF"/>
<stop offset="1" stop-color="#D9E0FF" stop-opacity="0.01"/>
</linearGradient>
<linearGradient id="paint6_linear_8771_448483" x1="222" y1="12" x2="222" y2="25" gradientUnits="userSpaceOnUse">
<stop stop-color="#D9E0FF"/>
<stop offset="1" stop-color="#D9E0FF" stop-opacity="0.01"/>
</linearGradient>
<linearGradient id="paint7_linear_8771_448483" x1="320" y1="130" x2="320" y2="144" gradientUnits="userSpaceOnUse">
<stop stop-color="#D9E0FF"/>
<stop offset="1" stop-color="#D9E0FF" stop-opacity="0.01"/>
</linearGradient>
<clipPath id="clip0_8771_448483">
<rect width="354" height="242" fill="white" transform="translate(0 225)"/>
</clipPath>
</defs>
</svg>
